<svg width="158" height="151" viewBox="0 0 158 151" fill="none" xmlns="http://www.w3.org/2000/svg">
<g clip-path="url(#clip0_508_1472)">
<path d="M130.102 113.527C131.026 112.385 131.732 111.134 132.276 109.829C134.83 103.901 133.852 96.5596 131.623 90.3057C124.449 70.1844 106.892 55.3925 88.2482 44.7881C75.0943 37.3377 60.3097 30.6488 51.9934 17.3252C49.4931 13.3553 47.8625 8.78728 47.9712 4.05606C48.0255 1.11944 48.9496 -1.98034 51.3412 -3.77494C53.2436 -5.18887 55.907 -5.40639 58.2443 -4.91695C60.5815 -4.42751 62.7557 -3.28552 64.8756 -2.08912C73.4637 2.75087 81.6712 8.40661 89.5527 14.3886C96.8363 19.9356 103.631 26.6245 111.893 30.8119C123.959 36.9571 140.375 30.7575 137.385 15.3131C133.417 -5.40641 108.794 -11.2796 91.0746 -14.6513C79.8232 -16.8266 68.2456 -19.5457 57.592 -23.7331C24.1094 -36.7848 -4.20957 -66.5316 3.56319 -103.729C6.444 -117.433 15.1952 -131.736 23.0223 -143.319C32.0452 -156.697 45.5252 -166.486 57.7007 -177.036C71.0177 -188.619 80.8559 -201.018 86.2914 -217.931C90.6942 -231.526 92.7596 -246.644 87.3242 -260.185C85.9653 -263.612 84.0629 -266.929 81.1277 -269.104C78.1382 -271.225 73.8985 -271.986 70.7459 -270.083C65.6365 -267.038 66.2888 -260.512 66.6149 -255.509C66.9954 -249.309 66.9954 -242.729 64.0059 -237.073C63.408 -235.931 62.647 -234.789 61.5056 -234.137C59.0052 -232.668 55.5809 -234.137 53.9502 -236.529C50.091 -242.239 51.2868 -251.919 52.1565 -258.337C53.1349 -265.787 54.9286 -273.237 54.9286 -280.796C54.983 -295.588 50.5802 -310.489 42.1552 -322.725C38.3503 -328.217 30.9037 -333.655 25.5226 -329.577C20.5219 -325.824 22.8048 -318.048 25.1965 -312.283C34.1107 -291.346 39.9266 -268.397 39.3831 -245.502C38.7308 -219.617 27.8599 -194.166 0.138831 -187.586C-10.2973 -185.139 -21.4944 -186.281 -31.2783 -190.577C-55.5206 -201.072 -63.8369 -215.647 -64 -216.68C-61.7171 -185.247 -36.3877 -123.089 -28.1257 -81.1603C-15.5697 -17.2616 -74.4905 87.9129 -60.1952 118.639C-32.4198 35.4888 -0.730847 126.415 21.8808 111.623C47.0471 95.1457 13.2927 54.5768 42.7531 43.4285C51.9934 39.9481 62.3209 46.9634 69.224 53.9786C82.3235 67.3566 89.3353 87.3147 98.7931 103.249C102.707 109.829 107.544 116.844 115.045 118.639C120.481 119.889 126.568 117.823 130.102 113.527Z" fill="#33D7FB"/>
<g style="mix-blend-mode:multiply">
<path d="M-58.6732 -207.87C-52.5855 -193.677 -23.723 -175.948 3.78061 -179.537C27.9142 -182.637 42.6988 -200.094 48.4604 -225.979C53.8959 -221.683 63.571 -197.211 50.2541 -185.628C47.8081 -183.507 45.3078 -181.441 42.8075 -179.32C32.4257 -170.619 21.6634 -161.646 13.6189 -149.682C5.51997 -137.663 -4.20956 -121.838 -7.52521 -106.067C-9.64506 -96.1156 -9.5907 -86.1637 -7.47086 -76.5381C-1.70924 -50.7611 19.0543 -28.0838 48.6234 -15.1409C47.174 -14.5609 45.8332 -13.8176 44.6012 -12.9113C39.6549 -9.26768 36.7741 -3.17691 36.611 3.83835C36.5566 6.33992 36.8284 8.89586 37.372 11.3974C38.296 15.4761 39.981 19.5003 42.3726 23.3614C44.3294 26.5156 46.6123 29.3978 49.0583 31.9538C46.3949 31.7363 43.6771 31.4643 41.1768 32.1713C13.4014 40.0567 25.3595 73.0121 5.08513 77.1995C-16.6025 81.7132 -47.15 50.8243 -51.1722 68.8247C-60.5756 43.9178 -46.6064 -83.6077 -58.6732 -207.87Z" fill="#33D7FB"/>
</g>
<path opacity="0.8" d="M94.5534 2.15264C97.9777 2.96836 100.804 4.32791 103.522 5.74184C106.24 7.15577 108.74 8.73284 111.186 10.4731C113.632 12.1589 116.078 13.8991 118.47 15.8569C120.916 17.7602 123.307 19.718 125.644 22.2196C126.188 22.8178 126.188 23.7422 125.59 24.3404C125.318 24.558 124.938 24.7211 124.557 24.7211C121.133 24.7755 117.817 24.1229 114.665 23.0897C111.512 22.0564 108.523 20.6425 105.696 18.9566C102.924 17.2708 100.261 15.2043 98.0321 12.8115C95.8035 10.3099 93.8467 7.59082 92.7053 4.16477C92.4335 3.34904 92.8684 2.47893 93.6837 2.20702C93.9736 2.09825 94.2453 2.08013 94.499 2.15264H94.5534Z" fill="#BEF2FE"/>
<path opacity="0.8" d="M101.239 77.4716C104.011 79.7013 105.968 82.1485 107.816 84.5957C109.61 87.0429 111.186 89.5444 112.708 92.1547C114.175 94.7651 115.589 97.3754 116.948 100.149C118.306 102.922 119.611 105.75 120.644 108.959V109.013C120.916 109.774 120.481 110.59 119.72 110.862C119.339 110.971 118.959 110.916 118.633 110.808C115.48 109.339 112.817 107.327 110.371 105.043C107.979 102.759 105.914 100.203 104.12 97.4298C102.272 94.7107 100.804 91.7197 99.8258 88.5655C98.8474 85.4114 98.2495 82.0941 98.7387 78.4505C98.793 77.6348 99.6084 77.0366 100.424 77.1454C100.75 77.1816 101.022 77.2904 101.239 77.4716Z" fill="#BEF2FE"/>
<path opacity="0.8" d="M-1.27441 92.9162C0.628018 90.4146 11.0098 91.2847 14.9777 99.7139C18.8913 108.143 18.239 110.373 10.4119 107.382C2.5848 104.336 -4.15522 96.7229 -1.27441 92.9162Z" fill="#BEF2FE"/>
</g>
<defs>
<clipPath id="clip0_508_1472">
<rect width="158" height="151" fill="white"/>
</clipPath>
</defs>
</svg>
