<svg width="309" height="83" viewBox="0 0 309 83" fill="none" xmlns="http://www.w3.org/2000/svg">
<path d="M0.476237 83H171.169C171.296 75.2423 166.724 67.6118 159.739 64.178C152.754 60.7443 143.863 61.8889 137.894 66.7216C135.481 60.6171 129.766 55.7845 123.416 54.3855C116.939 52.8594 109.826 54.8943 105 59.3454C100.555 46.2464 87.7277 36.4539 73.8843 35.818C72.9529 35.7332 72.0639 35.7332 71.2172 35.818C70.2858 35.7332 69.3545 35.7332 68.4232 35.818C54.5798 36.4539 41.7524 46.2464 37.3073 59.3454C32.4811 54.8943 25.4959 53.1138 19.0187 54.3855C2.88927 57.3106 0.22223 75.2423 0.476237 83Z" fill="black"/>
<path d="M178.276 36.3915H308.455C308.582 30.4142 305.025 24.6913 299.691 22.0207C294.357 19.4772 287.626 20.2402 283.054 24.0555C281.149 19.35 276.958 15.6619 272.004 14.5173C267.051 13.4999 261.59 14.8989 258.034 18.3326C254.605 8.41293 244.826 0.90958 234.284 0.400879C233.607 0.400879 232.93 0.400879 232.252 0.400879C231.49 0.400879 230.771 0.400879 230.093 0.400879C219.552 0.90958 209.773 8.41293 206.471 18.3326C202.788 14.8989 197.326 13.6271 192.373 14.5173C180.181 16.8065 178.149 30.4142 178.276 36.3915Z" fill="black"/>
</svg>
