<svg width="67" height="55" viewBox="0 0 67 55" fill="none" xmlns="http://www.w3.org/2000/svg">
<path d="M49.0407 13.4118C49.1034 12.9098 49.135 12.4078 49.135 11.9059C49.135 6.82354 45.0325 2.68234 39.9399 2.68234C37.0163 2.68234 34.3285 4.04705 32.6309 6.25884C30.6504 2.49411 26.6894 0 22.3041 0C15.8911 0 10.7041 5.22354 10.7041 11.6235C10.7041 12.0941 10.7198 12.5647 10.7512 13.0353C10.2482 12.9412 9.72954 12.8941 9.19513 12.8941C4.10244 12.8941 0 17.0353 0 22.1177C0 27.0118 3.81951 31.0118 8.67643 31.2941C8.95936 36.1412 12.9675 39.953 17.8716 39.953C20.9838 39.953 23.8602 38.4 25.5106 35.9059C27.5854 39.3412 31.3577 41.553 35.5073 41.553C41.3073 41.553 46.1171 37.3177 46.9659 31.6706C47.3747 31.7333 47.7991 31.7647 48.239 31.7647C53.3317 31.7647 57.4342 27.6235 57.4342 22.5882C57.4342 17.7412 53.7561 13.7882 49.0407 13.4118Z" fill="#EAE6E6"/>
<path d="M58.0407 26.4118C58.1034 25.9098 58.135 25.4078 58.135 24.9059C58.135 19.8235 54.0325 15.6823 48.9399 15.6823C46.0163 15.6823 43.3285 17.0471 41.6309 19.2588C39.6504 15.4941 35.6894 13 31.3041 13C24.8911 13 19.7041 18.2235 19.7041 24.6235C19.7041 25.0941 19.7198 25.5647 19.7512 26.0353C19.2482 25.9412 18.7295 25.8941 18.1951 25.8941C13.1024 25.8941 9 30.0353 9 35.1177C9 40.0118 12.8195 44.0118 17.6764 44.2941C17.9594 49.1412 21.9675 52.953 26.8716 52.953C29.9838 52.953 32.8602 51.4 34.5106 48.9059C36.5854 52.3412 40.3577 54.553 44.5073 54.553C50.3073 54.553 55.1171 50.3177 55.9659 44.6706C56.3747 44.7333 56.7991 44.7647 57.239 44.7647C62.3317 44.7647 66.4342 40.6235 66.4342 35.5882C66.4342 30.7412 62.7561 26.7882 58.0407 26.4118Z" fill="white"/>
</svg>
