<svg width="111" height="133" viewBox="0 0 111 133" fill="none" xmlns="http://www.w3.org/2000/svg">
<path d="M30.6437 31.9138C28.1842 27.6958 26.0461 23.7368 25.3115 18.8828C24.8987 15.7188 20.4847 16.2158 20.5833 19.3448C20.6684 24.8898 22.0248 31.0218 25.6088 35.4283C28.1239 38.5706 32.5862 35.3428 30.6437 31.9138Z" fill="white"/>
<path d="M51.9454 59.0286C48.3617 56.0542 44.6453 53.1286 41.5365 49.6023C39.6292 47.291 36.1236 49.6385 37.6399 52.3201C40.3299 56.7545 43.4599 60.9513 47.8467 63.8558C51.1369 66.0341 55.075 61.7937 51.9454 59.0286Z" fill="white"/>
<path d="M77.1313 90.1372C80.5259 91.3726 84.1428 86.8738 80.7967 84.3393C75.6204 80.5201 69.5434 77.9374 64.1507 74.3488C62.4183 73.3295 59.7019 75.1601 61.2389 77.0804C65.3399 82.2757 70.6633 87.9247 77.1313 90.1372Z" fill="white"/>
<path d="M101.552 101.181C104.89 102.06 107.32 96.7936 104.484 94.8248C102.472 93.4563 100.174 92.947 97.8689 92.2142C95.7455 91.5652 93.615 90.6926 91.366 90.316C89.2986 90.0232 87.9512 92.7055 89.6069 94.1299C91.3533 95.5962 93.3581 96.7411 95.272 97.8442C97.3257 99.1218 99.2048 100.539 101.552 101.181Z" fill="white"/>
<path d="M34.6479 72.4134C31.3916 65.6254 26.55 59.6481 22.2811 53.3842C20.4995 50.8004 16.8264 53.5112 18.3426 56.1928C21.8084 62.5268 24.8901 69.4545 29.2776 75.2224C31.2827 77.7992 36.2272 75.6747 34.6479 72.4134Z" fill="white"/>
<path d="M61.4113 96.7624C55.9768 93.2645 50.4095 89.8156 46.2247 84.8019C44.5968 82.8397 41.3076 84.9567 42.9006 87.2332C47.1555 93.0501 51.7525 98.3641 58.3395 101.512C61.1545 102.811 64.1077 98.5567 61.4113 96.7624Z" fill="white"/>
<path d="M83.3472 117.012C87.1537 117.116 87.5155 111.556 84.5608 110.083C81.8366 108.827 78.9241 108.695 76.2837 107.256C73.329 105.784 70.451 103.905 68.404 101.42C66.8669 99.4991 64.1995 101.462 65.3803 103.439C69.1603 109.807 75.3781 116.86 83.3472 117.012Z" fill="white"/>
</svg>
