<svg width="113" height="125" viewBox="0 0 113 125" fill="none" xmlns="http://www.w3.org/2000/svg">
<path d="M27.528 36.1607C27.528 44.3858 23.088 50.9807 17.612 50.9807C12.136 50.9807 7.69604 44.3858 7.69604 36.1607C7.69604 27.9356 12.136 21.2666 17.612 21.2666C23.088 21.2666 27.528 27.9356 27.528 36.1607Z" fill="#4F9377"/>
<g style="mix-blend-mode:multiply">
<path d="M17.612 58.9095C21.46 58.9095 25.086 56.3901 27.75 51.87C27.898 51.5736 27.824 51.129 27.454 50.9808C27.158 50.7585 26.788 50.8326 26.566 51.2031C24.198 55.2786 21.016 57.5757 17.612 57.5757C10.656 57.5757 5.032 47.9427 5.032 36.1608C5.032 24.3048 10.656 14.7459 17.612 14.7459C19.2893 14.7459 20.8927 15.2893 22.422 16.3761C22.718 16.5243 23.088 16.4502 23.31 16.1538C23.532 15.8574 23.458 15.4869 23.162 15.2646C21.386 14.0049 19.536 13.4121 17.612 13.4121C9.916 13.4121 3.70001 23.6379 3.70001 36.1608C3.70001 48.6837 9.916 58.9095 17.612 58.9095Z" fill="#1A6C4A"/>
</g>
<g style="mix-blend-mode:multiply">
<path d="M2.95997 21.9336C3.18197 21.9336 3.47796 21.7855 3.55196 21.4891C6.58596 13.1899 11.84 8.22516 17.612 8.22516C20.276 8.22516 22.866 9.33666 25.234 11.4115C25.53 11.6338 25.974 11.6338 26.196 11.3374C26.418 11.041 26.418 10.6705 26.122 10.4482C23.532 8.15106 20.572 6.89136 17.612 6.89136C11.248 6.89136 5.54995 12.2266 2.29395 21.0445C2.21995 21.415 2.36798 21.7854 2.73798 21.9336C2.78731 21.9336 2.8613 21.9336 2.95997 21.9336Z" fill="#1A6C4A"/>
</g>
<g style="mix-blend-mode:multiply">
<path d="M17.612 65.3562C17.9573 65.3562 18.3273 65.3562 18.722 65.3562C19.018 65.2821 19.314 64.9857 19.314 64.6152C19.24 64.2447 18.944 63.9483 18.574 64.0224C18.278 64.0224 17.9573 64.0224 17.612 64.0224C9.61999 64.0224 2.73799 54.3894 1.33199 41.1255C1.33199 40.755 0.961991 40.4586 0.591991 40.5327C0.221991 40.5327 0 40.9032 0 41.2737C1.554 55.2045 8.95399 65.3562 17.612 65.3562Z" fill="#1A6C4A"/>
</g>
<path d="M27.528 36.1607C27.528 44.3858 23.532 50.9807 18.648 50.9807C13.69 50.9807 9.76801 44.3858 9.76801 36.1607C9.76801 27.9356 13.69 21.2666 18.648 21.2666C23.532 21.2666 27.528 27.9356 27.528 36.1607Z" fill="#1A6C4A"/>
<path d="M96.718 37.9393V53.278H83.398V47.7946C83.398 45.7939 81.77 44.2378 79.846 44.2378H76.146C73.852 47.4982 70.078 49.7212 65.786 49.7212C61.494 49.7212 57.72 47.4982 55.5 44.2378H21.016C18.204 44.2378 15.836 40.3846 15.836 35.5681C15.836 30.8257 18.204 26.9725 21.016 26.9725H58.682C60.68 25.5646 63.122 24.7495 65.786 24.7495C68.45 24.7495 70.892 25.5646 72.89 26.9725H85.766C91.834 26.9725 96.718 31.9372 96.718 37.9393Z" fill="#6F6F6F"/>
<path d="M96.718 37.9393V53.278H83.398V47.7946C83.398 45.7939 81.77 44.2378 79.846 44.2378H76.146C73.852 47.4982 70.078 49.7212 65.786 49.7212C61.494 49.7212 57.72 47.4982 55.5 44.2378H21.016C18.204 44.2378 15.836 40.3846 15.836 35.5681C15.836 30.8257 18.204 26.9725 21.016 26.9725H58.682C60.68 25.5646 63.122 24.7495 65.786 24.7495C68.45 24.7495 70.892 25.5646 72.89 26.9725H85.766C91.834 26.9725 96.718 31.9372 96.718 37.9393Z" fill="#4F9377"/>
<path d="M95.608 45.201C95.978 45.201 96.274 44.9046 96.274 44.5341V38.0133C96.274 32.1594 91.242 27.2688 85.026 27.2688H72.52C72.15 27.2688 71.854 27.5652 71.854 27.9357C71.854 28.3062 72.15 28.6026 72.52 28.6026H85.026C90.502 28.6026 94.942 32.8263 94.942 38.0133V44.5341C94.942 44.9046 95.238 45.201 95.608 45.201Z" fill="#35B480"/>
<path d="M58.756 27.9357C60.68 26.676 63.048 25.9351 65.638 25.9351C68.154 25.9351 70.596 26.676 72.52 27.9357" stroke="#888285" stroke-width="1.8" stroke-miterlimit="10"/>
<path d="M21.386 28.6026H58.7561C59.1261 28.6026 59.422 28.3062 59.422 27.9357C59.422 27.5652 59.1261 27.2688 58.7561 27.2688H21.386C21.016 27.2688 20.72 27.5652 20.72 27.9357C20.72 28.3062 21.016 28.6026 21.386 28.6026Z" fill="#35B480"/>
<path d="M96.718 51.7218V53.8707H84.952V53.2779H83.398V47.7945C83.398 45.7938 81.77 44.2377 79.846 44.2377H76.146C73.852 47.4981 70.078 49.7211 65.786 49.7211C61.494 49.7211 57.72 47.4981 55.5 44.2377H21.016C18.204 44.2377 15.836 40.3845 15.836 35.568C15.836 35.2222 15.8606 34.8517 15.91 34.4565C16.28 38.6802 18.426 41.9406 21.016 41.9406H55.5C57.72 45.2751 61.494 47.424 65.786 47.424C70.078 47.424 73.852 45.2751 76.146 41.9406H82.066C83.99 41.9406 85.618 43.4967 85.618 45.4974V51.7218H96.718Z" fill="#1A6C4A"/>
<path d="M74.444 37.1982H58.09C57.054 37.1982 56.166 36.3831 56.166 35.2716V12.3006C56.166 11.2632 57.054 10.374 58.09 10.374H74.444C75.48 10.374 76.368 11.2632 76.368 12.3006V35.2716C76.368 36.3831 75.48 37.1982 74.444 37.1982Z" fill="#4F9377"/>
<path d="M76.368 21.7853H56.166V18.8213H76.368V21.7853Z" fill="#1A6C4A"/>
<path d="M76.59 20.081H55.944C54.538 20.081 53.354 18.8954 53.354 17.4875C53.354 16.0796 54.538 14.894 55.944 14.894H76.59C77.996 14.894 79.18 16.0796 79.18 17.4875C79.18 18.8954 77.996 20.081 76.59 20.081Z" fill="#B1B3B2"/>
<path d="M77.034 17.2652H55.5C54.982 17.2652 54.612 16.8947 54.612 16.376C54.612 15.8573 54.982 15.4868 55.5 15.4868H77.034C77.552 15.4868 77.922 15.8573 77.922 16.376C77.922 16.8947 77.552 17.2652 77.034 17.2652Z" fill="#FEFCFE"/>
<path d="M98.864 58.0203H81.252C79.846 58.0203 78.662 56.8347 78.662 55.4268C78.662 54.0189 79.846 52.8333 81.252 52.8333H98.864C100.27 52.8333 101.454 54.0189 101.454 55.4268C101.454 56.8347 100.27 58.0203 98.864 58.0203Z" fill="#B1B3B2"/>
<path d="M99.234 55.1305H80.882C80.364 55.1305 79.92 54.6859 79.92 54.1672V54.019C79.92 53.5003 80.364 53.0557 80.882 53.0557H99.234C99.752 53.0557 100.196 53.5003 100.196 54.019V54.1672C100.196 54.6859 99.752 55.1305 99.234 55.1305Z" fill="#FEFCFE"/>
<path d="M69.116 11.4855H63.418V1.70435H69.116V11.4855Z" fill="#1A6C4A"/>
<path d="M80.068 0.66697L69.264 1.70437C69.1653 1.70437 69.0913 1.70437 69.042 1.70437H63.492C63.4427 1.70437 63.3687 1.70437 63.27 1.70437L52.762 0.66697C51.43 0.51877 50.32 1.55617 50.32 2.88997C50.32 4.07557 51.282 5.03887 52.54 5.03887H80.29C81.474 5.03887 82.51 4.07557 82.51 2.88997V2.81587C82.51 1.55617 81.4 0.51877 80.068 0.66697Z" fill="white"/>
<path d="M70.078 3.7791C70.078 5.8539 68.376 7.5582 66.23 7.5582C64.158 7.5582 62.456 5.8539 62.456 3.7791C62.456 1.7043 64.158 0 66.23 0C68.376 0 70.078 1.7043 70.078 3.7791Z" fill="#4F9377"/>
<path d="M63.196 4.0756C63.344 4.0756 63.492 3.92741 63.492 3.77921C63.492 2.22311 64.75 1.03751 66.23 1.03751C67.784 1.03751 69.042 2.22311 69.042 3.77921C69.042 3.92741 69.19 4.0756 69.264 4.0756C69.412 4.0756 69.56 3.92741 69.56 3.77921C69.56 2.00081 68.08 0.518799 66.23 0.518799C64.454 0.518799 62.974 2.00081 62.974 3.77921C62.974 3.92741 63.122 4.0756 63.196 4.0756Z" fill="#3EB282"/>
<path d="M72.15 87.5863C77.182 81.1396 82.584 76.3972 86.654 67.4311C87.542 65.5045 88.652 59.947 89.984 59.947C90.946 59.6506 91.39 61.5031 91.76 62.6146C94.72 70.6915 101.972 80.1763 107.596 87.1417C110.778 90.9949 112.628 96.0337 112.628 101.443C112.628 113.966 102.564 124.043 90.058 124.043C77.552 124.043 67.488 113.966 67.488 101.443C67.488 96.256 69.19 91.4395 72.15 87.5863Z" fill="#57C3FF"/>
<g style="mix-blend-mode:multiply">
<path d="M74.2961 90.2539C78.9581 84.2518 83.916 79.88 87.69 71.5067C88.43 69.7283 89.466 64.5412 90.65 64.5412C91.538 64.3189 91.982 66.0232 92.352 67.1347C95.09 74.5447 101.75 83.3626 106.93 89.8093C109.816 93.4402 111.592 98.0344 111.592 103.073C111.592 114.633 102.268 124.044 90.7981 124.044C79.2541 124.044 70.004 114.633 70.004 103.073C70.004 98.2567 71.6321 93.8107 74.2961 90.2539Z" fill="#33D7FB"/>
</g>
<g style="mix-blend-mode:multiply">
<path d="M108.78 103.666C108.78 113.743 100.714 121.894 90.798 121.894C80.808 121.894 72.742 113.743 72.742 103.666C72.742 99.5163 74.148 95.6631 76.516 92.5509C77.774 90.9207 79.106 89.4387 80.438 87.8826C79.476 88.9941 78.958 90.4761 78.588 91.8099C77.108 97.4415 76.59 104.851 79.994 109.816C87.912 121.302 101.084 113.892 102.416 112.854C105.376 110.631 108.336 107.371 108.78 103.666Z" fill="#57C0E8"/>
</g>
<path opacity="0.8" d="M107.374 101.591C107.596 98.7014 106.708 95.8115 105.376 93.2921C104.044 90.6986 102.194 88.4756 100.418 86.1785C98.05 82.9922 97.384 82.103 95.238 78.8426C94.128 77.1383 92.13 72.5441 91.02 69.2837C90.058 70.6916 90.724 77.4347 90.798 78.6203C91.094 86.4008 93.166 102.629 99.456 105.222C100.788 105.741 103.082 105.741 104.414 105.148C105.82 104.629 107.226 103.073 107.374 101.591Z" fill="#BEF2FE"/>
</svg>
