<svg width="46" height="53" viewBox="0 0 46 53" fill="none" xmlns="http://www.w3.org/2000/svg">
<path d="M7.58819 31.2C9.08819 31.3 10.8882 30.7 11.9882 30.1C14.7882 28.7 15.4882 25.3 14.9882 22.5C14.3882 19 12.6882 15.9 11.0882 12.8C10.1882 11 9.28822 9.19999 8.48822 7.29999C8.18822 6.59999 7.68819 5.8 7.58819 5C7.38819 5.8 6.98819 6.59999 6.58819 7.29999C5.78819 9.19999 4.98822 11 3.98822 12.8C2.48822 15.9 0.788201 19 0.188201 22.5C-0.411799 25.3 0.388194 28.7 3.08819 30.1C4.18819 30.7 6.18819 31.3 7.58819 31.2Z" fill="white"/>
<path d="M37.5882 26.2C39.0882 26.3 40.8882 25.6 41.9882 25.1C44.7882 23.6 45.4882 20.2 44.9882 17.4C44.3882 14 42.6882 10.8 41.0882 7.79999C40.1882 5.99999 39.2882 4.19999 38.4882 2.29999C38.1882 1.59999 37.6882 0.8 37.5882 0C37.3882 0.8 36.9882 1.59999 36.5882 2.29999C35.7882 4.19999 34.9882 5.99999 33.9882 7.79999C32.4882 10.8 30.7882 14 30.1882 17.4C29.5882 20.2 30.3882 23.6 33.0882 25.1C34.2882 25.6 36.2882 26.3 37.5882 26.2Z" fill="white"/>
<path d="M22.5882 52.7C24.0882 52.8 25.8882 52.2 26.9882 51.6C29.6882 50.2 30.4882 46.8 29.9882 43.9C29.3882 40.5 27.6882 37.4 26.0882 34.3C25.0882 32.5 24.2882 30.7 23.4882 28.8C23.0882 28.1 22.6882 27.3 22.5882 26.5C22.3882 27.3 21.9882 28.1 21.5882 28.8C20.7882 30.7 19.9882 32.5 18.9882 34.3C17.3882 37.4 15.6882 40.5 15.1882 43.9C14.5882 46.8 15.3882 50.2 18.0882 51.6C19.1882 52.2 21.1882 52.8 22.5882 52.7Z" fill="white"/>
</svg>
