<svg width="153" height="161" viewBox="0 0 153 161" fill="none" xmlns="http://www.w3.org/2000/svg">
<g clip-path="url(#clip0_510_1579)">
<path d="M37.9696 28.4281C39.1267 27.4865 40.3941 26.7665 41.7165 26.2126C47.7227 23.6094 55.1615 24.6064 61.4982 26.8773C81.886 34.1883 96.8738 52.0783 107.619 71.0761C115.168 84.4797 121.945 99.545 135.445 108.019C139.468 110.567 144.096 112.229 148.89 112.118C151.866 112.062 155.007 111.121 156.825 108.684C158.258 106.745 158.478 104.031 157.982 101.65C157.486 99.2681 156.329 97.0526 155.117 94.8925C150.213 86.1414 144.482 77.7779 138.421 69.7468C132.8 62.3249 126.023 55.4016 121.78 46.9827C115.553 34.6868 121.835 17.96 137.484 21.0062C158.478 25.0495 164.429 50.1398 167.845 68.196C170.049 79.6611 172.805 91.4585 177.047 102.314C190.272 136.433 220.413 165.289 258.103 157.369C271.988 154.434 286.48 145.516 298.217 137.54C311.772 128.346 321.691 114.61 332.38 102.204C344.117 88.6338 356.68 78.6087 373.817 73.07C387.593 68.5837 402.911 66.479 416.632 72.0177C420.103 73.4024 423.464 75.3409 425.668 78.3318C427.817 81.3781 428.589 85.6983 426.66 88.9107C423.575 94.1171 416.962 93.4524 411.893 93.1201C405.611 92.7324 398.944 92.7324 393.213 95.7787C392.056 96.388 390.899 97.1634 390.238 98.3265C388.75 100.874 390.238 104.364 392.662 106.025C398.448 109.958 408.256 108.739 414.758 107.853C422.307 106.856 429.856 105.028 437.515 105.028C452.503 104.973 467.601 109.459 479.999 118.044C485.564 121.921 491.075 129.509 486.942 134.993C483.14 140.088 475.26 137.762 469.42 135.325C448.205 126.242 424.952 120.315 401.754 120.869C375.525 121.534 349.738 132.611 343.07 160.858C340.591 171.493 341.748 182.902 346.101 192.872C356.736 217.575 371.503 226.049 372.55 226.215C340.701 223.889 277.719 198.078 235.235 189.66C170.49 176.865 63.9227 236.905 32.79 222.338C117.041 194.035 24.9104 161.745 39.8982 138.704C56.5941 113.059 97.7003 147.455 108.996 117.435C112.523 108.019 105.415 97.4957 98.3064 90.4615C84.7513 77.1133 64.5288 69.9683 48.3839 60.331C41.7165 56.3431 34.6083 51.4137 32.79 43.7703C31.5226 38.2316 33.6165 32.0282 37.9696 28.4281Z" fill="#33D7FB"/>
<g style="mix-blend-mode:multiply">
<path d="M363.623 220.787C349.242 214.584 331.278 185.173 334.915 157.147C338.056 132.556 355.744 117.49 381.972 111.619C377.619 106.081 352.823 96.2218 341.087 109.792C338.938 112.284 336.844 114.832 334.695 117.38C325.878 127.958 316.787 138.925 304.664 147.122C292.487 155.375 276.452 165.289 260.472 168.668C250.388 170.828 240.305 170.773 230.552 168.613C204.433 162.742 181.456 141.584 168.341 111.453C167.754 112.93 167.001 114.296 166.082 115.552C162.39 120.592 156.219 123.528 149.111 123.694C146.576 123.749 143.986 123.472 141.452 122.918C137.319 121.977 133.241 120.26 129.329 117.823C126.133 115.829 123.213 113.502 120.623 111.01C120.843 113.724 121.119 116.493 120.402 119.041C112.413 147.344 79.0207 135.159 74.7779 155.818C70.2044 177.918 101.502 209.045 83.2636 213.144C108.5 222.726 237.715 208.491 363.623 220.787Z" fill="#33D7FB"/>
</g>
<path opacity="0.8" d="M150.819 64.6511C149.992 61.1617 148.615 58.2816 147.182 55.5123C145.749 52.7429 144.151 50.1951 142.388 47.7027C140.68 45.2103 138.917 42.7179 136.933 40.2808C135.004 37.7884 133.021 35.3514 130.486 32.9698C129.88 32.4159 128.943 32.4159 128.337 33.0251C128.117 33.3021 127.951 33.6898 127.951 34.0775C127.896 37.5669 128.558 40.9455 129.604 44.1579C130.651 47.3704 132.084 50.4167 133.792 53.2968C135.5 56.1215 137.594 58.8355 140.019 61.1064C142.553 63.3772 145.309 65.3712 148.78 66.5343C149.607 66.8112 150.488 66.3681 150.764 65.5373C150.874 65.2419 150.892 64.965 150.819 64.7065L150.819 64.6511Z" fill="#BEF2FE"/>
<path opacity="0.8" d="M74.5022 57.8387C72.243 55.0139 69.7634 53.02 67.2838 51.1368C64.8043 49.3091 62.2696 47.7028 59.6247 46.152C56.9797 44.6566 54.3348 43.2165 51.5246 41.8318C48.7144 40.4471 45.8491 39.1179 42.5981 38.0655L42.543 38.0655C41.7716 37.7886 40.945 38.2317 40.6695 39.0071C40.5593 39.3948 40.6144 39.7825 40.7246 40.1148C42.2124 43.3273 44.2511 46.0412 46.5654 48.5337C48.8797 50.9707 51.4695 53.0754 54.2797 54.9032C57.0348 56.7863 60.0655 58.2818 63.2614 59.2787C66.4573 60.2757 69.8186 60.8849 73.5104 60.3865C74.3369 60.3311 74.943 59.5003 74.8328 58.6695C74.7961 58.3372 74.6859 58.0602 74.5022 57.8387Z" fill="#BEF2FE"/>
<path opacity="0.8" d="M58.8533 162.298C61.388 160.36 60.5063 149.781 51.9655 145.738C43.4247 141.75 41.1655 142.415 44.1961 150.39C47.2818 158.366 54.9961 165.234 58.8533 162.298Z" fill="#BEF2FE"/>
</g>
<defs>
<clipPath id="clip0_510_1579">
<rect width="161" height="153" fill="white" transform="matrix(1.19249e-08 -1 -1 -1.19249e-08 153 161)"/>
</clipPath>
</defs>
</svg>
