<svg width="133" height="111" viewBox="0 0 133 111" fill="none" xmlns="http://www.w3.org/2000/svg">
<g clip-path="url(#clip0_488_78)">
<path d="M101.086 30.6437C105.304 28.1842 109.263 26.0461 114.117 25.3115C117.281 24.8987 116.784 20.4847 113.655 20.5833C108.11 20.6684 101.978 22.0248 97.5717 25.6088C94.4294 28.1239 97.6572 32.5862 101.086 30.6437Z" fill="white"/>
<path d="M73.9714 51.9454C76.9458 48.3617 79.8714 44.6453 83.3977 41.5365C85.709 39.6292 83.3615 36.1236 80.6799 37.6399C76.2455 40.3299 72.0487 43.4599 69.1442 47.8467C66.9659 51.1369 71.2063 55.075 73.9714 51.9454Z" fill="white"/>
<path d="M42.8628 77.1313C41.6274 80.5259 46.1262 84.1428 48.6607 80.7967C52.4799 75.6204 55.0626 69.5434 58.6512 64.1507C59.6705 62.4183 57.8399 59.7019 55.9196 61.2389C50.7243 65.3399 45.0753 70.6633 42.8628 77.1313Z" fill="white"/>
<path d="M31.8188 101.552C30.9396 104.89 36.2064 107.32 38.1752 104.484C39.5437 102.472 40.053 100.174 40.7858 97.8689C41.4348 95.7455 42.3074 93.615 42.684 91.366C42.9768 89.2986 40.2945 87.9512 38.8701 89.6069C37.4038 91.3533 36.2589 93.3581 35.1558 95.272C33.8782 97.3257 32.4608 99.2048 31.8188 101.552Z" fill="white"/>
<path d="M60.5866 34.6479C67.3746 31.3916 73.3519 26.55 79.6158 22.2811C82.1996 20.4995 79.4888 16.8264 76.8072 18.3426C70.4732 21.8084 63.5455 24.8901 57.7776 29.2776C55.2008 31.2827 57.3253 36.2272 60.5866 34.6479Z" fill="white"/>
<path d="M36.2376 61.4113C39.7355 55.9768 43.1844 50.4095 48.1981 46.2247C50.1603 44.5968 48.0433 41.3076 45.7668 42.9006C39.9499 47.1555 34.6359 51.7525 31.4876 58.3395C30.1892 61.1545 34.4433 64.1077 36.2376 61.4113Z" fill="white"/>
<path d="M15.9883 83.3472C15.8844 87.1537 21.4439 87.5155 22.9169 84.5608C24.1734 81.8366 24.3054 78.9241 25.7436 76.2837C27.2165 73.329 29.0946 70.451 31.5805 68.404C33.5009 66.8669 31.5376 64.1995 29.5614 65.3803C23.1926 69.1603 16.14 75.3781 15.9883 83.3472Z" fill="white"/>
</g>
<defs>
<clipPath id="clip0_488_78">
<rect width="111" height="133" fill="white" transform="matrix(0 -1 1 0 0 111)"/>
</clipPath>
</defs>
</svg>
