<svg width="265" height="244" viewBox="0 0 265 244" fill="none" xmlns="http://www.w3.org/2000/svg">
<path d="M188.996 57.1989C188.929 55.9983 187.461 55.5314 186.794 56.5319C183.924 60.9341 182.79 65.7365 179.386 69.8719C176.05 73.8072 171.912 76.4752 167.441 78.9431C160.434 82.9451 156.363 87.2806 153.227 94.6843C152.893 95.5514 154.361 96.1517 154.762 95.2846C159.567 84.9461 169.443 83.0118 177.651 76.5419C183.057 72.2731 189.463 64.4692 188.996 57.1989Z" fill="white"/>
<path d="M156.564 19.38C156.097 16.9121 152.693 17.7792 152.493 19.9803C151.358 32.6533 148.823 42.058 139.947 51.7295C133.874 58.3328 134.275 67.0705 134.542 75.6081C134.542 76.6753 136.277 76.6753 136.21 75.6081C135.676 67.6041 136.477 61.401 142.416 55.4647C145.419 52.3965 148.355 49.395 150.624 45.7265C155.362 38.2561 158.232 28.1844 156.564 19.38Z" fill="white"/>
<path d="M97.7716 32.72C105.379 38.5896 109.517 47.4607 108.983 56.9988C108.516 65.6698 110.851 70.3388 115.456 77.7425C115.99 78.6763 117.525 77.7425 116.857 76.8754C112.319 70.6056 110.851 65.2029 111.786 57.399C112.119 54.1307 112.453 50.9291 111.919 47.6608C110.718 40.1904 106.647 33.5204 100.775 28.8514C97.9718 26.6503 94.9688 30.5189 97.7716 32.72Z" fill="white"/>
<path d="M94.2347 121.698C86.0265 121.898 80.0872 124.432 74.8153 130.969C71.9458 134.571 69.8103 139.04 66.4736 142.308C62.136 146.577 56.9308 145.91 51.9258 148.645C50.6578 149.312 50.7913 151.713 52.3929 151.98C74.6151 155.381 74.148 125.433 94.2347 123.365C95.3024 123.232 95.3024 121.631 94.2347 121.698Z" fill="white"/>
<path d="M115.99 139.173C109.05 145.176 104.178 151.246 102.443 160.451C101.375 166.053 101.375 171.723 98.1052 176.659C94.7018 181.728 88.9628 183.662 84.8253 187.798C83.4239 189.132 84.8253 191.599 86.6939 191.066C94.5017 188.798 102.109 181.394 103.911 173.39C105.112 168.054 104.445 162.451 105.713 157.115C107.314 150.579 111.252 144.109 116.991 140.507C117.992 139.84 116.924 138.373 115.99 139.173Z" fill="white"/>
<path d="M139.413 150.446C139.68 149.445 138.012 148.978 137.812 150.045C136.277 156.715 137.878 163.185 139.079 169.789C139.88 174.524 140.681 179.06 139.346 183.796C138.212 187.731 135.676 191.066 134.341 195.001C133.407 197.669 137.211 199.803 139.079 197.736C143.818 192.533 146.353 185.13 145.352 178.126C143.951 168.521 136.744 160.584 139.413 150.446Z" fill="white"/>
<path d="M209.683 128.568C205.88 123.832 199.54 121.698 193.601 122.165C191.065 122.365 188.929 123.165 186.594 124.099C181.388 126.233 170.978 129.568 166.173 124.699C165.372 123.966 164.238 125.099 164.972 125.9C168.642 129.902 176.25 129.702 181.188 129.368C184.725 129.101 188.129 127.634 191.665 127.434C197.204 127.167 201.275 129.568 205.412 132.77C208.482 135.171 212.153 131.636 209.683 128.568Z" fill="white"/>
<path d="M52.1927 54.4642C56.5304 57.2656 61.3352 59.4 65.6061 62.4015C70.5444 65.9366 74.6818 70.1387 79.153 74.2741C81.9558 76.8754 84.8253 79.0765 88.4956 80.4772C94.3014 82.6783 100.374 82.6116 105.446 86.6803C106.38 87.414 107.448 86.08 106.447 85.3463C102.176 82.2114 97.1042 81.2109 92.2994 78.9431C86.9608 76.4752 83.4239 72.1397 79.5534 67.9376C72.88 60.6673 63.4706 53.1969 53.861 50.4622C51.4586 49.7952 50.1907 53.1302 52.1927 54.4642Z" fill="white"/>
<path d="M191.398 101.421C188.195 86.9471 182.189 72.4065 168.843 64.6026C164.105 61.8679 158.966 60.067 153.694 58.9331C146.353 56.2651 139.28 55.1312 132.139 55.7982C108.582 56.8654 86.4269 71.6728 77.3512 93.7505C67.9418 116.762 74.6819 144.176 92.5664 161.251C110.518 178.326 137.812 181.128 159.9 170.922C186.927 158.383 197.605 129.502 191.398 101.421Z" fill="#D7D7D7"/>
<path d="M115.322 76.9421C116.057 77.5424 117.058 77.0755 117.124 76.1417C117.258 75.2746 116.991 74.2074 116.791 73.2736C116.59 72.3398 116.19 71.3393 115.723 70.4722C114.655 68.738 112.119 69.9386 112.52 71.8062C112.72 72.8067 113.187 73.7405 113.654 74.6076C114.121 75.408 114.655 76.3418 115.322 76.9421Z" fill="#585858"/>
<path d="M132.873 76.1417C133.407 76.5419 134.341 76.8087 134.942 76.4085C136.077 75.6081 136.077 74.741 136.277 73.5404C136.41 73.0068 136.544 72.4732 136.61 71.9396C136.811 71.1392 136.811 70.4722 136.677 69.6051C136.477 68.4712 135.142 67.6041 134.008 67.6041C132.807 67.6041 131.672 68.4712 131.338 69.6051C130.871 71.1392 131.405 72.8067 131.872 74.2741C132.073 75.0078 132.273 75.6748 132.873 76.1417Z" fill="#585858"/>
<path d="M165.106 80.744C166.373 79.4767 166.24 77.409 164.839 76.3418C163.37 75.2079 161.502 75.7415 160.501 77.1422C159.834 78.1427 159.033 79.1432 158.766 80.3438C158.566 81.0775 158.432 81.7445 158.699 82.4115C158.899 82.9451 159.3 83.4787 159.834 83.6121C160.901 83.7455 161.836 83.4787 162.77 82.9451C163.704 82.4115 164.371 81.4777 165.106 80.744Z" fill="#585858"/>
<path d="M171.112 115.028C170.377 114.894 169.31 114.761 168.509 115.095C168.286 115.095 168.064 115.072 167.842 115.028C167.108 115.028 166.507 116.028 166.974 116.629C167.152 116.895 167.33 117.14 167.508 117.362C167.419 117.096 167.352 116.851 167.308 116.629C167.575 119.163 171.445 120.697 173.581 119.363C174.648 118.63 174.782 117.296 173.914 116.362C173.247 115.561 172.113 115.228 171.112 115.028Z" fill="#585858"/>
<path d="M181.789 105.223C181.589 104.489 181.255 103.889 180.654 103.489C180.187 103.222 179.587 102.955 179.053 102.888C178.119 102.755 176.784 103.155 176.117 103.889C175.649 104.489 175.583 105.29 176.117 105.823C176.383 106.09 176.65 106.223 176.917 106.424C176.984 106.424 176.984 106.424 176.984 106.424C176.917 106.424 176.917 106.424 177.051 106.49C177.318 106.757 177.585 106.957 177.918 107.091C178.252 107.224 178.652 107.357 178.986 107.424C179.52 107.557 180.054 107.424 180.588 107.357C181.455 107.157 182.056 106.023 181.789 105.223Z" fill="#585858"/>
<path d="M165.773 146.977C165.372 146.644 165.039 146.31 164.638 146.043C163.971 145.71 162.703 145.777 162.303 146.51C161.836 147.311 161.836 148.044 162.369 148.845C162.636 149.245 162.903 149.712 163.237 150.045C163.571 150.445 164.038 150.846 164.572 151.046C165.372 151.379 166.373 151.112 166.774 150.379C167.508 149.111 166.64 147.777 165.773 146.977Z" fill="#585858"/>
<path d="M133.741 124.099C133.541 123.432 133.474 122.765 133.14 122.231C132.807 121.698 132.273 121.364 131.806 120.964C130.938 120.297 129.403 120.431 129.136 121.698C129.003 122.365 128.803 123.032 128.869 123.699C129.003 124.433 129.403 125.1 129.67 125.767C130.137 126.767 131.539 127.101 132.473 126.7C133.474 126.233 134.008 125.166 133.741 124.099Z" fill="#585858"/>
<path d="M140.948 100.687C139.814 100.354 139.146 100.954 138.279 101.488C137.478 102.021 136.877 102.555 136.544 103.489C136.41 104.022 136.811 104.556 137.278 104.756C138.212 105.089 138.946 104.889 139.814 104.556C140.125 104.467 140.436 104.356 140.748 104.222C141.482 103.956 141.882 103.489 142.149 102.822C142.483 101.955 141.749 100.887 140.948 100.687Z" fill="#585858"/>
<path d="M109.383 104.289C107.848 103.622 106.38 103.289 104.845 104.156C103.778 104.823 103.244 106.023 103.377 107.291C103.577 108.558 104.445 109.425 105.579 109.825C106.447 110.159 107.448 110.092 108.249 109.759C108.56 109.625 108.849 109.492 109.116 109.358C108.716 109.558 109.116 109.358 109.316 109.292C110.518 108.825 111.652 107.958 111.385 106.49C111.185 105.423 110.251 104.756 109.383 104.289Z" fill="#585858"/>
<path d="M94.7019 119.83C94.5239 119.919 94.3237 119.986 94.1013 120.03C93.4339 119.897 92.7666 120.097 92.0325 120.164C91.4319 120.23 90.8313 120.164 90.2307 120.497C89.6969 120.831 89.3632 121.364 88.9628 121.898C88.4957 122.632 88.7626 123.966 89.6301 124.366C90.3642 124.699 90.9648 124.966 91.7656 124.833C92.4997 124.766 93.0335 124.299 93.6341 123.899C94.0345 123.565 94.5684 123.232 94.9021 122.832C95.169 122.565 95.2357 122.298 95.3692 122.031C95.3025 122.098 95.7029 121.698 95.7696 121.631C96.5037 120.897 95.7696 119.497 94.7019 119.83Z" fill="#585858"/>
<path d="M90.164 112.493C90.253 112.449 90.3642 112.404 90.4977 112.36C91.6989 112.16 91.4319 110.225 90.2307 110.292C90.0528 110.292 89.8748 110.292 89.6969 110.292C88.7626 109.892 87.7616 109.959 86.7606 110.159C85.2257 110.426 83.6909 112.293 84.2247 113.961C84.4917 114.894 85.2925 115.495 86.2267 115.495C86.8941 115.495 87.6949 115.095 88.2287 114.761C88.7626 114.428 89.2297 113.627 89.4299 113.36C89.6301 113.027 89.8971 112.76 90.164 112.493Z" fill="#585858"/>
<path d="M118.859 138.773C117.591 137.906 115.589 138.773 114.722 139.774C114.121 140.374 113.454 141.107 113.254 141.975C112.92 143.042 113.254 143.909 113.721 144.843C114.188 145.843 115.456 145.977 116.39 145.576C116.435 145.532 116.501 145.487 116.59 145.443C116.724 145.376 116.857 145.31 117.124 145.243C117.525 144.976 117.992 144.509 118.259 144.042C118.348 143.776 118.459 143.509 118.592 143.242C118.726 142.975 118.859 142.708 118.993 142.442C119.26 141.908 119.393 141.508 119.393 140.974C119.393 140.841 119.415 140.707 119.46 140.574C119.415 140.841 119.415 140.73 119.46 140.24C119.46 139.707 119.326 139.107 118.859 138.773Z" fill="#585858"/>
<path d="M137.278 158.516C136.544 157.716 135.276 158.583 135.543 159.583C135.876 160.851 135.943 162.251 136.01 163.585C136.077 164.786 137.011 165.653 138.212 165.52C139.413 165.386 140.147 164.252 139.88 163.119C139.413 161.318 138.479 159.917 137.278 158.516Z" fill="#585858"/>
<path d="M136.41 144.643C136.744 143.442 136.677 142.441 136.077 141.374C135.609 140.44 134.875 139.507 133.808 139.573C133.207 139.573 132.873 139.907 132.673 140.441C132.406 141.108 132.673 141.641 132.74 142.241C132.807 142.575 132.74 142.908 132.807 143.309C132.873 143.509 133.007 143.976 133.007 144.176C133.074 145.043 133.607 145.777 134.475 145.843C135.342 145.977 136.21 145.443 136.41 144.643Z" fill="#585858"/>
<path d="M103.244 147.244C102.443 147.711 101.776 148.178 101.175 148.845C100.441 149.645 99.9738 150.446 99.7068 151.446C99.4399 152.58 100.107 153.781 101.175 154.047C102.309 154.381 103.511 153.714 103.778 152.58C104.178 151.179 104.311 149.845 104.779 148.511C105.179 147.577 103.978 146.844 103.244 147.244Z" fill="#585858"/>
<g style="mix-blend-mode:soft-light" opacity="0.7">
<path d="M134.208 131.103C113.187 113.36 109.25 84.6126 115.056 58.9998C98.3722 64.6693 84.158 77.1422 77.3512 93.7505C67.9418 116.762 74.6819 144.176 92.5664 161.251C110.518 178.326 137.812 181.128 159.9 170.922C172.046 165.32 180.855 156.382 186.327 145.71C167.775 146.11 149.49 143.976 134.208 131.103Z" fill="#454545"/>
</g>
<path d="M145.82 89.6818C145.686 78.3428 151.292 70.2721 158.499 63.2019C174.648 51.5961 197.138 44.4592 205.88 25.7165C208.349 20.5806 211.085 10.2421 204.945 6.3735C201.208 4.039 198.739 5.9733 197.071 8.8414C196.403 8.9748 195.803 9.375 195.536 10.1754C189.196 28.3178 177.852 41.391 163.17 53.3303C152.359 62.068 140.014 74.6743 144.151 89.9486C144.418 90.8157 145.82 90.6823 145.82 89.6818Z" fill="white"/>
<path d="M182.79 91.4827C172.179 95.1512 159.366 95.3513 154.295 107.091C153.828 108.024 155.096 108.825 155.696 107.891C161.902 99.0198 173.447 97.8859 183.657 94.6843C183.924 94.8844 184.258 94.9511 184.592 94.8844C199.673 92.8834 216.29 83.2119 221.428 68.2044C222.63 64.736 224.765 56.9988 220.761 54.3308C217.091 51.9963 214.421 55.398 212.953 58.4662C204.411 71.2726 198.606 86.0133 182.79 91.4827Z" fill="white"/>
<path d="M113.921 3.1719C105.78 12.3765 118.793 23.6488 122.863 31.1859C125.066 35.3213 126.467 39.7902 126.333 44.4592C125.844 46.6381 125.377 48.8169 124.932 50.9958C124.865 51.2626 124.932 51.4627 124.932 51.6628C124.198 53.9973 123.264 56.3318 122.596 58.733C121.328 63.7355 121.262 68.4712 123.864 73.0735C124.398 74.0073 125.8 73.1402 125.332 72.2064C121.862 65.2696 125.199 58.5329 127.468 51.7295C127.468 51.7295 127.49 51.7073 127.535 51.6628C131.939 39.2566 136.744 22.3815 131.806 9.375C129.27 2.6383 119.927 -3.5648 113.921 3.1719Z" fill="white"/>
<path d="M66.0733 43.392C66.4292 43.6588 66.7629 43.9256 67.0743 44.1924C80.7546 54.6643 102.309 63.6688 106.981 82.078C107.181 83.0785 108.849 82.6783 108.582 81.6111C105.246 68.3378 97.3045 60.0003 86.9608 52.3965C86.9608 52.2631 86.8273 52.063 86.6939 51.9296C79.8203 46.6603 73.4807 41.1909 68.9428 33.6538C64.2715 26.05 63.2037 17.7792 60.0005 9.6418C58.6659 6.1734 55.5961 0.103693 50.7913 1.83789C49.5234 2.30479 48.7226 3.0385 48.2555 3.9723C43.7176 9.5084 45.9198 18.1127 48.8561 24.1824C52.6599 32.053 58.8661 38.5896 66.0733 43.392Z" fill="white"/>
<path d="M117.324 119.764C102.777 125.166 95.0355 136.905 88.0285 149.578C87.9618 149.645 87.8951 149.712 87.8283 149.845C87.6504 150.201 87.4502 150.579 87.2277 150.979C85.6929 153.714 84.2247 156.582 82.6899 159.317C77.2177 169.188 70.8113 178.193 61.6689 184.929C53.2605 191.133 44.1847 193.867 34.3082 196.869C34.1303 196.913 33.9745 196.98 33.8411 197.069C30.1707 197.336 29.5701 203.139 32.7733 205.74C38.9795 210.809 49.7903 205.006 55.0623 201.404C66.0065 193.801 74.5484 182.528 81.2217 170.456C92.2327 153.38 98.5057 130.902 117.925 121.298C118.793 120.897 118.192 119.43 117.324 119.764Z" fill="white"/>
<path d="M173.781 225.416C169.443 217.479 164.839 210.009 162.57 201.138C160.301 192.066 160.835 182.662 160.701 173.39C160.701 172.99 160.634 172.723 160.434 172.523C160.034 166.72 158.966 160.984 156.764 155.581C153.494 147.577 148.489 142.842 142.149 137.372C141.215 136.572 140.081 138.106 141.148 138.706C151.358 144.776 155.563 159.717 156.63 170.856C157.765 183.129 155.496 195.468 154.095 207.674C153.094 216.745 152.159 226.95 157.565 234.954C159.5 237.823 162.103 240.357 165.172 241.958C165.35 242.091 165.528 242.225 165.706 242.358C166.974 243.292 168.375 243.692 169.977 243.892C172.313 244.159 175.049 243.959 176.984 242.425C179.72 240.424 179.386 237.356 178.052 234.421C177.184 231.086 175.049 227.684 173.781 225.416Z" fill="white"/>
<path d="M196.403 165.72C189.263 159.65 182.857 152.713 177.451 145.043C177.273 144.865 177.095 144.709 176.917 144.576C175.382 142.442 173.781 140.307 172.046 138.306C163.904 128.768 153.094 121.098 140.881 117.763C139.814 117.496 139.413 119.097 140.414 119.43C159.166 124.633 170.244 140.774 179.653 156.649C186.66 168.588 193.534 182.595 206.48 189.132C209.483 190.666 214.889 192.733 217.158 188.998C219.226 185.663 216.223 180.794 213.954 178.393C209.083 173.257 201.876 170.255 196.403 165.72Z" fill="white"/>
<path d="M125.332 146.377C117.658 159.85 111.118 172.857 109.517 188.531C108.315 200.137 109.517 216.078 120.795 222.615C121.729 223.215 123.13 222.882 123.664 221.881C128.135 213.811 122.863 205.273 120.528 197.336C117.391 186.864 117.792 177.326 119.66 167.387C121.796 160.451 124.265 153.58 126.867 146.977C127.201 146.11 125.8 145.576 125.332 146.377Z" fill="white"/>
<path d="M57.9985 117.095C69.143 108.024 81.155 100.821 96.7706 105.29C97.7049 105.556 98.3055 104.222 97.4379 103.755C82.4897 95.6848 65.8731 105.623 54.4617 115.295C46.9208 121.631 39.8471 128.901 31.105 133.57C25.9665 136.238 20.7613 137.572 15.089 138.306C11.9525 138.773 8.94953 138.973 6.01327 139.907C2.74333 140.24 -0.192934 142.575 0.607866 146.443C1.6756 151.913 9.083 152.847 13.4874 152.046C22.3629 150.512 29.2365 142.975 35.6429 137.239C43.0503 130.569 50.7246 124.032 57.9985 117.095Z" fill="white"/>
<path d="M65.5394 92.3498C76.15 89.3483 86.8941 86.6136 97.7049 89.2149C108.049 91.6828 116.791 97.6191 125.466 105.556C126.067 106.09 126.667 104.889 126.2 104.222C115.923 90.082 100.574 83.3453 86.2267 84.0123C86.0933 83.6788 85.8931 83.4787 85.4927 83.412C78.8861 82.8784 71.6789 86.5469 65.0723 87.4807C57.2645 88.6146 49.9238 87.2806 42.2495 85.1462C39.2465 84.2791 33.0403 80.8774 30.3709 84.6793C29.1697 86.4135 29.103 88.4812 30.0373 89.9486C31.3719 93.1502 35.4427 95.8182 37.6449 96.2851C46.7206 98.2861 56.7306 94.751 65.5394 92.3498Z" fill="white"/>
<path d="M253.46 96.0183C246.654 100.821 240.915 105.29 232.706 107.357C223.631 109.625 214.288 108.491 205.079 108.091C191.132 107.557 179.52 109.558 168.375 118.363C167.575 119.03 168.843 120.364 169.577 119.497C177.651 110.092 192.666 110.492 203.878 111.359C208.616 111.693 213.42 112.16 218.225 112.226C218.425 112.427 218.626 112.56 218.959 112.56C231.438 113.494 249.99 114.894 260.467 106.223C268.275 99.7535 262.203 89.8152 253.46 96.0183Z" fill="white"/>
<path d="M121.662 8.17441C124.932 13.5771 126.467 18.7797 126.333 25.1162C126.267 26.6503 128.602 26.9171 128.936 25.4497C130.604 18.9131 126.934 12.4432 123.13 7.30731C122.53 6.50691 121.128 7.17391 121.662 8.17441Z" fill="#B1AA93"/>
<path d="M202.61 14.3108C202.61 22.9151 196.937 30.9858 191.532 37.1889C190.531 38.3228 191.999 39.8569 193.134 38.8564C200.608 32.3198 202.543 23.8489 204.211 14.5109C204.478 13.3103 202.61 13.1102 202.61 14.3108Z" fill="#B1AA93"/>
<path d="M216.891 61.9346C214.688 68.2711 210.818 73.8739 205.946 78.4095C204.612 79.6101 206.547 81.5444 207.882 80.3438C213.287 75.4747 216.757 69.405 218.492 62.3348C218.692 61.3343 217.224 60.9341 216.891 61.9346Z" fill="#B1AA93"/>
<path d="M257.798 99.6201C253.794 105.29 247.321 106.424 241.182 108.358C239.98 108.691 240.114 110.759 241.448 110.626C248.455 110.092 255.663 106.69 259.266 100.487C259.8 99.5534 258.399 98.753 257.798 99.6201Z" fill="#B1AA93"/>
<path d="M206.48 180.927C205.212 180.327 203.944 179.593 202.743 178.726C200.341 176.992 198.539 174.658 196.67 172.323C196.137 171.656 195.069 172.39 195.269 173.124C196.203 176.325 198.405 178.993 200.875 181.194C203.01 182.995 206.28 185.463 209.216 184.996C210.217 184.796 210.351 183.462 209.75 182.795C208.816 181.795 207.681 181.594 206.48 180.927Z" fill="#B1AA93"/>
<path d="M160.835 224.282C159.834 220.814 159.567 216.879 159.233 213.277C159.166 212.41 157.765 212.076 157.631 213.077C156.764 218.146 156.764 223.082 158.699 227.884C160.101 231.286 163.437 236.622 167.842 235.088C168.642 234.754 168.776 233.754 168.042 233.22C164.638 230.686 162.169 228.551 160.835 224.282Z" fill="#B1AA93"/>
<path d="M119.994 212.143C118.526 210.275 117.458 208.141 116.657 205.873C115.456 202.271 115.322 198.403 114.655 194.668C114.455 193.667 113.12 194.001 112.987 194.868C112.52 199.537 112.72 204.606 114.455 209.075C115.523 211.81 117.391 215.478 120.594 215.745C121.195 215.812 121.529 215.145 121.462 214.678C121.128 213.477 120.795 213.077 119.994 212.143Z" fill="#B1AA93"/>
<path d="M59.6669 192.667C56.4637 194.067 53.8611 196.669 50.7913 198.403C49.2565 199.27 47.6549 200.07 45.9198 200.537C44.9188 200.871 41.5821 201.805 40.0473 201.271C40.0473 201.226 40.0473 201.204 40.0473 201.204L39.9805 201.071C39.7136 200.737 39.2465 200.471 38.8461 200.737C38.8016 200.782 38.7349 200.826 38.6459 200.871C38.1787 201.271 38.1787 201.871 38.6459 202.205C44.7186 206.607 57.0643 198.67 60.8013 194.201C61.5354 193.334 60.6679 192.2 59.6669 192.667Z" fill="#B1AA93"/>
<path d="M22.7633 141.775C19.0263 145.043 14.3549 146.577 9.41667 146.444C8.54914 146.444 8.2822 147.978 9.21647 148.111C14.8888 148.845 20.094 147.244 24.4984 143.575C25.7663 142.508 23.9645 140.707 22.7633 141.775Z" fill="#B1AA93"/>
<path d="M46.3202 92.9501C47.0543 92.4165 46.8541 90.749 46.12 90.4822C44.3182 89.9486 42.5164 90.4822 40.7146 90.1487C38.7793 89.8152 36.9776 88.748 35.109 88.081C34.5084 87.8809 33.9078 88.9481 34.4417 89.6151C37.0443 92.8834 43.0503 95.2846 46.3202 92.9501Z" fill="#B1AA93"/>
<path d="M57.4647 31.7862C58.1987 32.053 58.7993 31.2526 58.6659 30.5189C57.9318 27.3173 55.2625 24.7827 54.3282 21.4477C53.3272 17.7125 53.9945 14.2441 54.0613 10.5089C54.0613 9.7085 52.9268 9.4417 52.5264 10.1087C48.9895 15.5114 50.5244 29.3183 57.4647 31.7862Z" fill="#B1AA93"/>
<path d="M84.0913 9.7752C83.7576 9.5084 83.2905 9.4417 82.8901 9.7752C81.4887 10.9758 80.9548 13.0435 81.6221 14.7777C81.9558 15.6448 82.7566 16.4452 83.8243 16.1784C84.8921 15.8449 85.4927 14.5776 85.8263 13.6438C86.16 12.6433 86.4269 11.3093 85.7596 10.3755C85.3592 9.8419 84.6919 9.6418 84.0913 9.7752Z" fill="#B1AA93"/>
<path d="M171.445 21.8479C169.777 22.1814 168.576 24.049 168.976 25.5164C169.043 26.4502 169.577 27.3173 170.511 27.5841C171.579 27.7842 172.646 27.3173 173.314 26.4502C174.048 25.5831 174.582 24.1824 174.115 23.0485C173.714 21.9813 172.513 21.6478 171.445 21.8479Z" fill="#B1AA93"/>
<path d="M25.2992 67.2039C25.2547 67.1594 25.188 67.115 25.099 67.0705C24.6986 66.737 24.2982 66.6036 23.8978 66.6703C23.6753 66.6258 23.4529 66.6036 23.2305 66.6036C21.8958 66.6036 20.4944 67.3373 20.0273 68.6713C19.8271 69.2716 19.8271 69.9386 20.0273 70.5389C19.8938 71.8729 20.4944 73.2736 21.6956 73.8739C23.1637 74.6743 25.0323 73.8739 25.9665 72.6066C27.2345 70.8057 26.8341 68.3378 25.2992 67.2039Z" fill="#B1AA93"/>
<path d="M35.5094 167.787C35.4649 167.699 35.4427 167.632 35.4427 167.587C35.2425 167.254 34.9088 167.054 34.5751 167.054C34.0413 166.787 33.3072 166.654 32.7733 166.854C31.5054 167.254 31.105 168.588 31.1717 169.855C31.1717 169.9 31.1495 169.922 31.105 169.922C30.7713 170.989 31.0383 172.256 31.8391 173.057C32.7733 173.924 34.2415 173.791 35.109 172.923C35.5094 172.657 35.7763 172.256 35.9765 171.789C36.11 171.523 36.199 171.256 36.2435 170.989C36.3769 170.255 36.4437 169.522 36.3769 168.855C36.3769 168.254 36.0433 167.921 35.5094 167.787Z" fill="#B1AA93"/>
<path d="M94.4349 211.476C93.3005 209.008 90.0973 211.009 89.4299 212.81C88.4289 215.278 91.0983 217.879 93.5674 216.812C95.4359 216.078 95.7696 213.477 94.5017 212.143C94.5684 211.943 94.5684 211.743 94.4349 211.476Z" fill="#B1AA93"/>
<path d="M192.933 204.473C192.933 204.295 192.911 204.117 192.867 203.939C192.6 203.005 191.732 202.472 190.865 202.738C190.064 202.938 189.463 203.605 189.196 204.406C188.929 205.073 188.996 205.94 189.396 206.54C189.93 207.474 191.065 207.674 191.999 207.141C192.867 206.607 193.334 205.54 193 204.606C193 204.561 192.978 204.517 192.933 204.473Z" fill="#B1AA93"/>
<path d="M212.62 144.976C212.353 144.509 211.952 144.176 211.352 144.242C211.307 144.242 211.285 144.242 211.285 144.242C209.617 144.109 207.815 145.043 207.548 146.777C207.414 147.311 207.481 147.978 207.948 148.378C207.993 148.378 208.015 148.4 208.015 148.444C208.06 148.711 208.104 148.956 208.149 149.178C208.415 150.045 209.283 150.446 210.084 150.245C212.219 149.779 213.42 147.444 212.82 145.376C212.775 145.243 212.709 145.109 212.62 144.976Z" fill="#B1AA93"/>
<path d="M241.315 78.4095C241.182 78.1427 240.915 77.9426 240.714 77.8759C240.514 77.3423 239.847 77.0755 239.313 77.2089C238.045 77.4757 237.111 78.6096 236.777 79.8769C236.688 80.2326 236.644 80.6106 236.644 81.0108C236.644 81.0997 236.644 81.1887 236.644 81.2776C236.577 81.5444 236.71 81.7445 236.844 81.9446C236.977 82.5227 237.244 83.0563 237.645 83.5454C237.912 83.8789 238.445 83.9456 238.846 83.8789C239.513 83.6788 240.114 83.3453 240.514 82.9451C240.848 82.745 241.182 82.4115 241.382 82.0113C241.471 81.7445 241.515 81.4555 241.515 81.1442C241.782 80.2771 241.715 79.2766 241.315 78.4095Z" fill="#B1AA93"/>
</svg>
