<svg width="173" height="154" viewBox="0 0 173 154" fill="none" xmlns="http://www.w3.org/2000/svg">
<g style="mix-blend-mode:multiply">
<path fill-rule="evenodd" clip-rule="evenodd" d="M31.5502 62.8999C34.6816 59.9583 37.4334 56.1628 38.3348 52.3198C39.9005 45.725 35.3932 38.5609 38.8092 32.3457C40.5647 29.1669 44.2179 27.6487 47.6813 26.5574C53.1374 24.8494 58.1191 23.1414 59.1629 16.8788C59.5899 14.4117 58.3089 11.5176 59.8746 9.57233C61.0132 8.05411 63.3855 8.00666 65.046 8.86066C67.8927 10.3789 68.6043 13.7949 71.1189 15.5503C72.7795 16.7839 75.1517 16.9262 77.2392 17.0686C83.9289 17.543 88.7208 13.1307 94.936 11.565C107.461 8.38622 107.272 19.0612 115.337 19.5357C120.034 19.8678 127.341 16.8313 130.14 13.1307C131.943 10.8059 133.366 8.05411 135.881 6.53589C142.286 2.50311 151.063 8.48111 149.45 17.0211C148.358 22.8093 142.57 23.6159 140.72 28.4078C138.775 33.3894 139.866 39.9368 143.661 43.7798C149.165 49.3782 155.523 47.1483 158.227 47.4804C163.209 48.0972 163.161 53.4584 158.179 54.8818C156.044 55.546 153.672 55.4037 151.632 56.3051C139.581 61.8087 158.512 74.1917 158.369 85.3411C158.227 92.8373 151.015 97.9613 147.931 104.271C144.373 111.673 148.358 114.709 153.055 119.691C163.256 130.461 154.147 140.899 142.191 133.118C134.315 128.041 127.483 118.789 113.107 135.3C108.885 140.139 103.998 145.548 97.5929 145.69C90.0492 145.928 83.9763 138.716 76.4327 138.479C70.3123 138.242 65.1409 142.607 59.8271 145.738C54.5608 148.869 47.0171 150.577 42.8895 146.023C35.8677 138.147 46.8748 126.808 42.3201 118.22C38.4297 110.866 25.5248 115.563 22.2511 108.067C20.9227 105.078 22.773 101.804 24.2438 98.9102C29.3203 89.0892 13.9958 79.6952 21.6818 70.7757C24.3387 67.6918 27.5174 66.7429 31.5502 62.8999ZM125.206 132.975C127.198 132.264 129.476 132.216 131.373 133.213C133.271 134.209 134.552 136.344 134.173 138.431C133.888 140.187 132.559 141.563 130.994 142.369C129.428 143.176 127.673 143.461 125.917 143.745C123.687 144.077 120.841 144.077 119.749 142.085C119.228 141.231 119.228 140.139 119.417 139.143C120.034 136.296 122.406 133.972 125.206 132.975ZM54.7506 13.5577C53.4696 18.2547 47.3967 20.9116 43.0792 18.6817C39.7107 16.9262 37.9078 12.7511 38.9041 9.14533C39.9004 5.53955 43.6486 2.88266 47.3967 3.16733C52.236 3.49944 56.079 8.90811 54.7506 13.5577ZM26.7583 15.5978C25.335 14.3642 25.1927 11.9446 26.3788 10.4738C27.6123 9.00299 29.9846 8.76577 31.5028 9.90444C32.5466 10.6636 33.1159 12.0394 32.9736 13.3204C32.594 16.0248 28.751 17.4481 26.7583 15.5978ZM14.4228 125.764C16.8424 123.819 20.4008 123.249 23.3423 124.388C26.2839 125.527 28.5138 128.278 29.0357 131.362C29.605 135.015 27.7072 138.953 24.5284 140.756C21.3022 142.559 16.9374 142.085 14.1381 139.665C10.1528 136.249 10.2951 129.085 14.4228 125.764ZM24.9555 149.533C25.2876 148.158 26.5686 147.114 27.9444 147.066C29.3203 147.019 30.6962 147.968 31.0758 149.296C31.5977 150.909 30.459 152.902 28.7984 153.282C26.7109 153.803 24.481 151.621 24.9555 149.533ZM7.40101 69.7319C10.5798 70.064 13.2841 73.053 13.2367 76.2792C13.1892 79.5054 10.39 82.447 7.21122 82.6842C3.27333 82.9689 -0.379886 78.8887 0.379225 74.9982C0.948558 71.8194 4.17479 69.3998 7.40101 69.7319ZM166.767 53.7905C164.679 52.3198 164.869 48.6191 167.052 47.3381C168.333 46.6264 169.946 46.7213 171.132 47.5753C172.318 48.3819 172.935 49.9001 172.697 51.3234C172.27 53.838 168.854 55.2613 166.767 53.7905ZM163.161 38.6558C161.406 41.5024 157.325 42.7834 154.574 40.9331C150.588 38.2762 150.304 31.7763 153.72 28.6924C156.519 26.1304 160.836 25.7983 162.829 29.2618C164.537 32.1084 164.917 35.8566 163.161 38.6558Z" fill="#E6E6E6"/>
</g>
<path fill-rule="evenodd" clip-rule="evenodd" d="M31.5502 60.0532C34.6815 57.1117 37.4334 53.3161 38.3348 49.4731C39.9005 42.8783 35.3932 35.7142 38.8092 29.499C40.5647 26.3202 44.2179 24.802 47.6813 23.7108C53.1374 22.0028 58.1191 20.2948 59.1629 14.0321C59.5899 11.565 58.3089 8.67089 59.8746 6.72567C61.0132 5.20745 63.3855 5.16 65.046 6.014C67.8927 7.53222 68.6043 10.9482 71.1189 12.7037C72.7795 13.9372 75.1517 14.0796 77.2392 14.2219C83.9289 14.6963 88.7208 10.284 94.936 8.71833C107.461 5.53956 107.272 16.2146 115.337 16.689C120.034 17.0211 127.341 13.9847 130.14 10.284C131.943 7.95922 133.366 5.20745 135.881 3.68922C142.286 -0.343554 151.063 5.63445 149.45 14.1744C148.358 19.9627 142.57 20.7692 140.72 25.5611C138.775 30.5428 139.866 37.0901 143.661 40.9331C149.165 46.5315 155.523 44.3017 158.227 44.6338C163.209 45.2506 163.161 50.6118 158.179 52.0351C156.044 52.6993 153.672 52.557 151.632 53.4584C139.581 58.962 158.512 71.345 158.369 82.4944C158.227 89.9907 151.015 95.1147 147.931 101.425C144.373 108.826 148.358 111.863 153.055 116.844C163.256 127.614 154.147 138.052 142.191 130.271C134.315 125.194 127.483 115.943 113.107 132.453C108.885 137.293 103.998 142.701 97.5929 142.844C90.0492 143.081 83.9763 135.869 76.4327 135.632C70.3123 135.395 65.1409 139.76 59.8271 142.891C54.5608 146.023 47.0171 147.731 42.8894 143.176C35.8677 135.3 46.8748 123.961 42.3201 115.373C38.4297 108.02 25.5248 112.717 22.2511 105.22C20.9227 102.231 22.773 98.9577 24.2438 96.0636C29.3203 86.2426 13.9958 76.8486 21.6818 67.929C24.3387 64.8451 27.5174 63.8962 31.5502 60.0532ZM125.206 130.129C127.198 129.417 129.476 129.37 131.373 130.366C133.271 131.362 134.552 133.497 134.173 135.585C133.888 137.34 132.559 138.716 130.994 139.523C129.428 140.329 127.673 140.614 125.917 140.899C123.687 141.231 120.841 141.231 119.749 139.238C119.228 138.384 119.228 137.293 119.417 136.296C120.034 133.45 122.406 131.125 125.206 130.129ZM54.7506 10.711C53.4696 15.408 47.3967 18.0649 43.0792 15.835C39.7107 14.0796 37.9078 9.90445 38.9041 6.29867C39.9004 2.69289 43.6486 0.0360003 47.3967 0.320667C52.236 0.652778 56.079 6.06144 54.7506 10.711ZM26.7583 12.7511C25.335 11.5176 25.1927 9.09789 26.3788 7.62711C27.6123 6.15633 29.9846 5.91911 31.5028 7.05778C32.5466 7.81689 33.1159 9.19278 32.9735 10.4738C32.594 13.1781 28.751 14.6014 26.7583 12.7511ZM14.4228 122.917C16.8424 120.972 20.4008 120.403 23.3423 121.541C26.2839 122.68 28.5138 125.432 29.0357 128.516C29.605 132.169 27.7072 136.107 24.5284 137.91C21.3022 139.712 16.9373 139.238 14.1381 136.818C10.1528 133.402 10.2951 126.238 14.4228 122.917ZM24.9555 146.687C25.2876 145.311 26.5686 144.267 27.9444 144.22C29.3203 144.172 30.6962 145.121 31.0758 146.45C31.5977 148.063 30.459 150.055 28.7984 150.435C26.7109 150.957 24.481 148.774 24.9555 146.687ZM7.40101 66.8852C10.5798 67.2173 13.2841 70.2063 13.2367 73.4325C13.1892 76.6588 10.39 79.6003 7.21122 79.8375C3.27333 80.1222 -0.379888 76.042 0.379223 72.1515C0.948556 68.9728 4.17479 66.5531 7.40101 66.8852ZM166.767 50.9439C164.679 49.4731 164.869 45.7724 167.052 44.4914C168.333 43.7798 169.946 43.8747 171.132 44.7287C172.318 45.5352 172.935 47.0534 172.697 48.4768C172.27 50.9913 168.854 52.4147 166.767 50.9439ZM163.161 35.8091C161.406 38.6558 157.325 39.9368 154.574 38.0864C150.588 35.4295 150.304 28.9297 153.72 25.8458C156.519 23.2838 160.836 22.9517 162.829 26.4151C164.537 29.2618 164.917 33.0099 163.161 35.8091Z" fill="#FCECDE"/>
<path d="M60.776 19.3933C60.6179 19.3933 60.4597 19.3617 60.3016 19.2985C59.7322 19.0138 59.5424 18.3496 59.7797 17.8277C60.3015 16.7839 60.6811 15.5978 60.9183 14.3168C61.1081 13.1781 61.0132 11.992 60.9183 10.9957C60.776 9.43001 60.7286 8.43367 61.2505 7.81689C61.5351 7.43734 62.057 7.20012 62.7212 7.20012C63.2431 7.20012 63.765 7.34245 64.2394 7.57967C65.3781 8.19645 66.1372 9.33512 66.9438 10.5687C67.1968 10.9482 67.4657 11.3436 67.7503 11.7548C68.1299 12.2292 67.9876 12.8935 67.5131 13.273C67.0387 13.6051 66.327 13.5102 65.9949 12.9883C65.6786 12.5772 65.3939 12.1818 65.1409 11.8022C64.4767 10.7585 63.8599 9.85701 63.1957 9.52489C63.1324 9.49326 63.0692 9.46164 63.0059 9.43001C63.0059 9.85701 63.0533 10.4263 63.1008 10.8059C63.1957 11.9446 63.2906 13.273 63.0533 14.6963C62.8161 16.1671 62.3417 17.543 61.7249 18.7766C61.5351 19.1561 61.1556 19.3933 60.776 19.3933Z" fill="white"/>
<path d="M54.798 25.1341C54.371 25.1341 53.9915 24.9443 53.8017 24.5648C53.517 24.0429 53.7542 23.3787 54.2761 23.094C55.3673 22.5247 56.2688 21.9553 57.0754 21.2911C57.5498 20.8641 58.214 20.959 58.5936 21.386C59.0206 21.8604 58.9257 22.5247 58.4987 22.9517C57.5498 23.7108 56.506 24.4225 55.2724 25.0392C55.1143 25.1025 54.9562 25.1341 54.798 25.1341Z" fill="white"/>
<path d="M40.5646 39.1777C40.0428 39.1777 39.5683 38.7507 39.4734 38.2288C39.1413 35.5719 38.999 32.8201 40.3749 30.353C41.2763 28.6925 42.9843 27.364 45.6412 26.3202C46.2105 26.083 46.8273 26.3202 47.0645 26.8896C47.3018 27.4589 47.0171 28.0757 46.4478 28.3129C44.3128 29.2143 42.9369 30.2107 42.2727 31.3968C41.2763 33.1997 41.3238 35.3347 41.6559 37.9441C41.7508 38.5135 41.3238 39.0828 40.707 39.1777C40.6754 39.1777 40.6279 39.1777 40.5646 39.1777Z" fill="white"/>
<path d="M32.9261 63.7539C32.6415 63.7539 32.3568 63.659 32.1196 63.4218C31.74 62.9473 31.7875 62.2831 32.2145 61.8561C32.4042 61.698 32.594 61.524 32.7838 61.3342C33.2108 60.9547 33.9225 60.9547 34.302 61.3817C34.729 61.8087 34.729 62.5203 34.302 62.9473C34.0806 63.1371 33.875 63.3111 33.6852 63.4692C33.448 63.659 33.2108 63.7539 32.9261 63.7539Z" fill="white"/>
<path d="M24.1015 80.5492C23.6745 80.5492 23.2949 80.312 23.1051 79.885C21.3022 75.9946 20.0687 72.4837 23.0102 69.0677C24.2438 67.6443 25.5722 66.7429 27.2328 65.6042C27.644 65.3512 28.0393 65.0823 28.4189 64.7977C28.9408 64.4656 29.605 64.6079 29.9371 65.0823C30.3167 65.6042 30.1743 66.2684 29.6999 66.6006C29.2571 66.8852 28.8459 67.1699 28.4663 67.4546C26.9007 68.4509 25.6671 69.3049 24.6708 70.491C22.7255 72.7209 23.2474 74.9508 25.0978 78.9836C25.335 79.5529 25.0978 80.1697 24.5759 80.4543C24.4178 80.5176 24.2596 80.5492 24.1015 80.5492Z" fill="white"/>
<path d="M27.5174 107.498C27.3909 107.498 27.2644 107.482 27.1379 107.45C25.4773 106.786 24.4335 105.837 23.8168 104.509C22.9153 102.421 24.3861 99.6693 25.6197 97.2022L25.8094 96.8701C26.616 95.3044 27.043 93.6913 27.043 91.9833C27.043 91.3666 27.5649 90.8921 28.1342 90.8921C28.1342 90.8921 28.15 90.8921 28.1817 90.8921C28.751 90.8921 29.2255 91.414 29.2255 91.9833C29.2255 94.0235 28.7035 96.0161 27.7547 97.8665L27.5649 98.1986C26.616 100.001 25.335 102.516 25.8569 103.655C26.189 104.414 26.8058 104.983 27.9444 105.41C28.5138 105.6 28.751 106.264 28.5612 106.786C28.3714 107.213 27.9919 107.498 27.5174 107.498Z" fill="white"/>
<path d="M45.6412 126.618C45.5779 126.618 45.4989 126.618 45.404 126.618C44.8346 126.475 44.4551 125.859 44.5974 125.289C45.1668 122.585 45.3565 120.403 45.1193 118.457C45.0244 117.888 45.4514 117.319 46.0682 117.224C46.6375 117.176 47.2069 117.603 47.2543 118.173C47.539 120.355 47.3492 122.775 46.685 125.764C46.5901 126.286 46.1631 126.618 45.6412 126.618Z" fill="white"/>
<path d="M43.3639 136.723C43.3323 136.723 43.3006 136.723 43.269 136.723C42.6997 136.676 42.2252 136.154 42.2727 135.537C42.3676 134.399 42.6048 133.118 42.9843 131.457C43.1267 130.888 43.7434 130.508 44.3128 130.651C44.8821 130.793 45.2617 131.362 45.1193 131.979C44.7398 133.497 44.55 134.731 44.4551 135.727C44.4077 136.296 43.9332 136.723 43.3639 136.723Z" fill="white"/>
<path d="M62.6263 138.906C62.2468 138.906 61.8672 138.716 61.6774 138.384C61.3453 137.862 61.4877 137.198 62.0096 136.866C66.2796 134.161 70.9766 131.505 76.575 131.694C80.7027 131.837 84.1661 133.45 87.3449 135.11C87.8668 135.395 88.104 136.059 87.8194 136.629C87.5347 137.15 86.8704 137.34 86.3486 137.056C83.3596 135.49 80.1333 133.972 76.4801 133.877C71.5459 133.687 67.3708 136.059 63.1957 138.716C63.0059 138.843 62.8161 138.906 62.6263 138.906Z" fill="#E3D2C8"/>
<path d="M108.078 134.873C107.793 134.873 107.509 134.778 107.319 134.588C106.845 134.161 106.845 133.497 107.272 133.07C108.315 131.979 109.359 130.793 110.118 129.891C110.624 129.29 111.13 128.721 111.636 128.183C112.063 127.756 112.775 127.709 113.202 128.136C113.629 128.563 113.677 129.227 113.25 129.654C112.775 130.192 112.285 130.745 111.779 131.315C110.972 132.216 109.928 133.45 108.837 134.541C108.647 134.778 108.363 134.873 108.078 134.873Z" fill="#E3D2C8"/>
<path d="M116.144 126.475C115.859 126.475 115.527 126.333 115.337 126.096C114.91 125.621 114.958 124.957 115.432 124.53C119.749 120.924 123.877 119.122 128.052 119.122C130.804 119.122 133.556 119.928 136.45 121.589C136.972 121.873 137.162 122.538 136.877 123.059C136.545 123.581 135.881 123.771 135.359 123.486C132.749 122.016 130.424 121.304 128.052 121.304C124.399 121.304 120.746 122.917 116.855 126.191C116.666 126.381 116.381 126.475 116.144 126.475Z" fill="#E3D2C8"/>
<path d="M154.574 126.523C154.052 126.523 153.577 126.096 153.482 125.574C153.293 123.724 152.154 121.589 150.209 119.549C149.798 119.137 149.402 118.726 149.023 118.315C147.315 116.56 145.559 114.757 144.326 112.622C144.041 112.1 144.231 111.436 144.753 111.151C145.275 110.819 145.939 111.009 146.223 111.53C147.315 113.428 148.975 115.136 150.588 116.797C150.968 117.208 151.363 117.619 151.774 118.03C154.716 121.114 155.523 123.724 155.665 125.337C155.712 125.954 155.285 126.475 154.716 126.523C154.653 126.523 154.605 126.523 154.574 126.523Z" fill="white"/>
<path d="M155.001 86.3374C154.906 86.3374 154.795 86.3216 154.669 86.29C154.099 86.1002 153.815 85.4834 154.004 84.9141C154.242 84.0601 154.384 83.2536 154.431 82.447C154.479 79.1259 151.727 74.9508 149.118 70.9654C147.41 68.356 145.844 65.9363 144.8 63.4692C144.563 62.9473 144.848 62.2831 145.369 62.0459C145.939 61.8087 146.556 62.0933 146.793 62.6152C147.789 64.8926 149.307 67.2648 150.92 69.7319C153.767 74.0493 156.661 78.4617 156.614 82.4944C156.566 83.5382 156.424 84.5346 156.044 85.5783C155.902 86.0528 155.475 86.3374 155.001 86.3374Z" fill="white"/>
<path d="M159.081 49.0936C158.749 49.0936 158.417 48.9038 158.227 48.6666C158.132 48.6191 157.99 48.5717 157.752 48.5717C157.689 48.54 157.61 48.5242 157.515 48.5242C157.183 48.5242 156.756 48.5717 156.282 48.6191H156.139C155.285 48.6666 154.336 48.7614 153.245 48.7614C149.782 48.7614 146.745 47.9549 144.088 46.2943C143.567 46.0097 143.424 45.298 143.756 44.8236C144.041 44.3017 144.753 44.1119 145.227 44.444C147.552 45.8673 150.161 46.579 153.245 46.579C154.242 46.579 155.19 46.4841 155.997 46.4367H156.092C156.851 46.3892 157.515 46.3418 157.99 46.3892C159.271 46.5316 160.125 47.1009 160.172 47.9074C160.22 48.5242 159.745 49.0461 159.176 49.0936C159.144 49.0936 159.113 49.0936 159.081 49.0936Z" fill="white"/>
<path d="M132.417 13.0832C132.18 13.0832 131.943 12.9883 131.753 12.846C131.278 12.5139 131.184 11.8022 131.563 11.3278C132.006 10.7584 132.433 10.1575 132.844 9.52489C134.078 7.81689 135.216 6.15633 136.829 5.16C137.873 4.49578 139.059 4.16367 140.293 4.16367C142.428 4.16367 144.61 5.20744 146.081 6.96289C146.65 7.65874 147.077 8.41785 147.362 9.24022C147.599 9.80955 147.315 10.4263 146.745 10.6161C146.176 10.8533 145.559 10.5687 145.322 9.99933C145.101 9.39837 144.784 8.86067 144.373 8.38622C142.76 6.39356 140.008 5.72933 137.968 7.01033C136.735 7.76944 135.738 9.24022 134.647 10.8059C134.204 11.4385 133.746 12.0553 133.271 12.6562C133.081 12.9409 132.749 13.0832 132.417 13.0832Z" fill="white"/>
<path d="M107.082 16.6415C106.797 16.6415 106.512 16.5467 106.323 16.3569C106.006 16.0722 105.722 15.7876 105.469 15.5029L105.374 15.408C103.334 13.3679 102.005 12.0394 99.206 12.0394C98.2571 12.0394 97.1185 12.2292 95.8849 12.5139C93.8922 13.0358 91.9944 13.8898 90.0018 14.8387L89.0529 12.8934C91.1879 11.8971 93.1805 10.9482 95.363 10.4263C96.7863 10.0468 98.0673 9.85699 99.206 9.85699C102.907 9.85699 104.757 11.7073 106.892 13.8423L106.987 13.9372C107.272 14.2219 107.556 14.4907 107.841 14.7438C108.268 15.1708 108.268 15.8824 107.841 16.3094C107.651 16.5467 107.366 16.6415 107.082 16.6415Z" fill="white"/>
<path d="M121.315 137.815C121.22 137.815 121.141 137.799 121.078 137.767C120.461 137.625 120.082 137.056 120.224 136.486C120.746 134.019 122.786 131.837 125.443 130.888C127.388 130.224 129.476 130.271 130.994 131.078C132.18 131.694 133.081 132.88 133.366 134.114C133.508 134.683 133.129 135.253 132.512 135.395C131.943 135.537 131.373 135.158 131.231 134.588C131.089 133.972 130.614 133.355 129.997 133.023C129.001 132.501 127.53 132.453 126.202 132.975C124.257 133.64 122.738 135.205 122.359 136.913C122.264 137.435 121.79 137.815 121.315 137.815Z" fill="white"/>
<path d="M41.7508 10.8533C41.2763 10.8533 40.8493 10.5212 40.707 10.0468C40.4223 8.95556 40.4223 7.81689 40.707 6.77311C41.5136 3.97389 44.4077 1.98122 47.2543 2.171C49.0098 2.26589 50.6229 3.21478 51.7616 4.733C52.1411 5.20745 52.0462 5.87167 51.5718 6.25123C51.0973 6.63078 50.3857 6.48845 50.0535 6.014C49.2944 5.01767 48.2032 4.40089 47.112 4.35345C45.2617 4.21111 43.3165 5.587 42.842 7.38989C42.6522 8.00667 42.6522 8.76578 42.842 9.47745C42.9843 10.0468 42.6522 10.6636 42.0354 10.8059C41.9406 10.8375 41.8457 10.8533 41.7508 10.8533Z" fill="white"/>
<path d="M14.0907 131.267C13.4739 131.267 12.9994 130.793 12.9994 130.224C12.9046 127.851 13.9009 125.669 15.5615 124.293C17.5541 122.727 20.3533 122.253 22.7256 123.202C25.0978 124.103 26.9007 126.286 27.3277 128.8C27.4226 129.417 26.9955 129.986 26.4262 130.081C25.8094 130.176 25.2401 129.749 25.1452 129.18C24.8605 127.424 23.5795 125.859 21.919 125.242C20.3059 124.578 18.2658 124.91 16.9373 126.001C15.7987 126.95 15.1344 128.468 15.1819 130.176C15.1819 130.745 14.7074 131.267 14.0907 131.267Z" fill="white"/>
<path d="M10.4849 73.8596C9.96301 73.8596 9.48856 73.48 9.39367 72.9581C9.20389 71.772 8.16011 70.7757 7.02145 70.6333C5.693 70.5385 4.31712 71.5348 4.0799 72.8632C3.98501 73.4326 3.41567 73.8121 2.79889 73.7172C2.22956 73.6223 1.80257 73.053 1.9449 72.4362C2.3719 70.064 4.79155 68.2137 7.21122 68.4983C9.34622 68.6881 11.1966 70.491 11.5761 72.626C11.671 73.1953 11.244 73.7647 10.6747 73.8596C10.6114 73.8596 10.5482 73.8596 10.4849 73.8596Z" fill="white"/>
<path d="M153.577 32.9624C153.008 32.9624 152.534 32.488 152.486 31.9187C152.391 29.9734 153.103 28.0757 154.384 26.937C155.712 25.7509 157.42 25.1816 158.986 25.4188C160.267 25.6086 161.406 26.3677 162.07 27.5538C162.782 28.7399 163.161 30.1632 163.209 31.4917C163.209 32.1084 162.734 32.5829 162.117 32.5829C161.501 32.5829 161.026 32.1084 161.026 31.4917C160.979 30.5428 160.694 29.5464 160.22 28.645C159.84 28.0124 159.318 27.6487 158.654 27.5538C157.752 27.4114 156.661 27.791 155.855 28.5501C155.048 29.2618 154.574 30.4953 154.669 31.7763C154.669 32.3931 154.242 32.915 153.625 32.915C153.593 32.9466 153.577 32.9624 153.577 32.9624Z" fill="white"/>
</svg>
