<svg width="123" height="136" viewBox="0 0 123 136" fill="none" xmlns="http://www.w3.org/2000/svg">
<g style="mix-blend-mode:multiply">
<path d="M16.8 114.8C18.3 114.9 20.1 114.3 21.2 113.7C24 112.3 24.7 108.9 24.2 106.1C23.6 102.6 21.9 99.5001 20.3 96.4001C19.4 94.6001 18.5 92.8001 17.7 90.9001C17.4 90.2001 16.9 89.4001 16.8 88.6001C16.6 89.4001 16.2 90.2001 15.8 90.9001C15 92.8001 14.2 94.6001 13.2 96.4001C11.7 99.5001 9.99999 102.6 9.39999 106.1C8.79999 108.9 9.59999 112.3 12.3 113.7C13.4 114.3 15.4 114.9 16.8 114.8Z" fill="#33D7FB"/>
</g>
<path d="M104.6 29.2001C104.733 28.1334 104.8 27.0667 104.8 26.0001C104.8 15.2001 96.1 6.40005 85.3 6.40005C79.1 6.40005 73.4 9.30006 69.8 14.0001C65.6 6.00006 57.2 0.700073 47.9 0.700073C34.3 0.700073 23.3 11.8001 23.3 25.4001C23.3 26.4001 23.3333 27.4001 23.4 28.4001C22.3333 28.2001 21.2333 28.1001 20.1 28.1001C9.29998 28.1001 0.599976 36.9001 0.599976 47.7001C0.599976 58.1001 8.69997 66.6001 19 67.2001C19.6 77.5001 28.1 85.6001 38.5 85.6001C45.1 85.6001 51.2 82.3001 54.7 77.0001C59.1 84.3001 67.1 89.0001 75.9 89.0001C88.2 89.0001 98.4 80.0001 100.2 68.0001C101.067 68.1334 101.967 68.2001 102.9 68.2001C113.7 68.2001 122.4 59.4001 122.4 48.7001C122.4 38.4001 114.6 30.0001 104.6 29.2001Z" fill="white"/>
<g style="mix-blend-mode:multiply">
<path d="M46.8 135.3C48.3 135.4 50.1 134.8 51.2 134.2C53.9 132.8 54.7 129.4 54.2 126.5C53.6 123.1 51.9 120 50.3 116.9C49.3 115.1 48.5 113.3 47.7 111.4C47.3 110.7 46.9 109.9 46.8 109.1C46.6 109.9 46.2 110.7 45.8 111.4C45 113.3 44.2 115.1 43.2 116.9C41.6 120 39.9 123.1 39.4 126.5C38.8 129.4 39.6 132.8 42.3 134.2C43.4 134.8 45.4 135.4 46.8 135.3Z" fill="#33D7FB"/>
</g>
<g style="mix-blend-mode:multiply">
<path d="M79.4999 124.4C80.9999 124.5 82.7999 123.8 83.8999 123.3C86.6999 121.8 87.3999 118.4 86.8999 115.6C86.2999 112.2 84.5999 109 82.9999 106C82.0999 104.2 81.1999 102.4 80.3999 100.5C80.0999 99.8001 79.5999 99.0001 79.4999 98.2001C79.2999 99.0001 78.8999 99.8001 78.4999 100.5C77.6999 102.4 76.8999 104.2 75.8999 106C74.3999 109 72.6999 112.2 72.0999 115.6C71.4999 118.4 72.2999 121.8 74.9999 123.3C76.1999 123.8 78.1999 124.5 79.4999 124.4Z" fill="#33D7FB"/>
</g>
<g style="mix-blend-mode:multiply">
<path d="M112.2 102.5C113.7 102.6 115.5 102 116.6 101.5C119.4 100 120.1 96.6 119.6 93.8C119 90.4 117.3 87.2 115.7 84.2C114.8 82.3 113.9 80.6 113.1 78.7C112.8 78 112.4 77.2 112.2 76.4C112 77.2 111.6 78 111.3 78.7C110.4 80.6 109.6 82.3 108.7 84.2C107.1 87.2 105.4 90.4 104.8 93.8C104.2 96.6 105 100 107.8 101.5C108.9 102 110.9 102.6 112.2 102.5Z" fill="#33D7FB"/>
</g>
</svg>
