<svg width="181" height="330" viewBox="0 0 181 330" fill="none" xmlns="http://www.w3.org/2000/svg">
<path d="M53.3 0L71.1 21.9L82.1 43.2L96.1 54.5L111 75.2L126.9 119.2L143.5 98.8L161.4 101.3L168.6 119.6L172.9 144.5L180.8 178.1C180.8 178.1 159.8 221.4 157.7 222.3C155.7 223.3 133.3 244.3 133.3 244.3L126.6 229.7L124.1 172.3L117.2 203.4L85.3 256.9L83 312.5L68.4 330L43.4 320.2L37.5 305.6L12.2 144.4L0.5 94.6L29.9 74.6" fill="#99C5C7"/>
<mask id="mask0_510_1569" style="mask-type:luminance" maskUnits="userSpaceOnUse" x="0" y="0" width="181" height="330">
<path d="M53.28 0L71.11 21.95L82.07 43.17L96.13 54.51L111 75.18L126.93 119.24L143.55 98.83L161.4 101.26L168.59 119.6L172.9 144.48L180.84 178.08C180.84 178.08 159.76 221.37 157.71 222.31C155.67 223.25 133.32 244.34 133.32 244.34L126.59 229.71L124.09 172.3L117.17 203.37L85.26 256.86L82.99 312.52L68.37 330L43.38 320.21L37.55 305.63L12.24 144.36L0.540009 94.61L29.94 74.64" fill="white"/>
</mask>
<g mask="url(#mask0_510_1569)">
<path fill-rule="evenodd" clip-rule="evenodd" d="M81.3 72C64.8 78.6 54.6 70.7 50.2 55C48.2 47.8 46.2 35.9 54.3 31.5C58.9 29 64.6 30.1 69.3 31.4C79.5 34.4 91.1 37 99.6 43.7C102.5 46 110.4 57.5 104.4 60.6C103.3 61.2 99.7 60 98.6 59.8C94.1 59.2 89.7 58.6 85.2 58.7L81.3 72ZM155.4 107.1C159.8 109.5 172.5 113 174.6 117.7C176.2 121.3 176.6 125.4 177.2 129.3C178.4 137.3 184 146 173.3 145.8C171.7 145.8 169.5 145.6 167.9 145.5C165.3 145.2 162.6 144.7 159.9 144.1C156.7 143.5 148.4 143.3 145.9 140.7L155.4 107.1ZM92.5 85.2C99.5 88.2 105.8 92.2 112.3 96.1C114.5 97.4 119.6 99.2 121.3 101.5C124.4 106 123.6 115.1 123.7 120.5C123.8 127.1 122.6 133.5 122.5 140.1C122.5 143.7 124 147.1 124.4 150.6C124.9 155.9 124.2 161.3 124.6 166.7C125.3 175.7 126.6 186.8 123.5 195.4C123.2 196.2 121.2 203.2 120.6 203.3C120.5 203.3 112.8 195.9 112.1 195.2C107.9 191.4 104.9 186.7 100.9 182.7C99.6 181.4 96.3 179 95.8 177.2C94.9 173.5 98.1 167.2 98.4 163.4L92.5 85.2ZM147.7 165C154 165.4 159.5 170.5 165.2 172.7C169 174.1 172.7 175.5 176.3 177.3C180.5 179.3 185.2 181.1 188.6 184.4C194.6 190.5 185.3 203 182.2 208.1C181.1 209.9 179.9 211.6 178.7 213.3C176 217.1 171.6 225.6 166.7 226.8C163.8 227.4 159 223.6 156.7 222.4C149.9 218.7 143 215.6 137.1 210.5L147.7 165ZM65.2 253.8C68.8 254.3 72.2 255.1 75.7 256C80.8 257.3 90.4 258.5 91.6 264.8C92.1 267.3 92.1 269.8 92.2 272.3C92.3 274.9 92.4 277.4 92.7 280C93.1 284.1 93.3 288.3 93.5 292.5C93.8 298.9 94.3 305.2 93.5 311.6C93.4 312.5 93.3 316.5 92.4 317.3C90.3 319.3 83.1 315.3 80.8 314.8C69.8 312.7 58.1 309.1 55.9 296.4C54.9 291.1 54.7 285.7 54.1 280.4L65.2 253.8Z" fill="#C0DEDF"/>
</g>
<path d="M2.6 148.6L13.4 128.9L0 94.8L28.6 59.1L38.9 13.8L53.2 0L68.6 66.1L85.4 57.8L100.3 88.1L111.8 138.2L102.7 186.1L71.1 253.8L65.3 311.1L37.5 305.6L20.6 253.5L2 190.4L2.6 148.6Z" fill="white"/>
<path d="M120.5 160.8L114 134.1L120.8 105.7L143 98.6001L157.6 107L157.7 143.8L165.5 173.2C165.5 173.2 143.7 207.5 142.2 211.6C140.6 215.7 126.6 229.3 126.6 229.3L119.3 174.8L111 165.7L120.5 160.8Z" fill="white"/>
<path d="M45.3 41.7L39.1 76.7L43.3 103.6L49.8 79.8L46.1 75.2L45.3 41.7ZM78.5 80.3L77.3 98.3L69.3 120.5L73.5 136.8L79.2 116.3L86.6 97.3999L78.5 80.3ZM21.1 100.4L25 124.1L19.7 149.3L32.3 126.1L28.5 110.4L21.1 100.4ZM89.4 134.1L84.8 150.1L88.8 172.4L92.7 148.6L89.4 134.1ZM135.6 117.4L130.2 140.8L131.3 173.5L136.7 143.1L135.6 117.4ZM147.4 160.2L140.3 190.5L131 204L137.8 206.4L153.7 177.8L147.4 160.2ZM69.1 153.2L68.2 175.4L59.8 188.5L63.7 209.1L73.4 186.6L69.1 153.2ZM42.9 139.2L27.2 170.1L26.2 192.9L40.6 223.3L32.2 192.3L41.6 197.3L39.8 181.3L35.4 167L42.9 139.2ZM54.1 226.9L51 247.2L50 264.5L58.5 245.4L54.1 226.9ZM30.4 236.7L33.5 275.1L47.6 294.5L54.2 277.5L42.1 272.5L30.4 236.7Z" fill="#D4E8F1"/>
</svg>
