<svg width="168" height="142" viewBox="0 0 168 142" fill="none" xmlns="http://www.w3.org/2000/svg">
<path d="M74.3835 6.1243C71.7601 6.3262 69.3385 6.3935 66.9842 6.6627C64.5626 6.8646 62.3427 7.2684 60.1229 7.8068C55.8179 8.8163 51.5128 10.6334 46.6023 12.114C45.3915 12.4505 44.1135 12.787 42.9027 13.1235C41.6919 13.3927 40.4138 13.6619 39.1358 13.8638C36.6469 14.3349 34.0907 14.6041 31.4673 14.6714C28.8439 14.7387 26.2206 14.4695 23.6644 13.9311C22.2743 13.617 20.9289 13.1684 19.6284 12.5851L20.3011 13.7292L21.7809 15.9501C22.2518 16.6904 22.79 17.4307 23.2608 18.171L26.3551 22.6128C27.0278 23.6223 27.7677 24.5645 28.5076 25.574C28.5076 25.574 29.0457 26.3816 29.5838 26.92C34.2252 26.3143 38.3285 24.6991 42.3645 22.7474C44.8534 21.536 47.3423 20.19 49.9657 18.844L50.9747 18.3729L51.9837 17.8345C52.7012 17.5204 53.3963 17.2064 54.0689 16.8923C55.5488 16.3539 56.9614 15.7482 58.4413 15.2771C64.3607 13.2581 70.8856 12.5178 77.1414 13.5273C83.33 14.5368 88.9804 17.0269 93.9581 20.4592C87.9041 19.9881 82.1864 19.2478 76.6705 19.4497C73.9798 19.5843 71.2892 19.8535 68.6658 20.3246C66.02 20.8181 63.3966 21.5136 60.7956 22.4109C59.5175 22.7474 58.2395 23.3531 56.8942 23.7569C55.6161 24.3626 54.4053 24.8337 52.9927 25.4394C50.302 26.5835 47.4768 27.6603 44.5171 28.4679C41.4901 29.2755 38.3285 29.8139 35.167 29.6793C33.7768 29.6344 32.4315 29.455 31.131 29.1409C32.6781 31.2945 34.3598 33.3808 35.9742 35.4671C37.0056 36.7682 38.0595 38.0694 39.1358 39.3705L39.203 39.3032C39.2479 39.3929 39.2703 39.4602 39.2703 39.5051C39.4945 39.7743 39.7187 40.0435 39.9429 40.3127C44.7861 39.707 49.0912 37.9572 53.2618 35.9382C55.7506 34.7941 58.105 33.4481 60.5938 32.1694C61.8719 31.4964 63.0827 30.8907 64.428 30.2177C65.7733 29.5447 67.1859 29.0063 68.5985 28.4679C74.2489 26.3816 80.2357 25.2375 86.2897 25.5067C89.3167 25.6413 92.2764 26.1124 95.1688 26.9873C97.994 27.7949 100.752 29.0063 103.174 30.6888C100.214 30.7561 97.4559 30.8234 94.698 31.0253C91.9401 31.1599 89.2494 31.4964 86.626 31.9675C81.3792 32.7751 76.1997 34.0538 71.2219 35.7363C69.9663 36.185 68.7331 36.6561 67.5223 37.1496C66.3115 37.688 64.9662 38.2937 63.6208 38.7648C60.9974 39.8416 58.2395 40.8511 55.347 41.5914C52.4545 42.3317 49.3603 42.8028 46.3333 42.6682C44.6516 42.6009 42.9699 42.399 41.3555 41.9279C44.1807 45.2929 47.1405 48.5906 50.2348 51.7537C50.5935 51.7986 50.9523 51.821 51.311 51.821C56.2887 51.0807 60.5938 49.2636 64.9662 47.11C67.455 45.8986 69.9439 44.5526 72.5 43.2066C73.7781 42.5336 75.0562 41.8606 76.4688 41.1876C77.8814 40.5146 79.294 39.9089 80.7738 39.3705C86.5588 37.0823 92.8146 35.8709 99.0031 36.0055C102.097 36.0728 105.259 36.4766 108.219 37.2842C111.246 38.0918 114.138 39.2359 116.694 40.9857C113.6 41.053 110.707 41.1876 107.815 41.4568C104.99 41.6587 102.232 42.0625 99.4739 42.5336C94.0029 43.5207 88.6889 44.934 83.5318 46.7735C82.2313 47.2222 80.9532 47.7157 79.6975 48.2541C78.4194 48.7925 77.0068 49.3982 75.6615 49.9366C72.9036 51.0807 70.0112 52.0902 67.0514 52.8978C64.0917 53.7054 60.9301 54.1765 57.7686 54.1765C55.7506 54.1092 53.6653 53.84 51.7146 53.3016C54.1362 55.7244 56.6026 58.0799 59.1139 60.3681C59.8763 60.4578 60.6611 60.5027 61.4683 60.5027C66.0424 59.897 70.2129 58.4837 74.3162 56.7339C79.1594 54.7149 83.9353 52.2921 89.1148 50.1385L91.0656 49.3309L93.0836 48.5906C94.4289 48.1195 95.7743 47.6484 97.1196 47.2446C99.9448 46.5043 102.77 45.9659 105.663 45.6967C108.555 45.4275 111.582 45.4948 114.474 46.0332C117.367 46.5716 120.192 47.4465 122.681 49.0617C119.788 49.6674 117.165 50.1385 114.542 50.8115C111.986 51.4845 109.497 52.1575 107.008 52.8978C104.519 53.6381 102.03 54.4457 99.5412 55.2533L95.7743 56.3974L92.0073 57.7434C86.9623 59.4932 81.6483 61.3776 75.9306 62.3871C73.1054 62.9255 70.1457 63.1947 67.1859 62.9255C65.1007 62.7909 63.0154 62.4544 61.0647 61.7141C60.8405 61.6692 60.6386 61.6468 60.4593 61.6468C60.549 61.6917 60.6163 61.759 60.6611 61.8487L60.7283 61.7814C60.7283 61.8263 60.7283 61.8487 60.7283 61.8487C62.3876 63.3293 64.0693 64.7875 65.7733 66.2232C67.612 67.7487 69.4955 69.2517 71.4238 70.7323C72.2758 70.7772 73.1054 70.7996 73.9126 70.7996C78.2849 70.1939 82.1864 68.8479 86.0878 67.2327C90.8638 65.2137 95.6398 62.7909 100.685 60.7046L102.636 59.897L104.654 59.1567C105.932 58.6856 107.277 58.2818 108.69 57.878C111.38 57.1377 114.205 56.532 117.098 56.3301C119.99 56.1282 122.883 56.1955 125.775 56.7339C128.6 57.2723 131.426 58.1472 133.915 59.7624C131.022 60.3681 128.399 60.8392 125.843 61.5122C123.286 62.1179 120.865 62.7909 118.376 63.5312C115.909 64.2491 113.465 64.9894 111.044 65.7521L107.344 66.9635L103.577 68.2422C98.5994 69.992 93.3527 71.8091 87.7023 72.8186C84.8771 73.2897 81.9846 73.5589 79.0922 73.2897C77.2087 73.1551 75.3252 72.8186 73.5763 72.2802C73.5314 72.2353 73.4866 72.2129 73.4418 72.2129C77.8365 75.4433 82.3658 78.4718 87.0296 81.2984C91.2674 80.8946 95.1689 79.8851 99.0031 78.5391C103.712 76.9239 108.286 74.9049 113.062 72.9532C114.273 72.4597 115.506 71.9886 116.762 71.5399C118.04 71.0688 119.25 70.5977 120.528 70.1939C123.152 69.3863 125.775 68.7133 128.6 68.3768C131.358 68.0403 134.184 67.973 137.009 68.3768C139.767 68.8479 142.525 69.7228 144.879 71.338C142.121 71.8091 139.632 72.3475 137.211 73.0878C134.789 73.7608 132.502 74.5011 130.148 75.3087L123.152 77.7988L119.519 79.0775C118.309 79.5262 117.098 79.9524 115.887 80.3562C110.909 82.0387 105.662 83.5866 100.147 84.125C97.3887 84.3942 94.6308 84.3942 91.8728 83.9904C91.828 83.9904 91.8055 83.9904 91.8055 83.9904C94.8325 85.6729 97.8596 87.2881 100.954 88.7687C101.447 88.8584 101.963 88.9482 102.501 89.0379C106.133 88.9033 109.362 88.0957 112.524 86.8843C116.425 85.471 120.259 83.5866 124.564 81.9041L126.179 81.2984L127.861 80.76C128.937 80.4235 130.08 80.1543 131.224 79.8851C133.511 79.3467 135.933 79.0775 138.287 79.1448C143.063 79.1448 148.041 80.4235 151.74 83.5866C149.319 83.8558 147.166 84.0577 145.014 84.3942C142.928 84.7307 140.91 85.1345 138.892 85.5383C136.941 86.0094 134.924 86.4805 132.906 87.0189L129.946 87.8265L126.919 88.7014C122.815 89.9801 118.376 91.4607 113.667 91.9318C111.716 92.1337 109.698 92.1337 107.748 91.9318C109.003 92.4702 110.281 93.031 111.582 93.6143L113.465 94.4219L113.533 94.2873C114.026 94.5565 114.519 94.8033 115.013 95.0276C116.403 95.2519 117.771 95.3641 119.116 95.3641C120.999 95.3641 122.815 95.1622 124.632 94.8257C128.197 94.1527 131.829 92.9413 135.798 92.0664C136.829 91.8421 137.861 91.6402 138.892 91.4607C139.968 91.3261 140.977 91.1915 142.054 91.1915C144.206 91.0569 146.359 91.1915 148.511 91.5953C152.749 92.4702 156.92 94.5565 159.543 98.0561C157.323 97.9215 155.373 97.7196 153.489 97.6523C151.606 97.585 149.789 97.585 147.973 97.6523C146.179 97.6972 144.363 97.8093 142.525 97.9888C141.628 98.0785 140.731 98.1683 139.834 98.258L137.009 98.6618C135.058 98.931 132.973 99.2675 130.82 99.4694C131.044 99.5591 131.269 99.6264 131.493 99.6713C135.798 101.017 139.968 102.7 144.072 104.652C148.175 106.536 152.144 108.69 156.045 111.045C159.879 113.468 163.646 116.092 167.144 119.323C165.933 119.233 164.723 119.099 163.512 118.919C162.705 118.785 161.92 118.65 161.158 118.515C161.023 118.47 160.888 118.448 160.754 118.448C159.229 118.134 157.727 117.775 156.247 117.371C156.068 117.326 155.888 117.281 155.709 117.237C154.991 117.057 154.274 116.878 153.556 116.698C152.435 116.384 151.337 116.048 150.26 115.689C147.031 114.679 143.87 113.468 140.708 112.189C137.569 110.933 134.52 109.497 131.56 107.882C130.574 107.343 129.587 106.783 128.6 106.199C127.614 105.616 126.65 105.01 125.708 104.382C124.721 103.754 123.78 103.104 122.883 102.431C122.479 102.117 122.076 101.825 121.672 101.556C121.313 101.287 120.977 101.017 120.663 100.748C120.618 100.703 120.573 100.658 120.528 100.614C120.17 100.299 119.811 99.9854 119.452 99.6713C119.407 99.6713 119.385 99.6713 119.385 99.6713C119.026 99.3572 118.667 99.0207 118.309 98.6618C118.264 98.6618 118.241 98.6618 118.241 98.6618C118.555 99.0207 118.847 99.4245 119.116 99.8732C119.206 100.053 119.318 100.232 119.452 100.412C119.452 100.412 119.475 100.434 119.519 100.479C119.699 100.658 119.856 100.838 119.99 101.017C120.17 101.197 120.349 101.376 120.528 101.556C120.663 101.735 120.797 101.915 120.932 102.094C121.156 102.363 121.336 102.61 121.47 102.834C121.605 102.969 121.717 103.126 121.807 103.306C122.076 103.709 122.345 104.113 122.614 104.517C124.295 107.276 125.372 110.237 126.313 113.064C126.627 114.006 126.941 114.926 127.255 115.823L128.197 118.448C128.511 119.345 128.825 120.198 129.139 121.005C129.497 121.858 129.856 122.71 130.215 123.563C130.574 124.37 130.932 125.2 131.291 126.053C131.695 126.86 132.098 127.668 132.502 128.476C132.905 129.283 133.354 130.113 133.847 130.966C134.722 132.648 135.798 134.263 136.874 136.148C135.798 135.968 134.767 135.654 133.78 135.206C130.82 133.994 128.197 131.773 126.179 129.283C124.834 127.534 123.757 125.649 122.883 123.697C122.412 122.755 122.076 121.746 121.739 120.736C121.38 119.749 121.067 118.74 120.798 117.708C120.327 115.756 119.923 113.804 119.519 111.92C119.116 110.035 118.712 108.218 118.174 106.469C117.815 105.167 117.367 103.889 116.829 102.633C116.649 102.184 116.448 101.758 116.223 101.354C115.999 100.95 115.775 100.546 115.551 100.142C115.326 99.7386 115.08 99.3348 114.811 98.931C114.811 98.931 114.788 98.931 114.744 98.931C114.205 98.1234 113.622 97.3158 112.995 96.5082C112.95 96.5082 112.927 96.5082 112.927 96.5082C110.461 95.4763 107.994 94.4219 105.528 93.3451C105.528 93.39 105.528 93.4124 105.528 93.4124C105.976 93.8611 106.38 94.3546 106.739 94.893C107.456 95.8801 108.084 96.912 108.622 97.9888C108.936 98.6618 109.25 99.3572 109.564 100.075C109.698 100.479 109.855 100.883 110.035 101.287C110.573 102.969 111.044 104.719 111.38 106.401C111.986 109.228 112.322 111.987 112.726 114.679L113.129 117.775L113.735 120.871C113.914 121.858 114.093 122.867 114.273 123.899C114.497 124.886 114.721 125.873 114.945 126.861C115.169 127.848 115.416 128.857 115.685 129.889C115.954 130.876 116.223 131.886 116.492 132.918C117.098 134.937 117.838 137.023 118.645 139.311C118.062 139.087 117.524 138.817 117.031 138.503C115.282 137.427 113.735 136.081 112.389 134.533C110.977 132.85 109.766 131.033 108.891 129.081C107.95 127.264 107.344 125.313 106.806 123.428C106.716 123.069 106.627 122.71 106.537 122.351C106.402 121.768 106.29 121.185 106.201 120.602C106.111 120.018 106.021 119.435 105.932 118.852L105.73 117.102L105.528 115.42C105.192 110.843 105.326 106.603 104.923 102.431C104.878 101.758 104.81 101.062 104.721 100.344C104.721 100.21 104.698 100.053 104.654 99.8732C104.474 98.4823 104.183 97.1139 103.779 95.7679C103.734 95.5884 103.689 95.4314 103.645 95.2968C103.465 94.6238 103.241 93.9508 102.972 93.2778C102.927 93.1881 102.86 93.0983 102.77 93.0086C102.546 92.7394 102.344 92.4702 102.165 92.201C102.075 92.0664 101.985 91.9542 101.896 91.8645C101.806 91.7748 101.716 91.685 101.627 91.5953C101.357 91.5056 101.088 91.3934 100.819 91.2588C99.0255 90.4512 97.2766 89.5987 95.5725 88.7014C95.5277 88.7014 95.4828 88.679 95.4379 88.6341C93.689 87.7368 91.9625 86.817 90.2584 85.8748C90.3033 85.9645 90.3481 86.0318 90.3929 86.0767C90.8862 86.7497 91.3571 87.4227 91.8055 88.0957C92.5679 89.2622 93.2405 90.4961 93.8235 91.7972C94.4065 93.0535 94.9222 94.3322 95.3707 95.6333C95.8191 96.9344 96.2228 98.258 96.5815 99.604C96.716 100.232 96.873 100.883 97.0523 101.556C97.725 104.921 98.1959 108.218 98.4649 111.516C98.5995 112.817 98.734 114.096 98.8685 115.352L99.2048 119.121L99.8103 126.591C99.9448 127.803 100.079 129.014 100.214 130.226C100.348 131.482 100.528 132.716 100.752 133.927C100.931 135.183 101.156 136.44 101.425 137.696C101.694 138.952 101.985 140.276 102.299 141.667C99.8776 140.186 97.9941 138.032 96.3797 135.677C96.0209 135.094 95.6622 134.488 95.3034 133.86C94.2944 131.975 93.4872 130.024 92.8818 128.005C92.4782 126.703 92.1194 125.38 91.8055 124.034C91.5364 122.688 91.3347 121.342 91.2002 119.996C90.9984 118.65 90.931 117.304 90.7965 116.025C90.7068 114.679 90.6396 113.356 90.5948 112.055C90.393 106.872 90.3257 101.825 89.8548 96.912C89.7652 95.9698 89.653 95.0725 89.5185 94.22C89.4737 94.0405 89.4512 93.8835 89.4512 93.7489C89.0476 90.855 88.3749 88.0284 87.4332 85.1345C87.1641 84.6858 86.8727 84.2596 86.5588 83.8558C82.5676 81.5227 78.6661 79.0551 74.8543 76.4528C75.7288 77.6642 76.4688 78.9429 77.0742 80.2889C77.3881 80.917 77.6571 81.59 77.8813 82.3079C78.4195 83.6539 78.8455 85.0223 79.1594 86.4132C79.3388 87.1311 79.4957 87.8265 79.6303 88.4995C79.8993 89.9352 80.1011 91.3485 80.2357 92.7394C80.3254 93.4124 80.4151 94.1078 80.5048 94.8257C80.7738 98.258 80.8411 101.69 80.9083 105.055L81.0428 108.959L81.2447 112.862C81.3792 115.42 81.5361 117.977 81.7155 120.534C81.8052 121.791 81.8949 123.069 81.9846 124.37C82.1191 125.672 82.2761 126.973 82.4555 128.274C82.59 129.575 82.7694 130.899 82.9936 132.245C83.173 133.546 83.3972 134.937 83.6663 136.417C83.0384 135.968 82.4779 135.497 81.9846 135.004C81.4465 134.465 80.9308 133.927 80.4375 133.389C79.4958 132.312 78.6885 131.1 77.9486 129.822C76.8051 127.937 75.9306 125.986 75.1907 123.899C74.9665 123.226 74.7422 122.553 74.518 121.88C73.7108 119.054 73.24 116.227 73.0382 113.401C72.9485 112.683 72.9036 111.987 72.9036 111.314C72.8588 110.596 72.8363 109.878 72.8363 109.161L72.7691 108.151V107.074L72.8363 104.988C72.9709 100.815 73.3744 96.8447 73.6435 92.874C73.7332 91.5729 73.8005 90.2717 73.8453 88.9706C73.8453 88.3873 73.8453 87.8265 73.8453 87.2881C73.8453 87.1086 73.8453 86.9292 73.8453 86.7497C73.8902 86.301 73.8902 85.8748 73.8453 85.471C73.8453 85.2915 73.8453 85.1121 73.8453 84.9326C73.8453 84.3493 73.8453 83.7885 73.8453 83.2501C73.8005 83.1604 73.7781 83.0706 73.7781 82.9809C73.7781 82.4874 73.7557 81.9938 73.7108 81.5003C73.666 81.276 73.6435 81.0516 73.6435 80.8273C73.5987 80.4684 73.5539 80.087 73.509 79.6832C73.4642 79.4589 73.4418 79.257 73.4418 79.0775C73.3521 78.4942 73.2624 77.9334 73.1727 77.395C73.0381 77.1258 72.9036 76.879 72.7691 76.6547C72.5897 76.2958 72.4103 75.9593 72.2309 75.6452C71.917 75.0619 71.5583 74.5011 71.1547 73.9627L71.2892 73.8954C70.0335 72.9981 68.8003 72.0783 67.5895 71.1361C66.3787 70.1939 65.1904 69.2517 64.0244 68.3095C63.4863 67.8608 62.9481 67.4122 62.41 66.9635C62.5445 67.1878 62.6343 67.4122 62.6791 67.6365C62.7688 67.816 62.8585 67.9954 62.9482 68.1749C63.1724 68.7582 63.3966 69.3639 63.6208 69.992C64.4953 72.8186 64.8989 75.7125 65.1007 78.6064C65.3025 82.2406 65.1007 85.7402 64.8316 89.2398C64.6971 90.6307 64.5625 91.9991 64.428 93.3451C64.3832 94.0181 64.3159 94.6911 64.2262 95.3641L63.8226 99.3348L63.5535 103.238C63.3517 105.863 63.15 108.42 63.0154 111.045C62.8809 113.67 62.7463 116.227 62.7463 118.919C62.6791 121.544 62.8136 124.303 62.8808 127.264C61.5355 125.918 60.4593 124.438 59.5848 122.89C59.0019 121.903 58.4861 120.916 58.0377 119.929C57.4547 118.538 56.9839 117.147 56.6251 115.756C56.2215 114.32 55.9076 112.885 55.6833 111.449C55.5937 110.731 55.504 110.013 55.4143 109.295C55.3694 108.532 55.3246 107.792 55.2798 107.074C55.1901 105.639 55.1901 104.203 55.2798 102.767C55.347 101.354 55.4816 99.9405 55.6161 98.4599L55.8852 96.3736L56.1542 94.2873C57.0959 88.7687 58.374 83.5193 59.1812 78.3372C59.3157 77.4847 59.4503 76.6547 59.5848 75.8471C59.5848 75.6676 59.6073 75.5106 59.6521 75.376C59.9884 72.684 60.1902 69.992 60.0557 67.2327C59.966 67.0084 59.8987 66.7616 59.8538 66.4924C59.7193 66.1783 59.6072 65.8643 59.5175 65.5502C59.2933 64.9669 59.0467 64.3837 58.7776 63.8004C56.4905 61.7814 54.2483 59.6951 52.0509 57.5415C52.2303 58.035 52.3648 58.5286 52.4545 59.0221C52.4545 59.1567 52.477 59.2689 52.5218 59.3586C52.6115 59.8521 52.6788 60.3457 52.7236 60.8392H52.7908C53.0599 63.0601 53.0599 65.3483 52.7908 67.5692C52.746 68.2871 52.6564 69.0049 52.5218 69.7228C52.4322 70.4855 52.32 71.2034 52.1855 71.8764C51.8716 73.3121 51.5353 74.7254 51.1765 76.1163C50.9971 76.7893 50.7953 77.4623 50.5711 78.1353C50.3917 78.8083 50.1899 79.4813 49.9657 80.1543C49.7415 80.8273 49.5396 81.4779 49.3603 82.106C48.9567 83.3623 48.5979 84.5961 48.284 85.8075C47.9701 87.1086 47.7011 88.3873 47.4768 89.6436C46.7369 93.4797 46.266 97.3158 46.0642 101.287C45.9296 103.911 45.8624 106.536 45.9297 109.228C45.9745 110.574 46.0418 111.942 46.1315 113.333L46.4678 117.573C45.0552 115.958 43.8444 114.074 42.9027 112.122C42.5888 111.449 42.2972 110.776 42.0282 110.103C41.7143 109.43 41.4452 108.734 41.221 108.017C40.7726 106.626 40.3914 105.212 40.0775 103.777C39.943 103.014 39.8309 102.274 39.7412 101.556C38.8667 95.7006 39.3375 89.6436 40.8847 83.9231C41.2883 82.5098 41.6919 81.0965 42.23 79.6832C42.7009 78.2699 43.239 77.0585 43.7772 75.7798C44.2705 74.4787 44.7861 73.2224 45.3243 72.011C45.8176 70.7547 46.3109 69.4985 46.8042 68.2422C46.9836 67.7487 47.1629 67.2327 47.3423 66.6943C47.432 66.47 47.4993 66.2681 47.5441 66.0886C47.6786 65.7297 47.7907 65.3932 47.8804 65.0791C47.9701 64.8099 48.0598 64.5407 48.1495 64.2715C48.2392 64.0023 48.3288 63.7107 48.4185 63.3966C48.553 62.9031 48.6876 62.3871 48.8222 61.8487C48.867 61.6692 48.9118 61.4898 48.9567 61.3103C49.0015 60.9514 49.0688 60.57 49.1585 60.1662C49.2034 60.0765 49.2258 59.9643 49.2258 59.8297C49.4051 58.9772 49.5397 58.1023 49.6293 57.205C49.5397 56.7563 49.45 56.3077 49.3603 55.859C49.2706 55.4103 49.1585 54.9617 49.0239 54.513C47.4992 52.9427 45.9746 51.3499 44.4498 49.7347C43.6426 48.7925 42.7681 47.8503 41.9609 46.9081C41.3555 46.2351 40.7501 45.5621 40.212 44.8891C40.3017 45.3826 40.3914 45.8762 40.4811 46.3697C40.4811 46.5043 40.4811 46.6165 40.4811 46.7062C40.5708 47.1997 40.638 47.6933 40.6828 48.1868C40.8174 50.475 40.6828 52.7632 40.3465 54.9841C40.212 55.7468 40.0775 56.4871 39.9429 57.205C39.2703 60.0989 38.4631 62.9255 37.4541 65.6175C36.9832 66.9635 36.445 68.3095 35.9742 69.5882C35.75 70.2163 35.5482 70.8445 35.3688 71.4726C35.1446 72.1007 34.9204 72.7289 34.6962 73.357C33.2163 78.4045 32.2073 83.5866 31.5346 88.9033C31.1983 91.528 30.9964 94.22 30.9292 96.9793C30.8619 99.7386 30.9292 102.565 30.9965 105.526C30.5481 104.943 30.122 104.337 29.7184 103.709C28.9112 102.408 28.2386 101.085 27.7004 99.7386C27.3865 99.0207 27.1174 98.3029 26.8932 97.585C26.3999 96.1941 26.0187 94.7584 25.7497 93.2778C25.4358 91.7972 25.234 90.3166 25.1443 88.836C24.92 86.5478 24.8976 84.282 25.077 82.0387C25.4133 78.2699 26.1533 74.5684 27.3641 71.0015C27.835 69.5882 28.3058 68.1076 28.9112 66.7616C29.2251 66.0886 29.539 65.4156 29.8529 64.7426C30.122 64.1145 30.4135 63.4863 30.7274 62.8582C30.9965 62.2301 31.2879 61.6019 31.6018 60.9738C32.4763 59.0894 33.4181 57.2723 34.158 55.3879C34.4271 54.8495 34.6737 54.3111 34.8979 53.7727C34.9428 53.5932 35.0101 53.4138 35.0998 53.2343C35.2343 52.8305 35.3912 52.4491 35.5706 52.0902C35.6603 51.8659 35.7276 51.6415 35.7724 51.4172C35.9518 51.0134 36.1087 50.6096 36.2433 50.2058C36.2881 49.9815 36.3554 49.7796 36.4451 49.6001C36.5796 49.1066 36.7141 48.613 36.8487 48.1195C36.9384 47.8503 37.0057 47.6035 37.0505 47.3792C37.1402 47.0203 37.2298 46.6838 37.3195 46.3697C37.3644 46.1005 37.4093 45.8313 37.4541 45.5621C37.5438 45.2032 37.611 44.8442 37.6558 44.4853C37.7007 44.2161 37.7456 43.9693 37.7904 43.745C37.7007 43.072 37.611 42.4214 37.5213 41.7933C36.2657 40.2678 35.0101 38.7424 33.7544 37.2169L30.4583 32.977C30.279 32.7527 30.122 32.5508 29.9875 32.3713C30.0324 33.1789 30.0548 33.9641 30.0548 34.7268C30.0099 35.5344 29.9202 36.3196 29.7857 37.0823C29.5839 38.6975 29.2475 40.1781 28.8439 41.726C28.6197 42.4887 28.3731 43.229 28.104 43.9469C27.095 46.8408 25.7497 49.6001 24.4043 52.2248C23.8662 53.167 23.4626 54.1092 22.9918 55.0514C22.8124 55.3655 22.633 55.6795 22.4536 55.9936C22.1845 56.6217 21.8931 57.2274 21.5792 57.8107C21.3101 58.4388 21.041 59.0894 20.7719 59.7624C20.2338 61.0187 19.7405 62.2749 19.2921 63.5312C18.8885 64.8323 18.5073 66.1335 18.1485 67.4346C17.9691 68.0627 17.8122 68.7133 17.6777 69.3863C17.2292 71.3156 16.8705 73.3121 16.6014 75.376C15.996 80.8273 16.3323 86.5478 16.3323 92.6721C13.2381 87.4227 11.2201 81.6349 10.6819 75.3087C10.4801 72.9532 10.5474 70.5977 10.8165 68.2422C11.2873 64.2715 12.3636 60.4354 13.9108 56.8685C14.1798 56.1058 14.4938 55.3879 14.8525 54.7149C15.1664 53.997 15.5028 53.3016 15.8615 52.6286C16.2203 51.9556 16.579 51.2826 16.9378 50.6096L17.5432 49.6001L18.0813 48.6579C19.6284 46.1678 21.1082 43.8123 22.5208 41.3895C22.8348 40.8511 23.1487 40.3127 23.4626 39.7743C23.5074 39.6397 23.5747 39.5051 23.6644 39.3705C23.9335 38.9218 24.1801 38.4507 24.4043 37.9572C24.4492 37.8675 24.494 37.7777 24.5388 37.688C24.8079 37.1496 25.077 36.6112 25.3461 36.0728C25.3909 35.9382 25.4582 35.7812 25.5478 35.6017C25.7272 35.153 25.9066 34.7268 26.086 34.323C26.1309 34.1435 26.1982 33.9865 26.2878 33.8519C26.4672 33.3135 26.669 32.7527 26.8932 32.1694C26.938 32.0348 26.9829 31.8778 27.0278 31.6983C27.0726 31.4291 27.1398 31.1599 27.2295 30.8907C27.2295 30.4869 27.2295 30.0831 27.2295 29.6793C27.1847 29.2755 27.1399 28.8717 27.095 28.4679C27.095 28.423 27.0726 28.3782 27.0278 28.3333C26.8932 28.1987 26.7587 27.9295 26.6242 27.7276C26.4224 27.4584 26.2205 27.1892 26.2205 27.1892C25.4806 26.247 24.7407 25.2375 24.068 24.1607L21.041 19.7189C20.5029 18.9786 20.032 18.2383 19.4938 17.4307L18.4176 15.7482C18.4176 15.7931 18.4176 15.8379 18.4176 15.8828C18.5521 16.6007 18.6194 17.341 18.6194 18.1037C18.754 20.1227 18.6194 22.0744 18.3503 24.0261C18.2607 24.6542 18.1485 25.3048 18.014 25.9778C17.5431 28.5352 16.8032 31.0253 15.9288 33.3808C15.7045 34.0089 15.4803 34.6146 15.2561 35.1979C14.987 35.7812 14.7404 36.3644 14.5162 36.9477C14.2471 37.531 13.978 38.1142 13.7089 38.6975C13.4399 39.2808 13.1708 39.864 12.9018 40.4473C11.7582 42.7355 10.5474 44.8218 9.40389 46.9081C8.26035 48.9271 7.18406 50.9461 6.3096 53.0324C5.36786 55.0514 4.62793 57.205 3.95526 59.4932C3.82073 60.0765 3.66381 60.6597 3.48443 61.243C3.21536 62.4544 2.94629 63.6658 2.67722 64.8772C2.54269 65.5053 2.38572 66.1335 2.20635 66.7616C1.13008 64.4061 0.390163 61.8487 0.121096 59.224C-0.0134374 57.9229 -0.0358842 56.5993 0.0538047 55.2533C0.0986491 53.9073 0.255613 52.5613 0.52468 51.2153C0.659213 50.5872 0.816177 49.959 0.995554 49.3309C0.995554 49.3309 0.995554 49.3085 0.995554 49.2636C1.21978 48.5906 1.444 47.9176 1.66822 47.2446C2.07182 46.0332 2.54267 44.8667 3.0808 43.745C3.66378 42.5785 4.24678 41.4344 4.82976 40.3127C5.41274 39.2359 5.9733 38.1815 6.51143 37.1496L8.1931 33.9865L9.80747 30.7561C10.8837 28.6025 11.8927 26.5162 12.8345 24.3626C13.1484 23.6896 13.4399 22.9942 13.7089 22.2763C13.7538 22.1417 13.7987 22.0071 13.8435 21.8725C14.1126 21.1995 14.3816 20.5041 14.6507 19.7862C15.1888 18.2159 15.6597 16.6231 16.0633 15.0079C16.0633 14.963 16.0633 14.9406 16.0633 14.9406C16.0633 14.4022 16.0409 13.8638 15.996 13.3254C15.9512 12.8319 15.9064 12.3608 15.8615 11.9121C15.8615 11.8224 15.8615 11.7326 15.8615 11.6429L15.1215 10.5661C13.238 7.5376 11.4891 4.3745 9.60568 1.2787L10.8165 0.605701L11.7582 0C13.6417 3.0958 15.5251 6.1243 17.4086 9.2201L18.1485 10.3642H18.2158C18.2158 10.4091 18.2158 10.4539 18.2158 10.4988L18.5522 10.9699C22.8572 10.9026 26.8259 10.2296 30.7947 9.2874C33.0817 8.749 35.3688 8.076 37.6558 7.403L41.0865 6.3262L44.4498 5.2494C46.7369 4.5091 49.024 3.7015 51.5801 3.0285C54.069 2.3555 56.6923 1.8844 59.383 1.8171C62.0737 1.7498 64.8316 2.0863 67.3205 2.8266C69.8766 3.5669 72.231 4.6437 74.3835 6.1243Z" fill="#4F9377"/>
</svg>
