<?xml version="1.0" standalone="no"?>
<!DOCTYPE svg PUBLIC "-//W3C//DTD SVG 20010904//EN"
 "http://www.w3.org/TR/2001/REC-SVG-20010904/DTD/svg10.dtd">
<svg version="1.0" xmlns="http://www.w3.org/2000/svg"
 width="100.000000pt" height="100.000000pt" viewBox="0 0 100.000000 100.000000"
 preserveAspectRatio="xMidYMid meet">

<g transform="translate(0.000000,100.000000) scale(0.100000,-0.100000)"
fill="#000000" stroke="none">
<path d="M386 986 c-27 -8 -55 -21 -62 -30 -14 -19 -39 -223 -38 -311 1 -128
87 -215 214 -215 110 0 191 66 214 177 7 29 -18 293 -30 336 -3 11 -22 26 -42
34 -51 21 -195 26 -256 9z m228 -40 c36 -15 37 -17 52 -148 l6 -58 -172 0
-172 0 6 58 c15 129 16 133 50 148 42 18 187 18 230 0z m55 -250 c18 -12 13
-86 -10 -134 -64 -131 -254 -131 -318 0 -24 51 -28 123 -7 135 18 10 319 9
335 -1z"/>
<path d="M480 890 c0 -27 -3 -30 -30 -30 -23 0 -30 -4 -30 -20 0 -16 7 -20 30
-20 27 0 30 -3 30 -30 0 -23 4 -30 20 -30 16 0 20 7 20 30 0 27 3 30 30 30 23
0 30 4 30 20 0 16 -7 20 -30 20 -27 0 -30 3 -30 30 0 23 -4 30 -20 30 -16 0
-20 -7 -20 -30z"/>
<path d="M342 385 c-124 -27 -238 -93 -278 -160 -21 -36 -24 -54 -24 -133 l0
-92 460 0 460 0 0 92 c0 78 -3 97 -24 132 -79 134 -363 211 -594 161z m268
-37 c0 -16 -103 -268 -110 -268 -7 0 -110 252 -110 268 0 9 29 12 110 12 81 0
110 -3 110 -12z m-205 -145 c31 -76 59 -144 62 -150 4 -10 -38 -13 -191 -13
l-196 0 0 74 c0 65 3 78 26 105 35 42 76 70 143 97 95 40 91 42 156 -113z
m381 97 c34 -17 78 -48 98 -70 35 -39 36 -43 36 -115 l0 -75 -196 0 c-153 0
-195 3 -191 13 3 6 31 74 63 151 l57 138 36 -6 c19 -3 63 -19 97 -36z"/>
</g>
</svg>
