<svg width="193" height="196" viewBox="0 0 193 196" fill="none" xmlns="http://www.w3.org/2000/svg">
<path d="M171.041 91.234C171.241 93.235 171.308 95.1693 171.308 97.237C171.308 100.439 171.108 103.64 170.707 106.708C170.908 106.775 171.041 106.908 171.108 107.109C171.375 107.042 171.642 107.109 171.842 107.375C176.38 113.712 184.254 116.847 190.861 120.582C191.662 121.049 191.728 122.45 190.727 122.65C182.786 124.117 174.845 119.648 167.371 124.05C167.037 124.25 166.703 124.317 166.37 124.25C165.258 127.185 163.967 130.031 162.499 132.788C161.521 134.567 160.497 136.301 159.43 137.991C159.63 138.124 159.763 138.324 159.763 138.591C160.03 138.658 160.23 138.858 160.297 139.191C161.632 146.862 167.371 153.132 171.708 159.335C172.242 160.068 171.642 161.402 170.641 161.136C162.833 159.001 157.694 151.531 149.019 152.264C148.619 152.331 148.218 152.198 148.018 151.931C144.281 155.533 140.21 158.668 135.873 161.402C135.939 161.602 135.939 161.869 135.873 162.069C136.006 162.269 136.14 162.47 136.073 162.803C133.937 170.273 136.407 178.411 137.608 185.881C137.741 186.815 136.607 187.749 135.873 187.082C129.8 181.746 128.332 172.808 120.257 169.74C119.923 169.606 119.723 169.406 119.523 169.14C114.651 170.807 109.58 171.941 104.308 172.541C104.263 172.675 104.197 172.764 104.108 172.808C104.174 173.075 104.174 173.342 103.974 173.542C98.8357 179.411 97.501 187.816 95.3655 195.086C95.0986 195.953 93.6972 196.286 93.2968 195.353C90.0936 187.949 92.6962 179.211 86.7569 172.941C86.6235 172.808 86.5345 172.675 86.49 172.541C81.0179 171.941 75.8127 170.674 70.7409 169.006C70.6742 169.14 70.6075 169.273 70.4073 169.34C63.2001 172.408 58.3953 179.345 53.3235 185.014C52.7229 185.681 51.2548 185.348 51.3215 184.347C51.6552 176.343 57.6612 169.673 55.1921 161.536C50.3873 158.534 45.9161 154.999 41.9121 150.997C34.1711 150.664 26.7637 154.799 19.7567 157.667C18.9559 158.001 17.7547 157.134 18.2885 156.2C21.8921 149.396 29.8334 145.995 31.5017 138.124C28.2318 133.055 25.6292 127.585 23.6272 121.783C16.8871 118.514 8.74567 118.981 1.405 118.581C0.537467 118.514 -0.12985 117.18 0.67095 116.58C6.81042 112.111 15.1521 112.378 20.0903 106.508C19.7344 103.485 19.5565 100.394 19.5565 97.237C19.5565 93.902 19.7566 90.7004 20.157 87.4988C15.5524 81.8293 8.14507 78.8278 1.87214 75.2927C1.13808 74.8925 1.07133 73.4251 2.07233 73.225C9.413 71.891 16.6869 75.5595 23.6272 72.7581C25.6959 66.4883 28.6322 60.6187 32.2358 55.2827C30.434 48.2792 25.1621 42.4096 21.0913 36.6067C20.5575 35.873 21.158 34.539 22.159 34.8058C29.2995 36.7401 34.2378 43.21 41.7119 43.6769C46.2498 39.0746 51.455 35.0726 57.0606 31.8043C58.5955 24.6674 56.3265 17.0636 55.1921 9.99338C54.9919 9.12628 56.1263 8.19247 56.9271 8.85947C62.5995 13.7953 64.2011 21.866 70.9411 25.4011C72.8542 24.7785 74.8117 24.2005 76.8137 23.6669C80.9066 22.6441 85.1109 21.9549 89.4263 21.5992C94.0309 15.863 95.3655 7.85897 97.4343 0.855469C97.7012 -0.0116309 99.1026 -0.411847 99.503 0.588653C102.573 7.59215 100.371 15.863 105.242 21.9994C111.315 22.7998 117.121 24.2672 122.659 26.4016C129.666 23.3334 134.471 16.4633 139.476 10.9272C140.077 10.2602 141.545 10.527 141.478 11.5942C141.145 19.4648 135.272 26.0681 137.541 34.0721C142.212 37.2737 146.55 40.8755 150.421 44.9442C150.554 44.9442 150.687 44.8775 150.821 44.8775C158.562 45.2777 165.969 41.0756 173.043 38.2075C173.844 37.874 174.978 38.7411 174.511 39.6749C170.707 46.7451 162.299 50.1468 161.098 58.7511C161.053 58.84 161.031 58.9289 161.031 59.0179C163.7 63.6202 165.903 68.556 167.571 73.6919C167.638 73.7586 167.638 73.7586 167.704 73.7586C167.905 73.6252 168.172 73.5585 168.439 73.7586C175.312 77.4938 183.787 76.8935 191.328 77.3604C192.262 77.4271 192.93 78.6944 192.062 79.2947C185.589 84.0971 176.513 83.4968 171.708 90.7004C171.531 90.9672 171.308 91.145 171.041 91.234Z" fill="#FAC807"/>
<path d="M55.2588 69.3564C52.1891 68.6227 49.2528 70.1568 48.0516 72.6247C47.9181 72.7581 47.7179 72.8915 47.6512 73.0916C46.183 77.5605 49.2528 83.6302 52.9898 86.1648C57.5944 89.233 61.2648 85.0309 61.8654 80.562C62.466 75.8263 60.2638 70.4903 55.2588 69.3564Z" fill="#F9B50B"/>
<path d="M104.441 70.8238C107.911 66.8218 112.85 58.0174 107.711 53.5485C104.708 50.9472 100.304 50.9472 97.1006 52.9482C97.0561 52.9037 96.9894 52.8815 96.9004 52.8815C96.6334 52.7481 96.2998 52.6814 96.0328 52.8815C91.0278 56.4833 87.8914 63.4868 90.4273 69.5565C93.1633 75.8263 100.371 75.5595 104.441 70.8238Z" fill="#F9B50B"/>
<path d="M83.487 95.7029C79.8167 93.5018 76.6802 96.1031 74.9452 99.238C74.6115 99.0379 74.1444 99.0379 73.9442 99.4381C71.742 103.707 70.474 109.51 75.2788 112.645C79.483 115.446 83.4203 112.311 85.1553 108.243C86.6902 104.574 87.5577 98.1708 83.487 95.7029Z" fill="#F9B50B"/>
<path d="M50.5207 112.912C48.9191 112.111 47.1173 112.511 45.7159 113.645C44.9819 114.245 44.5147 114.979 44.2478 115.78C43.8474 115.646 43.3135 115.78 43.18 116.247C42.3792 119.448 42.3793 125.184 45.7827 127.185C49.3195 129.253 52.456 125.251 52.9231 122.116C53.457 119.181 53.7239 114.446 50.5207 112.912Z" fill="#F9B50B"/>
<path d="M104.508 131.721C103.04 131.788 101.705 132.121 100.304 133.122C98.3018 134.656 97.1673 137.124 97.3008 139.592C97.5677 144.861 102.706 147.996 107.644 146.929C112.716 145.861 116.52 140.725 115.185 135.456C113.984 131.121 107.911 127.986 104.508 131.721Z" fill="#F9B50B"/>
<path d="M146.15 95.7029C144.415 91.7676 139.81 89.9667 136.407 91.8343C136.206 91.6342 135.873 91.5008 135.472 91.6342C129.4 94.2355 126.73 101.306 129.066 107.375C131.135 112.845 136.407 115.446 141.478 111.778C146.15 108.443 148.619 101.039 146.15 95.7029Z" fill="#F9B50B"/>
<path d="M77.1473 43.8103C75.5457 43.0766 74.2778 44.3439 73.6772 45.7446C73.2101 46.2782 72.9431 47.0786 72.8764 47.8123C72.6762 49.0796 72.5427 51.1473 73.3435 52.2145C74.4113 53.4818 76.1464 52.9482 77.0806 51.9477C79.0159 50.0134 80.2838 45.3444 77.1473 43.8103Z" fill="#F9DA78"/>
<path d="M123.193 81.8293C121.925 81.229 120.591 81.4958 119.59 82.2962C116.92 82.3629 114.785 88.1658 115.719 90.567C116.587 92.568 118.722 93.5018 120.724 92.568C122.726 91.6342 124.261 89.233 124.995 87.2987C125.662 85.2977 125.262 82.7631 123.193 81.8293Z" fill="#F9DA78"/>
<path d="M138.075 57.0836C137.408 57.217 136.74 57.4838 136.14 57.9507C135.472 58.0174 135.072 58.6177 134.872 59.2847C134.271 60.2185 134.071 61.2857 134.605 62.1528C134.671 62.9532 134.938 63.6869 135.406 64.3539C136.206 65.4878 137.674 66.2215 139.076 65.8213C140.477 65.4878 141.345 64.2205 141.745 62.8865C142.679 60.1518 141.545 56.55 138.075 57.0836Z" fill="#F9DA78"/>
<path fill-rule="evenodd" clip-rule="evenodd" d="M75.6792 133.522C77.481 135.923 77.6144 139.525 76.5467 142.193C75.9461 143.727 74.8784 145.061 73.477 145.594C73.477 145.594 73.4548 145.617 73.4103 145.661C73.0989 145.795 72.7652 145.839 72.4093 145.795C71.7419 145.861 71.0078 145.728 70.207 145.261C67.3375 143.727 66.8704 139.925 67.2708 136.99C67.3375 136.457 67.471 135.923 67.6712 135.323C67.9381 134.255 68.472 133.322 69.2728 132.588C71.2748 130.72 74.1443 131.521 75.6792 133.522ZM74.5447 136.39C74.4112 136.079 74.2333 135.812 74.0109 135.589C74.4113 136.256 74.6115 137.057 74.7449 137.724C74.8784 138.191 74.9451 138.791 75.0786 139.458C75.1453 138.391 74.9451 137.324 74.5447 136.39Z" fill="#F9DA78"/>
<path d="M137.007 129.653C136.94 129.453 136.74 129.32 136.407 129.386C135.072 129.52 134.204 129.853 133.404 131.054C132.669 132.188 132.202 133.722 132.603 135.056C132.936 136.323 133.937 137.324 135.205 137.457C136.74 137.591 138.008 136.59 138.742 135.389C140.01 133.322 139.61 129.92 137.007 129.653Z" fill="#F9DA78"/>
<g style="mix-blend-mode:soft-light" opacity="0.9">
<path d="M171.708 159.335C167.371 153.132 161.632 146.862 160.297 139.191C160.23 138.858 160.03 138.658 159.763 138.591C159.763 138.324 159.63 138.124 159.43 137.991C160.497 136.301 161.521 134.567 162.499 132.788C152.623 130.454 143.213 126.185 134.071 121.649C119.723 114.446 106.31 105.241 96.7669 92.0344C82.5527 72.3579 78.482 47.7456 76.8137 23.6669C74.8117 24.2005 72.8542 24.7786 70.9411 25.4011C64.2011 21.866 62.5995 13.7953 56.9271 8.85951C56.1263 8.19251 54.9918 9.12632 55.192 9.99342C56.3265 17.0636 58.5955 24.6674 57.0606 31.8043C51.455 35.0726 46.2498 39.0746 41.7119 43.6769C34.2378 43.21 29.2995 36.7401 22.159 34.8058C21.158 34.539 20.5575 35.873 21.0913 36.6067C25.1621 42.4096 30.434 48.2792 32.2358 55.2827C28.6322 60.6187 25.6959 66.4883 23.6272 72.7581C16.6869 75.5595 9.41299 71.891 2.07233 73.225C1.07133 73.4251 1.13807 74.8925 1.87213 75.2927C8.14507 78.8278 15.5524 81.8293 20.157 87.4988C19.7566 90.7004 19.5565 93.902 19.5565 97.237C19.5565 100.394 19.7344 103.485 20.0903 106.508C15.1521 112.378 6.81041 112.111 0.670942 116.58C-0.129858 117.18 0.53746 118.514 1.40499 118.581C8.74566 118.981 16.8871 118.514 23.6272 121.783C25.6292 127.585 28.2318 133.055 31.5017 138.124C29.8334 145.995 21.8921 149.396 18.2885 156.2C17.7547 157.134 18.9559 158.001 19.7567 157.667C26.7637 154.799 34.1711 150.664 41.9121 150.997C45.9161 154.999 50.3872 158.534 55.192 161.536C57.6612 169.673 51.6552 176.343 51.3215 184.347C51.2548 185.348 52.7229 185.681 53.3235 185.014C58.3953 179.345 63.2001 172.408 70.4073 169.34C70.6075 169.273 70.6742 169.14 70.7409 169.006C75.8127 170.674 81.0179 171.941 86.49 172.541C86.5345 172.675 86.6235 172.808 86.7569 172.942C92.6962 179.211 90.0936 187.949 93.2968 195.353C93.6972 196.286 95.0986 195.953 95.3655 195.086C97.501 187.816 98.8357 179.411 103.974 173.542C104.174 173.342 104.174 173.075 104.108 172.808C104.197 172.764 104.263 172.675 104.308 172.541C109.58 171.941 114.651 170.807 119.523 169.14C119.723 169.406 119.923 169.607 120.257 169.74C128.332 172.808 129.8 181.746 135.873 187.082C136.607 187.749 137.741 186.815 137.608 185.881C136.407 178.411 133.937 170.273 136.073 162.803C136.14 162.47 136.006 162.27 135.873 162.069C135.939 161.869 135.939 161.603 135.873 161.402C140.21 158.668 144.281 155.533 148.018 151.931C148.218 152.198 148.619 152.331 149.019 152.265C157.694 151.531 162.833 159.001 170.641 161.136C171.642 161.402 172.242 160.068 171.708 159.335Z" fill="#454545"/>
</g>
</svg>
