<svg width="223" height="223" viewBox="0 0 223 223" fill="none" xmlns="http://www.w3.org/2000/svg">
<path d="M221.276 102.69C220.943 101.957 220.075 102.09 219.741 102.624C216.738 103.424 213.469 105.292 211.934 107.96C210.799 108.426 205.661 107.226 201.59 106.092C200.189 105.158 199.054 103.691 198.32 102.223C197.986 101.69 197.252 101.156 196.585 101.49C193.782 103.091 191.447 102.69 188.51 102.357C186.842 87.8162 181.103 74.4762 172.494 63.5374C173.117 62.4257 173.762 61.3141 174.43 60.2024C174.652 60.0245 174.897 59.8467 175.164 59.6688C176.365 59.0018 178.233 58.8684 179.101 57.7345C179.501 57.2009 179.568 56.6006 179.568 55.8669C179.568 53.9326 179.368 52.8654 179.835 51.1312C181.703 48.2631 183.639 45.5284 185.841 43.1272C189.111 43.5941 192.981 42.5269 194.583 39.7255C194.983 38.9918 194.516 38.1914 193.849 37.8579C190.779 33.7892 187.576 29.5871 182.704 27.7195C181.97 27.386 181.437 28.1197 181.57 28.72C180.035 31.388 179.034 34.9898 179.835 38.058C179.368 39.1252 174.83 41.9266 171.226 43.9943C169.491 44.3278 167.689 44.061 166.155 43.5941C165.554 43.394 164.62 43.5941 164.42 44.2611C163.552 47.396 161.617 48.7967 159.348 50.5309C148.404 42.06 135.124 36.4572 120.642 34.9231C120.287 33.5446 119.908 32.1662 119.508 30.7877C119.552 30.4764 119.619 30.1652 119.708 29.8539C120.042 28.5199 121.243 27.1192 121.043 25.7185C120.976 24.9848 120.576 24.5846 120.109 24.051C118.707 22.717 117.84 22.05 116.905 20.5159C116.171 17.1809 115.637 13.8459 115.504 10.5776C118.173 8.64331 120.109 5.10821 119.241 2.04001C119.041 1.17291 118.107 0.972808 117.373 1.23961C112.368 0.505908 107.162 -0.161092 102.358 1.90661C101.623 2.24011 101.757 3.1072 102.291 3.4407C103.092 6.3755 104.96 9.71051 107.629 11.2446C108.097 12.3785 106.829 17.5144 105.761 21.5831C104.827 22.9838 103.359 24.1177 101.89 24.8514C101.357 25.1849 100.823 25.9186 101.156 26.5856C102.825 29.4537 102.358 31.8549 101.957 34.9231C101.957 35.012 101.935 35.101 101.89 35.1899C87.8096 37.1242 74.9301 42.8604 64.3863 51.398C62.8737 50.5087 61.361 49.6193 59.8484 48.73C59.6704 48.5077 59.4925 48.2631 59.3145 47.9963C58.6472 46.7957 58.5137 44.9281 57.3793 44.061C56.8454 43.5941 56.2448 43.5941 55.5107 43.5941C53.5754 43.5941 52.5077 43.7942 50.7727 43.3273C47.9031 41.4597 45.1671 39.5254 42.7647 37.3243C43.2318 34.056 42.1641 30.1207 39.3613 28.5866C38.6272 28.1864 37.8264 28.6533 37.4927 29.3203C33.422 32.3885 29.2178 35.5901 27.2825 40.4592C27.0156 41.1929 27.7497 41.7265 28.3503 41.5931C31.0196 43.1272 34.6232 44.1277 37.6929 43.3273C38.7607 43.7942 41.5635 48.3298 43.6322 51.9316C43.9659 53.6658 43.6989 55.4667 43.2318 57.0008C43.0316 57.6011 43.2318 58.5349 43.8991 58.735C47.1023 59.6021 48.5037 61.6698 50.3723 64.071C50.5725 64.4045 50.8394 64.8047 51.0396 65.1382C43.0983 75.6768 37.8931 88.2831 36.2915 102.09C34.334 102.579 32.3765 103.09 30.419 103.624C30.1076 103.58 29.7961 103.513 29.4847 103.424C28.15 103.091 26.7487 101.89 25.3473 102.023C24.6132 102.157 24.2128 102.557 23.6789 103.024C22.3443 104.424 21.6769 105.292 20.142 106.225C16.8054 106.892 13.4687 107.493 10.1988 107.626C8.26354 104.958 4.72668 102.957 1.65695 103.824C0.789414 104.091 0.589206 105.025 0.85614 105.692C0.122073 110.761 -0.611994 115.964 1.52347 120.766C1.85714 121.5 2.72466 121.366 3.05833 120.833C5.9946 120.032 9.33127 118.165 10.8661 115.497C12.0006 115.03 17.1391 116.23 21.2098 117.364C22.6112 118.298 23.7456 119.766 24.4797 121.233C24.8134 121.767 25.5475 122.3 26.2148 121.967C29.0843 120.299 31.4867 120.766 34.5565 121.166C35.1793 121.344 35.8244 121.5 36.4917 121.633C38.2935 135.106 43.6989 147.446 51.5735 157.785C50.5057 159.563 49.438 161.386 48.3703 163.254C48.1478 163.432 47.9031 163.61 47.6362 163.788C46.435 164.455 44.5665 164.588 43.6989 165.722C43.2318 166.255 43.2318 166.856 43.2318 167.589C43.2318 169.524 43.432 170.591 42.9649 172.325C41.0963 175.193 39.1611 177.928 36.9589 180.329C33.6889 179.795 29.7517 180.929 28.2168 183.731C27.8164 184.464 28.2835 185.265 28.9509 185.598C32.0206 189.667 35.2238 193.869 40.0953 195.737C40.8294 196.07 41.3633 195.337 41.2298 194.736C42.7647 192.068 43.7657 188.4 42.9649 185.398C43.432 184.331 47.9699 181.53 51.5735 179.462C53.2418 179.129 55.1103 179.329 56.6452 179.862C57.2458 180.062 58.1801 179.862 58.3803 179.129C59.2478 175.927 61.3165 174.593 63.7189 172.725C64.3195 172.392 64.8534 171.992 65.454 171.658C75.7977 179.662 88.2101 185.065 101.757 186.999C102.246 188.867 102.758 190.757 103.292 192.669C103.247 192.98 103.181 193.291 103.092 193.602C102.758 194.936 101.557 196.337 101.69 197.738C101.824 198.471 102.224 198.872 102.691 199.405C104.093 200.739 104.96 201.406 105.894 202.94C106.562 206.275 107.162 209.544 107.296 212.812C104.626 214.813 102.624 218.348 103.492 221.416C103.759 222.283 104.626 222.484 105.361 222.217C110.432 222.95 115.637 223.617 120.442 221.55C121.176 221.216 121.043 220.349 120.509 220.016C119.708 217.081 117.84 213.746 115.17 212.212C114.703 211.078 115.904 205.942 117.039 201.873C117.973 200.473 119.441 199.339 120.909 198.605C121.443 198.271 121.977 197.538 121.643 196.871C119.975 194.003 120.442 191.601 120.843 188.533C120.932 188.089 121.043 187.644 121.176 187.199C135.124 185.598 147.936 180.262 158.614 172.192C160.037 173.037 161.483 173.881 162.951 174.726C163.129 174.949 163.307 175.193 163.485 175.46C164.153 176.661 164.286 178.528 165.421 179.395C165.954 179.795 166.555 179.862 167.222 179.862C169.224 179.862 170.292 179.662 172.027 180.129C174.897 181.997 177.633 183.931 180.035 186.132C179.501 189.4 180.636 193.336 183.439 194.87C184.173 195.27 184.973 194.803 185.307 194.136C189.378 191.068 193.582 187.866 195.451 182.997C195.784 182.263 195.05 181.73 194.45 181.863C191.78 180.329 188.11 179.329 185.107 180.129C184.039 179.662 181.236 175.127 179.168 171.525C178.834 169.791 179.034 167.99 179.568 166.456C179.768 165.855 179.568 164.921 178.834 164.721C175.631 163.787 174.296 161.786 172.428 159.385C172.339 159.252 172.25 159.118 172.161 158.985C180.769 148.313 186.575 135.24 188.377 120.899C189.711 120.544 191.046 120.188 192.381 119.832C192.692 119.877 193.004 119.943 193.315 120.032C194.65 120.366 195.984 121.566 197.453 121.433C198.187 121.3 198.587 120.899 199.121 120.433C200.456 119.032 201.123 118.165 202.658 117.231C205.994 116.497 209.264 115.964 212.534 115.83C214.536 118.498 218.073 120.432 221.143 119.632C222.01 119.365 222.211 118.431 221.944 117.698C222.678 112.695 223.345 107.493 221.276 102.69Z" fill="#FFE7D0"/>
<path d="M82.8714 77.411C81.8704 75.3433 79.6015 74.5429 77.3993 74.8097C77.0434 74.8542 76.6874 74.9209 76.3315 75.0098C76.1313 74.6763 75.7309 74.4762 75.3305 74.6763C70.9929 76.4105 67.1891 82.9471 67.1223 87.5494C67.1223 93.6858 73.7957 92.6186 77.1323 90.0173C80.469 87.5494 85.0736 81.8799 82.8714 77.411Z" fill="#817242"/>
<path d="M112.901 107.96C112.568 108.093 112.301 108.226 112.167 108.426C110.966 108.493 109.765 108.827 108.43 109.494C105.828 110.828 103.559 113.095 102.358 115.763C100.089 120.899 101.89 127.903 107.963 128.97C114.036 130.104 120.242 124.635 121.91 119.098C123.579 113.496 119.575 105.825 112.901 107.96Z" fill="#817242"/>
<path d="M140.863 68.2731C139.862 66.2054 137.659 64.9381 135.524 65.0715C133.922 64.6713 132.454 64.6046 130.919 65.6718C129.384 66.739 128.384 68.4732 128.317 70.3408C128.05 74.4095 131.72 78.0113 135.791 77.3443C139.928 76.6106 142.664 72.2084 140.863 68.2731Z" fill="#817242"/>
<path d="M159.615 140.909C158.814 140.576 158.013 140.509 157.346 140.709C151.874 140.709 149.271 148.713 151.34 153.116C151.607 153.649 152.274 153.983 152.875 153.983C157.479 154.183 162.084 150.914 162.418 146.112C162.551 143.978 161.75 141.777 159.615 140.909Z" fill="#817242"/>
<path d="M89.211 149.113C87.9431 146.312 84.1393 143.978 81.3365 145.111C81.0696 144.911 80.6692 144.778 80.202 144.778C79.3345 144.845 78.3335 145.312 77.6662 145.845C76.1313 147.246 75.464 149.38 75.5975 151.381C75.8644 155.583 79.6014 159.252 84.0058 158.251C87.9431 157.384 91.0128 153.049 89.211 149.113Z" fill="#817242"/>
<path d="M113.902 57.5344C114.77 55.8669 114.103 54.066 112.768 53.1322C112.634 52.732 112.234 52.4652 111.834 52.4652C111.611 52.4652 111.411 52.4652 111.233 52.4652C110.566 52.3985 109.832 52.5319 109.164 52.8654C108.697 53.0655 108.297 53.3323 107.896 53.7325C106.962 54.8664 106.562 56.2671 107.096 57.6678C107.563 59.0018 108.764 60.0023 110.165 59.9356C111.633 59.9356 113.235 58.8017 113.902 57.5344Z" fill="#B1AA93"/>
<path d="M64.2528 117.431C64.2528 116.897 63.8524 116.364 63.1183 116.497C57.6462 117.631 54.9769 126.502 59.1811 130.304C64.3863 135.04 71.5935 126.102 69.7917 120.966C68.9241 118.698 66.5885 117.431 64.2528 117.431Z" fill="#B1AA93"/>
<path d="M123.979 151.782C123.312 151.648 122.644 151.715 121.977 151.782C120.175 151.315 118.24 152.849 116.972 155.05C116.438 155.783 115.971 156.584 115.704 157.384C114.636 160.119 115.304 164.588 118.841 165.122C118.974 165.122 119.085 165.122 119.174 165.122C119.441 165.21 119.73 165.277 120.042 165.322C127.783 166.656 132.454 153.182 123.979 151.782Z" fill="#B1AA93"/>
<path d="M161.617 101.756C161.417 101.623 161.216 101.49 160.949 101.556C156.545 101.957 153.876 104.291 152.941 108.76C152.207 112.629 153.876 117.097 158.213 117.698C161.216 118.098 163.752 116.097 165.154 113.362C166.889 111.028 167.556 107.559 166.488 105.158C165.687 103.157 163.819 101.756 161.617 101.756Z" fill="#B1AA93"/>
<path d="M37.6262 35.7902C37.8264 35.2566 37.0924 34.9231 36.692 35.2566C35.4908 36.2571 34.5565 37.1909 33.0216 37.5911C31.8204 37.9246 32.3543 39.8589 33.4887 39.4587C35.2238 38.8584 37.0923 37.6578 37.6262 35.7902Z" fill="#B1AA93"/>
<path d="M44.0993 42.727C44.1661 42.2601 43.9659 41.8599 43.5655 41.7265C42.9649 41.4597 42.431 41.8599 41.9638 42.1267C41.5634 42.3935 41.1631 42.6603 40.7627 42.9271C39.6949 43.5941 40.6292 45.1949 41.6969 44.5946C42.1418 44.3278 42.5644 44.0832 42.9648 43.8609C43.432 43.5941 44.0326 43.3273 44.0993 42.727Z" fill="#B1AA93"/>
<path d="M51.3065 49.0635C51.5734 48.5966 51.0396 48.1297 50.5725 48.3298C49.438 48.9301 48.3035 49.6638 47.1023 50.1974C46.0346 50.6643 46.9689 52.4652 48.1033 51.8649C49.3713 51.1312 50.5724 50.3308 51.3065 49.0635Z" fill="#B1AA93"/>
<path d="M52.9749 55.1332C51.9071 55.7557 50.8616 56.356 49.8384 56.9341C48.7707 57.5344 49.7717 59.2686 50.8394 58.6016C51.8181 57.9346 52.8191 57.2898 53.8424 56.6673C54.7099 56.067 53.9091 54.5996 52.9749 55.1332Z" fill="#B1AA93"/>
<path d="M107.363 6.2421C108.964 6.6423 110.588 6.6423 112.234 6.2421C112.701 6.1754 112.568 5.5084 112.167 5.5084C110.699 5.5084 109.342 5.1749 108.097 4.5079C106.829 3.8409 106.028 5.9086 107.363 6.2421Z" fill="#B1AA93"/>
<path d="M110.766 15.7802C110.455 15.6913 110.165 15.5801 109.898 15.4467C109.365 15.1799 108.764 15.38 108.564 15.9136C108.297 16.4472 108.63 16.9808 109.164 17.1809C109.965 17.5144 111.166 17.6478 111.9 17.1809C112.434 16.8474 112.368 16.047 111.767 15.8469C111.433 15.7802 111.1 15.7802 110.766 15.7802Z" fill="#B1AA93"/>
<path d="M109.965 26.9858C111.1 26.9191 111.767 26.5856 112.634 25.7852C112.901 25.5851 112.701 25.2516 112.434 25.2516C111.433 25.1849 110.699 25.1182 109.765 25.1849C108.764 25.1849 107.83 25.0515 106.895 24.8514C105.761 24.5179 105.227 26.3855 106.428 26.6523C107.563 26.9858 108.764 27.1192 109.965 26.9858Z" fill="#B1AA93"/>
<path d="M110.432 31.0545C109.832 30.9878 109.164 31.1212 108.497 31.1212C107.429 31.1212 107.229 32.722 108.23 32.9888C109.565 33.3223 111.633 33.5891 112.434 32.2551C112.634 31.9216 112.501 31.5214 112.234 31.3213C111.7 30.9878 111.033 31.0545 110.432 31.0545Z" fill="#B1AA93"/>
<path d="M186.175 38.5249C185.24 37.3243 184.44 35.9903 183.839 34.5229C183.372 33.2556 181.437 34.1227 182.104 35.2566C183.038 36.7907 184.173 38.058 185.507 39.1919C185.974 39.5921 186.575 38.9918 186.175 38.5249Z" fill="#B1AA93"/>
<path d="M179.301 45.7952C179.435 45.4617 179.301 44.9948 178.967 44.8614C178.367 44.5279 177.9 44.061 177.566 43.5274C177.299 42.9938 176.632 42.9271 176.165 43.2606C175.697 43.5941 175.631 44.2611 176.031 44.6613C176.743 45.3283 177.522 45.8619 178.367 46.2621C178.767 46.3955 179.168 46.1287 179.301 45.7952Z" fill="#B1AA93"/>
<path d="M171.493 54.9998C172.161 55.4 172.761 54.5996 172.494 53.9993C172.027 52.9988 171.36 51.7982 170.626 50.9978C169.825 50.064 168.824 49.3303 167.956 48.5299C167.156 47.7962 165.754 48.73 166.422 49.6638C167.156 50.6643 167.823 51.7982 168.624 52.732C169.425 53.5991 170.492 54.3995 171.493 54.9998Z" fill="#B1AA93"/>
<path d="M217.739 107.96C217.673 106.959 216.538 106.692 215.938 107.493C215.204 108.56 215.137 109.761 215.204 111.095C215.27 112.362 215.537 113.229 216.472 114.163C216.738 114.43 217.339 114.363 217.406 113.896C217.473 113.496 217.606 113.029 217.673 112.629C217.673 112.095 217.539 111.561 217.539 111.095C217.539 110.027 217.806 109.027 217.739 107.96Z" fill="#B1AA93"/>
<path d="M208.13 111.561C208.263 110.961 207.863 110.361 207.196 110.361C206.595 110.361 206.195 110.961 206.328 111.561C206.261 111.295 206.195 111.628 206.195 111.695C206.061 111.962 205.994 112.162 206.061 112.428C206.128 112.762 206.261 113.029 206.328 113.362C206.662 114.229 207.796 114.229 208.13 113.362C208.197 113.029 208.33 112.762 208.397 112.428C208.397 112.162 208.397 111.962 208.33 111.761C208.263 111.695 208.197 111.295 208.13 111.561Z" fill="#B1AA93"/>
<path d="M195.384 108.026C194.183 110.027 193.715 113.696 195.451 115.497C195.784 115.83 196.385 115.697 196.652 115.297C197.319 114.363 197.386 113.095 197.386 111.962C197.453 110.628 197.453 109.56 197.119 108.293C196.919 107.493 195.784 107.359 195.384 108.026Z" fill="#B1AA93"/>
<path d="M188.377 182.797C186.842 183.597 184.84 185.332 185.307 187.266C185.441 187.8 185.974 187.799 186.375 187.533C186.909 187.132 187.309 186.399 187.776 185.865C188.177 185.265 188.777 184.798 189.378 184.464C190.446 183.864 189.511 182.33 188.377 182.797Z" fill="#B1AA93"/>
<path d="M179.902 178.061C179.813 178.061 179.724 178.061 179.635 178.061C179.234 178.195 179.034 178.461 178.834 178.795C178.656 179.062 178.478 179.329 178.3 179.595C177.566 180.729 179.234 182.063 180.169 181.063C180.391 180.796 180.613 180.551 180.836 180.329C181.103 180.062 181.303 179.729 181.303 179.329C181.303 179.24 181.281 179.173 181.236 179.128C181.503 178.328 180.636 177.661 179.902 178.061Z" fill="#B1AA93"/>
<path d="M173.228 167.389C171.427 168.657 169.825 170.257 168.891 172.325C168.49 173.259 169.558 174.259 170.426 173.459C172.027 172.058 173.295 170.391 174.563 168.723C175.097 167.99 173.962 166.922 173.228 167.389Z" fill="#B1AA93"/>
<path d="M113.836 215.88C112.701 215.08 111.166 215.213 110.032 215.88C109.431 216.28 109.231 217.081 109.698 217.681C110.099 218.215 110.966 218.348 111.433 217.814C111.834 217.348 112.368 217.281 112.835 217.548C113.969 218.081 114.837 216.547 113.836 215.88Z" fill="#B1AA93"/>
<path d="M112.101 203.941C112.234 203.874 112.301 203.741 112.434 203.607C112.634 203.674 112.901 203.607 113.102 203.607C113.569 203.674 113.969 203.207 114.036 202.807C114.036 202.273 113.769 201.94 113.302 201.74C112.99 201.651 112.657 201.584 112.301 201.54C112.034 201.54 111.767 201.406 111.433 201.406C110.632 201.473 109.698 202.407 109.698 203.207C109.765 203.607 109.965 204.008 110.366 204.141C110.766 204.208 111.7 204.141 112.101 203.941Z" fill="#B1AA93"/>
<path d="M114.903 192.202C114.169 192.135 113.435 191.868 112.701 191.801C111.9 191.735 110.966 192.002 110.299 192.402C109.298 193.002 109.565 194.403 110.632 194.736C112.234 195.337 113.635 194.536 115.17 194.069C116.238 193.736 115.971 192.268 114.903 192.202Z" fill="#B1AA93"/>
<path d="M37.0256 185.265C36.3583 184.865 35.5575 184.598 34.7567 184.665C34.2895 184.731 33.8224 185.065 33.8224 185.598C33.8224 186.065 34.2895 186.666 34.7567 186.599C35.2905 186.532 35.6909 186.599 36.158 186.799C36.6252 187.132 36.8254 187.599 37.3593 187.733C37.6929 187.866 38.0933 187.599 38.16 187.266C38.427 186.399 37.6929 185.732 37.0256 185.265Z" fill="#B1AA93"/>
<path d="M45.2338 177.261C44.6999 177.128 44.2328 177.194 43.7657 177.461C43.3653 177.594 43.2318 178.061 43.2985 178.395C43.2985 178.728 43.5655 178.995 43.8991 179.128C43.8547 179.128 43.8547 179.128 43.8991 179.128C43.8991 179.173 43.8991 179.195 43.8991 179.195C43.8991 179.195 43.9659 179.262 44.0326 179.329C44.0326 179.329 44.0326 179.395 44.0993 179.395C44.0993 179.44 44.1216 179.462 44.1661 179.462C44.433 180.129 45.1003 180.462 45.8344 180.196C46.5685 179.862 46.9021 178.995 46.5017 178.261C46.1681 177.795 45.7677 177.394 45.2338 177.261Z" fill="#B1AA93"/>
<path d="M44.0993 179.395C44.1661 179.595 44.0993 179.529 44.0993 179.395Z" fill="#B1AA93"/>
<path d="M49.1043 168.79C47.8364 168.79 47.9031 170.791 49.1043 170.724C49.9051 170.591 50.6392 170.724 51.3733 171.124C52.1073 171.525 52.441 172.192 53.1083 172.725C53.442 172.992 54.2428 172.859 54.176 172.258C53.9758 170.057 51.0396 168.79 49.1043 168.79Z" fill="#B1AA93"/>
<path d="M5.06033 109.36C5.66093 111.094 5.39401 112.895 4.86014 114.63C4.45974 115.763 6.06135 116.364 6.66195 115.43C7.99661 113.296 7.86311 110.828 6.79538 108.627C6.32825 107.626 4.65993 108.293 5.06033 109.36Z" fill="#B1AA93"/>
<path d="M14.403 110.494C13.9359 110.894 13.9358 111.495 14.2695 111.962C14.6032 112.362 14.6699 112.895 14.6699 113.429C14.6032 113.896 15.1371 114.296 15.5375 114.296C16.1381 114.296 16.405 113.896 16.4717 113.429C16.6052 112.495 16.3382 111.561 15.8044 110.828C15.4707 110.361 14.8701 110.161 14.403 110.494Z" fill="#B1AA93"/>
<path d="M26.2815 107.293C25.5474 106.759 24.6799 107.626 24.8801 108.36C25.1471 109.494 25.6142 110.694 25.5475 111.828C25.4807 112.895 24.8134 114.163 25.2138 115.163C25.414 115.697 25.8811 116.03 26.415 115.897C28.0833 115.43 28.4837 113.095 28.3503 111.628C28.2168 109.894 27.6829 108.36 26.2815 107.293Z" fill="#B1AA93"/>
<path d="M30.1521 109.094C30.3523 109.761 30.5525 110.428 30.5525 111.161C30.5525 111.828 30.3523 112.495 30.419 113.096C30.4857 113.829 31.3533 114.096 31.7537 113.496C32.6212 112.162 32.3543 110.027 32.0206 108.627C31.687 107.426 29.8184 107.96 30.1521 109.094Z" fill="#B1AA93"/>
<g style="mix-blend-mode:soft-light" opacity="0.7">
<path d="M165.421 179.395C165.954 179.795 166.555 179.862 167.222 179.862C169.224 179.862 170.292 179.662 172.027 180.129C174.897 181.997 177.633 183.931 180.035 186.132C179.501 189.4 180.636 193.336 183.439 194.87C184.173 195.27 184.973 194.803 185.307 194.136C189.378 191.068 193.582 187.866 195.451 182.997C195.784 182.263 195.05 181.73 194.45 181.863C191.78 180.329 188.11 179.329 185.107 180.129C184.039 179.662 181.236 175.127 179.168 171.525C178.834 169.791 179.034 167.99 179.568 166.455C179.768 165.855 179.568 164.921 178.834 164.721C175.631 163.787 174.296 161.786 172.428 159.385C172.339 159.252 172.25 159.118 172.161 158.985C175.697 154.65 178.767 149.847 181.236 144.711C169.158 147.646 156.945 146.846 144.199 142.377C130.119 137.308 116.438 129.704 106.028 118.832C84.0058 95.8202 87.476 65.8052 92.3475 37.1242C82.0038 39.9256 72.5277 44.8614 64.3863 51.398C62.8737 50.5087 61.361 49.6193 59.8484 48.73C59.6704 48.5077 59.4925 48.2631 59.3145 47.9963C58.6472 46.7957 58.5137 44.9281 57.3793 44.061C56.8454 43.5941 56.2448 43.5941 55.5107 43.5941C53.5754 43.5941 52.5077 43.7942 50.7727 43.3273C47.9031 41.4597 45.1671 39.5254 42.7647 37.3243C43.2318 34.056 42.1641 30.1207 39.3613 28.5866C38.6272 28.1864 37.8264 28.6533 37.4927 29.3203C33.422 32.3885 29.2178 35.5901 27.2825 40.4592C27.0156 41.1929 27.7497 41.7265 28.3503 41.5931C31.0196 43.1272 34.6232 44.1277 37.6929 43.3273C38.7607 43.7942 41.5634 48.3298 43.6322 51.9316C43.9658 53.6658 43.6989 55.4667 43.2318 57.0008C43.0316 57.6011 43.2318 58.5349 43.8991 58.735C47.1023 59.6021 48.5037 61.6698 50.3723 64.071C50.5725 64.4045 50.8394 64.8047 51.0396 65.1382C43.0983 75.6768 37.8931 88.2831 36.2915 102.09C34.334 102.579 32.3765 103.09 30.419 103.624C30.1076 103.58 29.7961 103.513 29.4847 103.424C28.15 103.09 26.7487 101.89 25.3473 102.023C24.6132 102.157 24.2128 102.557 23.6789 103.024C22.3443 104.424 21.6769 105.292 20.142 106.225C16.8054 106.892 13.4687 107.493 10.1988 107.626C8.26353 104.958 4.72667 102.957 1.65694 103.824C0.789403 104.091 0.589195 105.025 0.856128 105.692C0.122062 110.761 -0.612005 115.964 1.52346 120.766C1.85713 121.5 2.72465 121.366 3.05832 120.833C5.99459 120.032 9.33126 118.165 10.8661 115.497C12.0006 115.03 17.1391 116.23 21.2098 117.364C22.6112 118.298 23.7456 119.766 24.4797 121.233C24.8134 121.767 25.5475 122.3 26.2148 121.967C29.0843 120.299 31.4867 120.766 34.5565 121.166C35.1793 121.344 35.8244 121.5 36.4917 121.633C38.2935 135.106 43.6989 147.446 51.5735 157.784C50.5057 159.563 49.438 161.386 48.3703 163.254C48.1478 163.432 47.9031 163.61 47.6362 163.787C46.435 164.454 44.5665 164.588 43.6989 165.722C43.2318 166.255 43.2318 166.856 43.2318 167.589C43.2318 169.524 43.432 170.591 42.9648 172.325C41.0963 175.193 39.161 177.928 36.9588 180.329C33.6889 179.795 29.7517 180.929 28.2168 183.731C27.8164 184.464 28.2835 185.265 28.9508 185.598C32.0206 189.667 35.2238 193.869 40.0953 195.737C40.8294 196.07 41.3633 195.337 41.2298 194.736C42.7647 192.068 43.7656 188.4 42.9648 185.398C43.432 184.331 47.9699 181.53 51.5735 179.462C53.2418 179.128 55.1103 179.329 56.6452 179.862C57.2458 180.062 58.1801 179.862 58.3803 179.128C59.2478 175.927 61.3165 174.593 63.7189 172.725C64.3195 172.392 64.8534 171.992 65.454 171.658C75.7977 179.662 88.2101 185.065 101.757 186.999C102.246 188.867 102.758 190.757 103.292 192.669C103.247 192.98 103.181 193.291 103.092 193.602C102.758 194.936 101.557 196.337 101.69 197.738C101.824 198.471 102.224 198.872 102.691 199.405C104.093 200.739 104.96 201.406 105.894 202.94C106.562 206.275 107.162 209.544 107.296 212.812C104.626 214.813 102.624 218.348 103.492 221.416C103.759 222.283 104.626 222.484 105.361 222.217C110.432 222.95 115.637 223.617 120.442 221.55C121.176 221.216 121.043 220.349 120.509 220.016C119.708 217.081 117.84 213.746 115.17 212.212C114.703 211.078 115.904 205.942 117.039 201.873C117.973 200.473 119.441 199.339 120.909 198.605C121.443 198.271 121.977 197.538 121.643 196.871C119.975 194.003 120.442 191.601 120.843 188.533C120.932 188.089 121.043 187.644 121.176 187.199C135.124 185.598 147.936 180.262 158.614 172.192C160.037 173.037 161.483 173.881 162.951 174.726C163.129 174.949 163.307 175.193 163.485 175.46C164.153 176.661 164.286 178.528 165.421 179.395Z" fill="#454545"/>
</g>
</svg>
