<svg width="223" height="224" viewBox="0 0 223 224" fill="none" xmlns="http://www.w3.org/2000/svg">
<path d="M146.762 50.1398C120.403 34.0651 83.6992 38.2005 62.5448 60.8118C62.6115 60.1448 61.6105 59.7446 61.1434 60.4116C42.9252 87.8253 29.3783 122.576 43.1254 154.792C48.5975 167.665 58.2071 179.071 71.0867 184.94C86.3686 191.877 104.12 190.677 120.069 187.008C150.566 180.005 178.594 159.795 183.199 127.045C187.403 97.1633 172.521 65.881 146.762 50.1398Z" fill="#FB6F42"/>
<path d="M191.407 43.0696C189.138 45.0039 184.066 46.1378 181.063 44.4036C174.39 52.4076 166.515 60.545 164.647 70.6167C158.441 69.883 153.569 59.7446 153.569 59.7446C158.641 59.3444 164.447 53.4748 168.451 50.4733C171.987 47.872 175.324 45.0706 178.594 42.2025C178.06 38.0671 177.86 31.4638 182.198 29.7963C183.733 29.196 185.668 29.4628 186.802 30.6634C187.403 31.2637 187.47 31.9307 187.737 32.7311C188.137 34.2652 188.337 33.7983 189.872 34.0651C194.41 34.8655 194.543 40.4683 191.407 43.0696Z" fill="#FAC807"/>
<path d="M221.971 112.237C221.103 111.037 220.703 111.17 221.437 109.77C221.837 109.036 222.238 108.569 222.238 107.702C222.304 106.034 221.17 104.434 219.635 103.833C215.364 101.966 210.826 106.701 208.357 110.036C203.953 109.77 199.615 109.369 195.277 108.702C190.339 108.035 182.064 108.035 178.194 104.767C177.593 104.3 176.792 104.834 176.859 105.434C175.191 107.435 174.323 109.77 174.39 112.438C174.457 114.372 175.057 116.84 176.392 118.441C175.791 119.508 177.193 121.109 178.327 120.308C186.802 114.505 198.147 114.305 208.491 113.305C209.425 116.64 213.763 119.441 216.766 119.708C220.836 120.108 224.64 116.039 221.971 112.237Z" fill="#FAC807"/>
<path d="M192.875 187.208C192.208 187.809 191.54 187.875 190.74 188.075C189.271 188.542 189.672 188.742 189.405 190.277C188.671 194.745 182.998 194.945 180.463 191.811C178.527 189.476 177.393 184.474 179.128 181.472C171.387 175.069 163.512 167.532 153.969 165.331C155.171 157.393 163.713 153.992 163.713 153.992C164.18 159.061 170.052 164.864 173.055 168.866C175.658 172.401 178.461 175.736 181.33 179.004C185.468 178.471 192.008 178.271 193.743 182.606C194.343 184.14 194.076 186.074 192.875 187.208Z" fill="#FAC807"/>
<path d="M119.669 220.025C119.001 221.492 117.466 222.693 115.798 222.626C114.93 222.626 114.397 222.226 113.663 221.826C112.328 221.025 112.461 221.492 111.193 222.359C107.456 225.027 103.386 221.159 103.719 217.157C104.053 214.155 106.789 209.753 110.126 208.886C109.191 198.547 108.991 187.142 103.185 178.737C103.185 178.737 110.259 174.669 118.668 178.537C115.464 182.473 115.464 190.743 114.73 195.679C114.13 200.015 113.729 204.35 113.396 208.686C116.732 211.22 121.537 215.756 119.669 220.025Z" fill="#FAC807"/>
<path d="M54.5368 173.468C51.0667 176.069 47.6633 178.804 44.3934 181.739C44.994 185.808 45.1274 192.411 40.7897 194.145C39.3216 194.745 37.3864 194.479 36.2519 193.278C35.6513 192.611 35.5178 191.944 35.3176 191.144C34.9172 189.676 34.717 190.076 33.1821 189.81C28.6443 189.009 28.4441 183.406 31.5806 180.872C33.9163 178.938 38.988 177.804 41.991 179.471C48.5976 171.534 56.4721 163.33 58.3406 153.258C58.3406 153.258 67.5498 154.258 69.4851 164.13C64.4133 164.597 58.5408 170.467 54.5368 173.468Z" fill="#FAC807"/>
<path d="M44.8605 119.108C40.9899 115.839 32.6483 115.906 27.71 115.172C23.4391 114.572 19.0347 114.105 14.697 113.838C12.2279 117.173 7.62329 121.976 3.35236 120.108C1.88423 119.441 0.749745 117.907 0.749745 116.239C0.816478 115.372 1.21691 114.839 1.61731 114.105C2.35138 112.771 1.95096 112.904 1.01669 111.637C-1.58591 107.902 2.21791 103.767 6.28864 104.167C9.29164 104.5 13.6293 107.235 14.5636 110.57C24.9073 109.636 36.2519 109.369 44.727 103.633C49.3984 108.436 44.8605 119.108 44.8605 119.108Z" fill="#FAC807"/>
<path d="M70.1524 58.8108C70.1524 58.8108 69.2849 67.5485 59.3416 69.9497C58.8745 64.8805 53.002 59.0109 49.999 55.0089C47.3964 51.5405 44.5935 48.1388 41.724 44.8705C37.5865 45.4708 30.98 45.6042 29.3116 41.2687C28.711 39.8013 28.9779 37.867 30.1791 36.7331C30.8464 36.0661 31.4471 35.9994 32.2479 35.7993C33.7828 35.3324 33.3824 35.199 33.5826 33.6649C34.3834 29.1293 39.989 28.9292 42.5916 32.0641C44.5268 34.3986 45.6613 39.4678 43.9262 42.4693C51.9342 49.0726 60.0757 56.9432 70.1524 58.8108Z" fill="#FAC807"/>
<path d="M119.869 45.1373C112.995 49.206 106.923 46.8048 104.32 45.4041C104.32 45.3596 104.32 45.3374 104.32 45.3374C107.59 41.4688 107.59 33.1313 108.324 28.1955C108.925 23.86 109.325 19.5245 109.592 15.189C106.322 12.7211 101.517 8.11881 103.386 3.85001C103.986 2.38261 105.588 1.18199 107.256 1.24869C108.124 1.31539 108.658 1.71562 109.392 2.11582C110.726 2.84952 110.593 2.44931 111.861 1.51551C115.598 -1.15249 119.669 2.7161 119.268 6.7181C119.001 9.7863 116.198 14.1218 112.928 15.0556C113.863 25.3941 114.063 36.7331 119.869 45.1373Z" fill="#FAC807"/>
<path d="M98.5808 72.4843C96.1784 74.6187 89.6386 79.4211 83.8995 76.0194C86.5021 71.6172 85.034 63.4798 84.9005 58.4773C84.767 54.0751 84.4334 49.7396 83.9663 45.4041C80.2292 43.5365 74.757 39.868 75.8915 35.3324C76.2252 33.7316 77.5598 32.3309 79.2282 32.0641C80.0957 31.9307 80.6963 32.2642 81.4304 32.531C82.9653 33.0646 82.6983 32.6644 83.7661 31.5305C87.036 28.3289 91.7073 31.3971 92.041 35.4658C92.3079 38.4673 90.3059 43.203 87.1694 44.6704C89.772 54.4086 91.9075 65.214 98.5808 72.4843Z" fill="#FAC807"/>
<path d="M148.23 188.009C147.83 189.543 146.429 190.944 144.827 191.144C143.893 191.277 143.359 190.944 142.558 190.61C141.09 190.076 141.357 190.477 140.222 191.544C136.886 194.745 132.281 191.544 132.081 187.475C131.881 184.474 134.016 179.738 137.153 178.337C134.75 168.265 132.882 157.06 125.875 149.59C125.875 149.59 136.619 144.053 141.223 147.122C138.554 151.457 139.822 159.661 139.822 164.664C139.822 169.021 140.022 173.357 140.423 177.67C144.093 179.671 149.432 183.473 148.23 188.009Z" fill="#FAC807"/>
<path d="M86.6356 119.241C88.7043 116.44 89.772 111.304 86.2351 109.103C83.766 107.568 81.6306 108.902 80.2959 110.903C78.2272 112.371 77.8268 115.773 78.761 118.04C80.1624 121.642 84.2999 122.443 86.6356 119.241Z" fill="#EA5D36"/>
<path d="M68.2839 83.7566C64.2132 83.3564 62.4114 89.4928 62.2779 92.6277C62.011 97.4968 66.6155 100.832 71.2201 99.0976C75.758 97.4301 78.0269 91.2937 76.2251 86.8915C74.8905 83.5565 71.1535 82.3559 68.2839 83.7566Z" fill="#EA5D36"/>
<path d="M113.796 90.4933C113.729 90.56 113.663 90.6934 113.596 90.7601C112.995 91.0936 112.395 91.5605 111.927 92.0274C109.458 94.8288 108.724 99.3644 109.125 102.966C109.992 110.637 117.934 118.107 125.675 113.505C132.415 109.503 134.817 99.5645 131.681 92.6277C128.477 85.4241 118.267 83.1563 113.796 90.4933Z" fill="#EA5D36"/>
<path d="M118.067 66.548C117.667 67.0816 117.667 67.5485 117.867 67.9487C117.533 69.6162 117.733 71.5505 118.134 72.551C119.468 75.9527 123.939 77.7536 127.076 75.5525C130.279 73.4181 130.413 68.6157 127.81 65.881C125.007 62.9462 120.403 63.4798 118.067 66.548Z" fill="#EA5D36"/>
<path d="M112.928 130.78C110.126 128.579 106.455 129.713 105.121 132.914C105.076 133.048 105.054 133.181 105.054 133.315C103.786 136.116 103.719 139.718 106.055 141.852C108.858 144.52 112.261 142.986 113.996 140.051C115.798 137.117 115.731 133.048 112.928 130.78Z" fill="#EA5D36"/>
<path d="M156.706 107.502C155.705 106.034 153.903 105.434 152.168 105.634C151.3 105.701 150.566 106.034 149.899 106.501C147.163 105.301 145.828 111.17 146.028 113.038C146.429 116.84 150.299 119.374 153.703 117.107C156.572 115.306 158.908 110.57 156.706 107.502Z" fill="#EA5D36"/>
<path d="M88.6375 161.595C87.4363 161.395 86.1016 161.929 85.5677 163.063C85.3453 163.419 85.2341 163.774 85.2341 164.13C84.8337 164.263 84.5 164.53 84.2331 164.864C83.5657 165.998 84.5667 167.532 85.2341 168.466C86.9024 170.733 89.6385 170.8 91.0399 168.199C92.3746 165.798 91.8407 162.062 88.6375 161.595Z" fill="#EA5D36"/>
<path d="M63.9462 132.114C62.6783 131.18 60.743 131.114 59.5418 132.247C59.1414 132.714 58.8078 133.248 58.6076 133.848C57.9402 134.849 58.1404 136.316 58.4073 137.383C59.1414 139.851 61.5438 141.919 64.013 140.118C66.3486 138.384 66.2819 133.848 63.9462 132.114Z" fill="#EA5D36"/>
<g style="mix-blend-mode:soft-light" opacity="0.9">
<path d="M167.316 150.19C157.173 145.588 146.829 141.185 137.086 135.783C104.987 118.107 81.764 87.3584 72.3546 52.4076C68.8178 54.8755 65.5478 57.6769 62.5448 60.8118C62.6115 60.1448 61.6105 59.7446 61.1434 60.4116C42.9252 87.8253 29.3783 122.576 43.1254 154.792C48.5975 167.665 58.2071 179.071 71.0867 184.941C86.3686 191.877 104.12 190.677 120.069 187.008C141.49 182.072 161.644 170.667 173.389 152.991C171.342 152.057 169.318 151.124 167.316 150.19Z" fill="#454545"/>
</g>
<path d="M154.503 82.4226C152.435 78.8208 147.964 79.7546 145.828 82.6894C145.784 82.6894 145.739 82.7116 145.695 82.7561C143.292 85.7576 143.96 92.0941 148.831 91.894C153.035 91.6939 156.706 86.2245 154.503 82.4226Z" fill="#F98C6E"/>
<path fill-rule="evenodd" clip-rule="evenodd" d="M118.2 161.395C117.466 165.931 110.993 167.198 108.591 163.33C107.523 161.529 107.657 159.061 108.925 157.393C109.525 156.526 110.593 155.926 111.661 155.859C112.862 155.059 114.397 155.059 115.798 155.926C117.6 157.06 118.534 159.328 118.2 161.395ZM115.798 160.061C115.665 160.795 115.398 161.462 115.131 161.996C114.997 162.218 114.842 162.44 114.664 162.663C115.464 162.129 115.932 161.195 115.798 160.061Z" fill="#F98C6E"/>
<path fill-rule="evenodd" clip-rule="evenodd" d="M89.9055 138.651C89.3049 140.785 87.3029 142.853 84.9673 143.053C82.8318 143.186 80.9632 141.585 80.4294 139.651C79.6953 137.25 80.8965 134.849 82.6983 133.248C83.8995 132.181 85.9682 130.847 87.1694 132.648C87.2584 132.781 87.3029 132.892 87.3029 132.981C89.1715 133.848 90.5728 136.183 89.9055 138.651ZM86.4354 136.783C86.3019 137.25 86.0349 137.717 85.5011 137.917C85.4566 137.961 85.3899 137.984 85.3009 137.984C85.3009 138.073 85.3009 138.162 85.3009 138.25C85.2342 138.651 84.9672 138.851 84.7003 138.917C84.8783 139.006 85.0562 139.073 85.2341 139.118C85.6345 138.851 85.9015 138.495 86.035 138.05C86.2352 137.717 86.3686 137.25 86.4354 136.783Z" fill="#F98C6E"/>
<path d="M151.167 132.314C151.167 132.359 151.167 132.403 151.167 132.448C150.766 132.781 150.433 133.181 150.232 133.648C149.365 135.649 149.498 138.184 151.167 139.651C155.104 143.12 160.376 138.584 160.176 134.115C159.909 129.046 153.569 127.979 151.167 132.314Z" fill="#F98C6E"/>
</svg>
