<svg width="579" height="622" viewBox="0 0 579 622" fill="none" xmlns="http://www.w3.org/2000/svg">
<path fill-rule="evenodd" clip-rule="evenodd" d="M290.5 181.5C281.942 172.888 272.609 165.221 262.5 158.5C264.265 157.539 266.265 157.205 268.5 157.5C277.884 157.816 287.218 157.316 296.5 156C271.742 153.477 247.742 147.81 224.5 139C210.298 133.29 198.964 124.123 190.5 111.5C177.084 80.083 182.917 52.749 208 29.5C205.389 36.301 203.889 43.468 203.5 51C203.408 55.888 204.574 60.388 207 64.5C216.448 34.885 235.282 13.552 263.5 0.5C260.903 5.043 257.737 9.709 254 14.5C247.09 27.04 246.756 39.707 253 52.5C256.292 30.785 268.125 15.618 288.5 7C293.065 5.355 297.731 4.688 302.5 5C288.204 12.763 284.704 23.93 292 38.5C294.205 41.04 296.705 43.207 299.5 45C307.181 48.588 315.181 51.255 323.5 53C346.548 56.005 369.548 59.338 392.5 63C411.727 67.51 426.561 78.01 437 94.5C439.236 98.794 440.736 103.294 441.5 108C464.281 109.233 485.281 115.9 504.5 128C526.443 147.181 531.943 170.348 521 197.5C512.948 184.028 501.114 176.195 485.5 174C465.202 171.231 444.868 170.898 424.5 173C389.88 177.724 355.214 182.057 320.5 186C312.167 186.667 303.833 186.667 295.5 186C293.963 184.293 292.296 182.793 290.5 181.5ZM336.5 92.5C339.817 91.835 343.317 91.501 347 91.5C350.902 91.512 354.402 92.179 357.5 93.5C361.486 103.739 368.486 106.239 378.5 101C380.54 98.815 381.874 96.315 382.5 93.5C386.825 93.102 389.325 95.102 390 99.5C390.495 101.473 390.662 103.473 390.5 105.5C378.829 105.667 367.162 105.5 355.5 105C347.454 103.318 341.121 99.152 336.5 92.5Z" fill="white"/>
<path fill-rule="evenodd" clip-rule="evenodd" d="M147.5 97.5C148.779 100.002 148.779 102.502 147.5 105C140.414 108.14 133.414 111.474 126.5 115C122.764 117.069 120.097 120.069 118.5 124C119.749 129.391 122.749 130.725 127.5 128C135.39 121.106 143.556 114.606 152 108.5C155.51 109.661 156.844 111.994 156 115.5C149.883 119.141 143.716 122.641 137.5 126C134.37 128.128 131.537 130.628 129 133.5C129.115 136.343 130.282 138.843 132.5 141C133.5 141.667 134.5 141.667 135.5 141C144.656 133.922 153.989 127.089 163.5 120.5C164.914 121.624 166.414 122.624 168 123.5C168.749 124.635 168.583 125.635 167.5 126.5C160.112 130.861 152.446 134.694 144.5 138C142.667 139.833 140.833 141.667 139 143.5C139.175 147.893 141.342 151.226 145.5 153.5C154.913 146.591 163.58 138.758 171.5 130C174.419 129.448 177.086 130.115 179.5 132C180.86 133.938 180.527 135.604 178.5 137C172.167 140.667 165.833 144.333 159.5 148C154.603 150.53 151.769 154.363 151 159.5C153.505 161.749 156.172 163.749 159 165.5C161.39 164.722 163.557 163.555 165.5 162C170.5 156.333 175.5 150.667 180.5 145C182.217 143.441 184.217 142.608 186.5 142.5C186.665 145.518 186.498 148.518 186 151.5C181.527 155.539 176.694 159.039 171.5 162C168.6 164.397 166.267 167.23 164.5 170.5C166.86 172.853 169.527 174.853 172.5 176.5C178.931 172.903 184.264 168.07 188.5 162C189.167 161.333 189.833 161.333 190.5 162C192.036 163.599 192.536 165.433 192 167.5C186.396 170.936 181.563 175.269 177.5 180.5C179.842 182.673 182.342 184.673 185 186.5C188.488 184.346 191.321 181.512 193.5 178C194.167 177.333 194.833 177.333 195.5 178C196.576 179.726 196.743 181.559 196 183.5C188.762 188.033 188.762 192.367 196 196.5C197.87 194.595 199.37 192.428 200.5 190C201.332 189.312 201.998 189.479 202.5 190.5C203.52 192.432 203.687 194.432 203 196.5C201.647 197.685 200.48 199.019 199.5 200.5C201.185 202.571 202.852 204.571 204.5 206.5C207.052 213.444 204.719 216.278 197.5 215C196.016 214.338 194.683 213.504 193.5 212.5C178.118 198.965 162.118 186.132 145.5 174C131.809 160.823 119.476 146.657 108.5 131.5C106.345 127.861 104.178 124.194 102 120.5C101.245 117.697 101.578 115.03 103 112.5C115.655 100.99 129.488 91.324 144.5 83.5C145.186 87.287 144.186 90.454 141.5 93C135.07 96.549 128.404 99.549 121.5 102C118.705 103.793 116.205 105.96 114 108.5C112.578 111.03 112.245 113.697 113 116.5C114.388 117.554 115.888 117.72 117.5 117C126.167 110.333 134.833 103.667 143.5 97C144.928 96.421 146.262 96.588 147.5 97.5Z" fill="white"/>
<path fill-rule="evenodd" clip-rule="evenodd" d="M185.5 117.5C187.628 120.13 189.961 122.63 192.5 125C209.558 137.694 227.891 148.361 247.5 157C260.787 164.448 272.453 173.948 282.5 185.5C280.709 186.17 279.042 186.837 277.5 187.5C256.213 188.52 236.213 194.02 217.5 204C215.415 205.041 213.748 206.541 212.5 208.5C211.575 207.643 210.908 206.643 210.5 205.5C208.582 199.312 208.082 192.979 209 186.5C215.673 173.904 226.173 166.904 240.5 165.5C237.338 164.068 234.005 163.401 230.5 163.5C217.503 162.696 209.003 168.362 205 180.5C200.813 175.221 199.48 169.221 201 162.5C204.884 156.641 210.05 152.308 216.5 149.5C213.255 147.102 209.588 145.769 205.5 145.5C198.1 146.073 194.934 150.073 196 157.5C193.25 154.758 191.75 151.424 191.5 147.5C192.497 143.753 193.997 140.42 196 137.5C187.574 132.372 179.408 126.872 171.5 121C164.79 115.473 159.456 108.973 155.5 101.5C148.753 87.292 150.586 74.292 161 62.5C164.7 58.465 168.7 54.798 173 51.5C163.515 73.725 166.181 94.392 181 113.5C182.371 115.041 183.871 116.375 185.5 117.5Z" fill="white"/>
<path fill-rule="evenodd" clip-rule="evenodd" d="M104.5 134.5C107.99 139.471 111.49 144.471 115 149.5C115.667 151.167 115.667 152.833 115 154.5C103.646 162.595 91.48 169.261 78.5 174.5C75.855 173.738 74.521 171.904 74.5 169C76.519 158.737 78.852 148.57 81.5 138.5C82.553 131.892 85.553 126.392 90.5 122C94.421 121.235 96.755 122.902 97.5 127C96.083 129.638 93.916 131.472 91 132.5C85.816 142.604 83.983 153.27 85.5 164.5C92.587 160.541 99.42 156.208 106 151.5C106.166 147.5 104.499 144.5 101 142.5C99.378 142.954 98.212 143.954 97.5 145.5C100.219 151.859 98.219 154.692 91.5 154C89.441 146.172 91.441 139.505 97.5 134C99.929 133.297 102.262 133.463 104.5 134.5Z" fill="white"/>
<path fill-rule="evenodd" clip-rule="evenodd" d="M74.5003 138.5C75.0433 138.56 75.3763 138.893 75.5003 139.5C68.0613 153.638 64.2283 168.638 64.0003 184.5C64.5613 185.022 65.2283 185.355 66.0003 185.5C78.6773 180.33 91.5113 175.664 104.5 171.5C102.027 180.727 99.8603 190.061 98.0003 199.5C97.5013 204.155 97.3343 208.821 97.5003 213.5C109.367 206.995 121.033 199.995 132.5 192.5C132.833 193 133.167 193.5 133.5 194C130.273 206.738 127.606 219.571 125.5 232.5C133.223 229.135 140.556 224.969 147.5 220C150.971 217.928 154.638 216.428 158.5 215.5C155.842 225.127 153.675 234.793 152 244.5C153.726 245.576 155.559 245.743 157.5 245C163.713 243.099 169.713 240.932 175.5 238.5C176.376 238.369 177.043 238.702 177.5 239.5C172.478 247.556 167.478 255.556 162.5 263.5C159.492 264.741 156.492 264.574 153.5 263C137.165 253.667 120.165 245.667 102.5 239C82.3133 229.746 62.9803 219.246 44.5003 207.5C42.2053 204.703 39.7053 202.036 37.0003 199.5C36.3333 197.5 36.3333 195.5 37.0003 193.5C41.1623 185.172 45.8293 177.172 51.0003 169.5C58.8423 159.137 66.6763 148.803 74.5003 138.5Z" fill="white"/>
<path fill-rule="evenodd" clip-rule="evenodd" d="M117.5 158.5C121.145 157.68 123.478 159.013 124.5 162.5C117.552 166.779 114.052 173.113 114 181.5C113.176 184.882 113.343 188.216 114.5 191.5C121.391 187.895 127.725 183.562 133.5 178.5C127.892 171.203 125.059 172.203 125 181.5C123.103 183.016 120.936 183.683 118.5 183.5C117.69 177.792 119.19 172.792 123 168.5C125.627 166.012 128.46 165.845 131.5 168C135.393 171.39 138.727 175.223 141.5 179.5C131.718 187.567 121.052 194.4 109.5 200C108.5 200.667 107.5 200.667 106.5 200C105.742 191.025 106.909 182.191 110 173.5C110.927 167.646 113.427 162.646 117.5 158.5Z" fill="white"/>
<path fill-rule="evenodd" clip-rule="evenodd" d="M145.5 183.5C151.963 185.137 152.13 187.47 146 190.5C143.567 196.691 143.067 203.024 144.5 209.5C149.423 206.745 153.923 203.412 158 199.5C157.692 196.365 155.859 194.698 152.5 194.5C154.949 199.841 153.282 202.175 147.5 201.5C147.089 197.537 147.922 193.87 150 190.5C152.545 189.203 155.045 189.369 157.5 191C160.219 193.382 162.553 196.049 164.5 199C163.224 201.281 161.557 203.281 159.5 205C153.34 209.58 147.007 213.914 140.5 218C137.522 218.86 136.188 217.693 136.5 214.5C137.681 206.762 139.181 199.096 141 191.5C142.245 188.676 143.745 186.009 145.5 183.5Z" fill="white"/>
<path fill-rule="evenodd" clip-rule="evenodd" d="M40.4999 211.5C43.1999 213.046 45.0329 215.379 45.9999 218.5C47.6089 226.285 44.7759 231.618 37.4999 234.5C26.8249 233.84 22.3249 228.173 23.9999 217.5C27.8804 211.146 33.3809 209.146 40.4999 211.5Z" fill="white"/>
<path fill-rule="evenodd" clip-rule="evenodd" d="M189.5 218.5C190.685 219.857 191.685 221.357 192.5 223C192.355 223.772 192.022 224.439 191.5 225C185.14 228.18 178.807 231.347 172.5 234.5C169.686 236.096 166.686 236.596 163.5 236C163.258 227.33 164.758 218.83 168 210.5C170.128 207.542 172.794 206.876 176 208.5C173.389 211.189 171.389 214.523 170 218.5C169.501 222.152 169.335 225.818 169.5 229.5C175.358 227.904 180.691 225.238 185.5 221.5C184.08 218.034 181.747 217.034 178.5 218.5C179.747 220.042 179.747 221.542 178.5 223C173.917 223.934 172.417 222.1 174 217.5C174.776 213.05 177.276 211.55 181.5 213C184.047 215.054 186.714 216.887 189.5 218.5Z" fill="white"/>
<path fill-rule="evenodd" clip-rule="evenodd" d="M63.4997 228.5C72.8477 228.017 77.3477 232.35 76.9997 241.5C74.7057 247.934 70.2057 250.434 63.4997 249C54.2137 242.169 54.2137 235.336 63.4997 228.5Z" fill="white"/>
<path fill-rule="evenodd" clip-rule="evenodd" d="M35.5 238.5C33.437 253.225 30.937 268.225 28 283.5C24.0892 297.383 15.9225 307.716 3.5 314.5C2.179 311.402 1.5123 307.902 1.5 304C2.0443 294.145 2.8777 284.311 4 274.5C5.5063 262.798 10.0063 252.465 17.5 243.5C23.1622 240.585 29.162 238.918 35.5 238.5Z" fill="white"/>
<path fill-rule="evenodd" clip-rule="evenodd" d="M95.5 244.5C103.865 244.36 107.365 248.36 106 256.5C103.459 261.069 99.625 262.569 94.5 261C89.931 258.459 88.431 254.625 90 249.5C91.73 247.598 93.563 245.931 95.5 244.5Z" fill="white"/>
<path fill-rule="evenodd" clip-rule="evenodd" d="M123.5 257.5C130.568 257.261 133.734 260.595 133 267.5C128.333 274.167 123.667 274.167 119 267.5C117.571 262.783 119.071 259.45 123.5 257.5Z" fill="white"/>
<path fill-rule="evenodd" clip-rule="evenodd" d="M567.5 248.5C571.617 255.451 572.284 262.784 569.5 270.5C577.499 276.005 578.499 282.505 572.5 290C566.245 293.043 563.079 291.21 563 284.5C565.228 282.032 568.062 280.865 571.5 281C565.763 278.026 561.763 279.526 559.5 285.5C560.063 288.862 561.397 291.862 563.5 294.5C560.568 295.8 558.234 297.8 556.5 300.5C554.524 295.26 552.857 289.927 551.5 284.5C551.669 282.161 552.336 279.994 553.5 278C545.921 272.833 545.588 267.167 552.5 261C560.42 260.24 565.42 256.074 567.5 248.5Z" fill="white"/>
<path fill-rule="evenodd" clip-rule="evenodd" d="M66.5 255.5C67.5 255.5 68.5 255.5 69.5 255.5C69.5 260.167 69.5 264.833 69.5 269.5C71.23 288.72 63.23 301.72 45.5 308.5C47.72 294.287 50.886 280.287 55 266.5C56.748 260.584 60.581 256.917 66.5 255.5Z" fill="white"/>
<path fill-rule="evenodd" clip-rule="evenodd" d="M144.5 268.5C150.093 267.451 153.426 269.617 154.5 275C153.258 281.312 149.591 283.146 143.5 280.5C140.64 276.2 140.973 272.2 144.5 268.5Z" fill="white"/>
<path fill-rule="evenodd" clip-rule="evenodd" d="M94.5004 268.5C96.5004 268.5 98.5004 268.5 100.5 268.5C100.5 269.5 100.5 270.5 100.5 271.5C100.81 281.682 99.6444 291.682 97.0004 301.5C93.6404 307.693 88.8074 312.36 82.5004 315.5C78.4374 299.215 81.2704 284.215 91.0004 270.5C92.1134 269.695 93.2794 269.028 94.5004 268.5Z" fill="white"/>
<path fill-rule="evenodd" clip-rule="evenodd" d="M140.5 264.5C140.923 265.265 141.257 266.098 141.5 267C139.667 269.337 138.667 272.003 138.5 275C139.074 278.312 140.074 281.478 141.5 284.5C134.064 296.053 130.731 308.719 131.5 322.5C130.086 323.624 128.586 324.624 127 325.5C128.015 319.329 125.848 314.829 120.5 312C123.433 309.736 125.6 306.902 127 303.5C129.577 294.342 131.077 285.009 131.5 275.5C133.741 274.968 135.241 273.635 136 271.5C136.333 268.833 136.667 266.167 137 263.5C138.011 264.337 139.178 264.67 140.5 264.5Z" fill="white"/>
<path fill-rule="evenodd" clip-rule="evenodd" d="M51.5 221.5C54.303 222.067 56.636 223.4 58.5 225.5C56.413 228.673 54.579 232.006 53 235.5C52.333 238.833 52.333 242.167 53 245.5C54.314 247.269 55.147 249.269 55.5 251.5C49.354 266.771 44.52 282.438 41 298.5C40.451 306.91 40.784 315.243 42 323.5C38.492 325.587 35.158 327.92 32 330.5C32.505 325.218 32.505 319.884 32 314.5C29.366 311.185 26.199 308.685 22.5 307C26.7414 299.351 30.575 291.517 34 283.5C37.021 268.292 39.188 252.958 40.5 237.5C43.617 237.358 46.117 236.024 48 233.5C50.099 229.769 51.266 225.769 51.5 221.5Z" fill="white"/>
<path fill-rule="evenodd" clip-rule="evenodd" d="M122.5 278.5C124.167 278.5 125.833 278.5 127.5 278.5C127.056 286.603 125.89 294.603 124 302.5C121.581 306.752 118.081 309.752 113.5 311.5C112.849 302.238 114.349 293.238 118 284.5C118.804 281.854 120.304 279.854 122.5 278.5Z" fill="white"/>
<path fill-rule="evenodd" clip-rule="evenodd" d="M141.5 311.5C140.518 312.141 139.518 312.807 138.5 313.5C136.377 304.666 138.043 296.666 143.5 289.5C145.117 288.962 146.784 288.629 148.5 288.5C148.318 294.257 147.485 299.924 146 305.5C145.208 308.106 143.708 310.106 141.5 311.5Z" fill="white"/>
<path fill-rule="evenodd" clip-rule="evenodd" d="M109.5 249.5C112.439 250.534 115.106 252.034 117.5 254C113.274 261.36 113.608 268.526 118.5 275.5C110.058 290.313 107.058 306.147 109.5 323C108.312 324.944 106.646 326.444 104.5 327.5C103.903 323.698 102.903 320.032 101.5 316.5C99.35 314.851 97.35 313.018 95.5 311C100.332 306.168 103.165 300.335 104 293.5C105.583 284.843 105.75 276.177 104.5 267.5C105.832 265.337 107.666 263.67 110 262.5C112.037 258.065 111.87 253.731 109.5 249.5Z" fill="white"/>
<path fill-rule="evenodd" clip-rule="evenodd" d="M567.5 298.5C576.328 297.161 579.828 300.827 578 309.5C576.786 311.049 575.286 312.215 573.5 313C566.751 312.747 562.585 315.914 561 322.5C559.641 317.225 559.308 311.891 560 306.5C561.69 302.979 564.19 300.312 567.5 298.5Z" fill="white"/>
<path fill-rule="evenodd" clip-rule="evenodd" d="M345 301.5C342.372 298.79 339.539 296.456 336.5 294.5C330.842 293.359 326.342 290.359 323 285.5C321.209 279.548 319.542 273.548 318 267.5C316.833 263.667 314.333 261.167 310.5 260C300.89 258.887 291.223 258.387 281.5 258.5C265.165 258.82 248.831 259.153 232.5 259.5C228.167 260.167 223.833 260.833 219.5 261.5C228.2 287.951 237.367 314.284 247 340.5C248.077 342.578 249.243 344.578 250.5 346.5C251.683 347.504 253.016 348.338 254.5 349C263.163 348.905 271.83 348.905 280.5 349C287.115 353.281 293.448 357.947 299.5 363C304.785 365.066 309.785 364.399 314.5 361L325.5 350C331.566 344.489 337.899 344.155 344.5 349C350.993 355.266 358.66 357.433 367.5 355.5C365.397 351.894 362.731 348.727 359.5 346C352.713 343.965 346.547 340.799 341 336.5C340.333 334.167 340.333 331.833 341 329.5C343.382 322.473 345.215 315.306 346.5 308C346.506 305.7 346.006 303.534 345 301.5ZM247.5 272C244.312 270.684 240.978 270.184 237.5 270.5C233.973 273.651 233.64 277.151 236.5 281C240.85 281.645 243.017 279.812 243 275.5C239.642 273.116 239.809 271.949 243.5 272C247.723 277.224 251.556 282.724 255 288.5C257.593 290.549 260.093 292.715 262.5 295L256.5 301C254.167 301.667 251.833 301.667 249.5 301C255.235 299.667 256.568 296.667 253.5 292C249.037 290.797 246.37 292.464 245.5 297C246.673 303.181 250.34 305.848 256.5 305C259.992 302.994 263.326 300.828 266.5 298.5C272.544 300.939 278.044 304.272 283 308.5C283.667 309.5 283.667 310.5 283 311.5C278.474 316.506 273.307 320.673 267.5 324C266.056 324.781 264.723 324.614 263.5 323.5C265.422 322.289 267.255 320.956 269 319.5C269.486 314.008 266.986 312.175 261.5 314C257.123 325.223 260.789 329.223 272.5 326C277.832 321.322 283.665 317.489 290 314.5C293.712 315.866 297.212 317.699 300.5 320C303.272 321.531 305.272 323.698 306.5 326.5C302.677 331.991 297.677 335.991 291.5 338.5C290.263 338.444 289.263 337.944 288.5 337C293.445 336.727 295.279 334.227 294 329.5C289.267 326.359 286.433 327.692 285.5 333.5C286.511 340.666 290.511 343.166 297.5 341C302.452 336.875 307.785 333.375 313.5 330.5C318.197 332.363 322.531 334.863 326.5 338C329.834 338.781 333.167 339.114 336.5 339C333.644 334.325 330.31 330.159 326.5 326.5C328.246 320.93 329.579 315.263 330.5 309.5C330.514 307.407 329.848 305.574 328.5 304C323.819 300.308 319.653 300.808 316 305.5C314.928 308.553 315.928 310.553 319 311.5C322.725 310.609 324.891 308.276 325.5 304.5C326.833 311.685 325.166 318.185 320.5 324C313.839 322.085 307.672 318.918 302 314.5C303.006 306.798 304.506 299.131 306.5 291.5C306.742 288.486 305.742 285.986 303.5 284C298.823 281.401 294.989 282.234 292 286.5C291.492 291.983 293.825 293.65 299 291.5C300.377 289.045 300.877 286.712 300.5 284.5C302.255 285.67 303.255 287.337 303.5 289.5C301.637 296.888 298.471 303.555 294 309.5C287.501 306.345 281.668 302.345 276.5 297.5C278.04 293.416 279.873 289.416 282 285.5C283.405 281.928 283.738 278.261 283 274.5C278.965 269.636 274.632 269.302 270 273.5C269.667 279.5 272 280.833 277 277.5C277.179 275.576 277.346 273.909 277.5 272.5C279.255 273.67 280.255 275.337 280.5 277.5C278.863 282.107 276.696 286.44 274 290.5C273.101 292.327 271.767 293.66 270 294.5C264.307 291.816 259.307 288.149 255 283.5C252.873 279.411 250.373 275.577 247.5 272Z" fill="white"/>
<path fill-rule="evenodd" clip-rule="evenodd" d="M81.5 237.5C81.56 236.957 81.893 236.624 82.5 236.5C85.501 237.543 88.168 239.043 90.5 241C88.006 244.655 86.339 248.655 85.5 253C85.868 256.57 87.202 259.737 89.5 262.5C79.525 279.547 75.358 297.88 77 317.5C77.5 318.5 78 319.5 78.5 320.5C75.766 323.532 72.432 325.532 68.5 326.5C68.665 322.818 68.499 319.152 68 315.5C65.994 312.328 63.494 309.662 60.5 307.5C65.83 302.837 69.664 297.17 72 290.5C73.997 277.589 74.997 264.589 75 251.5C81.835 248.838 84.001 244.171 81.5 237.5Z" fill="white"/>
<path fill-rule="evenodd" clip-rule="evenodd" d="M14.5004 312.5C26.7558 312.861 30.0894 318.361 24.5004 329C17.0217 333.617 11.8551 331.784 9.00037 323.5C8.71057 318.746 10.5439 315.08 14.5004 312.5Z" fill="white"/>
<path fill-rule="evenodd" clip-rule="evenodd" d="M53.5 312.5C61.168 312.332 64.335 315.999 63 323.5C59.486 329.069 54.986 329.902 49.5 326C46.324 320.182 47.657 315.682 53.5 312.5Z" fill="white"/>
<path fill-rule="evenodd" clip-rule="evenodd" d="M89.5 315.5C97.845 315.691 100.178 319.524 96.5 327C88.246 330.081 84.746 327.248 86 318.5C87.145 317.364 88.312 316.364 89.5 315.5Z" fill="white"/>
<path fill-rule="evenodd" clip-rule="evenodd" d="M141.5 315.5C144.33 317.362 145.163 320.029 144 323.5C142.211 325.229 140.044 325.896 137.5 325.5C133.845 319.998 135.178 316.665 141.5 315.5Z" fill="white"/>
<path fill-rule="evenodd" clip-rule="evenodd" d="M116.5 315.5C123.985 316.805 125.319 320.305 120.5 326C114.333 327.167 111.833 324.667 113 318.5C114.145 317.364 115.312 316.364 116.5 315.5Z" fill="white"/>
<path fill-rule="evenodd" clip-rule="evenodd" d="M554.5 393.5C551.414 424.159 540.58 451.825 522 476.5C517.493 472.82 515.16 468.154 515 462.5C538.337 433.157 547.004 399.823 541 362.5C537.342 339.97 525.175 324.137 504.5 315C497.206 313.491 490.54 314.824 484.5 319C479.556 324.838 478.389 331.338 481 338.5C483.536 324.536 491.37 320.369 504.5 326C513.795 335.147 515.629 345.647 510 357.5C500.548 368.223 489.382 370.389 476.5 364C462.319 353.124 457.485 338.958 462 321.5C473.374 299.926 490.54 293.76 513.5 303C526.911 310.969 536.744 322.136 543 336.5C542.273 323.931 538.607 312.264 532 301.5C529.463 298.628 526.63 296.128 523.5 294C513.952 290.531 504.285 287.531 494.5 285C490.569 282.902 487.903 279.736 486.5 275.5C485.858 279.023 484.692 282.356 483 285.5C478.687 289.498 474.853 293.832 471.5 298.5C470.033 293.432 468.366 288.432 466.5 283.5C465.07 286.433 463.07 288.933 460.5 291C456.581 292.54 453.081 294.707 450 297.5C448.543 300.366 448.21 303.366 449 306.5C451.072 301.857 454.572 300.357 459.5 302C463.302 310.881 460.302 314.548 450.5 313C446.51 311.01 444.01 307.843 443 303.5C442.59 287.901 449.09 276.067 462.5 268C457.743 267.19 453.076 267.524 448.5 269C442.522 275.31 436.188 281.31 429.5 287C424.269 288.724 420.435 287.224 418 282.5C415.501 287.006 411.834 290.006 407 291.5C401.222 291.294 398.722 288.294 399.5 282.5C393.435 282.954 389.101 280.62 386.5 275.5C386.952 263.887 392.952 259.054 404.5 261C410.006 262.841 411.506 266.341 409 271.5C403.317 273.486 400.984 271.486 402 265.5C403.787 263.711 403.287 263.211 400.5 264C396.327 268.343 396.994 272.01 402.5 275C407.363 275.809 412.03 275.142 416.5 273C425.146 268.176 434.146 264.176 443.5 261C453.053 259.826 462.386 260.659 471.5 263.5C501.807 254.322 524.974 263.322 541 290.5C551.465 312.115 556.631 334.948 556.5 359C556.216 370.527 555.549 382.027 554.5 393.5Z" fill="white"/>
<path fill-rule="evenodd" clip-rule="evenodd" d="M369.5 328.5C371.5 328.5 373.5 328.5 375.5 328.5C375.737 329.791 375.404 330.791 374.5 331.5C373.198 329.972 371.531 328.972 369.5 328.5Z" fill="white"/>
<path fill-rule="evenodd" clip-rule="evenodd" d="M78.5 326.5C83.726 330.795 89.393 334.629 95.5 338C92.353 342.314 88.686 346.148 84.5 349.5C78.031 345.53 71.698 341.363 65.5 337C70.269 333.96 74.603 330.46 78.5 326.5Z" fill="white"/>
<path fill-rule="evenodd" clip-rule="evenodd" d="M43.5 328.5C49.523 333.173 55.856 337.506 62.5 341.5C56.824 346.34 50.991 351.007 45 355.5C37.926 351.379 31.093 346.879 24.5 342C30.9 337.478 37.233 332.978 43.5 328.5Z" fill="white"/>
<path fill-rule="evenodd" clip-rule="evenodd" d="M110.5 327.5C114.508 330.17 118.508 332.836 122.5 335.5C120.468 338.902 117.968 341.902 115 344.5C109.727 342.119 104.894 339.119 100.5 335.5C103.564 332.43 106.897 329.763 110.5 327.5Z" fill="white"/>
<path fill-rule="evenodd" clip-rule="evenodd" d="M134.5 326.5C137.338 328.346 140.338 330.012 143.5 331.5C141.81 333.519 140.144 335.519 138.5 337.5C137.883 337.611 137.383 337.944 137 338.5C132.913 336.542 129.08 334.209 125.5 331.5C127.492 327.416 130.492 325.749 134.5 326.5Z" fill="white"/>
<path fill-rule="evenodd" clip-rule="evenodd" d="M13.4998 349.5C10.1845 351.808 6.85117 354.141 3.49977 356.5C3.16647 355.833 2.83307 355.167 2.49977 354.5C0.915271 343.228 0.248671 331.895 0.499771 320.5C1.11717 320.389 1.61717 320.056 1.99977 319.5C5.74377 329.405 11.9104 337.405 20.4998 343.5C18.147 345.523 15.8136 347.523 13.4998 349.5Z" fill="white"/>
<path fill-rule="evenodd" clip-rule="evenodd" d="M141.5 350.5C137.51 351.466 133.677 350.8 130 348.5C126.681 352.653 123.181 356.653 119.5 360.5C114.568 358.634 109.568 356.967 104.5 355.5C99.833 358.5 95.167 361.5 90.5 364.5C83.311 362.578 76.144 360.578 69 358.5C67.02 359.315 65.52 360.648 64.5 362.5C61.334 364.834 58.667 367.667 56.5 371C55.224 372.212 53.724 373.045 52 373.5C42.823 370.897 33.656 368.231 24.5 365.5C18.3431 372.459 12.1764 379.459 6 386.5C5.6174 385.944 5.1174 385.611 4.5 385.5C4.1264 380.077 3.6264 374.744 3 369.5C8.7056 364.29 14.539 359.29 20.5 354.5C21.4822 353.859 22.4822 353.193 23.5 352.5C32.391 356.446 41.391 360.113 50.5 363.5C56.092 358.41 61.592 353.077 67 347.5C74.253 350.695 81.586 353.695 89 356.5C92.617 352.719 96.45 349.052 100.5 345.5C105.408 347.789 110.408 349.789 115.5 351.5C116.5 351.333 117.5 351.167 118.5 351C121.682 347.651 125.015 344.484 128.5 341.5C131.661 342.913 134.661 344.58 137.5 346.5C139.422 344.313 141.088 341.98 142.5 339.5C143.117 339.389 143.617 339.056 144 338.5C145.227 343.062 144.393 347.062 141.5 350.5Z" fill="white"/>
<path fill-rule="evenodd" clip-rule="evenodd" d="M377.5 290.5C379.113 286.323 380.113 281.989 380.5 277.5C380.785 275.712 380.452 274.045 379.5 272.5C378.833 272.833 378.167 273.167 377.5 273.5C373.226 262.562 365.226 258.062 353.5 260C342.81 264.207 338.476 272.04 340.5 283.5C339.127 283.343 337.793 283.51 336.5 284C337.056 284.383 337.389 284.883 337.5 285.5C342.269 291.932 348.269 296.932 355.5 300.5C352.712 306.328 353.045 311.995 356.5 317.5C355.5 318.333 354.5 319.167 353.5 320C358.037 324.379 363.37 327.212 369.5 328.5H375.5C375.737 329.791 375.404 330.791 374.5 331.5C374.117 336.155 375.117 340.488 377.5 344.5C376.5 345.167 375.5 345.833 374.5 346.5C381.507 353.168 389.84 355.835 399.5 354.5C399.508 357.545 399.841 360.545 400.5 363.5C398.645 363.272 397.812 363.939 398 365.5C403.474 371.655 410.308 374.655 418.5 374.5C418.33 378.644 418.997 382.644 420.5 386.5L418.5 388.5C424.653 394.274 431.986 396.774 440.5 396C442.712 398.921 444.545 402.088 446 405.5C447.064 412.458 447.731 419.458 448 426.5C448.513 427.527 449.013 428.527 449.5 429.5C451.5 431.167 453.5 432.833 455.5 434.5C456.675 434.719 457.675 434.386 458.5 433.5C458.486 418.287 454.486 404.121 446.5 391C450.837 384.114 451.504 376.947 448.5 369.5C447.549 370.326 446.549 370.492 445.5 370C442.438 365.316 438.105 363.149 432.5 363.5C433.314 358.881 433.647 354.214 433.5 349.5C432.178 349.33 431.011 349.663 430 350.5C426.419 343.126 420.586 340.126 412.5 341.5C412.804 335.423 412.304 329.423 411 323.5L410 322.5C409.311 323.357 408.478 324.023 407.5 324.5C403.621 319.723 398.621 316.723 392.5 315.5C394.061 308.628 393.561 301.962 391 295.5C390.311 296.357 389.478 297.023 388.5 297.5C386.35 295.851 384.35 294.018 382.5 292C380.975 290.991 379.308 290.491 377.5 290.5ZM425.5 354.5C423.025 347.425 418.025 344.759 410.5 346.5C408.897 347.596 407.397 348.93 406 350.5C403.265 356.243 404.432 360.91 409.5 364.5C411.043 361.914 412.709 359.414 414.5 357C417.656 356.397 420.656 356.897 423.5 358.5C424.696 357.441 425.363 356.107 425.5 354.5ZM389.5 341.5C387.886 343.075 385.886 343.741 383.5 343.5C379.7 338.063 379.534 332.396 383 326.5C391.393 320.361 398.56 321.527 404.5 330C403.852 331.44 403.519 332.94 403.5 334.5C399.493 333.387 395.493 333.387 391.5 334.5C390.423 336.729 389.756 339.063 389.5 341.5ZM384 300.5C379.779 296.077 374.613 294.41 368.5 295.5C362.75 297.919 359.75 302.252 359.5 308.5C358.892 315.225 361.892 318.225 368.5 317.5C368.895 314.314 369.895 311.314 371.5 308.5C375.818 307.46 380.151 307.46 384.5 308.5C384.664 305.813 384.497 303.146 384 300.5ZM355.5 265.5C364.243 264.866 369.909 268.7 372.5 277C371.223 278.786 369.556 279.952 367.5 280.5C364.559 279.797 361.725 278.797 359 277.5C355.951 279.926 353.618 282.926 352 286.5C350.416 285.139 348.582 284.472 346.5 284.5C344.061 275.309 347.061 268.975 355.5 265.5ZM443.5 376.5C441.22 371.354 437.22 368.687 431.5 368.5C427.006 370.332 424.339 373.665 423.5 378.5C423.116 383.804 425.449 386.471 430.5 386.5C431.167 383.833 431.833 381.167 432.5 378.5C435.579 378.26 438.579 378.593 441.5 379.5C442.881 379 443.547 378 443.5 376.5Z" fill="white"/>
<path fill-rule="evenodd" clip-rule="evenodd" d="M482.5 472.5C476.187 475.22 473.354 473.22 474 466.5C475.133 464.789 476.633 464.289 478.5 465C476.963 466.11 476.297 467.61 476.5 469.5C482.479 468.43 483.145 465.597 478.5 461C465.62 457.296 459.62 448.796 460.5 435.5C461.72 432.084 463.72 429.084 466.5 426.5C463.575 423.663 462.075 420.329 462 416.5C464.245 419.907 467.412 421.24 471.5 420.5C475.411 420.703 479.078 419.87 482.5 418C474.437 412.372 468.937 404.872 466 395.5C462.477 393.099 458.644 391.266 454.5 390C458.46 388.337 462.46 388.17 466.5 389.5C469.47 384.328 473.803 381.495 479.5 381C472.09 385.32 469.924 391.487 473 399.5C480.131 408.968 488.797 416.634 499 422.5C498.014 415.07 497.181 407.57 496.5 400C496.547 397.111 496.88 394.278 497.5 391.5C494.428 387.687 490.428 385.354 485.5 384.5C489.459 383.34 493.459 383.173 497.5 384C498.701 384.903 499.535 386.069 500 387.5C506.828 379.357 515.328 373.524 525.5 370C528.326 367.478 527.993 365.478 524.5 364C520.412 363.396 517.912 365.23 517 369.5C515.584 363.661 517.75 359.994 523.5 358.5C519.235 352.532 520.568 348.365 527.5 346C525.718 348.243 525.218 350.743 526 353.5C527.584 357.675 529.918 361.341 533 364.5C533.84 368.989 532.34 372.489 528.5 375C522.026 377.321 516.026 380.487 510.5 384.5C519.386 389.865 526.22 387.865 531 378.5C531.593 386.338 528.093 391.005 520.5 392.5C520.335 396.182 520.501 399.848 521 403.5C521.69 406.196 523.19 408.363 525.5 410C521.326 411.018 518.326 409.518 516.5 405.5C513.173 407.001 510.173 406.501 507.5 404C515.014 404.136 517.514 400.636 515 393.5C512.441 390.651 509.274 389.817 505.5 391C504.299 391.903 503.465 393.069 503 394.5C502.329 405.806 503.829 416.806 507.5 427.5C509.028 426.139 510.695 424.972 512.5 424C517.833 423.333 523.167 423.333 528.5 424C523.896 424.923 519.563 426.59 515.5 429C512.894 430.938 511.061 433.438 510 436.5C510.413 445.441 510.58 454.441 510.5 463.5C507.833 463.5 505.167 463.5 502.5 463.5C504.053 456.579 504.553 449.579 504 442.5C500.703 439.433 496.869 437.267 492.5 436C495.5 435.667 498.5 435.333 501.5 435C491.575 422.119 480.742 421.286 469 432.5C466.845 435.54 467.012 438.373 469.5 441C472.382 442.608 475.382 443.941 478.5 445C475.362 446.244 472.028 446.911 468.5 447C474.501 456.496 481.335 456.996 489 448.5C488.808 452.885 486.974 456.552 483.5 459.5C486.443 464.197 486.109 468.53 482.5 472.5Z" fill="white"/>
<path fill-rule="evenodd" clip-rule="evenodd" d="M250.5 351.5C255.021 355.702 259.521 360.036 264 364.5C265.025 369.669 265.859 374.836 266.5 380C269.155 381.115 271.821 381.782 274.5 382C272.437 379.489 270.937 376.656 270 373.5C268.796 368.343 267.463 363.343 266 358.5C272.172 362.252 278.172 366.252 284 370.5C287.008 375.016 288.174 380.016 287.5 385.5C291.182 385.665 294.848 385.499 298.5 385C297 383.5 295.5 382 294 380.5C290.946 374.224 287.779 368.057 284.5 362C290.918 364.041 297.252 366.708 303.5 370C306.409 372.985 308.409 376.485 309.5 380.5C309.5 382.5 309.5 384.5 309.5 386.5C313.555 386.824 317.555 386.491 321.5 385.5C321.376 384.893 321.043 384.56 320.5 384.5C316.188 379.854 311.855 375.187 307.5 370.5C314.581 369.926 321.581 370.76 328.5 373C333.057 375.612 336.057 379.446 337.5 384.5C340.784 385.657 344.118 385.824 347.5 385C343.388 383.221 340.222 380.388 338 376.5C336.604 370.81 335.104 365.143 333.5 359.5C333.833 358.833 334.167 358.167 334.5 357.5C339.806 360.972 344.972 364.639 350 368.5C353.101 373.731 354.267 379.398 353.5 385.5C358.015 386.812 362.682 386.812 367.5 385.5C367.376 384.893 367.043 384.56 366.5 384.5C364.164 382.996 362.331 380.996 361 378.5C358.626 374.25 356.126 370.084 353.5 366C360.318 367.158 366.985 369.158 373.5 372C377.75 376.168 380.417 381.168 381.5 387C384.5 387.667 387.5 387.667 390.5 387C389 385.5 387.5 384 386 382.5C384.632 376.026 382.798 369.692 380.5 363.5C386.117 365.859 391.284 369.526 396 374.5C399.008 379.053 400.174 384.053 399.5 389.5C411.529 391.677 422.862 395.843 433.5 402C440.591 405.352 443.591 410.852 442.5 418.5C434.501 411.503 425.835 405.503 416.5 400.5C413.592 399.308 410.592 398.308 407.5 397.5C404.664 400.481 401.331 402.981 397.5 405C390.167 405.667 382.833 405.667 375.5 405C380.558 400.943 385.892 397.276 391.5 394C388.318 392.261 384.984 392.095 381.5 393.5C379.358 397.475 376.358 400.642 372.5 403C365.226 404.51 357.893 405.176 350.5 405C355.833 400.333 361.167 395.667 366.5 391C363.183 390.502 359.85 390.335 356.5 390.5C354.209 398.494 348.876 402.994 340.5 404C335.857 404.998 331.19 405.332 326.5 405C331.194 400.306 335.86 395.64 340.5 391C338.098 390.186 335.765 390.353 333.5 391.5C328.666 402.09 320.333 406.757 308.5 405.5C307.167 405.167 305.833 404.833 304.5 404.5C308.172 399.961 312.172 395.795 316.5 392C312.789 391.175 309.122 391.341 305.5 392.5C303.397 396.106 300.731 399.273 297.5 402C289.616 404.098 281.616 405.098 273.5 405C278.938 399.775 284.605 394.775 290.5 390C286.961 389.718 283.461 389.218 280 388.5C277.542 392.57 274.709 396.403 271.5 400C264.076 403.148 256.409 405.148 248.5 406C253.167 400.667 257.833 395.333 262.5 390C264.842 388.829 267.176 387.662 269.5 386.5C266.974 385.576 264.474 384.576 262 383.5C259.322 387.87 256.156 392.037 252.5 396C246.385 397.958 240.219 399.791 234 401.5C232.743 401.15 232.409 400.483 233 399.5C236.453 394.379 240.286 389.546 244.5 385C248.123 382.521 252.123 381.188 256.5 381C254.833 380.167 253.167 379.333 251.5 378.5C247.173 382.056 242.173 384.056 236.5 384.5C229.491 382.496 222.825 379.663 216.5 376C223.041 373.864 229.707 372.03 236.5 370.5C238.853 371.351 241.187 371.851 243.5 372C240.877 368.213 237.211 365.88 232.5 365C229.667 362.167 226.833 359.333 224 356.5C220.844 347.386 219.177 338.053 219 328.5C226.315 333.817 232.982 339.817 239 346.5C241.705 352.53 243.038 358.864 243 365.5C245.167 367.667 247.333 369.833 249.5 372C250.332 372.688 250.998 372.521 251.5 371.5C249.785 364.209 248.618 356.876 248 349.5C248.708 350.381 249.542 351.047 250.5 351.5Z" fill="white"/>
<path fill-rule="evenodd" clip-rule="evenodd" d="M309.5 380.5C310.451 381.919 310.784 383.585 310.5 385.5C314.042 385.813 317.375 385.479 320.5 384.5C321.043 384.56 321.376 384.893 321.5 385.5C317.555 386.491 313.555 386.824 309.5 386.5C309.5 384.5 309.5 382.5 309.5 380.5Z" fill="white"/>
<path fill-rule="evenodd" clip-rule="evenodd" d="M366.5 384.5C367.043 384.56 367.376 384.893 367.5 385.5C362.682 386.812 358.015 386.812 353.5 385.5C358.032 385.818 362.366 385.485 366.5 384.5Z" fill="white"/>
<path fill-rule="evenodd" clip-rule="evenodd" d="M459.5 376.5C465.803 376.924 467.469 379.757 464.5 385C457.416 385.475 455.749 382.642 459.5 376.5Z" fill="white"/>
<path fill-rule="evenodd" clip-rule="evenodd" d="M497.5 370.5C504.004 370.138 505.671 372.638 502.5 378C496.593 378.746 494.927 376.246 497.5 370.5Z" fill="white"/>
<path fill-rule="evenodd" clip-rule="evenodd" d="M432.5 325.5C439.506 324.907 446.173 326.074 452.5 329C456.277 331.955 457.443 335.788 456 340.5C451.809 343.574 448.976 342.574 447.5 337.5C447.931 335.234 449.264 333.734 451.5 333C446.842 331.813 444.175 333.647 443.5 338.5C445.843 344.854 450.51 348.021 457.5 348C462.394 361.549 472.06 369.216 486.5 371C484.298 372.022 481.965 372.522 479.5 372.5C473.507 371.924 467.507 371.424 461.5 371C456.74 366.954 451.406 363.954 445.5 362C445.167 361.667 444.833 361.333 444.5 361C445.938 360.781 447.271 360.281 448.5 359.5C445.567 358.07 443.067 356.07 441 353.5C438.44 348.884 435.273 344.718 431.5 341C433.5 341 435.5 341 437.5 341C433.867 334.697 428.534 330.697 421.5 329C425.254 327.691 428.921 326.525 432.5 325.5Z" fill="white"/>
<path fill-rule="evenodd" clip-rule="evenodd" d="M418.5 291.5C425.012 290.844 430.512 292.844 435 297.5C437.167 306 434 309.167 425.5 307C421.781 300.973 423.448 297.306 430.5 296C426.82 294.973 423.653 295.806 421 298.5C417.37 308.115 420.537 312.281 430.5 311C432.588 309.97 434.755 309.137 437 308.5C439.031 311.544 441.531 314.377 444.5 317C437.498 318.167 430.498 319.334 423.5 320.5C408.485 317.941 404.152 309.775 410.5 296C413.099 294.205 415.766 292.705 418.5 291.5Z" fill="white"/>
<path fill-rule="evenodd" clip-rule="evenodd" d="M482.5 390.5C489.457 390.75 491.624 394.084 489 400.5C482.412 403.873 479.078 401.873 479 394.5C479.69 392.65 480.856 391.316 482.5 390.5Z" fill="white"/>
<path fill-rule="evenodd" clip-rule="evenodd" d="M526.5 396.5C531.493 396.997 532.493 399.164 529.5 403C524.382 402.824 523.382 400.658 526.5 396.5Z" fill="white"/>
<path fill-rule="evenodd" clip-rule="evenodd" d="M138.5 356.5C148.127 359.452 150.127 365.286 144.5 374C147.562 375.061 150.062 376.894 152 379.5C156.04 396.418 163.874 411.251 175.5 424C171.794 425.985 167.794 426.818 163.5 426.5C153.826 422.971 148.326 415.971 147 405.5C146.002 397.529 145.335 389.529 145 381.5C143 380.167 141 380.167 139 381.5C138.818 384.226 138.318 386.893 137.5 389.5C132.854 383.282 134.187 378.782 141.5 376C138.433 373.416 137.766 370.25 139.5 366.5C138.833 366.167 138.167 365.833 137.5 365.5C135.423 366.937 133.09 367.604 130.5 367.5C129.562 360.998 132.229 357.331 138.5 356.5Z" fill="white"/>
<path fill-rule="evenodd" clip-rule="evenodd" d="M460.5 403.5C466.705 403.037 468.705 405.704 466.5 411.5C458.79 413.123 456.79 410.457 460.5 403.5Z" fill="white"/>
<path fill-rule="evenodd" clip-rule="evenodd" d="M119.5 487.5C119.242 483.56 118.076 479.893 116 476.5C111.288 471.457 106.955 466.123 103 460.5C100.385 452.99 98.385 445.323 97 437.5C92.845 425.357 85.178 416.357 74 410.5C71.701 406.82 70.868 402.987 71.5 399C76.078 397.975 80.412 396.475 84.5 394.5C85.477 403.114 88.643 410.781 94 417.5C94.654 418.696 95.154 418.696 95.5 417.5C90.467 409.903 87.3 401.57 86 392.5C84.185 390.595 82.185 388.928 80 387.5C79.51 386.207 79.343 384.873 79.5 383.5C76.356 383.956 73.356 384.956 70.5 386.5C68.234 386.069 66.734 384.736 66 382.5C64.669 376.163 66.836 371.497 72.5 368.5C81.504 365.753 87.671 368.753 91 377.5C91.499 381.152 91.665 384.818 91.5 388.5C97.926 387.472 104.26 386.306 110.5 385C104.472 392.093 102.305 400.259 104 409.5C105.993 416.157 107.993 422.824 110 429.5C111.088 439.204 112.421 448.87 114 458.5C117.262 466.078 120.929 473.412 125 480.5C126.061 486.724 125.394 492.724 123 498.5C122.333 499.167 121.667 499.833 121 500.5C120.825 495.981 120.325 491.647 119.5 487.5Z" fill="white"/>
<path fill-rule="evenodd" clip-rule="evenodd" d="M154.5 429.5C158.955 437.557 164.288 445.057 170.5 452C169.944 452.383 169.611 452.883 169.5 453.5C157.079 454.205 147.579 449.205 141 438.5C136.275 427.658 131.941 416.658 128 405.5C125.271 399.437 121.104 394.603 115.5 391C117.336 389.581 119.336 388.414 121.5 387.5C122.583 386.635 122.749 385.635 122 384.5C118.369 380.197 114.702 375.863 111 371.5C107.866 373.893 104.866 373.893 102 371.5C101.777 364.406 105.277 361.573 112.5 363C118.045 366.878 122.545 371.711 126 377.5C125.775 380.825 127.108 383.158 130 384.5C136.642 400.458 144.808 415.458 154.5 429.5Z" fill="white"/>
<path fill-rule="evenodd" clip-rule="evenodd" d="M512.5 411.5C518.158 410.679 519.825 412.846 517.5 418C511.741 419.139 510.074 416.972 512.5 411.5Z" fill="white"/>
<path fill-rule="evenodd" clip-rule="evenodd" d="M417.5 406.5C426.152 414.153 434.152 422.486 441.5 431.5C436.168 435.993 430.668 440.327 425 444.5C424.098 442.073 423.264 439.74 422.5 437.5C420.932 427.427 418.932 417.427 416.5 407.5C416.624 406.893 416.957 406.56 417.5 406.5Z" fill="white"/>
<path fill-rule="evenodd" clip-rule="evenodd" d="M419.5 438.5C414.01 443.508 408.177 448.174 402 452.5C401.501 447.511 401.334 442.511 401.5 437.5C402.201 433.273 403.034 428.94 404 424.5C408.739 429.744 413.905 434.41 419.5 438.5Z" fill="white"/>
<path fill-rule="evenodd" clip-rule="evenodd" d="M70.5 419.5C75.204 428.567 80.204 437.567 85.5 446.5C79.469 446.195 73.635 444.528 68 441.5C68.715 434.196 69.548 426.863 70.5 419.5Z" fill="white"/>
<path fill-rule="evenodd" clip-rule="evenodd" d="M480.5 429.5C484.747 429.118 487.414 430.951 488.5 435C485.695 440.294 482.195 440.794 478 436.5C477.333 435.167 477.333 433.833 478 432.5C479.045 431.627 479.878 430.627 480.5 429.5Z" fill="white"/>
<path fill-rule="evenodd" clip-rule="evenodd" d="M515.5 435.5C521.016 435.473 522.349 437.64 519.5 442C514.57 442.427 513.237 440.26 515.5 435.5Z" fill="white"/>
<path fill-rule="evenodd" clip-rule="evenodd" d="M48.5 432.5C59.283 433.119 64.95 438.952 65.5 450C65.687 453.441 64.687 456.441 62.5 459C57.619 458.98 53.453 457.147 50 453.5C47.598 449.127 46.098 444.46 45.5 439.5C45.695 436.782 46.695 434.449 48.5 432.5Z" fill="white"/>
<path fill-rule="evenodd" clip-rule="evenodd" d="M446.5 437.5C447.416 444.084 449.25 450.418 452 456.5C456.91 466.66 462.577 476.326 469 485.5C471.079 489.653 472.579 493.986 473.5 498.5C461.655 498.269 450.322 500.602 439.5 505.5C434.787 487.27 430.454 468.937 426.5 450.5C426.57 449.228 426.903 448.062 427.5 447C433.333 442.5 439.167 438 445 433.5C445.21 435.058 445.71 436.391 446.5 437.5Z" fill="white"/>
<path fill-rule="evenodd" clip-rule="evenodd" d="M513.5 501.5C536.626 470.492 551.626 435.825 558.5 397.5C562.576 374.675 563.743 351.675 562 328.5C567.619 321.812 572.952 322.145 578 329.5C578.667 333.5 578.667 337.5 578 341.5C575.082 344.147 572.082 346.814 569 349.5C568.167 351.167 567.333 352.833 566.5 354.5C569.212 355.228 571.879 356.061 574.5 357C575.126 357.75 575.626 358.584 576 359.5C576.641 365.528 576.474 371.528 575.5 377.5C570.61 378.191 566.777 380.524 564 384.5C563.51 385.793 563.343 387.127 563.5 388.5C568.713 387.762 571.713 389.928 572.5 395C571.468 399.262 570.135 403.429 568.5 407.5C564.211 407.975 560.878 409.975 558.5 413.5C562.312 414.148 564.646 416.314 565.5 420C563.974 424.884 562.308 429.717 560.5 434.5C557.893 435.318 555.226 435.818 552.5 436C551.833 436.667 551.167 437.333 550.5 438C555.71 439.211 557.544 442.377 556 447.5C544.557 473.391 529.724 497.058 511.5 518.5C509.709 516.336 508.376 513.836 507.5 511C509.629 507.906 511.629 504.739 513.5 501.5Z" fill="white"/>
<path fill-rule="evenodd" clip-rule="evenodd" d="M17.5 418.5C18.0319 420.63 18.8652 422.63 20 424.5C19.7093 420.226 19.5427 415.893 19.5 411.5C19.7512 409.83 20.4178 408.33 21.5 407C27.9123 407.715 32.412 411.215 35 417.5C30.865 395.861 35.532 393.861 49 411.5C48.607 406.868 48.607 402.201 49 397.5C49.949 394.8 51.783 393.967 54.5 395C61.14 399.96 65.807 406.294 68.5 414C67.285 421.892 65.785 429.725 64 437.5C62.207 434.705 60.04 432.205 57.5 430C51.18 426.978 46.513 428.478 43.5 434.5C42.833 438.5 42.167 442.5 41.5 446.5C35.583 444.694 30.083 442.028 25 438.5C25.4456 440.883 26.6123 443.05 28.5 445C33.5 447.167 38.5 449.333 43.5 451.5C44.332 460.816 44.832 470.149 45 479.5C45.249 480.624 45.749 481.624 46.5 482.5C47.191 473.48 48.024 464.48 49 455.5C51.205 458.04 53.705 460.207 56.5 462C62.292 463.989 66.125 462.155 68 456.5C68.175 452.789 68.675 449.122 69.5 445.5C75.386 447.962 81.386 450.129 87.5 452C91.01 456.685 94.01 461.685 96.5 467C96.333 468.5 95.5 469.333 94 469.5C92.441 468.971 90.941 468.304 89.5 467.5C89.167 467.833 88.833 468.167 88.5 468.5C91.09 477.603 88.09 479.936 79.5 475.5C79.002 478.593 78.002 481.426 76.5 484C72.985 484.519 69.652 484.186 66.5 483C67.833 485.667 67.833 488.333 66.5 491C64.833 491.667 63.167 491.667 61.5 491C57.935 487.77 56.435 488.937 57 494.5C54.033 496.29 54.033 497.623 57 498.5C59.404 497.72 60.904 496.053 61.5 493.5C67.488 495.162 70.822 492.828 71.5 486.5C77.52 488.16 80.853 485.826 81.5 479.5C83.512 480.014 85.512 480.18 87.5 480C90.789 478.59 92.456 476.09 92.5 472.5C95.325 472.919 97.491 471.919 99 469.5C101.29 472.58 103.457 475.747 105.5 479C93.704 492.308 80.037 503.141 64.5 511.5C65.365 512.583 66.365 512.749 67.5 512C74.833 507.667 82.167 503.333 89.5 499C95.306 493.194 101.14 487.36 107 481.5C108.039 482.71 109.206 483.71 110.5 484.5C108.425 495.796 105.259 506.796 101 517.5C99.53 518.267 98.03 518.933 96.5 519.5C86.467 519.784 76.467 519.451 66.5 518.5C38.78 483.717 20.1134 444.383 10.5 400.5C11.1037 397.024 12.1037 393.691 13.5 390.5C16.0565 385.731 18.8898 381.064 22 376.5C23.0616 375.101 24.395 374.101 26 373.5C30.811 374.426 35.644 375.259 40.5 376C45.742 377.126 50.409 379.293 54.5 382.5C40.049 384.224 26.716 389.058 14.5 397C13.4829 398.049 13.3162 399.216 14 400.5C20.261 396.618 26.761 393.118 33.5 390C40.501 388.5 47.501 387 54.5 385.5C58.492 389.307 60.659 393.974 61 399.5C52.253 387.769 47.253 389.102 46 403.5C44.542 401.04 42.709 398.873 40.5 397C37.121 394.722 34.288 395.222 32 398.5C31.674 402.53 31.674 406.53 32 410.5C30.127 408.291 27.96 406.458 25.5 405C22.1658 403.788 19.6658 404.621 18 407.5C17.5014 411.152 17.3347 414.818 17.5 418.5Z" fill="white"/>
<path fill-rule="evenodd" clip-rule="evenodd" d="M418.5 445.5C419.748 446.334 420.415 447.667 420.5 449.5C421.176 456.912 422.343 464.245 424 471.5C427.479 482.112 430.646 492.778 433.5 503.5C422.395 501.425 411.728 502.758 401.5 507.5C400.193 491.152 400.36 474.819 402 458.5C407.687 454.303 413.187 449.97 418.5 445.5Z" fill="white"/>
<path fill-rule="evenodd" clip-rule="evenodd" d="M111.5 398.5C120.737 405.443 125.737 414.776 126.5 426.5C125.885 430.171 125.719 433.838 126 437.5C127.413 442.539 129.08 447.539 131 452.5C132.062 453.899 133.395 454.899 135 455.5C138.385 452.717 142.218 451.551 146.5 452C148.965 454.177 149.965 456.677 149.5 459.5C142.36 463.702 134.694 465.535 126.5 465C120.469 456.157 119.136 446.657 122.5 436.5C122.167 436.167 121.833 435.833 121.5 435.5C119.368 437.117 117.035 437.617 114.5 437C115.333 436.167 116.167 435.333 117 434.5C117.361 431.475 117.861 428.475 118.5 425.5C116.336 419.838 114.17 414.172 112 408.5C111.502 405.183 111.335 401.85 111.5 398.5Z" fill="white"/>
<path fill-rule="evenodd" clip-rule="evenodd" d="M366.5 470.5C364.786 469.262 362.786 468.595 360.5 468.5C357.5 467.833 354.5 467.167 351.5 466.5C363.228 458.108 375.228 450.108 387.5 442.5C388.458 442.047 389.292 441.381 390 440.5C384.496 450.481 378.663 460.481 372.5 470.5C370.599 471.231 368.599 471.231 366.5 470.5Z" fill="white"/>
<path fill-rule="evenodd" clip-rule="evenodd" d="M398.5 434.5C396.203 452.244 393.537 469.911 390.5 487.5C389.5 487 388.5 486.5 387.5 486C382.116 485.495 376.782 485.495 371.5 486C378.974 471.551 386.308 457.051 393.5 442.5C394.866 438.97 396.533 436.303 398.5 434.5Z" fill="white"/>
<path fill-rule="evenodd" clip-rule="evenodd" d="M490.5 456.5C496.487 455.977 498.487 458.477 496.5 464C489.75 465.469 487.75 462.969 490.5 456.5Z" fill="white"/>
<path fill-rule="evenodd" clip-rule="evenodd" d="M351.5 466.5C354.5 467.167 357.5 467.833 360.5 468.5C357.102 468.82 353.768 468.487 350.5 467.5C350.624 466.893 350.957 466.56 351.5 466.5Z" fill="white"/>
<path fill-rule="evenodd" clip-rule="evenodd" d="M171.5 456.5C180.479 459.087 187.979 464.087 194 471.5C195.885 473.914 196.552 476.581 196 479.5C194.039 482.463 191.706 485.129 189 487.5C187.731 486.095 187.231 484.429 187.5 482.5C184.813 482.664 182.146 482.497 179.5 482C178.139 480.416 177.472 478.582 177.5 476.5C172.352 476.934 169.685 474.601 169.5 469.5C166.903 469.357 164.569 468.523 162.5 467C165.365 463.308 168.365 459.808 171.5 456.5Z" fill="white"/>
<path fill-rule="evenodd" clip-rule="evenodd" d="M131.5 572.5C131.433 571.041 131.766 569.708 132.5 568.5C134.79 564.464 135.957 560.131 136 555.5C133.048 552.788 129.548 551.121 125.5 550.5C124.926 548.941 124.26 547.441 123.5 546C121.19 545.503 118.857 545.337 116.5 545.5C117.152 539.604 114.485 537.27 108.5 538.5C107.986 536.488 107.82 534.488 108 532.5C110.598 529.972 113.431 528.139 116.5 527C113.868 529.127 111.534 531.46 109.5 534C109.667 535.5 110.5 536.333 112 536.5C116.358 534.818 120.024 532.151 123 528.5C121.957 530.586 120.875 532.75 119.755 534.99L118 538.5C117.389 542.088 118.889 543.254 122.5 542C124.96 540.542 127.127 538.709 129 536.5C127.97 538.947 127.137 541.614 126.5 544.5C126.112 546.955 127.112 548.288 129.5 548.5C133.499 546.666 136.333 543.666 138 539.5C137.039 542.955 135.873 546.455 134.5 550C134.534 553.165 135.867 553.998 138.5 552.5C143.393 541.048 148.559 529.714 154 518.5C159.167 513.667 164.333 508.833 169.5 504C174.667 499.167 179.833 494.333 185 489.5C185.49 488.207 185.657 486.873 185.5 485.5C179.345 486.248 176.345 483.582 176.5 477.5C171.347 478.674 168.347 476.674 167.5 471.5C165.5 470.167 163.5 470.167 161.5 471.5C160.52 472.981 159.353 474.315 158 475.5C154.31 472.309 150.477 469.309 146.5 466.5C145.618 467.76 144.618 468.926 143.5 470L146.5 473C135.342 476.146 131.676 483.313 135.5 494.5C135.458 497.259 134.958 499.925 134 502.5C132.98 501.109 132.147 499.609 131.5 498C130.552 497.517 129.552 497.351 128.5 497.5C129.17 504.489 127.503 510.822 123.5 516.5C118.544 521.643 112.878 525.81 106.5 529C103.518 529.498 100.518 529.665 97.5 529.5C97.178 527.278 97.845 525.444 99.5 524C98.552 523.517 97.552 523.351 96.5 523.5C92.217 527.19 92.55 530.357 97.5 533C94.167 533.667 90.833 533.667 87.5 533C86.072 531.084 85.072 528.917 84.5 526.5C82.745 527.67 81.745 529.337 81.5 531.5C82.34 536.011 85.007 538.345 89.5 538.5C92.605 538.061 95.605 537.561 98.5 537C97.271 538.529 95.771 539.696 94 540.5C93.365 542.635 93.699 544.635 95 546.5C105.425 557.78 117.591 566.447 131.5 572.5ZM152.5 483.5C150.657 480.578 147.99 479.245 144.5 479.5C142.304 480.854 140.804 482.854 140 485.5C141.987 494.232 140.154 502.065 134.5 509C137.46 508.394 139.627 506.561 141 503.5C144.581 496.67 148.414 490.003 152.5 483.5Z" fill="white"/>
<path fill-rule="evenodd" clip-rule="evenodd" d="M255.5 487.5C256.813 484.246 257.813 480.912 258.5 477.5C258.423 476.25 257.756 475.417 256.5 475C249.116 472.872 241.783 470.539 234.5 468C214.059 457.881 195.559 445.048 179 429.5C173.902 430.933 170.402 434.1 168.5 439C171.811 443.788 175.478 448.288 179.5 452.5C200.274 470.97 224.44 482.97 252 488.5L253.771 487.994C254.347 487.829 254.923 487.665 255.5 487.5ZM245.5 476.5C249.724 476.052 251.391 477.719 250.5 481.5C245.134 483.468 243.468 481.801 245.5 476.5ZM236.5 473.5C241.159 473.015 242.492 474.848 240.5 479C235.728 479.81 234.395 477.977 236.5 473.5ZM228.5 469.5C233.493 469.997 234.493 472.164 231.5 476C226.382 475.824 225.382 473.658 228.5 469.5ZM218.5 464.5C223.747 464.64 224.747 466.806 221.5 471C220.216 471.684 219.049 471.517 218 470.5C217.322 468.402 217.489 466.402 218.5 464.5ZM209.5 460.5C214.123 459.408 215.956 461.075 215 465.5C209.42 467.752 207.587 466.085 209.5 460.5ZM201.5 454.5C207.016 454.473 208.349 456.64 205.5 461C200.57 461.427 199.237 459.26 201.5 454.5ZM192 449.5C193.822 444.171 191.989 441.504 186.5 441.5C184.787 442.223 183.787 443.557 183.5 445.5C184.675 450.842 187.508 452.175 192 449.5Z" fill="white"/>
<path fill-rule="evenodd" clip-rule="evenodd" d="M198.5 483.5C202.96 483.874 207.294 484.874 211.5 486.5C220.931 482.216 226.264 485.216 227.5 495.5C237.66 500.849 237.994 507.015 228.5 514C226.933 515.076 225.266 515.909 223.5 516.5C219.382 513.556 215.382 510.389 211.5 507C205.703 504.456 199.703 502.623 193.5 501.5C192.914 494.703 194.581 488.703 198.5 483.5Z" fill="white"/>
<path fill-rule="evenodd" clip-rule="evenodd" d="M323.5 620.5C323.5 616.167 323.5 611.833 323.5 607.5C320.833 607.5 318.167 607.5 315.5 607.5C315.5 602.833 315.5 598.167 315.5 593.5C312.5 593.5 309.5 593.5 306.5 593.5C306.167 554.828 306.5 516.161 307.5 477.5C309.323 478.747 311.323 479.414 313.5 479.5C313.176 483.555 313.509 487.555 314.5 491.5C316.323 492.747 318.323 493.414 320.5 493.5C320.335 497.182 320.501 500.848 321 504.5C328.262 508.882 335.762 512.882 343.5 516.5C344.663 521.802 344.829 527.136 344 532.5C335.356 539.457 328.356 547.791 323 557.5C318.099 569.855 320.933 580.022 331.5 588C340.657 590.915 349.99 593.082 359.5 594.5C361.792 599.876 363.792 605.376 365.5 611C365.095 611.945 364.428 612.612 363.5 613C350.278 616.139 336.944 618.639 323.5 620.5Z" fill="white"/>
<path fill-rule="evenodd" clip-rule="evenodd" d="M261.5 607.5C258.833 607.5 256.167 607.5 253.5 607.5C253.5 611.833 253.5 616.167 253.5 620.5C239.357 618.481 225.357 615.814 211.5 612.5C212.999 606.169 214.999 600.003 217.5 594C227 592.648 236.333 590.648 245.5 588C255.109 580.622 258.275 571.122 255 559.5C252.121 553.295 248.454 547.628 244 542.5C233.627 536.429 230.46 527.595 234.5 516C241.619 512.025 248.785 508.191 256 504.5C256.499 500.848 256.665 497.182 256.5 493.5C258.677 493.414 260.677 492.747 262.5 491.5C262.98 486.904 263.98 482.57 265.5 478.5C266.93 478.579 268.264 478.246 269.5 477.5C270.5 516.161 270.833 554.828 270.5 593.5C267.5 593.5 264.5 593.5 261.5 593.5C261.5 598.167 261.5 602.833 261.5 607.5Z" fill="white"/>
<path fill-rule="evenodd" clip-rule="evenodd" d="M508.5 499.5C501.368 499.198 498.535 495.531 500 488.5C502.961 485.384 506.461 484.717 510.5 486.5C511.208 480.193 508.208 476.859 501.5 476.5C498.889 476.556 496.722 477.556 495 479.5C493.455 484.047 493.121 488.713 494 493.5C496.803 503.742 500.303 513.742 504.5 523.5C502.695 527.588 500.028 531.088 496.5 534C494.231 534.758 492.064 534.591 490 533.5C488.758 521.048 486.758 508.715 484 496.5C483 489.325 483.5 482.325 485.5 475.5C494.042 466.628 502.876 466.294 512 474.5C517.132 483.639 515.965 491.972 508.5 499.5Z" fill="white"/>
<path fill-rule="evenodd" clip-rule="evenodd" d="M369.5 487.5C376.609 494.872 383.609 502.372 390.5 510C404.408 512.365 418.408 513.031 432.5 512C445.139 510.548 457.639 508.381 470 505.5C471.833 505.667 473.667 505.833 475.5 506C476.085 507.302 476.751 508.469 477.5 509.5C478.984 514.749 479.484 520.082 479 525.5C477.887 526.305 476.721 526.972 475.5 527.5C459.48 533.211 443.146 534.378 426.5 531C421.5 530.333 416.5 530.333 411.5 531C404.569 532.477 397.903 534.644 391.5 537.5C385.398 515.285 373.732 496.618 356.5 481.5C353.037 477.536 349.37 473.702 345.5 470C349.274 470.554 352.608 472.22 355.5 475C360.335 479.003 365.002 483.17 369.5 487.5Z" fill="white"/>
<path fill-rule="evenodd" clip-rule="evenodd" d="M477.5 530.5C478.5 530.5 479.5 530.5 480.5 530.5C481.099 533.948 480.099 536.614 477.5 538.5C467.544 542.572 457.211 545.239 446.5 546.5C437.285 545.356 428.118 544.023 419 542.5C409.716 542.595 401.05 544.929 393 549.5C390.709 546.165 391.209 543.332 394.5 541C403.933 535.952 413.933 534.285 424.5 536C443.054 541.91 460.721 540.077 477.5 530.5Z" fill="white"/>
<path fill-rule="evenodd" clip-rule="evenodd" d="M288.5 479.5C292.457 485.044 294.457 491.377 294.5 498.5C296.5 498.5 298.5 498.5 300.5 498.5C300.317 500.936 300.984 503.103 302.5 505C295.641 505.654 292.974 509.487 294.5 516.5C295.709 537.513 297.042 558.513 298.5 579.5C291.833 579.5 285.167 579.5 278.5 579.5C279.834 555.491 281.001 531.491 282 507.5C279.798 506.598 277.632 505.598 275.5 504.5C277.086 502.827 277.753 500.827 277.5 498.5C279.924 498.808 282.257 498.474 284.5 497.5C283.833 496.167 283.167 494.833 282.5 493.5C285.046 489.074 287.046 484.408 288.5 479.5Z" fill="white"/>
<path fill-rule="evenodd" clip-rule="evenodd" d="M396.5 561.5C390.465 565.151 388.632 563.818 391 557.5C395.492 554.673 400.325 552.506 405.5 551C420.847 551.78 436.18 552.78 451.5 554C460.792 553.008 469.125 549.841 476.5 544.5C478.044 544.297 479.378 543.63 480.5 542.5C481.647 544.765 481.814 547.098 481 549.5C471.38 558.15 460.047 561.817 447 560.5C436.272 560.158 425.605 559.158 415 557.5C408.492 557.499 402.326 558.832 396.5 561.5Z" fill="white"/>
<path fill-rule="evenodd" clip-rule="evenodd" d="M373 514.5C365.664 505.666 358.164 496.999 350.5 488.5C344.082 483.113 337.082 478.446 329.5 474.5L328.5 475.5C335.787 484.943 335.121 493.61 326.5 501.5C328.131 503.297 330.131 504.464 332.5 505C335 505.167 337.5 505.333 340 505.5C342.5 505.667 345 505.833 347.5 506C353.026 506.342 357.193 508.842 360 513.5C363.047 523.348 361.547 532.348 355.5 540.5C354.155 539.653 353.155 538.487 352.5 537C345.921 540.546 340.088 545.38 335 551.5C334.336 554.516 334.836 557.349 336.5 560C331.044 566.477 330.044 573.644 333.5 581.5C337.631 580.184 341.464 578.184 345 575.5C343.962 577.958 343.129 580.625 342.5 583.5C355.509 584.597 366.176 580.264 374.5 570.5C386.708 551.546 386.208 532.88 373 514.5ZM339.5 562.5C344.493 562.997 345.493 565.164 342.5 569C337.382 568.824 336.382 566.658 339.5 562.5Z" fill="white"/>
<path fill-rule="evenodd" clip-rule="evenodd" d="M383.5 574.5C387.747 571.976 392.08 569.643 396.5 567.5C401.517 565.773 406.683 564.773 412 564.5C420.538 565.38 429.038 566.546 437.5 568C443.537 568.697 449.537 568.53 455.5 567.5C455.67 568.822 455.337 569.989 454.5 571C448.801 575.129 442.468 576.462 435.5 575C427.896 573.379 420.229 572.212 412.5 571.5C402.629 572.684 392.962 574.684 383.5 577.5C383.5 576.5 383.5 575.5 383.5 574.5Z" fill="white"/>
<path fill-rule="evenodd" clip-rule="evenodd" d="M203.5 609C205.463 609.844 206.796 609.344 207.5 607.5C208.219 605.236 208.552 602.903 208.5 600.5C201.27 599.109 194.27 596.942 187.5 594C186.978 593.439 186.645 592.772 186.5 592C192.643 577.899 198.977 563.899 205.5 550C209.494 551.168 213.161 553.168 216.5 556C213.529 562.776 210.695 569.609 208 576.5C206.823 581.666 208.657 585.166 213.5 587C216.817 587.498 220.15 587.665 223.5 587.5C224.65 582.194 226.65 577.194 229.5 572.5C225.251 568.662 222.585 563.995 221.5 558.5C226.885 560.599 232.385 562.599 238 564.5C238.772 564.355 239.439 564.022 240 563.5C240.495 561.527 240.662 559.527 240.5 557.5C234.571 557.136 229.238 555.302 224.5 552C226.02 549.118 227.353 546.118 228.5 543C227.896 540.416 227.063 537.916 226 535.5L218.5 550.5C215.254 548.961 212.088 547.294 209 545.5C210.71 539.388 213.044 533.388 216 527.5C216.497 524.854 216.664 522.187 216.5 519.5C214.712 519.215 213.045 519.548 211.5 520.5C209.088 525.659 206.421 530.659 203.5 535.5C199.365 533.505 195.698 531.005 192.5 528C194.617 523.716 196.95 519.549 199.5 515.5L195.5 507.5C192.16 512.175 189.327 517.175 187 522.5C183.308 523.813 181.641 522.48 182 518.5C185.021 514.456 187.521 510.123 189.5 505.5C189.392 504.558 189.059 503.725 188.5 503C186.741 502.202 185.074 502.369 183.5 503.5C168.391 526.737 153.058 549.737 137.5 572.5C136.248 574.339 136.248 576.172 137.5 578C158.17 591 180.17 601.333 203.5 609ZM182.5 530.5C180.754 528.748 178.754 527.415 176.5 526.5C167.006 541.51 157.673 556.677 148.5 572C155.21 577.032 162.21 581.699 169.5 586C172.561 588.035 175.895 589.201 179.5 589.5C186.16 573.355 193.493 557.521 201.5 542C199.667 540.833 197.833 539.667 196 538.5C194.167 537.333 192.333 536.167 190.5 535C189.365 534.251 188.365 534.417 187.5 535.5C185.089 539.157 183.089 542.99 181.5 547C182.214 551.26 183.881 555.094 186.5 558.5C182.601 565.628 179.267 572.961 176.5 580.5C171.433 580.311 166.766 578.811 162.5 576C160.876 574.883 159.876 573.383 159.5 571.5C166.728 557.601 174.394 543.934 182.5 530.5Z" fill="white"/>
<path fill-rule="evenodd" clip-rule="evenodd" d="M400.5 579.5C410.491 579.072 420.325 580.072 430 582.5C431.257 582.85 431.591 583.517 431 584.5C428.913 585.794 426.746 586.961 424.5 588C415.598 586.62 406.598 586.287 397.5 587C389.62 590.942 381.287 593.108 372.5 593.5C371.167 593.167 369.833 592.833 368.5 592.5C370.269 590.443 372.269 588.61 374.5 587C383.543 585.37 392.209 582.87 400.5 579.5Z" fill="white"/>
<path fill-rule="evenodd" clip-rule="evenodd" d="M300.5 584.5C300.5 587.5 300.5 590.5 300.5 593.5C292.5 593.5 284.5 593.5 276.5 593.5C276.5 590.5 276.5 587.5 276.5 584.5C284.5 584.5 292.5 584.5 300.5 584.5Z" fill="white"/>
<path fill-rule="evenodd" clip-rule="evenodd" d="M394.5 595.5C399.214 595.173 403.88 595.507 408.5 596.5C397.642 601.51 386.476 605.844 375 609.5C372.619 607.906 371.453 605.573 371.5 602.5C379.794 601.849 387.46 599.516 394.5 595.5Z" fill="white"/>
<path fill-rule="evenodd" clip-rule="evenodd" d="M307.5 597.5C307.5 600.833 307.5 604.167 307.5 607.5C294.5 607.5 281.5 607.5 268.5 607.5C268.5 604.167 268.5 600.833 268.5 597.5C281.5 597.5 294.5 597.5 307.5 597.5Z" fill="white"/>
<path fill-rule="evenodd" clip-rule="evenodd" d="M313.5 611.5C313.5 614.833 313.5 618.167 313.5 621.5C296.833 621.5 280.167 621.5 263.5 621.5C263.5 618.167 263.5 614.833 263.5 611.5C280.167 611.5 296.833 611.5 313.5 611.5Z" fill="white"/>
</svg>
