<svg width="1564" height="345" viewBox="0 0 1564 345" fill="none" xmlns="http://www.w3.org/2000/svg">
<path fill-rule="evenodd" clip-rule="evenodd" d="M77.8834 20C70.4104 20 63.7824 23.6048 59.6547 29.1653C63.7824 34.7257 70.4104 38.3305 77.8834 38.3305C82.9264 38.3305 87.5848 36.6886 91.3498 33.9117C88.5639 37.6639 86.9164 42.3066 86.9164 47.3326C86.9164 54.7807 90.5334 61.3863 96.1126 65.5C101.692 61.3863 105.309 54.7807 105.309 47.3326C105.309 39.8852 101.692 33.279 96.1126 29.1653C91.9843 23.6048 85.3563 20 77.8834 20Z" fill="#EDEDED"/>
<path fill-rule="evenodd" clip-rule="evenodd" d="M41.4255 20C48.8984 20 55.5264 23.6048 59.6547 29.1653C55.5264 34.7257 48.8984 38.3305 41.4255 38.3305C36.3824 38.3305 31.7246 36.6886 27.9596 33.9117C30.7456 37.6639 32.393 42.3066 32.393 47.3326C32.393 54.7807 28.7754 61.3863 23.1968 65.5C17.617 61.3863 14 54.7807 14 47.3326C14 39.8852 17.617 33.279 23.1968 29.1653C27.3245 23.6048 33.9525 20 41.4255 20Z" fill="#EDEDED"/>
<path fill-rule="evenodd" clip-rule="evenodd" d="M77.8834 111C70.4104 111 63.7824 107.395 59.6547 101.835C63.7824 96.2743 70.4104 92.6695 77.8834 92.6695C82.9264 92.6695 87.5848 94.3115 91.3498 97.0883C88.5639 93.3361 86.9164 88.6934 86.9164 83.6674C86.9164 76.2199 90.5334 69.6144 96.1126 65.5C101.692 69.6144 105.309 76.2199 105.309 83.6674C105.309 91.1154 101.692 97.721 96.1126 101.835C91.9843 107.395 85.3563 111 77.8834 111Z" fill="#EDEDED"/>
<path fill-rule="evenodd" clip-rule="evenodd" d="M41.4255 111C48.8984 111 55.5264 107.395 59.6547 101.835C55.5264 96.2743 48.8984 92.6695 41.4255 92.6695C36.3824 92.6695 31.7246 94.3115 27.9596 97.0883C30.7456 93.3361 32.393 88.6934 32.393 83.6674C32.393 76.2199 28.7754 69.6144 23.1968 65.5C17.617 69.6144 14 76.2199 14 83.6674C14 91.1154 17.617 97.721 23.1968 101.835C27.3245 107.395 33.9525 111 41.4255 111Z" fill="#EDEDED"/>
<path fill-rule="evenodd" clip-rule="evenodd" d="M174.193 20C166.72 20 160.092 23.6048 155.964 29.1653C160.092 34.7257 166.72 38.3305 174.193 38.3305C179.236 38.3305 183.894 36.6886 187.659 33.9117C184.873 37.6639 183.226 42.3066 183.226 47.3326C183.226 54.7807 186.843 61.3863 192.422 65.5C198.001 61.3863 201.619 54.7807 201.619 47.3326C201.619 39.8852 198.001 33.279 192.422 29.1653C188.294 23.6048 181.666 20 174.193 20Z" fill="#EDEDED"/>
<path fill-rule="evenodd" clip-rule="evenodd" d="M137.735 20C145.208 20 151.836 23.6048 155.964 29.1653C151.836 34.7257 145.208 38.3305 137.735 38.3305C132.692 38.3305 128.034 36.6886 124.269 33.9117C127.055 37.6639 128.702 42.3066 128.702 47.3326C128.702 54.7807 125.085 61.3863 119.506 65.5C113.926 61.3863 110.309 54.7807 110.309 47.3326C110.309 39.8852 113.926 33.279 119.506 29.1653C123.634 23.6048 130.262 20 137.735 20Z" fill="#EDEDED"/>
<path fill-rule="evenodd" clip-rule="evenodd" d="M174.193 111C166.72 111 160.092 107.395 155.964 101.835C160.092 96.2743 166.72 92.6695 174.193 92.6695C179.236 92.6695 183.894 94.3115 187.659 97.0883C184.873 93.3361 183.226 88.6934 183.226 83.6674C183.226 76.2199 186.843 69.6144 192.422 65.5C198.001 69.6144 201.619 76.2199 201.619 83.6674C201.619 91.1154 198.001 97.721 192.422 101.835C188.294 107.395 181.666 111 174.193 111Z" fill="#EDEDED"/>
<path fill-rule="evenodd" clip-rule="evenodd" d="M137.735 111C145.208 111 151.836 107.395 155.964 101.835C151.836 96.2743 145.208 92.6695 137.735 92.6695C132.692 92.6695 128.034 94.3115 124.269 97.0883C127.055 93.3361 128.702 88.6934 128.702 83.6674C128.702 76.2199 125.085 69.6144 119.506 65.5C113.926 69.6144 110.309 76.2199 110.309 83.6674C110.309 91.1154 113.926 97.721 119.506 101.835C123.634 107.395 130.262 111 137.735 111Z" fill="#EDEDED"/>
<path fill-rule="evenodd" clip-rule="evenodd" d="M270.502 20C263.029 20 256.401 23.6048 252.273 29.1653C256.401 34.7257 263.029 38.3305 270.502 38.3305C275.545 38.3305 280.204 36.6886 283.969 33.9117C281.183 37.6639 279.535 42.3066 279.535 47.3326C279.535 54.7807 283.152 61.3863 288.731 65.5C294.311 61.3863 297.928 54.7807 297.928 47.3326C297.928 39.8852 294.311 33.279 288.731 29.1653C284.603 23.6048 277.975 20 270.502 20Z" fill="#EDEDED"/>
<path fill-rule="evenodd" clip-rule="evenodd" d="M234.044 20C241.517 20 248.145 23.6048 252.273 29.1653C248.145 34.7257 241.517 38.3305 234.044 38.3305C229.001 38.3305 224.343 36.6886 220.578 33.9117C223.364 37.6639 225.012 42.3066 225.012 47.3326C225.012 54.7807 221.394 61.3863 215.816 65.5C210.236 61.3863 206.619 54.7807 206.619 47.3326C206.619 39.8852 210.236 33.279 215.816 29.1653C219.943 23.6048 226.571 20 234.044 20Z" fill="#EDEDED"/>
<path fill-rule="evenodd" clip-rule="evenodd" d="M270.502 111C263.029 111 256.401 107.395 252.273 101.835C256.401 96.2743 263.029 92.6695 270.502 92.6695C275.545 92.6695 280.204 94.3115 283.969 97.0883C281.183 93.3361 279.535 88.6934 279.535 83.6674C279.535 76.2199 283.152 69.6144 288.731 65.5C294.311 69.6144 297.928 76.2199 297.928 83.6674C297.928 91.1154 294.311 97.721 288.731 101.835C284.603 107.395 277.975 111 270.502 111Z" fill="#EDEDED"/>
<path fill-rule="evenodd" clip-rule="evenodd" d="M234.044 111C241.517 111 248.145 107.395 252.273 101.835C248.145 96.2743 241.517 92.6695 234.044 92.6695C229.001 92.6695 224.343 94.3115 220.578 97.0883C223.364 93.3361 225.012 88.6934 225.012 83.6674C225.012 76.2199 221.394 69.6144 215.816 65.5C210.236 69.6144 206.619 76.2199 206.619 83.6674C206.619 91.1154 210.236 97.721 215.816 101.835C219.943 107.395 226.571 111 234.044 111Z" fill="#EDEDED"/>
<path fill-rule="evenodd" clip-rule="evenodd" d="M366.812 20C359.339 20 352.711 23.6048 348.583 29.1653C352.711 34.7257 359.339 38.3305 366.812 38.3305C371.855 38.3305 376.513 36.6886 380.278 33.9117C377.492 37.6639 375.845 42.3066 375.845 47.3326C375.845 54.7807 379.462 61.3863 385.041 65.5C390.62 61.3863 394.238 54.7807 394.238 47.3326C394.238 39.8852 390.62 33.279 385.041 29.1653C380.912 23.6048 374.284 20 366.812 20Z" fill="#EDEDED"/>
<path fill-rule="evenodd" clip-rule="evenodd" d="M330.354 20C337.827 20 344.455 23.6048 348.583 29.1653C344.455 34.7257 337.827 38.3305 330.354 38.3305C325.311 38.3305 320.653 36.6886 316.888 33.9117C319.674 37.6639 321.321 42.3066 321.321 47.3326C321.321 54.7807 317.704 61.3863 312.125 65.5C306.545 61.3863 302.928 54.7807 302.928 47.3326C302.928 39.8852 306.545 33.279 312.125 29.1653C316.253 23.6048 322.881 20 330.354 20Z" fill="#EDEDED"/>
<path fill-rule="evenodd" clip-rule="evenodd" d="M366.812 111C359.339 111 352.711 107.395 348.583 101.835C352.711 96.2743 359.339 92.6695 366.812 92.6695C371.855 92.6695 376.513 94.3115 380.278 97.0883C377.492 93.3361 375.845 88.6934 375.845 83.6674C375.845 76.2199 379.462 69.6144 385.041 65.5C390.62 69.6144 394.238 76.2199 394.238 83.6674C394.238 91.1154 390.62 97.721 385.041 101.835C380.912 107.395 374.284 111 366.812 111Z" fill="#EDEDED"/>
<path fill-rule="evenodd" clip-rule="evenodd" d="M330.354 111C337.827 111 344.455 107.395 348.583 101.835C344.455 96.2743 337.827 92.6695 330.354 92.6695C325.311 92.6695 320.653 94.3115 316.888 97.0883C319.674 93.3361 321.321 88.6934 321.321 83.6674C321.321 76.2199 317.704 69.6144 312.125 65.5C306.545 69.6144 302.928 76.2199 302.928 83.6674C302.928 91.1154 306.545 97.721 312.125 101.835C316.253 107.395 322.881 111 330.354 111Z" fill="#EDEDED"/>
<path fill-rule="evenodd" clip-rule="evenodd" d="M463.121 20C455.648 20 449.02 23.6048 444.892 29.1653C449.02 34.7257 455.648 38.3305 463.121 38.3305C468.164 38.3305 472.822 36.6886 476.587 33.9117C473.801 37.6639 472.154 42.3066 472.154 47.3326C472.154 54.7807 475.771 61.3863 481.35 65.5C486.929 61.3863 490.547 54.7807 490.547 47.3326C490.547 39.8852 486.929 33.279 481.35 29.1653C477.222 23.6048 470.594 20 463.121 20Z" fill="#EDEDED"/>
<path fill-rule="evenodd" clip-rule="evenodd" d="M426.663 20C434.136 20 440.764 23.6048 444.892 29.1653C440.764 34.7257 434.136 38.3305 426.663 38.3305C421.62 38.3305 416.962 36.6886 413.197 33.9117C415.983 37.6639 417.631 42.3066 417.631 47.3326C417.631 54.7807 414.013 61.3863 408.434 65.5C402.855 61.3863 399.238 54.7807 399.238 47.3326C399.238 39.8852 402.855 33.279 408.434 29.1653C412.562 23.6048 419.19 20 426.663 20Z" fill="#EDEDED"/>
<path fill-rule="evenodd" clip-rule="evenodd" d="M463.121 111C455.648 111 449.02 107.395 444.892 101.835C449.02 96.2743 455.648 92.6695 463.121 92.6695C468.164 92.6695 472.822 94.3115 476.587 97.0883C473.801 93.3361 472.154 88.6934 472.154 83.6674C472.154 76.2199 475.771 69.6144 481.35 65.5C486.929 69.6144 490.547 76.2199 490.547 83.6674C490.547 91.1154 486.929 97.721 481.35 101.835C477.222 107.395 470.594 111 463.121 111Z" fill="#EDEDED"/>
<path fill-rule="evenodd" clip-rule="evenodd" d="M426.663 111C434.136 111 440.764 107.395 444.892 101.835C440.764 96.2743 434.136 92.6695 426.663 92.6695C421.62 92.6695 416.962 94.3115 413.197 97.0883C415.983 93.3361 417.631 88.6934 417.631 83.6674C417.631 76.2199 414.013 69.6144 408.434 65.5C402.855 69.6144 399.238 76.2199 399.238 83.6674C399.238 91.1154 402.855 97.721 408.434 101.835C412.562 107.395 419.19 111 426.663 111Z" fill="#EDEDED"/>
<path fill-rule="evenodd" clip-rule="evenodd" d="M559.43 20C551.957 20 545.329 23.6048 541.202 29.1653C545.329 34.7257 551.957 38.3305 559.43 38.3305C564.473 38.3305 569.132 36.6886 572.897 33.9117C570.111 37.6639 568.463 42.3066 568.463 47.3326C568.463 54.7807 572.08 61.3863 577.66 65.5C583.239 61.3863 586.856 54.7807 586.856 47.3326C586.856 39.8852 583.239 33.279 577.66 29.1653C573.531 23.6048 566.903 20 559.43 20Z" fill="#EDEDED"/>
<path fill-rule="evenodd" clip-rule="evenodd" d="M522.972 20C530.445 20 537.073 23.6048 541.202 29.1653C537.073 34.7257 530.445 38.3305 522.972 38.3305C517.929 38.3305 513.272 36.6886 509.507 33.9117C512.293 37.6639 513.94 42.3066 513.94 47.3326C513.94 54.7807 510.322 61.3863 504.744 65.5C499.164 61.3863 495.547 54.7807 495.547 47.3326C495.547 39.8852 499.164 33.279 504.744 29.1653C508.871 23.6048 515.499 20 522.972 20Z" fill="#EDEDED"/>
<path fill-rule="evenodd" clip-rule="evenodd" d="M559.43 111C551.957 111 545.329 107.395 541.202 101.835C545.329 96.2743 551.957 92.6695 559.43 92.6695C564.473 92.6695 569.132 94.3115 572.897 97.0883C570.111 93.3361 568.463 88.6934 568.463 83.6674C568.463 76.2199 572.08 69.6144 577.66 65.5C583.239 69.6144 586.856 76.2199 586.856 83.6674C586.856 91.1154 583.239 97.721 577.66 101.835C573.531 107.395 566.903 111 559.43 111Z" fill="#EDEDED"/>
<path fill-rule="evenodd" clip-rule="evenodd" d="M522.972 111C530.445 111 537.073 107.395 541.202 101.835C537.073 96.2743 530.445 92.6695 522.972 92.6695C517.929 92.6695 513.272 94.3115 509.507 97.0883C512.293 93.3361 513.94 88.6934 513.94 83.6674C513.94 76.2199 510.322 69.6144 504.744 65.5C499.164 69.6144 495.547 76.2199 495.547 83.6674C495.547 91.1154 499.164 97.721 504.744 101.835C508.871 107.395 515.499 111 522.972 111Z" fill="#EDEDED"/>
<path fill-rule="evenodd" clip-rule="evenodd" d="M655.74 20C648.267 20 641.639 23.6048 637.511 29.1653C641.639 34.7257 648.267 38.3305 655.74 38.3305C660.783 38.3305 665.441 36.6886 669.206 33.9117C666.42 37.6639 664.773 42.3066 664.773 47.3326C664.773 54.7807 668.39 61.3863 673.969 65.5C679.548 61.3863 683.166 54.7807 683.166 47.3326C683.166 39.8852 679.548 33.279 673.969 29.1653C669.841 23.6048 663.213 20 655.74 20Z" fill="#EDEDED"/>
<path fill-rule="evenodd" clip-rule="evenodd" d="M619.282 20C626.755 20 633.383 23.6048 637.511 29.1653C633.383 34.7257 626.755 38.3305 619.282 38.3305C614.239 38.3305 609.581 36.6886 605.816 33.9117C608.602 37.6639 610.249 42.3066 610.249 47.3326C610.249 54.7807 606.632 61.3863 601.053 65.5C595.473 61.3863 591.856 54.7807 591.856 47.3326C591.856 39.8852 595.473 33.279 601.053 29.1653C605.181 23.6048 611.809 20 619.282 20Z" fill="#EDEDED"/>
<path fill-rule="evenodd" clip-rule="evenodd" d="M655.74 111C648.267 111 641.639 107.395 637.511 101.835C641.639 96.2743 648.267 92.6695 655.74 92.6695C660.783 92.6695 665.441 94.3115 669.206 97.0883C666.42 93.3361 664.773 88.6934 664.773 83.6674C664.773 76.2199 668.39 69.6144 673.969 65.5C679.548 69.6144 683.166 76.2199 683.166 83.6674C683.166 91.1154 679.548 97.721 673.969 101.835C669.841 107.395 663.213 111 655.74 111Z" fill="#EDEDED"/>
<path fill-rule="evenodd" clip-rule="evenodd" d="M619.282 111C626.755 111 633.383 107.395 637.511 101.835C633.383 96.2743 626.755 92.6695 619.282 92.6695C614.239 92.6695 609.581 94.3115 605.816 97.0883C608.602 93.3361 610.249 88.6934 610.249 83.6674C610.249 76.2199 606.632 69.6144 601.053 65.5C595.473 69.6144 591.856 76.2199 591.856 83.6674C591.856 91.1154 595.473 97.721 601.053 101.835C605.181 107.395 611.809 111 619.282 111Z" fill="#EDEDED"/>
<path fill-rule="evenodd" clip-rule="evenodd" d="M752.049 20C744.576 20 737.948 23.6048 733.82 29.1653C737.948 34.7257 744.576 38.3305 752.049 38.3305C757.092 38.3305 761.751 36.6886 765.516 33.9117C762.73 37.6639 761.082 42.3066 761.082 47.3326C761.082 54.7807 764.699 61.3863 770.278 65.5C775.858 61.3863 779.475 54.7807 779.475 47.3326C779.475 39.8852 775.858 33.279 770.278 29.1653C766.15 23.6048 759.522 20 752.049 20Z" fill="#EDEDED"/>
<path fill-rule="evenodd" clip-rule="evenodd" d="M715.591 20C723.064 20 729.692 23.6048 733.82 29.1653C729.692 34.7257 723.064 38.3305 715.591 38.3305C710.548 38.3305 705.89 36.6886 702.125 33.9117C704.911 37.6639 706.559 42.3066 706.559 47.3326C706.559 54.7807 702.941 61.3863 697.363 65.5C691.783 61.3863 688.166 54.7807 688.166 47.3326C688.166 39.8852 691.783 33.279 697.363 29.1653C701.49 23.6048 708.118 20 715.591 20Z" fill="#EDEDED"/>
<path fill-rule="evenodd" clip-rule="evenodd" d="M752.049 111C744.576 111 737.948 107.395 733.82 101.835C737.948 96.2743 744.576 92.6695 752.049 92.6695C757.092 92.6695 761.751 94.3115 765.516 97.0883C762.73 93.3361 761.082 88.6934 761.082 83.6674C761.082 76.2199 764.699 69.6144 770.278 65.5C775.858 69.6144 779.475 76.2199 779.475 83.6674C779.475 91.1154 775.858 97.721 770.278 101.835C766.15 107.395 759.522 111 752.049 111Z" fill="#EDEDED"/>
<path fill-rule="evenodd" clip-rule="evenodd" d="M715.591 111C723.064 111 729.692 107.395 733.82 101.835C729.692 96.2743 723.064 92.6695 715.591 92.6695C710.548 92.6695 705.89 94.3115 702.125 97.0883C704.911 93.3361 706.559 88.6934 706.559 83.6674C706.559 76.2199 702.941 69.6144 697.363 65.5C691.783 69.6144 688.166 76.2199 688.166 83.6674C688.166 91.1154 691.783 97.721 697.363 101.835C701.49 107.395 708.118 111 715.591 111Z" fill="#EDEDED"/>
<path fill-rule="evenodd" clip-rule="evenodd" d="M848.358 20C840.885 20 834.257 23.6048 830.13 29.1653C834.257 34.7257 840.885 38.3305 848.358 38.3305C853.401 38.3305 858.06 36.6886 861.825 33.9117C859.039 37.6639 857.391 42.3066 857.391 47.3326C857.391 54.7807 861.008 61.3863 866.588 65.5C872.167 61.3863 875.784 54.7807 875.784 47.3326C875.784 39.8852 872.167 33.279 866.588 29.1653C862.459 23.6048 855.831 20 848.358 20Z" fill="#EDEDED"/>
<path fill-rule="evenodd" clip-rule="evenodd" d="M811.901 20C819.373 20 826.001 23.6048 830.13 29.1653C826.001 34.7257 819.373 38.3305 811.901 38.3305C806.858 38.3305 802.2 36.6886 798.435 33.9117C801.221 37.6639 802.868 42.3066 802.868 47.3326C802.868 54.7807 799.251 61.3863 793.672 65.5C788.092 61.3863 784.475 54.7807 784.475 47.3326C784.475 39.8852 788.092 33.279 793.672 29.1653C797.8 23.6048 804.428 20 811.901 20Z" fill="#EDEDED"/>
<path fill-rule="evenodd" clip-rule="evenodd" d="M848.358 111C840.885 111 834.257 107.395 830.13 101.835C834.257 96.2743 840.885 92.6695 848.358 92.6695C853.401 92.6695 858.06 94.3115 861.825 97.0883C859.039 93.3361 857.391 88.6934 857.391 83.6674C857.391 76.2199 861.008 69.6144 866.588 65.5C872.167 69.6144 875.784 76.2199 875.784 83.6674C875.784 91.1154 872.167 97.721 866.588 101.835C862.459 107.395 855.831 111 848.358 111Z" fill="#EDEDED"/>
<path fill-rule="evenodd" clip-rule="evenodd" d="M811.901 111C819.373 111 826.001 107.395 830.13 101.835C826.001 96.2743 819.373 92.6695 811.901 92.6695C806.858 92.6695 802.2 94.3115 798.435 97.0883C801.221 93.3361 802.868 88.6934 802.868 83.6674C802.868 76.2199 799.251 69.6144 793.672 65.5C788.092 69.6144 784.475 76.2199 784.475 83.6674C784.475 91.1154 788.092 97.721 793.672 101.835C797.8 107.395 804.428 111 811.901 111Z" fill="#EDEDED"/>
<path fill-rule="evenodd" clip-rule="evenodd" d="M944.668 20C937.195 20 930.567 23.6048 926.439 29.1653C930.567 34.7257 937.195 38.3305 944.668 38.3305C949.711 38.3305 954.369 36.6886 958.134 33.9117C955.348 37.6639 953.701 42.3066 953.701 47.3326C953.701 54.7807 957.318 61.3863 962.897 65.5C968.476 61.3863 972.094 54.7807 972.094 47.3326C972.094 39.8852 968.476 33.279 962.897 29.1653C958.769 23.6048 952.141 20 944.668 20Z" fill="#EDEDED"/>
<path fill-rule="evenodd" clip-rule="evenodd" d="M908.21 20C915.683 20 922.311 23.6048 926.439 29.1653C922.311 34.7257 915.683 38.3305 908.21 38.3305C903.167 38.3305 898.509 36.6886 894.744 33.9117C897.53 37.6639 899.177 42.3066 899.177 47.3326C899.177 54.7807 895.56 61.3863 889.981 65.5C884.401 61.3863 880.784 54.7807 880.784 47.3326C880.784 39.8852 884.401 33.279 889.981 29.1653C894.109 23.6048 900.737 20 908.21 20Z" fill="#EDEDED"/>
<path fill-rule="evenodd" clip-rule="evenodd" d="M944.668 111C937.195 111 930.567 107.395 926.439 101.835C930.567 96.2743 937.195 92.6695 944.668 92.6695C949.711 92.6695 954.369 94.3115 958.134 97.0883C955.348 93.3361 953.701 88.6934 953.701 83.6674C953.701 76.2199 957.318 69.6144 962.897 65.5C968.476 69.6144 972.094 76.2199 972.094 83.6674C972.094 91.1154 968.476 97.721 962.897 101.835C958.769 107.395 952.141 111 944.668 111Z" fill="#EDEDED"/>
<path fill-rule="evenodd" clip-rule="evenodd" d="M908.21 111C915.683 111 922.311 107.395 926.439 101.835C922.311 96.2743 915.683 92.6695 908.21 92.6695C903.167 92.6695 898.509 94.3115 894.744 97.0883C897.53 93.3361 899.177 88.6934 899.177 83.6674C899.177 76.2199 895.56 69.6144 889.981 65.5C884.401 69.6144 880.784 76.2199 880.784 83.6674C880.784 91.1154 884.401 97.721 889.981 101.835C894.109 107.395 900.737 111 908.21 111Z" fill="#EDEDED"/>
<path fill-rule="evenodd" clip-rule="evenodd" d="M1040.98 20C1033.5 20 1026.88 23.6048 1022.75 29.1653C1026.88 34.7257 1033.5 38.3305 1040.98 38.3305C1046.02 38.3305 1050.68 36.6886 1054.44 33.9117C1051.66 37.6639 1050.01 42.3066 1050.01 47.3326C1050.01 54.7807 1053.63 61.3863 1059.21 65.5C1064.79 61.3863 1068.4 54.7807 1068.4 47.3326C1068.4 39.8852 1064.79 33.279 1059.21 29.1653C1055.08 23.6048 1048.45 20 1040.98 20Z" fill="#EDEDED"/>
<path fill-rule="evenodd" clip-rule="evenodd" d="M1004.52 20C1011.99 20 1018.62 23.6048 1022.75 29.1653C1018.62 34.7257 1011.99 38.3305 1004.52 38.3305C999.476 38.3305 994.818 36.6886 991.053 33.9117C993.839 37.6639 995.487 42.3066 995.487 47.3326C995.487 54.7807 991.869 61.3863 986.291 65.5C980.711 61.3863 977.094 54.7807 977.094 47.3326C977.094 39.8852 980.711 33.279 986.291 29.1653C990.418 23.6048 997.046 20 1004.52 20Z" fill="#EDEDED"/>
<path fill-rule="evenodd" clip-rule="evenodd" d="M1040.98 111C1033.5 111 1026.88 107.395 1022.75 101.835C1026.88 96.2743 1033.5 92.6695 1040.98 92.6695C1046.02 92.6695 1050.68 94.3115 1054.44 97.0883C1051.66 93.3361 1050.01 88.6934 1050.01 83.6674C1050.01 76.2199 1053.63 69.6144 1059.21 65.5C1064.79 69.6144 1068.4 76.2199 1068.4 83.6674C1068.4 91.1154 1064.79 97.721 1059.21 101.835C1055.08 107.395 1048.45 111 1040.98 111Z" fill="#EDEDED"/>
<path fill-rule="evenodd" clip-rule="evenodd" d="M1004.52 111C1011.99 111 1018.62 107.395 1022.75 101.835C1018.62 96.2743 1011.99 92.6695 1004.52 92.6695C999.476 92.6695 994.818 94.3115 991.053 97.0883C993.839 93.3361 995.487 88.6934 995.487 83.6674C995.487 76.2199 991.869 69.6144 986.291 65.5C980.711 69.6144 977.094 76.2199 977.094 83.6674C977.094 91.1154 980.711 97.721 986.291 101.835C990.418 107.395 997.046 111 1004.52 111Z" fill="#EDEDED"/>
<path fill-rule="evenodd" clip-rule="evenodd" d="M1137.29 20C1129.81 20 1123.19 23.6048 1119.06 29.1653C1123.19 34.7257 1129.81 38.3305 1137.29 38.3305C1142.33 38.3305 1146.99 36.6886 1150.75 33.9117C1147.97 37.6639 1146.32 42.3066 1146.32 47.3326C1146.32 54.7807 1149.94 61.3863 1155.52 65.5C1161.1 61.3863 1164.71 54.7807 1164.71 47.3326C1164.71 39.8852 1161.1 33.279 1155.52 29.1653C1151.39 23.6048 1144.76 20 1137.29 20Z" fill="#EDEDED"/>
<path fill-rule="evenodd" clip-rule="evenodd" d="M1100.83 20C1108.3 20 1114.93 23.6048 1119.06 29.1653C1114.93 34.7257 1108.3 38.3305 1100.83 38.3305C1095.79 38.3305 1091.13 36.6886 1087.36 33.9117C1090.15 37.6639 1091.8 42.3066 1091.8 47.3326C1091.8 54.7807 1088.18 61.3863 1082.6 65.5C1077.02 61.3863 1073.4 54.7807 1073.4 47.3326C1073.4 39.8852 1077.02 33.279 1082.6 29.1653C1086.73 23.6048 1093.36 20 1100.83 20Z" fill="#EDEDED"/>
<path fill-rule="evenodd" clip-rule="evenodd" d="M1137.29 111C1129.81 111 1123.19 107.395 1119.06 101.835C1123.19 96.2743 1129.81 92.6695 1137.29 92.6695C1142.33 92.6695 1146.99 94.3115 1150.75 97.0883C1147.97 93.3361 1146.32 88.6934 1146.32 83.6674C1146.32 76.2199 1149.94 69.6144 1155.52 65.5C1161.1 69.6144 1164.71 76.2199 1164.71 83.6674C1164.71 91.1154 1161.1 97.721 1155.52 101.835C1151.39 107.395 1144.76 111 1137.29 111Z" fill="#EDEDED"/>
<path fill-rule="evenodd" clip-rule="evenodd" d="M1100.83 111C1108.3 111 1114.93 107.395 1119.06 101.835C1114.93 96.2743 1108.3 92.6695 1100.83 92.6695C1095.79 92.6695 1091.13 94.3115 1087.36 97.0883C1090.15 93.3361 1091.8 88.6934 1091.8 83.6674C1091.8 76.2199 1088.18 69.6144 1082.6 65.5C1077.02 69.6144 1073.4 76.2199 1073.4 83.6674C1073.4 91.1154 1077.02 97.721 1082.6 101.835C1086.73 107.395 1093.36 111 1100.83 111Z" fill="#EDEDED"/>
<path fill-rule="evenodd" clip-rule="evenodd" d="M1233.6 20C1226.12 20 1219.5 23.6048 1215.37 29.1653C1219.5 34.7257 1226.12 38.3305 1233.6 38.3305C1238.64 38.3305 1243.3 36.6886 1247.06 33.9117C1244.28 37.6639 1242.63 42.3066 1242.63 47.3326C1242.63 54.7807 1246.25 61.3863 1251.83 65.5C1257.4 61.3863 1261.02 54.7807 1261.02 47.3326C1261.02 39.8852 1257.4 33.279 1251.83 29.1653C1247.7 23.6048 1241.07 20 1233.6 20Z" fill="#EDEDED"/>
<path fill-rule="evenodd" clip-rule="evenodd" d="M1197.14 20C1204.61 20 1211.24 23.6048 1215.37 29.1653C1211.24 34.7257 1204.61 38.3305 1197.14 38.3305C1192.1 38.3305 1187.44 36.6886 1183.67 33.9117C1186.46 37.6639 1188.11 42.3066 1188.11 47.3326C1188.11 54.7807 1184.49 61.3863 1178.91 65.5C1173.33 61.3863 1169.71 54.7807 1169.71 47.3326C1169.71 39.8852 1173.33 33.279 1178.91 29.1653C1183.04 23.6048 1189.67 20 1197.14 20Z" fill="#EDEDED"/>
<path fill-rule="evenodd" clip-rule="evenodd" d="M1233.6 111C1226.12 111 1219.5 107.395 1215.37 101.835C1219.5 96.2743 1226.12 92.6695 1233.6 92.6695C1238.64 92.6695 1243.3 94.3115 1247.06 97.0883C1244.28 93.3361 1242.63 88.6934 1242.63 83.6674C1242.63 76.2199 1246.25 69.6144 1251.83 65.5C1257.4 69.6144 1261.02 76.2199 1261.02 83.6674C1261.02 91.1154 1257.4 97.721 1251.83 101.835C1247.7 107.395 1241.07 111 1233.6 111Z" fill="#EDEDED"/>
<path fill-rule="evenodd" clip-rule="evenodd" d="M1197.14 111C1204.61 111 1211.24 107.395 1215.37 101.835C1211.24 96.2743 1204.61 92.6695 1197.14 92.6695C1192.1 92.6695 1187.44 94.3115 1183.67 97.0883C1186.46 93.3361 1188.11 88.6934 1188.11 83.6674C1188.11 76.2199 1184.49 69.6144 1178.91 65.5C1173.33 69.6144 1169.71 76.2199 1169.71 83.6674C1169.71 91.1154 1173.33 97.721 1178.91 101.835C1183.04 107.395 1189.67 111 1197.14 111Z" fill="#EDEDED"/>
<path fill-rule="evenodd" clip-rule="evenodd" d="M1329.91 20C1322.43 20 1315.8 23.6048 1311.68 29.1653C1315.8 34.7257 1322.43 38.3305 1329.91 38.3305C1334.95 38.3305 1339.61 36.6886 1343.37 33.9117C1340.59 37.6639 1338.94 42.3066 1338.94 47.3326C1338.94 54.7807 1342.56 61.3863 1348.13 65.5C1353.71 61.3863 1357.33 54.7807 1357.33 47.3326C1357.33 39.8852 1353.71 33.279 1348.13 29.1653C1344.01 23.6048 1337.38 20 1329.91 20Z" fill="#EDEDED"/>
<path fill-rule="evenodd" clip-rule="evenodd" d="M1293.45 20C1300.92 20 1307.55 23.6048 1311.68 29.1653C1307.55 34.7257 1300.92 38.3305 1293.45 38.3305C1288.4 38.3305 1283.75 36.6886 1279.98 33.9117C1282.77 37.6639 1284.41 42.3066 1284.41 47.3326C1284.41 54.7807 1280.8 61.3863 1275.22 65.5C1269.64 61.3863 1266.02 54.7807 1266.02 47.3326C1266.02 39.8852 1269.64 33.279 1275.22 29.1653C1279.35 23.6048 1285.97 20 1293.45 20Z" fill="#EDEDED"/>
<path fill-rule="evenodd" clip-rule="evenodd" d="M1329.91 111C1322.43 111 1315.8 107.395 1311.68 101.835C1315.8 96.2743 1322.43 92.6695 1329.91 92.6695C1334.95 92.6695 1339.61 94.3115 1343.37 97.0883C1340.59 93.3361 1338.94 88.6934 1338.94 83.6674C1338.94 76.2199 1342.56 69.6144 1348.13 65.5C1353.71 69.6144 1357.33 76.2199 1357.33 83.6674C1357.33 91.1154 1353.71 97.721 1348.13 101.835C1344.01 107.395 1337.38 111 1329.91 111Z" fill="#EDEDED"/>
<path fill-rule="evenodd" clip-rule="evenodd" d="M1293.45 111C1300.92 111 1307.55 107.395 1311.68 101.835C1307.55 96.2743 1300.92 92.6695 1293.45 92.6695C1288.4 92.6695 1283.75 94.3115 1279.98 97.0883C1282.77 93.3361 1284.41 88.6934 1284.41 83.6674C1284.41 76.2199 1280.8 69.6144 1275.22 65.5C1269.64 69.6144 1266.02 76.2199 1266.02 83.6674C1266.02 91.1154 1269.64 97.721 1275.22 101.835C1279.35 107.395 1285.97 111 1293.45 111Z" fill="#EDEDED"/>
<path fill-rule="evenodd" clip-rule="evenodd" d="M1426.21 20C1418.74 20 1412.11 23.6048 1407.99 29.1653C1412.11 34.7257 1418.74 38.3305 1426.21 38.3305C1431.26 38.3305 1435.92 36.6886 1439.68 33.9117C1436.9 37.6639 1435.25 42.3066 1435.25 47.3326C1435.25 54.7807 1438.86 61.3863 1444.44 65.5C1450.02 61.3863 1453.64 54.7807 1453.64 47.3326C1453.64 39.8852 1450.02 33.279 1444.44 29.1653C1440.32 23.6048 1433.69 20 1426.21 20Z" fill="#EDEDED"/>
<path fill-rule="evenodd" clip-rule="evenodd" d="M1389.76 20C1397.23 20 1403.86 23.6048 1407.99 29.1653C1403.86 34.7257 1397.23 38.3305 1389.76 38.3305C1384.71 38.3305 1380.06 36.6886 1376.29 33.9117C1379.08 37.6639 1380.72 42.3066 1380.72 47.3326C1380.72 54.7807 1377.11 61.3863 1371.53 65.5C1365.95 61.3863 1362.33 54.7807 1362.33 47.3326C1362.33 39.8852 1365.95 33.279 1371.53 29.1653C1375.66 23.6048 1382.28 20 1389.76 20Z" fill="#EDEDED"/>
<path fill-rule="evenodd" clip-rule="evenodd" d="M1426.21 111C1418.74 111 1412.11 107.395 1407.99 101.835C1412.11 96.2743 1418.74 92.6695 1426.21 92.6695C1431.26 92.6695 1435.92 94.3115 1439.68 97.0883C1436.9 93.3361 1435.25 88.6934 1435.25 83.6674C1435.25 76.2199 1438.86 69.6144 1444.44 65.5C1450.02 69.6144 1453.64 76.2199 1453.64 83.6674C1453.64 91.1154 1450.02 97.721 1444.44 101.835C1440.32 107.395 1433.69 111 1426.21 111Z" fill="#EDEDED"/>
<path fill-rule="evenodd" clip-rule="evenodd" d="M1389.76 111C1397.23 111 1403.86 107.395 1407.99 101.835C1403.86 96.2743 1397.23 92.6695 1389.76 92.6695C1384.71 92.6695 1380.06 94.3115 1376.29 97.0883C1379.08 93.3361 1380.72 88.6934 1380.72 83.6674C1380.72 76.2199 1377.11 69.6144 1371.53 65.5C1365.95 69.6144 1362.33 76.2199 1362.33 83.6674C1362.33 91.1154 1365.95 97.721 1371.53 101.835C1375.66 107.395 1382.28 111 1389.76 111Z" fill="#EDEDED"/>
<path fill-rule="evenodd" clip-rule="evenodd" d="M1522.52 20C1515.05 20 1508.42 23.6048 1504.3 29.1653C1508.42 34.7257 1515.05 38.3305 1522.52 38.3305C1527.57 38.3305 1532.23 36.6886 1535.99 33.9117C1533.2 37.6639 1531.56 42.3066 1531.56 47.3326C1531.56 54.7807 1535.17 61.3863 1540.75 65.5C1546.33 61.3863 1549.95 54.7807 1549.95 47.3326C1549.95 39.8852 1546.33 33.279 1540.75 29.1653C1536.62 23.6048 1530 20 1522.52 20Z" fill="#EDEDED"/>
<path fill-rule="evenodd" clip-rule="evenodd" d="M1486.07 20C1493.54 20 1500.17 23.6048 1504.3 29.1653C1500.17 34.7257 1493.54 38.3305 1486.07 38.3305C1481.02 38.3305 1476.37 36.6886 1472.6 33.9117C1475.39 37.6639 1477.03 42.3066 1477.03 47.3326C1477.03 54.7807 1473.42 61.3863 1467.84 65.5C1462.26 61.3863 1458.64 54.7807 1458.64 47.3326C1458.64 39.8852 1462.26 33.279 1467.84 29.1653C1471.97 23.6048 1478.59 20 1486.07 20Z" fill="#EDEDED"/>
<path fill-rule="evenodd" clip-rule="evenodd" d="M1522.52 111C1515.05 111 1508.42 107.395 1504.3 101.835C1508.42 96.2743 1515.05 92.6695 1522.52 92.6695C1527.57 92.6695 1532.23 94.3115 1535.99 97.0883C1533.2 93.3361 1531.56 88.6934 1531.56 83.6674C1531.56 76.2199 1535.17 69.6144 1540.75 65.5C1546.33 69.6144 1549.95 76.2199 1549.95 83.6674C1549.95 91.1154 1546.33 97.721 1540.75 101.835C1536.62 107.395 1530 111 1522.52 111Z" fill="#EDEDED"/>
<path fill-rule="evenodd" clip-rule="evenodd" d="M1486.07 111C1493.54 111 1500.17 107.395 1504.3 101.835C1500.17 96.2743 1493.54 92.6695 1486.07 92.6695C1481.02 92.6695 1476.37 94.3115 1472.6 97.0883C1475.39 93.3361 1477.03 88.6934 1477.03 83.6674C1477.03 76.2199 1473.42 69.6144 1467.84 65.5C1462.26 69.6144 1458.64 76.2199 1458.64 83.6674C1458.64 91.1154 1462.26 97.721 1467.84 101.835C1471.97 107.395 1478.59 111 1486.07 111Z" fill="#EDEDED"/>
<path fill-rule="evenodd" clip-rule="evenodd" d="M77.8834 127C70.4104 127 63.7824 130.605 59.6547 136.165C63.7824 141.726 70.4104 145.331 77.8834 145.331C82.9264 145.331 87.5848 143.689 91.3498 140.912C88.5639 144.664 86.9164 149.307 86.9164 154.333C86.9164 161.781 90.5334 168.386 96.1126 172.5C101.692 168.386 105.309 161.781 105.309 154.333C105.309 146.885 101.692 140.279 96.1126 136.165C91.9843 130.605 85.3563 127 77.8834 127Z" fill="#EDEDED"/>
<path fill-rule="evenodd" clip-rule="evenodd" d="M41.4255 127C48.8984 127 55.5264 130.605 59.6547 136.165C55.5264 141.726 48.8984 145.331 41.4255 145.331C36.3824 145.331 31.7246 143.689 27.9596 140.912C30.7456 144.664 32.393 149.307 32.393 154.333C32.393 161.781 28.7754 168.386 23.1968 172.5C17.617 168.386 14 161.781 14 154.333C14 146.885 17.617 140.279 23.1968 136.165C27.3245 130.605 33.9525 127 41.4255 127Z" fill="#EDEDED"/>
<path fill-rule="evenodd" clip-rule="evenodd" d="M77.8834 218C70.4104 218 63.7824 214.395 59.6547 208.835C63.7824 203.274 70.4104 199.669 77.8834 199.669C82.9264 199.669 87.5848 201.311 91.3498 204.088C88.5639 200.336 86.9164 195.693 86.9164 190.667C86.9164 183.22 90.5334 176.614 96.1126 172.5C101.692 176.614 105.309 183.22 105.309 190.667C105.309 198.115 101.692 204.721 96.1126 208.835C91.9843 214.395 85.3563 218 77.8834 218Z" fill="#EDEDED"/>
<path fill-rule="evenodd" clip-rule="evenodd" d="M41.4255 218C48.8984 218 55.5264 214.395 59.6547 208.835C55.5264 203.274 48.8984 199.669 41.4255 199.669C36.3824 199.669 31.7246 201.311 27.9596 204.088C30.7456 200.336 32.393 195.693 32.393 190.667C32.393 183.22 28.7754 176.614 23.1968 172.5C17.617 176.614 14 183.22 14 190.667C14 198.115 17.617 204.721 23.1968 208.835C27.3245 214.395 33.9525 218 41.4255 218Z" fill="#EDEDED"/>
<path fill-rule="evenodd" clip-rule="evenodd" d="M174.193 127C166.72 127 160.092 130.605 155.964 136.165C160.092 141.726 166.72 145.331 174.193 145.331C179.236 145.331 183.894 143.689 187.659 140.912C184.873 144.664 183.226 149.307 183.226 154.333C183.226 161.781 186.843 168.386 192.422 172.5C198.001 168.386 201.619 161.781 201.619 154.333C201.619 146.885 198.001 140.279 192.422 136.165C188.294 130.605 181.666 127 174.193 127Z" fill="#EDEDED"/>
<path fill-rule="evenodd" clip-rule="evenodd" d="M137.735 127C145.208 127 151.836 130.605 155.964 136.165C151.836 141.726 145.208 145.331 137.735 145.331C132.692 145.331 128.034 143.689 124.269 140.912C127.055 144.664 128.702 149.307 128.702 154.333C128.702 161.781 125.085 168.386 119.506 172.5C113.926 168.386 110.309 161.781 110.309 154.333C110.309 146.885 113.926 140.279 119.506 136.165C123.634 130.605 130.262 127 137.735 127Z" fill="#EDEDED"/>
<path fill-rule="evenodd" clip-rule="evenodd" d="M174.193 218C166.72 218 160.092 214.395 155.964 208.835C160.092 203.274 166.72 199.669 174.193 199.669C179.236 199.669 183.894 201.311 187.659 204.088C184.873 200.336 183.226 195.693 183.226 190.667C183.226 183.22 186.843 176.614 192.422 172.5C198.001 176.614 201.619 183.22 201.619 190.667C201.619 198.115 198.001 204.721 192.422 208.835C188.294 214.395 181.666 218 174.193 218Z" fill="#EDEDED"/>
<path fill-rule="evenodd" clip-rule="evenodd" d="M137.735 218C145.208 218 151.836 214.395 155.964 208.835C151.836 203.274 145.208 199.669 137.735 199.669C132.692 199.669 128.034 201.311 124.269 204.088C127.055 200.336 128.702 195.693 128.702 190.667C128.702 183.22 125.085 176.614 119.506 172.5C113.926 176.614 110.309 183.22 110.309 190.667C110.309 198.115 113.926 204.721 119.506 208.835C123.634 214.395 130.262 218 137.735 218Z" fill="#EDEDED"/>
<path fill-rule="evenodd" clip-rule="evenodd" d="M270.502 127C263.029 127 256.401 130.605 252.273 136.165C256.401 141.726 263.029 145.331 270.502 145.331C275.545 145.331 280.204 143.689 283.969 140.912C281.183 144.664 279.535 149.307 279.535 154.333C279.535 161.781 283.152 168.386 288.731 172.5C294.311 168.386 297.928 161.781 297.928 154.333C297.928 146.885 294.311 140.279 288.731 136.165C284.603 130.605 277.975 127 270.502 127Z" fill="#EDEDED"/>
<path fill-rule="evenodd" clip-rule="evenodd" d="M234.044 127C241.517 127 248.145 130.605 252.273 136.165C248.145 141.726 241.517 145.331 234.044 145.331C229.001 145.331 224.343 143.689 220.578 140.912C223.364 144.664 225.012 149.307 225.012 154.333C225.012 161.781 221.394 168.386 215.816 172.5C210.236 168.386 206.619 161.781 206.619 154.333C206.619 146.885 210.236 140.279 215.816 136.165C219.943 130.605 226.571 127 234.044 127Z" fill="#EDEDED"/>
<path fill-rule="evenodd" clip-rule="evenodd" d="M270.502 218C263.029 218 256.401 214.395 252.273 208.835C256.401 203.274 263.029 199.669 270.502 199.669C275.545 199.669 280.204 201.311 283.969 204.088C281.183 200.336 279.535 195.693 279.535 190.667C279.535 183.22 283.152 176.614 288.731 172.5C294.311 176.614 297.928 183.22 297.928 190.667C297.928 198.115 294.311 204.721 288.731 208.835C284.603 214.395 277.975 218 270.502 218Z" fill="#EDEDED"/>
<path fill-rule="evenodd" clip-rule="evenodd" d="M234.044 218C241.517 218 248.145 214.395 252.273 208.835C248.145 203.274 241.517 199.669 234.044 199.669C229.001 199.669 224.343 201.311 220.578 204.088C223.364 200.336 225.012 195.693 225.012 190.667C225.012 183.22 221.394 176.614 215.816 172.5C210.236 176.614 206.619 183.22 206.619 190.667C206.619 198.115 210.236 204.721 215.816 208.835C219.943 214.395 226.571 218 234.044 218Z" fill="#EDEDED"/>
<path fill-rule="evenodd" clip-rule="evenodd" d="M366.812 127C359.339 127 352.711 130.605 348.583 136.165C352.711 141.726 359.339 145.331 366.812 145.331C371.855 145.331 376.513 143.689 380.278 140.912C377.492 144.664 375.845 149.307 375.845 154.333C375.845 161.781 379.462 168.386 385.041 172.5C390.62 168.386 394.238 161.781 394.238 154.333C394.238 146.885 390.62 140.279 385.041 136.165C380.912 130.605 374.284 127 366.812 127Z" fill="#EDEDED"/>
<path fill-rule="evenodd" clip-rule="evenodd" d="M330.354 127C337.827 127 344.455 130.605 348.583 136.165C344.455 141.726 337.827 145.331 330.354 145.331C325.311 145.331 320.653 143.689 316.888 140.912C319.674 144.664 321.321 149.307 321.321 154.333C321.321 161.781 317.704 168.386 312.125 172.5C306.545 168.386 302.928 161.781 302.928 154.333C302.928 146.885 306.545 140.279 312.125 136.165C316.253 130.605 322.881 127 330.354 127Z" fill="#EDEDED"/>
<path fill-rule="evenodd" clip-rule="evenodd" d="M366.812 218C359.339 218 352.711 214.395 348.583 208.835C352.711 203.274 359.339 199.669 366.812 199.669C371.855 199.669 376.513 201.311 380.278 204.088C377.492 200.336 375.845 195.693 375.845 190.667C375.845 183.22 379.462 176.614 385.041 172.5C390.62 176.614 394.238 183.22 394.238 190.667C394.238 198.115 390.62 204.721 385.041 208.835C380.912 214.395 374.284 218 366.812 218Z" fill="#EDEDED"/>
<path fill-rule="evenodd" clip-rule="evenodd" d="M330.354 218C337.827 218 344.455 214.395 348.583 208.835C344.455 203.274 337.827 199.669 330.354 199.669C325.311 199.669 320.653 201.311 316.888 204.088C319.674 200.336 321.321 195.693 321.321 190.667C321.321 183.22 317.704 176.614 312.125 172.5C306.545 176.614 302.928 183.22 302.928 190.667C302.928 198.115 306.545 204.721 312.125 208.835C316.253 214.395 322.881 218 330.354 218Z" fill="#EDEDED"/>
<path fill-rule="evenodd" clip-rule="evenodd" d="M463.121 127C455.648 127 449.02 130.605 444.892 136.165C449.02 141.726 455.648 145.331 463.121 145.331C468.164 145.331 472.822 143.689 476.587 140.912C473.801 144.664 472.154 149.307 472.154 154.333C472.154 161.781 475.771 168.386 481.35 172.5C486.929 168.386 490.547 161.781 490.547 154.333C490.547 146.885 486.929 140.279 481.35 136.165C477.222 130.605 470.594 127 463.121 127Z" fill="#EDEDED"/>
<path fill-rule="evenodd" clip-rule="evenodd" d="M426.663 127C434.136 127 440.764 130.605 444.892 136.165C440.764 141.726 434.136 145.331 426.663 145.331C421.62 145.331 416.962 143.689 413.197 140.912C415.983 144.664 417.631 149.307 417.631 154.333C417.631 161.781 414.013 168.386 408.434 172.5C402.855 168.386 399.238 161.781 399.238 154.333C399.238 146.885 402.855 140.279 408.434 136.165C412.562 130.605 419.19 127 426.663 127Z" fill="#EDEDED"/>
<path fill-rule="evenodd" clip-rule="evenodd" d="M463.121 218C455.648 218 449.02 214.395 444.892 208.835C449.02 203.274 455.648 199.669 463.121 199.669C468.164 199.669 472.822 201.311 476.587 204.088C473.801 200.336 472.154 195.693 472.154 190.667C472.154 183.22 475.771 176.614 481.35 172.5C486.929 176.614 490.547 183.22 490.547 190.667C490.547 198.115 486.929 204.721 481.35 208.835C477.222 214.395 470.594 218 463.121 218Z" fill="#EDEDED"/>
<path fill-rule="evenodd" clip-rule="evenodd" d="M426.663 218C434.136 218 440.764 214.395 444.892 208.835C440.764 203.274 434.136 199.669 426.663 199.669C421.62 199.669 416.962 201.311 413.197 204.088C415.983 200.336 417.631 195.693 417.631 190.667C417.631 183.22 414.013 176.614 408.434 172.5C402.855 176.614 399.238 183.22 399.238 190.667C399.238 198.115 402.855 204.721 408.434 208.835C412.562 214.395 419.19 218 426.663 218Z" fill="#EDEDED"/>
<path fill-rule="evenodd" clip-rule="evenodd" d="M559.43 127C551.957 127 545.329 130.605 541.202 136.165C545.329 141.726 551.957 145.331 559.43 145.331C564.473 145.331 569.132 143.689 572.897 140.912C570.111 144.664 568.463 149.307 568.463 154.333C568.463 161.781 572.08 168.386 577.66 172.5C583.239 168.386 586.856 161.781 586.856 154.333C586.856 146.885 583.239 140.279 577.66 136.165C573.531 130.605 566.903 127 559.43 127Z" fill="#EDEDED"/>
<path fill-rule="evenodd" clip-rule="evenodd" d="M522.972 127C530.445 127 537.073 130.605 541.202 136.165C537.073 141.726 530.445 145.331 522.972 145.331C517.929 145.331 513.272 143.689 509.507 140.912C512.293 144.664 513.94 149.307 513.94 154.333C513.94 161.781 510.322 168.386 504.744 172.5C499.164 168.386 495.547 161.781 495.547 154.333C495.547 146.885 499.164 140.279 504.744 136.165C508.871 130.605 515.499 127 522.972 127Z" fill="#EDEDED"/>
<path fill-rule="evenodd" clip-rule="evenodd" d="M559.43 218C551.957 218 545.329 214.395 541.202 208.835C545.329 203.274 551.957 199.669 559.43 199.669C564.473 199.669 569.132 201.311 572.897 204.088C570.111 200.336 568.463 195.693 568.463 190.667C568.463 183.22 572.08 176.614 577.66 172.5C583.239 176.614 586.856 183.22 586.856 190.667C586.856 198.115 583.239 204.721 577.66 208.835C573.531 214.395 566.903 218 559.43 218Z" fill="#EDEDED"/>
<path fill-rule="evenodd" clip-rule="evenodd" d="M522.972 218C530.445 218 537.073 214.395 541.202 208.835C537.073 203.274 530.445 199.669 522.972 199.669C517.929 199.669 513.272 201.311 509.507 204.088C512.293 200.336 513.94 195.693 513.94 190.667C513.94 183.22 510.322 176.614 504.744 172.5C499.164 176.614 495.547 183.22 495.547 190.667C495.547 198.115 499.164 204.721 504.744 208.835C508.871 214.395 515.499 218 522.972 218Z" fill="#EDEDED"/>
<path fill-rule="evenodd" clip-rule="evenodd" d="M655.74 127C648.267 127 641.639 130.605 637.511 136.165C641.639 141.726 648.267 145.331 655.74 145.331C660.783 145.331 665.441 143.689 669.206 140.912C666.42 144.664 664.773 149.307 664.773 154.333C664.773 161.781 668.39 168.386 673.969 172.5C679.548 168.386 683.166 161.781 683.166 154.333C683.166 146.885 679.548 140.279 673.969 136.165C669.841 130.605 663.213 127 655.74 127Z" fill="#EDEDED"/>
<path fill-rule="evenodd" clip-rule="evenodd" d="M619.282 127C626.755 127 633.383 130.605 637.511 136.165C633.383 141.726 626.755 145.331 619.282 145.331C614.239 145.331 609.581 143.689 605.816 140.912C608.602 144.664 610.249 149.307 610.249 154.333C610.249 161.781 606.632 168.386 601.053 172.5C595.473 168.386 591.856 161.781 591.856 154.333C591.856 146.885 595.473 140.279 601.053 136.165C605.181 130.605 611.809 127 619.282 127Z" fill="#EDEDED"/>
<path fill-rule="evenodd" clip-rule="evenodd" d="M655.74 218C648.267 218 641.639 214.395 637.511 208.835C641.639 203.274 648.267 199.669 655.74 199.669C660.783 199.669 665.441 201.311 669.206 204.088C666.42 200.336 664.773 195.693 664.773 190.667C664.773 183.22 668.39 176.614 673.969 172.5C679.548 176.614 683.166 183.22 683.166 190.667C683.166 198.115 679.548 204.721 673.969 208.835C669.841 214.395 663.213 218 655.74 218Z" fill="#EDEDED"/>
<path fill-rule="evenodd" clip-rule="evenodd" d="M619.282 218C626.755 218 633.383 214.395 637.511 208.835C633.383 203.274 626.755 199.669 619.282 199.669C614.239 199.669 609.581 201.311 605.816 204.088C608.602 200.336 610.249 195.693 610.249 190.667C610.249 183.22 606.632 176.614 601.053 172.5C595.473 176.614 591.856 183.22 591.856 190.667C591.856 198.115 595.473 204.721 601.053 208.835C605.181 214.395 611.809 218 619.282 218Z" fill="#EDEDED"/>
<path fill-rule="evenodd" clip-rule="evenodd" d="M752.049 127C744.576 127 737.948 130.605 733.82 136.165C737.948 141.726 744.576 145.331 752.049 145.331C757.092 145.331 761.751 143.689 765.516 140.912C762.73 144.664 761.082 149.307 761.082 154.333C761.082 161.781 764.699 168.386 770.278 172.5C775.858 168.386 779.475 161.781 779.475 154.333C779.475 146.885 775.858 140.279 770.278 136.165C766.15 130.605 759.522 127 752.049 127Z" fill="#EDEDED"/>
<path fill-rule="evenodd" clip-rule="evenodd" d="M715.591 127C723.064 127 729.692 130.605 733.82 136.165C729.692 141.726 723.064 145.331 715.591 145.331C710.548 145.331 705.89 143.689 702.125 140.912C704.911 144.664 706.559 149.307 706.559 154.333C706.559 161.781 702.941 168.386 697.363 172.5C691.783 168.386 688.166 161.781 688.166 154.333C688.166 146.885 691.783 140.279 697.363 136.165C701.49 130.605 708.118 127 715.591 127Z" fill="#EDEDED"/>
<path fill-rule="evenodd" clip-rule="evenodd" d="M752.049 218C744.576 218 737.948 214.395 733.82 208.835C737.948 203.274 744.576 199.669 752.049 199.669C757.092 199.669 761.751 201.311 765.516 204.088C762.73 200.336 761.082 195.693 761.082 190.667C761.082 183.22 764.699 176.614 770.278 172.5C775.858 176.614 779.475 183.22 779.475 190.667C779.475 198.115 775.858 204.721 770.278 208.835C766.15 214.395 759.522 218 752.049 218Z" fill="#EDEDED"/>
<path fill-rule="evenodd" clip-rule="evenodd" d="M715.591 218C723.064 218 729.692 214.395 733.82 208.835C729.692 203.274 723.064 199.669 715.591 199.669C710.548 199.669 705.89 201.311 702.125 204.088C704.911 200.336 706.559 195.693 706.559 190.667C706.559 183.22 702.941 176.614 697.363 172.5C691.783 176.614 688.166 183.22 688.166 190.667C688.166 198.115 691.783 204.721 697.363 208.835C701.49 214.395 708.118 218 715.591 218Z" fill="#EDEDED"/>
<path fill-rule="evenodd" clip-rule="evenodd" d="M848.358 127C840.885 127 834.257 130.605 830.13 136.165C834.257 141.726 840.885 145.331 848.358 145.331C853.401 145.331 858.06 143.689 861.825 140.912C859.039 144.664 857.391 149.307 857.391 154.333C857.391 161.781 861.008 168.386 866.588 172.5C872.167 168.386 875.784 161.781 875.784 154.333C875.784 146.885 872.167 140.279 866.588 136.165C862.459 130.605 855.831 127 848.358 127Z" fill="#EDEDED"/>
<path fill-rule="evenodd" clip-rule="evenodd" d="M811.901 127C819.373 127 826.001 130.605 830.13 136.165C826.001 141.726 819.373 145.331 811.901 145.331C806.858 145.331 802.2 143.689 798.435 140.912C801.221 144.664 802.868 149.307 802.868 154.333C802.868 161.781 799.251 168.386 793.672 172.5C788.092 168.386 784.475 161.781 784.475 154.333C784.475 146.885 788.092 140.279 793.672 136.165C797.8 130.605 804.428 127 811.901 127Z" fill="#EDEDED"/>
<path fill-rule="evenodd" clip-rule="evenodd" d="M848.358 218C840.885 218 834.257 214.395 830.13 208.835C834.257 203.274 840.885 199.669 848.358 199.669C853.401 199.669 858.06 201.311 861.825 204.088C859.039 200.336 857.391 195.693 857.391 190.667C857.391 183.22 861.008 176.614 866.588 172.5C872.167 176.614 875.784 183.22 875.784 190.667C875.784 198.115 872.167 204.721 866.588 208.835C862.459 214.395 855.831 218 848.358 218Z" fill="#EDEDED"/>
<path fill-rule="evenodd" clip-rule="evenodd" d="M811.901 218C819.373 218 826.001 214.395 830.13 208.835C826.001 203.274 819.373 199.669 811.901 199.669C806.858 199.669 802.2 201.311 798.435 204.088C801.221 200.336 802.868 195.693 802.868 190.667C802.868 183.22 799.251 176.614 793.672 172.5C788.092 176.614 784.475 183.22 784.475 190.667C784.475 198.115 788.092 204.721 793.672 208.835C797.8 214.395 804.428 218 811.901 218Z" fill="#EDEDED"/>
<path fill-rule="evenodd" clip-rule="evenodd" d="M944.668 127C937.195 127 930.567 130.605 926.439 136.165C930.567 141.726 937.195 145.331 944.668 145.331C949.711 145.331 954.369 143.689 958.134 140.912C955.348 144.664 953.701 149.307 953.701 154.333C953.701 161.781 957.318 168.386 962.897 172.5C968.476 168.386 972.094 161.781 972.094 154.333C972.094 146.885 968.476 140.279 962.897 136.165C958.769 130.605 952.141 127 944.668 127Z" fill="#EDEDED"/>
<path fill-rule="evenodd" clip-rule="evenodd" d="M908.21 127C915.683 127 922.311 130.605 926.439 136.165C922.311 141.726 915.683 145.331 908.21 145.331C903.167 145.331 898.509 143.689 894.744 140.912C897.53 144.664 899.177 149.307 899.177 154.333C899.177 161.781 895.56 168.386 889.981 172.5C884.401 168.386 880.784 161.781 880.784 154.333C880.784 146.885 884.401 140.279 889.981 136.165C894.109 130.605 900.737 127 908.21 127Z" fill="#EDEDED"/>
<path fill-rule="evenodd" clip-rule="evenodd" d="M944.668 218C937.195 218 930.567 214.395 926.439 208.835C930.567 203.274 937.195 199.669 944.668 199.669C949.711 199.669 954.369 201.311 958.134 204.088C955.348 200.336 953.701 195.693 953.701 190.667C953.701 183.22 957.318 176.614 962.897 172.5C968.476 176.614 972.094 183.22 972.094 190.667C972.094 198.115 968.476 204.721 962.897 208.835C958.769 214.395 952.141 218 944.668 218Z" fill="#EDEDED"/>
<path fill-rule="evenodd" clip-rule="evenodd" d="M908.21 218C915.683 218 922.311 214.395 926.439 208.835C922.311 203.274 915.683 199.669 908.21 199.669C903.167 199.669 898.509 201.311 894.744 204.088C897.53 200.336 899.177 195.693 899.177 190.667C899.177 183.22 895.56 176.614 889.981 172.5C884.401 176.614 880.784 183.22 880.784 190.667C880.784 198.115 884.401 204.721 889.981 208.835C894.109 214.395 900.737 218 908.21 218Z" fill="#EDEDED"/>
<path fill-rule="evenodd" clip-rule="evenodd" d="M1040.98 127C1033.5 127 1026.88 130.605 1022.75 136.165C1026.88 141.726 1033.5 145.331 1040.98 145.331C1046.02 145.331 1050.68 143.689 1054.44 140.912C1051.66 144.664 1050.01 149.307 1050.01 154.333C1050.01 161.781 1053.63 168.386 1059.21 172.5C1064.79 168.386 1068.4 161.781 1068.4 154.333C1068.4 146.885 1064.79 140.279 1059.21 136.165C1055.08 130.605 1048.45 127 1040.98 127Z" fill="#EDEDED"/>
<path fill-rule="evenodd" clip-rule="evenodd" d="M1004.52 127C1011.99 127 1018.62 130.605 1022.75 136.165C1018.62 141.726 1011.99 145.331 1004.52 145.331C999.476 145.331 994.818 143.689 991.053 140.912C993.839 144.664 995.487 149.307 995.487 154.333C995.487 161.781 991.869 168.386 986.291 172.5C980.711 168.386 977.094 161.781 977.094 154.333C977.094 146.885 980.711 140.279 986.291 136.165C990.418 130.605 997.046 127 1004.52 127Z" fill="#EDEDED"/>
<path fill-rule="evenodd" clip-rule="evenodd" d="M1040.98 218C1033.5 218 1026.88 214.395 1022.75 208.835C1026.88 203.274 1033.5 199.669 1040.98 199.669C1046.02 199.669 1050.68 201.311 1054.44 204.088C1051.66 200.336 1050.01 195.693 1050.01 190.667C1050.01 183.22 1053.63 176.614 1059.21 172.5C1064.79 176.614 1068.4 183.22 1068.4 190.667C1068.4 198.115 1064.79 204.721 1059.21 208.835C1055.08 214.395 1048.45 218 1040.98 218Z" fill="#EDEDED"/>
<path fill-rule="evenodd" clip-rule="evenodd" d="M1004.52 218C1011.99 218 1018.62 214.395 1022.75 208.835C1018.62 203.274 1011.99 199.669 1004.52 199.669C999.476 199.669 994.818 201.311 991.053 204.088C993.839 200.336 995.487 195.693 995.487 190.667C995.487 183.22 991.869 176.614 986.291 172.5C980.711 176.614 977.094 183.22 977.094 190.667C977.094 198.115 980.711 204.721 986.291 208.835C990.418 214.395 997.046 218 1004.52 218Z" fill="#EDEDED"/>
<path fill-rule="evenodd" clip-rule="evenodd" d="M1137.29 127C1129.81 127 1123.19 130.605 1119.06 136.165C1123.19 141.726 1129.81 145.331 1137.29 145.331C1142.33 145.331 1146.99 143.689 1150.75 140.912C1147.97 144.664 1146.32 149.307 1146.32 154.333C1146.32 161.781 1149.94 168.386 1155.52 172.5C1161.1 168.386 1164.71 161.781 1164.71 154.333C1164.71 146.885 1161.1 140.279 1155.52 136.165C1151.39 130.605 1144.76 127 1137.29 127Z" fill="#EDEDED"/>
<path fill-rule="evenodd" clip-rule="evenodd" d="M1100.83 127C1108.3 127 1114.93 130.605 1119.06 136.165C1114.93 141.726 1108.3 145.331 1100.83 145.331C1095.79 145.331 1091.13 143.689 1087.36 140.912C1090.15 144.664 1091.8 149.307 1091.8 154.333C1091.8 161.781 1088.18 168.386 1082.6 172.5C1077.02 168.386 1073.4 161.781 1073.4 154.333C1073.4 146.885 1077.02 140.279 1082.6 136.165C1086.73 130.605 1093.36 127 1100.83 127Z" fill="#EDEDED"/>
<path fill-rule="evenodd" clip-rule="evenodd" d="M1137.29 218C1129.81 218 1123.19 214.395 1119.06 208.835C1123.19 203.274 1129.81 199.669 1137.29 199.669C1142.33 199.669 1146.99 201.311 1150.75 204.088C1147.97 200.336 1146.32 195.693 1146.32 190.667C1146.32 183.22 1149.94 176.614 1155.52 172.5C1161.1 176.614 1164.71 183.22 1164.71 190.667C1164.71 198.115 1161.1 204.721 1155.52 208.835C1151.39 214.395 1144.76 218 1137.29 218Z" fill="#EDEDED"/>
<path fill-rule="evenodd" clip-rule="evenodd" d="M1100.83 218C1108.3 218 1114.93 214.395 1119.06 208.835C1114.93 203.274 1108.3 199.669 1100.83 199.669C1095.79 199.669 1091.13 201.311 1087.36 204.088C1090.15 200.336 1091.8 195.693 1091.8 190.667C1091.8 183.22 1088.18 176.614 1082.6 172.5C1077.02 176.614 1073.4 183.22 1073.4 190.667C1073.4 198.115 1077.02 204.721 1082.6 208.835C1086.73 214.395 1093.36 218 1100.83 218Z" fill="#EDEDED"/>
<path fill-rule="evenodd" clip-rule="evenodd" d="M1233.6 127C1226.12 127 1219.5 130.605 1215.37 136.165C1219.5 141.726 1226.12 145.331 1233.6 145.331C1238.64 145.331 1243.3 143.689 1247.06 140.912C1244.28 144.664 1242.63 149.307 1242.63 154.333C1242.63 161.781 1246.25 168.386 1251.83 172.5C1257.4 168.386 1261.02 161.781 1261.02 154.333C1261.02 146.885 1257.4 140.279 1251.83 136.165C1247.7 130.605 1241.07 127 1233.6 127Z" fill="#EDEDED"/>
<path fill-rule="evenodd" clip-rule="evenodd" d="M1197.14 127C1204.61 127 1211.24 130.605 1215.37 136.165C1211.24 141.726 1204.61 145.331 1197.14 145.331C1192.1 145.331 1187.44 143.689 1183.67 140.912C1186.46 144.664 1188.11 149.307 1188.11 154.333C1188.11 161.781 1184.49 168.386 1178.91 172.5C1173.33 168.386 1169.71 161.781 1169.71 154.333C1169.71 146.885 1173.33 140.279 1178.91 136.165C1183.04 130.605 1189.67 127 1197.14 127Z" fill="#EDEDED"/>
<path fill-rule="evenodd" clip-rule="evenodd" d="M1233.6 218C1226.12 218 1219.5 214.395 1215.37 208.835C1219.5 203.274 1226.12 199.669 1233.6 199.669C1238.64 199.669 1243.3 201.311 1247.06 204.088C1244.28 200.336 1242.63 195.693 1242.63 190.667C1242.63 183.22 1246.25 176.614 1251.83 172.5C1257.4 176.614 1261.02 183.22 1261.02 190.667C1261.02 198.115 1257.4 204.721 1251.83 208.835C1247.7 214.395 1241.07 218 1233.6 218Z" fill="#EDEDED"/>
<path fill-rule="evenodd" clip-rule="evenodd" d="M1197.14 218C1204.61 218 1211.24 214.395 1215.37 208.835C1211.24 203.274 1204.61 199.669 1197.14 199.669C1192.1 199.669 1187.44 201.311 1183.67 204.088C1186.46 200.336 1188.11 195.693 1188.11 190.667C1188.11 183.22 1184.49 176.614 1178.91 172.5C1173.33 176.614 1169.71 183.22 1169.71 190.667C1169.71 198.115 1173.33 204.721 1178.91 208.835C1183.04 214.395 1189.67 218 1197.14 218Z" fill="#EDEDED"/>
<path fill-rule="evenodd" clip-rule="evenodd" d="M1329.91 127C1322.43 127 1315.8 130.605 1311.68 136.165C1315.8 141.726 1322.43 145.331 1329.91 145.331C1334.95 145.331 1339.61 143.689 1343.37 140.912C1340.59 144.664 1338.94 149.307 1338.94 154.333C1338.94 161.781 1342.56 168.386 1348.13 172.5C1353.71 168.386 1357.33 161.781 1357.33 154.333C1357.33 146.885 1353.71 140.279 1348.13 136.165C1344.01 130.605 1337.38 127 1329.91 127Z" fill="#EDEDED"/>
<path fill-rule="evenodd" clip-rule="evenodd" d="M1293.45 127C1300.92 127 1307.55 130.605 1311.68 136.165C1307.55 141.726 1300.92 145.331 1293.45 145.331C1288.4 145.331 1283.75 143.689 1279.98 140.912C1282.77 144.664 1284.41 149.307 1284.41 154.333C1284.41 161.781 1280.8 168.386 1275.22 172.5C1269.64 168.386 1266.02 161.781 1266.02 154.333C1266.02 146.885 1269.64 140.279 1275.22 136.165C1279.35 130.605 1285.97 127 1293.45 127Z" fill="#EDEDED"/>
<path fill-rule="evenodd" clip-rule="evenodd" d="M1329.91 218C1322.43 218 1315.8 214.395 1311.68 208.835C1315.8 203.274 1322.43 199.669 1329.91 199.669C1334.95 199.669 1339.61 201.311 1343.37 204.088C1340.59 200.336 1338.94 195.693 1338.94 190.667C1338.94 183.22 1342.56 176.614 1348.13 172.5C1353.71 176.614 1357.33 183.22 1357.33 190.667C1357.33 198.115 1353.71 204.721 1348.13 208.835C1344.01 214.395 1337.38 218 1329.91 218Z" fill="#EDEDED"/>
<path fill-rule="evenodd" clip-rule="evenodd" d="M1293.45 218C1300.92 218 1307.55 214.395 1311.68 208.835C1307.55 203.274 1300.92 199.669 1293.45 199.669C1288.4 199.669 1283.75 201.311 1279.98 204.088C1282.77 200.336 1284.41 195.693 1284.41 190.667C1284.41 183.22 1280.8 176.614 1275.22 172.5C1269.64 176.614 1266.02 183.22 1266.02 190.667C1266.02 198.115 1269.64 204.721 1275.22 208.835C1279.35 214.395 1285.97 218 1293.45 218Z" fill="#EDEDED"/>
<path fill-rule="evenodd" clip-rule="evenodd" d="M1426.21 127C1418.74 127 1412.11 130.605 1407.99 136.165C1412.11 141.726 1418.74 145.331 1426.21 145.331C1431.26 145.331 1435.92 143.689 1439.68 140.912C1436.9 144.664 1435.25 149.307 1435.25 154.333C1435.25 161.781 1438.86 168.386 1444.44 172.5C1450.02 168.386 1453.64 161.781 1453.64 154.333C1453.64 146.885 1450.02 140.279 1444.44 136.165C1440.32 130.605 1433.69 127 1426.21 127Z" fill="#EDEDED"/>
<path fill-rule="evenodd" clip-rule="evenodd" d="M1389.76 127C1397.23 127 1403.86 130.605 1407.99 136.165C1403.86 141.726 1397.23 145.331 1389.76 145.331C1384.71 145.331 1380.06 143.689 1376.29 140.912C1379.08 144.664 1380.72 149.307 1380.72 154.333C1380.72 161.781 1377.11 168.386 1371.53 172.5C1365.95 168.386 1362.33 161.781 1362.33 154.333C1362.33 146.885 1365.95 140.279 1371.53 136.165C1375.66 130.605 1382.28 127 1389.76 127Z" fill="#EDEDED"/>
<path fill-rule="evenodd" clip-rule="evenodd" d="M1426.21 218C1418.74 218 1412.11 214.395 1407.99 208.835C1412.11 203.274 1418.74 199.669 1426.21 199.669C1431.26 199.669 1435.92 201.311 1439.68 204.088C1436.9 200.336 1435.25 195.693 1435.25 190.667C1435.25 183.22 1438.86 176.614 1444.44 172.5C1450.02 176.614 1453.64 183.22 1453.64 190.667C1453.64 198.115 1450.02 204.721 1444.44 208.835C1440.32 214.395 1433.69 218 1426.21 218Z" fill="#EDEDED"/>
<path fill-rule="evenodd" clip-rule="evenodd" d="M1389.76 218C1397.23 218 1403.86 214.395 1407.99 208.835C1403.86 203.274 1397.23 199.669 1389.76 199.669C1384.71 199.669 1380.06 201.311 1376.29 204.088C1379.08 200.336 1380.72 195.693 1380.72 190.667C1380.72 183.22 1377.11 176.614 1371.53 172.5C1365.95 176.614 1362.33 183.22 1362.33 190.667C1362.33 198.115 1365.95 204.721 1371.53 208.835C1375.66 214.395 1382.28 218 1389.76 218Z" fill="#EDEDED"/>
<path fill-rule="evenodd" clip-rule="evenodd" d="M1522.52 127C1515.05 127 1508.42 130.605 1504.3 136.165C1508.42 141.726 1515.05 145.331 1522.52 145.331C1527.57 145.331 1532.23 143.689 1535.99 140.912C1533.2 144.664 1531.56 149.307 1531.56 154.333C1531.56 161.781 1535.17 168.386 1540.75 172.5C1546.33 168.386 1549.95 161.781 1549.95 154.333C1549.95 146.885 1546.33 140.279 1540.75 136.165C1536.62 130.605 1530 127 1522.52 127Z" fill="#EDEDED"/>
<path fill-rule="evenodd" clip-rule="evenodd" d="M1486.07 127C1493.54 127 1500.17 130.605 1504.3 136.165C1500.17 141.726 1493.54 145.331 1486.07 145.331C1481.02 145.331 1476.37 143.689 1472.6 140.912C1475.39 144.664 1477.03 149.307 1477.03 154.333C1477.03 161.781 1473.42 168.386 1467.84 172.5C1462.26 168.386 1458.64 161.781 1458.64 154.333C1458.64 146.885 1462.26 140.279 1467.84 136.165C1471.97 130.605 1478.59 127 1486.07 127Z" fill="#EDEDED"/>
<path fill-rule="evenodd" clip-rule="evenodd" d="M1522.52 218C1515.05 218 1508.42 214.395 1504.3 208.835C1508.42 203.274 1515.05 199.669 1522.52 199.669C1527.57 199.669 1532.23 201.311 1535.99 204.088C1533.2 200.336 1531.56 195.693 1531.56 190.667C1531.56 183.22 1535.17 176.614 1540.75 172.5C1546.33 176.614 1549.95 183.22 1549.95 190.667C1549.95 198.115 1546.33 204.721 1540.75 208.835C1536.62 214.395 1530 218 1522.52 218Z" fill="#EDEDED"/>
<path fill-rule="evenodd" clip-rule="evenodd" d="M1486.07 218C1493.54 218 1500.17 214.395 1504.3 208.835C1500.17 203.274 1493.54 199.669 1486.07 199.669C1481.02 199.669 1476.37 201.311 1472.6 204.088C1475.39 200.336 1477.03 195.693 1477.03 190.667C1477.03 183.22 1473.42 176.614 1467.84 172.5C1462.26 176.614 1458.64 183.22 1458.64 190.667C1458.64 198.115 1462.26 204.721 1467.84 208.835C1471.97 214.395 1478.59 218 1486.07 218Z" fill="#EDEDED"/>
<path fill-rule="evenodd" clip-rule="evenodd" d="M77.8834 234C70.4104 234 63.7824 237.605 59.6547 243.165C63.7824 248.726 70.4104 252.331 77.8834 252.331C82.9264 252.331 87.5848 250.689 91.3498 247.912C88.5639 251.664 86.9164 256.307 86.9164 261.333C86.9164 268.781 90.5334 275.386 96.1126 279.5C101.692 275.386 105.309 268.781 105.309 261.333C105.309 253.885 101.692 247.279 96.1126 243.165C91.9843 237.605 85.3563 234 77.8834 234Z" fill="#EDEDED"/>
<path fill-rule="evenodd" clip-rule="evenodd" d="M41.4255 234C48.8984 234 55.5264 237.605 59.6547 243.165C55.5264 248.726 48.8984 252.331 41.4255 252.331C36.3824 252.331 31.7246 250.689 27.9596 247.912C30.7456 251.664 32.393 256.307 32.393 261.333C32.393 268.781 28.7754 275.386 23.1968 279.5C17.617 275.386 14 268.781 14 261.333C14 253.885 17.617 247.279 23.1968 243.165C27.3245 237.605 33.9525 234 41.4255 234Z" fill="#EDEDED"/>
<path fill-rule="evenodd" clip-rule="evenodd" d="M77.8834 325C70.4104 325 63.7824 321.395 59.6547 315.835C63.7824 310.274 70.4104 306.669 77.8834 306.669C82.9264 306.669 87.5848 308.311 91.3498 311.088C88.5639 307.336 86.9164 302.693 86.9164 297.667C86.9164 290.22 90.5334 283.614 96.1126 279.5C101.692 283.614 105.309 290.22 105.309 297.667C105.309 305.115 101.692 311.721 96.1126 315.835C91.9843 321.395 85.3563 325 77.8834 325Z" fill="#EDEDED"/>
<path fill-rule="evenodd" clip-rule="evenodd" d="M41.4255 325C48.8984 325 55.5264 321.395 59.6547 315.835C55.5264 310.274 48.8984 306.669 41.4255 306.669C36.3824 306.669 31.7246 308.311 27.9596 311.088C30.7456 307.336 32.393 302.693 32.393 297.667C32.393 290.22 28.7754 283.614 23.1968 279.5C17.617 283.614 14 290.22 14 297.667C14 305.115 17.617 311.721 23.1968 315.835C27.3245 321.395 33.9525 325 41.4255 325Z" fill="#EDEDED"/>
<path fill-rule="evenodd" clip-rule="evenodd" d="M174.193 234C166.72 234 160.092 237.605 155.964 243.165C160.092 248.726 166.72 252.331 174.193 252.331C179.236 252.331 183.894 250.689 187.659 247.912C184.873 251.664 183.226 256.307 183.226 261.333C183.226 268.781 186.843 275.386 192.422 279.5C198.001 275.386 201.619 268.781 201.619 261.333C201.619 253.885 198.001 247.279 192.422 243.165C188.294 237.605 181.666 234 174.193 234Z" fill="#EDEDED"/>
<path fill-rule="evenodd" clip-rule="evenodd" d="M137.735 234C145.208 234 151.836 237.605 155.964 243.165C151.836 248.726 145.208 252.331 137.735 252.331C132.692 252.331 128.034 250.689 124.269 247.912C127.055 251.664 128.702 256.307 128.702 261.333C128.702 268.781 125.085 275.386 119.506 279.5C113.926 275.386 110.309 268.781 110.309 261.333C110.309 253.885 113.926 247.279 119.506 243.165C123.634 237.605 130.262 234 137.735 234Z" fill="#EDEDED"/>
<path fill-rule="evenodd" clip-rule="evenodd" d="M174.193 325C166.72 325 160.092 321.395 155.964 315.835C160.092 310.274 166.72 306.669 174.193 306.669C179.236 306.669 183.894 308.311 187.659 311.088C184.873 307.336 183.226 302.693 183.226 297.667C183.226 290.22 186.843 283.614 192.422 279.5C198.001 283.614 201.619 290.22 201.619 297.667C201.619 305.115 198.001 311.721 192.422 315.835C188.294 321.395 181.666 325 174.193 325Z" fill="#EDEDED"/>
<path fill-rule="evenodd" clip-rule="evenodd" d="M137.735 325C145.208 325 151.836 321.395 155.964 315.835C151.836 310.274 145.208 306.669 137.735 306.669C132.692 306.669 128.034 308.311 124.269 311.088C127.055 307.336 128.702 302.693 128.702 297.667C128.702 290.22 125.085 283.614 119.506 279.5C113.926 283.614 110.309 290.22 110.309 297.667C110.309 305.115 113.926 311.721 119.506 315.835C123.634 321.395 130.262 325 137.735 325Z" fill="#EDEDED"/>
<path fill-rule="evenodd" clip-rule="evenodd" d="M270.502 234C263.029 234 256.401 237.605 252.273 243.165C256.401 248.726 263.029 252.331 270.502 252.331C275.545 252.331 280.204 250.689 283.969 247.912C281.183 251.664 279.535 256.307 279.535 261.333C279.535 268.781 283.152 275.386 288.731 279.5C294.311 275.386 297.928 268.781 297.928 261.333C297.928 253.885 294.311 247.279 288.731 243.165C284.603 237.605 277.975 234 270.502 234Z" fill="#EDEDED"/>
<path fill-rule="evenodd" clip-rule="evenodd" d="M234.044 234C241.517 234 248.145 237.605 252.273 243.165C248.145 248.726 241.517 252.331 234.044 252.331C229.001 252.331 224.343 250.689 220.578 247.912C223.364 251.664 225.012 256.307 225.012 261.333C225.012 268.781 221.394 275.386 215.816 279.5C210.236 275.386 206.619 268.781 206.619 261.333C206.619 253.885 210.236 247.279 215.816 243.165C219.943 237.605 226.571 234 234.044 234Z" fill="#EDEDED"/>
<path fill-rule="evenodd" clip-rule="evenodd" d="M270.502 325C263.029 325 256.401 321.395 252.273 315.835C256.401 310.274 263.029 306.669 270.502 306.669C275.545 306.669 280.204 308.311 283.969 311.088C281.183 307.336 279.535 302.693 279.535 297.667C279.535 290.22 283.152 283.614 288.731 279.5C294.311 283.614 297.928 290.22 297.928 297.667C297.928 305.115 294.311 311.721 288.731 315.835C284.603 321.395 277.975 325 270.502 325Z" fill="#EDEDED"/>
<path fill-rule="evenodd" clip-rule="evenodd" d="M234.044 325C241.517 325 248.145 321.395 252.273 315.835C248.145 310.274 241.517 306.669 234.044 306.669C229.001 306.669 224.343 308.311 220.578 311.088C223.364 307.336 225.012 302.693 225.012 297.667C225.012 290.22 221.394 283.614 215.816 279.5C210.236 283.614 206.619 290.22 206.619 297.667C206.619 305.115 210.236 311.721 215.816 315.835C219.943 321.395 226.571 325 234.044 325Z" fill="#EDEDED"/>
<path fill-rule="evenodd" clip-rule="evenodd" d="M366.812 234C359.339 234 352.711 237.605 348.583 243.165C352.711 248.726 359.339 252.331 366.812 252.331C371.855 252.331 376.513 250.689 380.278 247.912C377.492 251.664 375.845 256.307 375.845 261.333C375.845 268.781 379.462 275.386 385.041 279.5C390.62 275.386 394.238 268.781 394.238 261.333C394.238 253.885 390.62 247.279 385.041 243.165C380.912 237.605 374.284 234 366.812 234Z" fill="#EDEDED"/>
<path fill-rule="evenodd" clip-rule="evenodd" d="M330.354 234C337.827 234 344.455 237.605 348.583 243.165C344.455 248.726 337.827 252.331 330.354 252.331C325.311 252.331 320.653 250.689 316.888 247.912C319.674 251.664 321.321 256.307 321.321 261.333C321.321 268.781 317.704 275.386 312.125 279.5C306.545 275.386 302.928 268.781 302.928 261.333C302.928 253.885 306.545 247.279 312.125 243.165C316.253 237.605 322.881 234 330.354 234Z" fill="#EDEDED"/>
<path fill-rule="evenodd" clip-rule="evenodd" d="M366.812 325C359.339 325 352.711 321.395 348.583 315.835C352.711 310.274 359.339 306.669 366.812 306.669C371.855 306.669 376.513 308.311 380.278 311.088C377.492 307.336 375.845 302.693 375.845 297.667C375.845 290.22 379.462 283.614 385.041 279.5C390.62 283.614 394.238 290.22 394.238 297.667C394.238 305.115 390.62 311.721 385.041 315.835C380.912 321.395 374.284 325 366.812 325Z" fill="#EDEDED"/>
<path fill-rule="evenodd" clip-rule="evenodd" d="M330.354 325C337.827 325 344.455 321.395 348.583 315.835C344.455 310.274 337.827 306.669 330.354 306.669C325.311 306.669 320.653 308.311 316.888 311.088C319.674 307.336 321.321 302.693 321.321 297.667C321.321 290.22 317.704 283.614 312.125 279.5C306.545 283.614 302.928 290.22 302.928 297.667C302.928 305.115 306.545 311.721 312.125 315.835C316.253 321.395 322.881 325 330.354 325Z" fill="#EDEDED"/>
<path fill-rule="evenodd" clip-rule="evenodd" d="M463.121 234C455.648 234 449.02 237.605 444.892 243.165C449.02 248.726 455.648 252.331 463.121 252.331C468.164 252.331 472.822 250.689 476.587 247.912C473.801 251.664 472.154 256.307 472.154 261.333C472.154 268.781 475.771 275.386 481.35 279.5C486.929 275.386 490.547 268.781 490.547 261.333C490.547 253.885 486.929 247.279 481.35 243.165C477.222 237.605 470.594 234 463.121 234Z" fill="#EDEDED"/>
<path fill-rule="evenodd" clip-rule="evenodd" d="M426.663 234C434.136 234 440.764 237.605 444.892 243.165C440.764 248.726 434.136 252.331 426.663 252.331C421.62 252.331 416.962 250.689 413.197 247.912C415.983 251.664 417.631 256.307 417.631 261.333C417.631 268.781 414.013 275.386 408.434 279.5C402.855 275.386 399.238 268.781 399.238 261.333C399.238 253.885 402.855 247.279 408.434 243.165C412.562 237.605 419.19 234 426.663 234Z" fill="#EDEDED"/>
<path fill-rule="evenodd" clip-rule="evenodd" d="M463.121 325C455.648 325 449.02 321.395 444.892 315.835C449.02 310.274 455.648 306.669 463.121 306.669C468.164 306.669 472.822 308.311 476.587 311.088C473.801 307.336 472.154 302.693 472.154 297.667C472.154 290.22 475.771 283.614 481.35 279.5C486.929 283.614 490.547 290.22 490.547 297.667C490.547 305.115 486.929 311.721 481.35 315.835C477.222 321.395 470.594 325 463.121 325Z" fill="#EDEDED"/>
<path fill-rule="evenodd" clip-rule="evenodd" d="M426.663 325C434.136 325 440.764 321.395 444.892 315.835C440.764 310.274 434.136 306.669 426.663 306.669C421.62 306.669 416.962 308.311 413.197 311.088C415.983 307.336 417.631 302.693 417.631 297.667C417.631 290.22 414.013 283.614 408.434 279.5C402.855 283.614 399.238 290.22 399.238 297.667C399.238 305.115 402.855 311.721 408.434 315.835C412.562 321.395 419.19 325 426.663 325Z" fill="#EDEDED"/>
<path fill-rule="evenodd" clip-rule="evenodd" d="M559.43 234C551.957 234 545.329 237.605 541.202 243.165C545.329 248.726 551.957 252.331 559.43 252.331C564.473 252.331 569.132 250.689 572.897 247.912C570.111 251.664 568.463 256.307 568.463 261.333C568.463 268.781 572.08 275.386 577.66 279.5C583.239 275.386 586.856 268.781 586.856 261.333C586.856 253.885 583.239 247.279 577.66 243.165C573.531 237.605 566.903 234 559.43 234Z" fill="#EDEDED"/>
<path fill-rule="evenodd" clip-rule="evenodd" d="M522.972 234C530.445 234 537.073 237.605 541.202 243.165C537.073 248.726 530.445 252.331 522.972 252.331C517.929 252.331 513.272 250.689 509.507 247.912C512.293 251.664 513.94 256.307 513.94 261.333C513.94 268.781 510.322 275.386 504.744 279.5C499.164 275.386 495.547 268.781 495.547 261.333C495.547 253.885 499.164 247.279 504.744 243.165C508.871 237.605 515.499 234 522.972 234Z" fill="#EDEDED"/>
<path fill-rule="evenodd" clip-rule="evenodd" d="M559.43 325C551.957 325 545.329 321.395 541.202 315.835C545.329 310.274 551.957 306.669 559.43 306.669C564.473 306.669 569.132 308.311 572.897 311.088C570.111 307.336 568.463 302.693 568.463 297.667C568.463 290.22 572.08 283.614 577.66 279.5C583.239 283.614 586.856 290.22 586.856 297.667C586.856 305.115 583.239 311.721 577.66 315.835C573.531 321.395 566.903 325 559.43 325Z" fill="#EDEDED"/>
<path fill-rule="evenodd" clip-rule="evenodd" d="M522.972 325C530.445 325 537.073 321.395 541.202 315.835C537.073 310.274 530.445 306.669 522.972 306.669C517.929 306.669 513.272 308.311 509.507 311.088C512.293 307.336 513.94 302.693 513.94 297.667C513.94 290.22 510.322 283.614 504.744 279.5C499.164 283.614 495.547 290.22 495.547 297.667C495.547 305.115 499.164 311.721 504.744 315.835C508.871 321.395 515.499 325 522.972 325Z" fill="#EDEDED"/>
<path fill-rule="evenodd" clip-rule="evenodd" d="M655.74 234C648.267 234 641.639 237.605 637.511 243.165C641.639 248.726 648.267 252.331 655.74 252.331C660.783 252.331 665.441 250.689 669.206 247.912C666.42 251.664 664.773 256.307 664.773 261.333C664.773 268.781 668.39 275.386 673.969 279.5C679.548 275.386 683.166 268.781 683.166 261.333C683.166 253.885 679.548 247.279 673.969 243.165C669.841 237.605 663.213 234 655.74 234Z" fill="#EDEDED"/>
<path fill-rule="evenodd" clip-rule="evenodd" d="M619.282 234C626.755 234 633.383 237.605 637.511 243.165C633.383 248.726 626.755 252.331 619.282 252.331C614.239 252.331 609.581 250.689 605.816 247.912C608.602 251.664 610.249 256.307 610.249 261.333C610.249 268.781 606.632 275.386 601.053 279.5C595.473 275.386 591.856 268.781 591.856 261.333C591.856 253.885 595.473 247.279 601.053 243.165C605.181 237.605 611.809 234 619.282 234Z" fill="#EDEDED"/>
<path fill-rule="evenodd" clip-rule="evenodd" d="M655.74 325C648.267 325 641.639 321.395 637.511 315.835C641.639 310.274 648.267 306.669 655.74 306.669C660.783 306.669 665.441 308.311 669.206 311.088C666.42 307.336 664.773 302.693 664.773 297.667C664.773 290.22 668.39 283.614 673.969 279.5C679.548 283.614 683.166 290.22 683.166 297.667C683.166 305.115 679.548 311.721 673.969 315.835C669.841 321.395 663.213 325 655.74 325Z" fill="#EDEDED"/>
<path fill-rule="evenodd" clip-rule="evenodd" d="M619.282 325C626.755 325 633.383 321.395 637.511 315.835C633.383 310.274 626.755 306.669 619.282 306.669C614.239 306.669 609.581 308.311 605.816 311.088C608.602 307.336 610.249 302.693 610.249 297.667C610.249 290.22 606.632 283.614 601.053 279.5C595.473 283.614 591.856 290.22 591.856 297.667C591.856 305.115 595.473 311.721 601.053 315.835C605.181 321.395 611.809 325 619.282 325Z" fill="#EDEDED"/>
<path fill-rule="evenodd" clip-rule="evenodd" d="M752.049 234C744.576 234 737.948 237.605 733.82 243.165C737.948 248.726 744.576 252.331 752.049 252.331C757.092 252.331 761.751 250.689 765.516 247.912C762.73 251.664 761.082 256.307 761.082 261.333C761.082 268.781 764.699 275.386 770.278 279.5C775.858 275.386 779.475 268.781 779.475 261.333C779.475 253.885 775.858 247.279 770.278 243.165C766.15 237.605 759.522 234 752.049 234Z" fill="#EDEDED"/>
<path fill-rule="evenodd" clip-rule="evenodd" d="M715.591 234C723.064 234 729.692 237.605 733.82 243.165C729.692 248.726 723.064 252.331 715.591 252.331C710.548 252.331 705.89 250.689 702.125 247.912C704.911 251.664 706.559 256.307 706.559 261.333C706.559 268.781 702.941 275.386 697.363 279.5C691.783 275.386 688.166 268.781 688.166 261.333C688.166 253.885 691.783 247.279 697.363 243.165C701.49 237.605 708.118 234 715.591 234Z" fill="#EDEDED"/>
<path fill-rule="evenodd" clip-rule="evenodd" d="M752.049 325C744.576 325 737.948 321.395 733.82 315.835C737.948 310.274 744.576 306.669 752.049 306.669C757.092 306.669 761.751 308.311 765.516 311.088C762.73 307.336 761.082 302.693 761.082 297.667C761.082 290.22 764.699 283.614 770.278 279.5C775.858 283.614 779.475 290.22 779.475 297.667C779.475 305.115 775.858 311.721 770.278 315.835C766.15 321.395 759.522 325 752.049 325Z" fill="#EDEDED"/>
<path fill-rule="evenodd" clip-rule="evenodd" d="M715.591 325C723.064 325 729.692 321.395 733.82 315.835C729.692 310.274 723.064 306.669 715.591 306.669C710.548 306.669 705.89 308.311 702.125 311.088C704.911 307.336 706.559 302.693 706.559 297.667C706.559 290.22 702.941 283.614 697.363 279.5C691.783 283.614 688.166 290.22 688.166 297.667C688.166 305.115 691.783 311.721 697.363 315.835C701.49 321.395 708.118 325 715.591 325Z" fill="#EDEDED"/>
<path fill-rule="evenodd" clip-rule="evenodd" d="M848.358 234C840.885 234 834.257 237.605 830.13 243.165C834.257 248.726 840.885 252.331 848.358 252.331C853.401 252.331 858.06 250.689 861.825 247.912C859.039 251.664 857.391 256.307 857.391 261.333C857.391 268.781 861.008 275.386 866.588 279.5C872.167 275.386 875.784 268.781 875.784 261.333C875.784 253.885 872.167 247.279 866.588 243.165C862.459 237.605 855.831 234 848.358 234Z" fill="#EDEDED"/>
<path fill-rule="evenodd" clip-rule="evenodd" d="M811.901 234C819.373 234 826.001 237.605 830.13 243.165C826.001 248.726 819.373 252.331 811.901 252.331C806.858 252.331 802.2 250.689 798.435 247.912C801.221 251.664 802.868 256.307 802.868 261.333C802.868 268.781 799.251 275.386 793.672 279.5C788.092 275.386 784.475 268.781 784.475 261.333C784.475 253.885 788.092 247.279 793.672 243.165C797.8 237.605 804.428 234 811.901 234Z" fill="#EDEDED"/>
<path fill-rule="evenodd" clip-rule="evenodd" d="M848.358 325C840.885 325 834.257 321.395 830.13 315.835C834.257 310.274 840.885 306.669 848.358 306.669C853.401 306.669 858.06 308.311 861.825 311.088C859.039 307.336 857.391 302.693 857.391 297.667C857.391 290.22 861.008 283.614 866.588 279.5C872.167 283.614 875.784 290.22 875.784 297.667C875.784 305.115 872.167 311.721 866.588 315.835C862.459 321.395 855.831 325 848.358 325Z" fill="#EDEDED"/>
<path fill-rule="evenodd" clip-rule="evenodd" d="M811.901 325C819.373 325 826.001 321.395 830.13 315.835C826.001 310.274 819.373 306.669 811.901 306.669C806.858 306.669 802.2 308.311 798.435 311.088C801.221 307.336 802.868 302.693 802.868 297.667C802.868 290.22 799.251 283.614 793.672 279.5C788.092 283.614 784.475 290.22 784.475 297.667C784.475 305.115 788.092 311.721 793.672 315.835C797.8 321.395 804.428 325 811.901 325Z" fill="#EDEDED"/>
<path fill-rule="evenodd" clip-rule="evenodd" d="M944.668 234C937.195 234 930.567 237.605 926.439 243.165C930.567 248.726 937.195 252.331 944.668 252.331C949.711 252.331 954.369 250.689 958.134 247.912C955.348 251.664 953.701 256.307 953.701 261.333C953.701 268.781 957.318 275.386 962.897 279.5C968.476 275.386 972.094 268.781 972.094 261.333C972.094 253.885 968.476 247.279 962.897 243.165C958.769 237.605 952.141 234 944.668 234Z" fill="#EDEDED"/>
<path fill-rule="evenodd" clip-rule="evenodd" d="M908.21 234C915.683 234 922.311 237.605 926.439 243.165C922.311 248.726 915.683 252.331 908.21 252.331C903.167 252.331 898.509 250.689 894.744 247.912C897.53 251.664 899.177 256.307 899.177 261.333C899.177 268.781 895.56 275.386 889.981 279.5C884.401 275.386 880.784 268.781 880.784 261.333C880.784 253.885 884.401 247.279 889.981 243.165C894.109 237.605 900.737 234 908.21 234Z" fill="#EDEDED"/>
<path fill-rule="evenodd" clip-rule="evenodd" d="M944.668 325C937.195 325 930.567 321.395 926.439 315.835C930.567 310.274 937.195 306.669 944.668 306.669C949.711 306.669 954.369 308.311 958.134 311.088C955.348 307.336 953.701 302.693 953.701 297.667C953.701 290.22 957.318 283.614 962.897 279.5C968.476 283.614 972.094 290.22 972.094 297.667C972.094 305.115 968.476 311.721 962.897 315.835C958.769 321.395 952.141 325 944.668 325Z" fill="#EDEDED"/>
<path fill-rule="evenodd" clip-rule="evenodd" d="M908.21 325C915.683 325 922.311 321.395 926.439 315.835C922.311 310.274 915.683 306.669 908.21 306.669C903.167 306.669 898.509 308.311 894.744 311.088C897.53 307.336 899.177 302.693 899.177 297.667C899.177 290.22 895.56 283.614 889.981 279.5C884.401 283.614 880.784 290.22 880.784 297.667C880.784 305.115 884.401 311.721 889.981 315.835C894.109 321.395 900.737 325 908.21 325Z" fill="#EDEDED"/>
<path fill-rule="evenodd" clip-rule="evenodd" d="M1040.98 234C1033.5 234 1026.88 237.605 1022.75 243.165C1026.88 248.726 1033.5 252.331 1040.98 252.331C1046.02 252.331 1050.68 250.689 1054.44 247.912C1051.66 251.664 1050.01 256.307 1050.01 261.333C1050.01 268.781 1053.63 275.386 1059.21 279.5C1064.79 275.386 1068.4 268.781 1068.4 261.333C1068.4 253.885 1064.79 247.279 1059.21 243.165C1055.08 237.605 1048.45 234 1040.98 234Z" fill="#EDEDED"/>
<path fill-rule="evenodd" clip-rule="evenodd" d="M1004.52 234C1011.99 234 1018.62 237.605 1022.75 243.165C1018.62 248.726 1011.99 252.331 1004.52 252.331C999.476 252.331 994.818 250.689 991.053 247.912C993.839 251.664 995.487 256.307 995.487 261.333C995.487 268.781 991.869 275.386 986.291 279.5C980.711 275.386 977.094 268.781 977.094 261.333C977.094 253.885 980.711 247.279 986.291 243.165C990.418 237.605 997.046 234 1004.52 234Z" fill="#EDEDED"/>
<path fill-rule="evenodd" clip-rule="evenodd" d="M1040.98 325C1033.5 325 1026.88 321.395 1022.75 315.835C1026.88 310.274 1033.5 306.669 1040.98 306.669C1046.02 306.669 1050.68 308.311 1054.44 311.088C1051.66 307.336 1050.01 302.693 1050.01 297.667C1050.01 290.22 1053.63 283.614 1059.21 279.5C1064.79 283.614 1068.4 290.22 1068.4 297.667C1068.4 305.115 1064.79 311.721 1059.21 315.835C1055.08 321.395 1048.45 325 1040.98 325Z" fill="#EDEDED"/>
<path fill-rule="evenodd" clip-rule="evenodd" d="M1004.52 325C1011.99 325 1018.62 321.395 1022.75 315.835C1018.62 310.274 1011.99 306.669 1004.52 306.669C999.476 306.669 994.818 308.311 991.053 311.088C993.839 307.336 995.487 302.693 995.487 297.667C995.487 290.22 991.869 283.614 986.291 279.5C980.711 283.614 977.094 290.22 977.094 297.667C977.094 305.115 980.711 311.721 986.291 315.835C990.418 321.395 997.046 325 1004.52 325Z" fill="#EDEDED"/>
<path fill-rule="evenodd" clip-rule="evenodd" d="M1137.29 234C1129.81 234 1123.19 237.605 1119.06 243.165C1123.19 248.726 1129.81 252.331 1137.29 252.331C1142.33 252.331 1146.99 250.689 1150.75 247.912C1147.97 251.664 1146.32 256.307 1146.32 261.333C1146.32 268.781 1149.94 275.386 1155.52 279.5C1161.1 275.386 1164.71 268.781 1164.71 261.333C1164.71 253.885 1161.1 247.279 1155.52 243.165C1151.39 237.605 1144.76 234 1137.29 234Z" fill="#EDEDED"/>
<path fill-rule="evenodd" clip-rule="evenodd" d="M1100.83 234C1108.3 234 1114.93 237.605 1119.06 243.165C1114.93 248.726 1108.3 252.331 1100.83 252.331C1095.79 252.331 1091.13 250.689 1087.36 247.912C1090.15 251.664 1091.8 256.307 1091.8 261.333C1091.8 268.781 1088.18 275.386 1082.6 279.5C1077.02 275.386 1073.4 268.781 1073.4 261.333C1073.4 253.885 1077.02 247.279 1082.6 243.165C1086.73 237.605 1093.36 234 1100.83 234Z" fill="#EDEDED"/>
<path fill-rule="evenodd" clip-rule="evenodd" d="M1137.29 325C1129.81 325 1123.19 321.395 1119.06 315.835C1123.19 310.274 1129.81 306.669 1137.29 306.669C1142.33 306.669 1146.99 308.311 1150.75 311.088C1147.97 307.336 1146.32 302.693 1146.32 297.667C1146.32 290.22 1149.94 283.614 1155.52 279.5C1161.1 283.614 1164.71 290.22 1164.71 297.667C1164.71 305.115 1161.1 311.721 1155.52 315.835C1151.39 321.395 1144.76 325 1137.29 325Z" fill="#EDEDED"/>
<path fill-rule="evenodd" clip-rule="evenodd" d="M1100.83 325C1108.3 325 1114.93 321.395 1119.06 315.835C1114.93 310.274 1108.3 306.669 1100.83 306.669C1095.79 306.669 1091.13 308.311 1087.36 311.088C1090.15 307.336 1091.8 302.693 1091.8 297.667C1091.8 290.22 1088.18 283.614 1082.6 279.5C1077.02 283.614 1073.4 290.22 1073.4 297.667C1073.4 305.115 1077.02 311.721 1082.6 315.835C1086.73 321.395 1093.36 325 1100.83 325Z" fill="#EDEDED"/>
<path fill-rule="evenodd" clip-rule="evenodd" d="M1233.6 234C1226.12 234 1219.5 237.605 1215.37 243.165C1219.5 248.726 1226.12 252.331 1233.6 252.331C1238.64 252.331 1243.3 250.689 1247.06 247.912C1244.28 251.664 1242.63 256.307 1242.63 261.333C1242.63 268.781 1246.25 275.386 1251.83 279.5C1257.4 275.386 1261.02 268.781 1261.02 261.333C1261.02 253.885 1257.4 247.279 1251.83 243.165C1247.7 237.605 1241.07 234 1233.6 234Z" fill="#EDEDED"/>
<path fill-rule="evenodd" clip-rule="evenodd" d="M1197.14 234C1204.61 234 1211.24 237.605 1215.37 243.165C1211.24 248.726 1204.61 252.331 1197.14 252.331C1192.1 252.331 1187.44 250.689 1183.67 247.912C1186.46 251.664 1188.11 256.307 1188.11 261.333C1188.11 268.781 1184.49 275.386 1178.91 279.5C1173.33 275.386 1169.71 268.781 1169.71 261.333C1169.71 253.885 1173.33 247.279 1178.91 243.165C1183.04 237.605 1189.67 234 1197.14 234Z" fill="#EDEDED"/>
<path fill-rule="evenodd" clip-rule="evenodd" d="M1233.6 325C1226.12 325 1219.5 321.395 1215.37 315.835C1219.5 310.274 1226.12 306.669 1233.6 306.669C1238.64 306.669 1243.3 308.311 1247.06 311.088C1244.28 307.336 1242.63 302.693 1242.63 297.667C1242.63 290.22 1246.25 283.614 1251.83 279.5C1257.4 283.614 1261.02 290.22 1261.02 297.667C1261.02 305.115 1257.4 311.721 1251.83 315.835C1247.7 321.395 1241.07 325 1233.6 325Z" fill="#EDEDED"/>
<path fill-rule="evenodd" clip-rule="evenodd" d="M1197.14 325C1204.61 325 1211.24 321.395 1215.37 315.835C1211.24 310.274 1204.61 306.669 1197.14 306.669C1192.1 306.669 1187.44 308.311 1183.67 311.088C1186.46 307.336 1188.11 302.693 1188.11 297.667C1188.11 290.22 1184.49 283.614 1178.91 279.5C1173.33 283.614 1169.71 290.22 1169.71 297.667C1169.71 305.115 1173.33 311.721 1178.91 315.835C1183.04 321.395 1189.67 325 1197.14 325Z" fill="#EDEDED"/>
<path fill-rule="evenodd" clip-rule="evenodd" d="M1329.91 234C1322.43 234 1315.8 237.605 1311.68 243.165C1315.8 248.726 1322.43 252.331 1329.91 252.331C1334.95 252.331 1339.61 250.689 1343.37 247.912C1340.59 251.664 1338.94 256.307 1338.94 261.333C1338.94 268.781 1342.56 275.386 1348.13 279.5C1353.71 275.386 1357.33 268.781 1357.33 261.333C1357.33 253.885 1353.71 247.279 1348.13 243.165C1344.01 237.605 1337.38 234 1329.91 234Z" fill="#EDEDED"/>
<path fill-rule="evenodd" clip-rule="evenodd" d="M1293.45 234C1300.92 234 1307.55 237.605 1311.68 243.165C1307.55 248.726 1300.92 252.331 1293.45 252.331C1288.4 252.331 1283.75 250.689 1279.98 247.912C1282.77 251.664 1284.41 256.307 1284.41 261.333C1284.41 268.781 1280.8 275.386 1275.22 279.5C1269.64 275.386 1266.02 268.781 1266.02 261.333C1266.02 253.885 1269.64 247.279 1275.22 243.165C1279.35 237.605 1285.97 234 1293.45 234Z" fill="#EDEDED"/>
<path fill-rule="evenodd" clip-rule="evenodd" d="M1329.91 325C1322.43 325 1315.8 321.395 1311.68 315.835C1315.8 310.274 1322.43 306.669 1329.91 306.669C1334.95 306.669 1339.61 308.311 1343.37 311.088C1340.59 307.336 1338.94 302.693 1338.94 297.667C1338.94 290.22 1342.56 283.614 1348.13 279.5C1353.71 283.614 1357.33 290.22 1357.33 297.667C1357.33 305.115 1353.71 311.721 1348.13 315.835C1344.01 321.395 1337.38 325 1329.91 325Z" fill="#EDEDED"/>
<path fill-rule="evenodd" clip-rule="evenodd" d="M1293.45 325C1300.92 325 1307.55 321.395 1311.68 315.835C1307.55 310.274 1300.92 306.669 1293.45 306.669C1288.4 306.669 1283.75 308.311 1279.98 311.088C1282.77 307.336 1284.41 302.693 1284.41 297.667C1284.41 290.22 1280.8 283.614 1275.22 279.5C1269.64 283.614 1266.02 290.22 1266.02 297.667C1266.02 305.115 1269.64 311.721 1275.22 315.835C1279.35 321.395 1285.97 325 1293.45 325Z" fill="#EDEDED"/>
<path fill-rule="evenodd" clip-rule="evenodd" d="M1426.21 234C1418.74 234 1412.11 237.605 1407.99 243.165C1412.11 248.726 1418.74 252.331 1426.21 252.331C1431.26 252.331 1435.92 250.689 1439.68 247.912C1436.9 251.664 1435.25 256.307 1435.25 261.333C1435.25 268.781 1438.86 275.386 1444.44 279.5C1450.02 275.386 1453.64 268.781 1453.64 261.333C1453.64 253.885 1450.02 247.279 1444.44 243.165C1440.32 237.605 1433.69 234 1426.21 234Z" fill="#EDEDED"/>
<path fill-rule="evenodd" clip-rule="evenodd" d="M1389.76 234C1397.23 234 1403.86 237.605 1407.99 243.165C1403.86 248.726 1397.23 252.331 1389.76 252.331C1384.71 252.331 1380.06 250.689 1376.29 247.912C1379.08 251.664 1380.72 256.307 1380.72 261.333C1380.72 268.781 1377.11 275.386 1371.53 279.5C1365.95 275.386 1362.33 268.781 1362.33 261.333C1362.33 253.885 1365.95 247.279 1371.53 243.165C1375.66 237.605 1382.28 234 1389.76 234Z" fill="#EDEDED"/>
<path fill-rule="evenodd" clip-rule="evenodd" d="M1426.21 325C1418.74 325 1412.11 321.395 1407.99 315.835C1412.11 310.274 1418.74 306.669 1426.21 306.669C1431.26 306.669 1435.92 308.311 1439.68 311.088C1436.9 307.336 1435.25 302.693 1435.25 297.667C1435.25 290.22 1438.86 283.614 1444.44 279.5C1450.02 283.614 1453.64 290.22 1453.64 297.667C1453.64 305.115 1450.02 311.721 1444.44 315.835C1440.32 321.395 1433.69 325 1426.21 325Z" fill="#EDEDED"/>
<path fill-rule="evenodd" clip-rule="evenodd" d="M1389.76 325C1397.23 325 1403.86 321.395 1407.99 315.835C1403.86 310.274 1397.23 306.669 1389.76 306.669C1384.71 306.669 1380.06 308.311 1376.29 311.088C1379.08 307.336 1380.72 302.693 1380.72 297.667C1380.72 290.22 1377.11 283.614 1371.53 279.5C1365.95 283.614 1362.33 290.22 1362.33 297.667C1362.33 305.115 1365.95 311.721 1371.53 315.835C1375.66 321.395 1382.28 325 1389.76 325Z" fill="#EDEDED"/>
<path fill-rule="evenodd" clip-rule="evenodd" d="M1522.52 234C1515.05 234 1508.42 237.605 1504.3 243.165C1508.42 248.726 1515.05 252.331 1522.52 252.331C1527.57 252.331 1532.23 250.689 1535.99 247.912C1533.2 251.664 1531.56 256.307 1531.56 261.333C1531.56 268.781 1535.17 275.386 1540.75 279.5C1546.33 275.386 1549.95 268.781 1549.95 261.333C1549.95 253.885 1546.33 247.279 1540.75 243.165C1536.62 237.605 1530 234 1522.52 234Z" fill="#EDEDED"/>
<path fill-rule="evenodd" clip-rule="evenodd" d="M1486.07 234C1493.54 234 1500.17 237.605 1504.3 243.165C1500.17 248.726 1493.54 252.331 1486.07 252.331C1481.02 252.331 1476.37 250.689 1472.6 247.912C1475.39 251.664 1477.03 256.307 1477.03 261.333C1477.03 268.781 1473.42 275.386 1467.84 279.5C1462.26 275.386 1458.64 268.781 1458.64 261.333C1458.64 253.885 1462.26 247.279 1467.84 243.165C1471.97 237.605 1478.59 234 1486.07 234Z" fill="#EDEDED"/>
<path fill-rule="evenodd" clip-rule="evenodd" d="M1522.52 325C1515.05 325 1508.42 321.395 1504.3 315.835C1508.42 310.274 1515.05 306.669 1522.52 306.669C1527.57 306.669 1532.23 308.311 1535.99 311.088C1533.2 307.336 1531.56 302.693 1531.56 297.667C1531.56 290.22 1535.17 283.614 1540.75 279.5C1546.33 283.614 1549.95 290.22 1549.95 297.667C1549.95 305.115 1546.33 311.721 1540.75 315.835C1536.62 321.395 1530 325 1522.52 325Z" fill="#EDEDED"/>
<path fill-rule="evenodd" clip-rule="evenodd" d="M1486.07 325C1493.54 325 1500.17 321.395 1504.3 315.835C1500.17 310.274 1493.54 306.669 1486.07 306.669C1481.02 306.669 1476.37 308.311 1472.6 311.088C1475.39 307.336 1477.03 302.693 1477.03 297.667C1477.03 290.22 1473.42 283.614 1467.84 279.5C1462.26 283.614 1458.64 290.22 1458.64 297.667C1458.64 305.115 1462.26 311.721 1467.84 315.835C1471.97 321.395 1478.59 325 1486.07 325Z" fill="#EDEDED"/>
</svg>
