<svg width="1434" height="305" viewBox="0 0 1434 305" fill="none" xmlns="http://www.w3.org/2000/svg">
<path fill-rule="evenodd" clip-rule="evenodd" d="M67.8834 4C60.4104 4 53.7824 7.60485 49.6547 13.1653C53.7824 18.7257 60.4104 22.3305 67.8834 22.3305C72.9264 22.3305 77.5848 20.6886 81.3498 17.9117C78.5639 21.6639 76.9164 26.3066 76.9164 31.3326C76.9164 38.7807 80.5334 45.3863 86.1126 49.5C91.6918 45.3863 95.3094 38.7807 95.3094 31.3326C95.3094 23.8852 91.6918 17.279 86.1126 13.1653C81.9843 7.60485 75.3563 4 67.8834 4Z" fill="#EDEDED"/>
<path fill-rule="evenodd" clip-rule="evenodd" d="M31.4255 4C38.8984 4 45.5264 7.60485 49.6547 13.1653C45.5264 18.7257 38.8984 22.3305 31.4255 22.3305C26.3824 22.3305 21.7246 20.6886 17.9596 17.9117C20.7456 21.6639 22.393 26.3066 22.393 31.3326C22.393 38.7807 18.7754 45.3863 13.1968 49.5C7.61698 45.3863 4 38.7807 4 31.3326C4 23.8852 7.61698 17.279 13.1968 13.1653C17.3245 7.60485 23.9525 4 31.4255 4Z" fill="#EDEDED"/>
<path fill-rule="evenodd" clip-rule="evenodd" d="M67.8834 95C60.4104 95 53.7824 91.3952 49.6547 85.8347C53.7824 80.2743 60.4104 76.6695 67.8834 76.6695C72.9264 76.6695 77.5848 78.3115 81.3498 81.0883C78.5639 77.3361 76.9164 72.6934 76.9164 67.6674C76.9164 60.2199 80.5334 53.6144 86.1126 49.5C91.6918 53.6144 95.3094 60.2199 95.3094 67.6674C95.3094 75.1154 91.6918 81.721 86.1126 85.8347C81.9843 91.3952 75.3563 95 67.8834 95Z" fill="#EDEDED"/>
<path fill-rule="evenodd" clip-rule="evenodd" d="M31.4255 95C38.8984 95 45.5264 91.3952 49.6547 85.8347C45.5264 80.2743 38.8984 76.6695 31.4255 76.6695C26.3824 76.6695 21.7246 78.3115 17.9596 81.0883C20.7456 77.3361 22.393 72.6934 22.393 67.6674C22.393 60.2199 18.7754 53.6144 13.1968 49.5C7.61698 53.6144 4 60.2199 4 67.6674C4 75.1154 7.61698 81.721 13.1968 85.8347C17.3245 91.3952 23.9525 95 31.4255 95Z" fill="#EDEDED"/>
<path fill-rule="evenodd" clip-rule="evenodd" d="M163.193 4C155.72 4 149.092 7.60485 144.964 13.1653C149.092 18.7257 155.72 22.3305 163.193 22.3305C168.236 22.3305 172.894 20.6886 176.659 17.9117C173.873 21.6639 172.226 26.3066 172.226 31.3326C172.226 38.7807 175.843 45.3863 181.422 49.5C187.001 45.3863 190.619 38.7807 190.619 31.3326C190.619 23.8852 187.001 17.279 181.422 13.1653C177.294 7.60485 170.666 4 163.193 4Z" fill="#EDEDED"/>
<path fill-rule="evenodd" clip-rule="evenodd" d="M126.735 4C134.208 4 140.836 7.60485 144.964 13.1653C140.836 18.7257 134.208 22.3305 126.735 22.3305C121.692 22.3305 117.034 20.6886 113.269 17.9117C116.055 21.6639 117.702 26.3066 117.702 31.3326C117.702 38.7807 114.085 45.3863 108.506 49.5C102.926 45.3863 99.3094 38.7807 99.3094 31.3326C99.3094 23.8852 102.926 17.279 108.506 13.1653C112.634 7.60485 119.262 4 126.735 4Z" fill="#EDEDED"/>
<path fill-rule="evenodd" clip-rule="evenodd" d="M163.193 95C155.72 95 149.092 91.3952 144.964 85.8347C149.092 80.2743 155.72 76.6695 163.193 76.6695C168.236 76.6695 172.894 78.3115 176.659 81.0883C173.873 77.3361 172.226 72.6934 172.226 67.6674C172.226 60.2199 175.843 53.6144 181.422 49.5C187.001 53.6144 190.619 60.2199 190.619 67.6674C190.619 75.1154 187.001 81.721 181.422 85.8347C177.294 91.3952 170.666 95 163.193 95Z" fill="#EDEDED"/>
<path fill-rule="evenodd" clip-rule="evenodd" d="M126.735 95C134.208 95 140.836 91.3952 144.964 85.8347C140.836 80.2743 134.208 76.6695 126.735 76.6695C121.692 76.6695 117.034 78.3115 113.269 81.0883C116.055 77.3361 117.702 72.6934 117.702 67.6674C117.702 60.2199 114.085 53.6144 108.506 49.5C102.926 53.6144 99.3094 60.2199 99.3094 67.6674C99.3094 75.1154 102.926 81.721 108.506 85.8347C112.634 91.3952 119.262 95 126.735 95Z" fill="#EDEDED"/>
<path fill-rule="evenodd" clip-rule="evenodd" d="M258.502 4C251.029 4 244.401 7.60485 240.273 13.1653C244.401 18.7257 251.029 22.3305 258.502 22.3305C263.545 22.3305 268.204 20.6886 271.969 17.9117C269.183 21.6639 267.535 26.3066 267.535 31.3326C267.535 38.7807 271.152 45.3863 276.731 49.5C282.311 45.3863 285.928 38.7807 285.928 31.3326C285.928 23.8852 282.311 17.279 276.731 13.1653C272.603 7.60485 265.975 4 258.502 4Z" fill="#EDEDED"/>
<path fill-rule="evenodd" clip-rule="evenodd" d="M222.044 4C229.517 4 236.145 7.60485 240.273 13.1653C236.145 18.7257 229.517 22.3305 222.044 22.3305C217.001 22.3305 212.343 20.6886 208.578 17.9117C211.364 21.6639 213.012 26.3066 213.012 31.3326C213.012 38.7807 209.394 45.3863 203.816 49.5C198.236 45.3863 194.619 38.7807 194.619 31.3326C194.619 23.8852 198.236 17.279 203.816 13.1653C207.943 7.60485 214.571 4 222.044 4Z" fill="#EDEDED"/>
<path fill-rule="evenodd" clip-rule="evenodd" d="M258.502 95C251.029 95 244.401 91.3952 240.273 85.8347C244.401 80.2743 251.029 76.6695 258.502 76.6695C263.545 76.6695 268.204 78.3115 271.969 81.0883C269.183 77.3361 267.535 72.6934 267.535 67.6674C267.535 60.2199 271.152 53.6144 276.731 49.5C282.311 53.6144 285.928 60.2199 285.928 67.6674C285.928 75.1154 282.311 81.721 276.731 85.8347C272.603 91.3952 265.975 95 258.502 95Z" fill="#EDEDED"/>
<path fill-rule="evenodd" clip-rule="evenodd" d="M222.044 95C229.517 95 236.145 91.3952 240.273 85.8347C236.145 80.2743 229.517 76.6695 222.044 76.6695C217.001 76.6695 212.343 78.3115 208.578 81.0883C211.364 77.3361 213.012 72.6934 213.012 67.6674C213.012 60.2199 209.394 53.6144 203.816 49.5C198.236 53.6144 194.619 60.2199 194.619 67.6674C194.619 75.1154 198.236 81.721 203.816 85.8347C207.943 91.3952 214.571 95 222.044 95Z" fill="#EDEDED"/>
<path fill-rule="evenodd" clip-rule="evenodd" d="M353.812 4C346.339 4 339.711 7.60485 335.583 13.1653C339.711 18.7257 346.339 22.3305 353.812 22.3305C358.855 22.3305 363.513 20.6886 367.278 17.9117C364.492 21.6639 362.845 26.3066 362.845 31.3326C362.845 38.7807 366.462 45.3863 372.041 49.5C377.62 45.3863 381.238 38.7807 381.238 31.3326C381.238 23.8852 377.62 17.279 372.041 13.1653C367.912 7.60485 361.284 4 353.812 4Z" fill="#EDEDED"/>
<path fill-rule="evenodd" clip-rule="evenodd" d="M317.354 4C324.827 4 331.455 7.60485 335.583 13.1653C331.455 18.7257 324.827 22.3305 317.354 22.3305C312.311 22.3305 307.653 20.6886 303.888 17.9117C306.674 21.6639 308.321 26.3066 308.321 31.3326C308.321 38.7807 304.704 45.3863 299.125 49.5C293.545 45.3863 289.928 38.7807 289.928 31.3326C289.928 23.8852 293.545 17.279 299.125 13.1653C303.253 7.60485 309.881 4 317.354 4Z" fill="#EDEDED"/>
<path fill-rule="evenodd" clip-rule="evenodd" d="M353.812 95C346.339 95 339.711 91.3952 335.583 85.8347C339.711 80.2743 346.339 76.6695 353.812 76.6695C358.855 76.6695 363.513 78.3115 367.278 81.0883C364.492 77.3361 362.845 72.6934 362.845 67.6674C362.845 60.2199 366.462 53.6144 372.041 49.5C377.62 53.6144 381.238 60.2199 381.238 67.6674C381.238 75.1154 377.62 81.721 372.041 85.8347C367.912 91.3952 361.284 95 353.812 95Z" fill="#EDEDED"/>
<path fill-rule="evenodd" clip-rule="evenodd" d="M317.354 95C324.827 95 331.455 91.3952 335.583 85.8347C331.455 80.2743 324.827 76.6695 317.354 76.6695C312.311 76.6695 307.653 78.3115 303.888 81.0883C306.674 77.3361 308.321 72.6934 308.321 67.6674C308.321 60.2199 304.704 53.6144 299.125 49.5C293.545 53.6144 289.928 60.2199 289.928 67.6674C289.928 75.1154 293.545 81.721 299.125 85.8347C303.253 91.3952 309.881 95 317.354 95Z" fill="#EDEDED"/>
<path fill-rule="evenodd" clip-rule="evenodd" d="M449.121 4C441.648 4 435.02 7.60485 430.892 13.1653C435.02 18.7257 441.648 22.3305 449.121 22.3305C454.164 22.3305 458.822 20.6886 462.587 17.9117C459.801 21.6639 458.154 26.3066 458.154 31.3326C458.154 38.7807 461.771 45.3863 467.35 49.5C472.929 45.3863 476.547 38.7807 476.547 31.3326C476.547 23.8852 472.929 17.279 467.35 13.1653C463.222 7.60485 456.594 4 449.121 4Z" fill="#EDEDED"/>
<path fill-rule="evenodd" clip-rule="evenodd" d="M412.663 4C420.136 4 426.764 7.60485 430.892 13.1653C426.764 18.7257 420.136 22.3305 412.663 22.3305C407.62 22.3305 402.962 20.6886 399.197 17.9117C401.983 21.6639 403.631 26.3066 403.631 31.3326C403.631 38.7807 400.013 45.3863 394.434 49.5C388.855 45.3863 385.238 38.7807 385.238 31.3326C385.238 23.8852 388.855 17.279 394.434 13.1653C398.562 7.60485 405.19 4 412.663 4Z" fill="#EDEDED"/>
<path fill-rule="evenodd" clip-rule="evenodd" d="M449.121 95C441.648 95 435.02 91.3952 430.892 85.8347C435.02 80.2743 441.648 76.6695 449.121 76.6695C454.164 76.6695 458.822 78.3115 462.587 81.0883C459.801 77.3361 458.154 72.6934 458.154 67.6674C458.154 60.2199 461.771 53.6144 467.35 49.5C472.929 53.6144 476.547 60.2199 476.547 67.6674C476.547 75.1154 472.929 81.721 467.35 85.8347C463.222 91.3952 456.594 95 449.121 95Z" fill="#EDEDED"/>
<path fill-rule="evenodd" clip-rule="evenodd" d="M412.663 95C420.136 95 426.764 91.3952 430.892 85.8347C426.764 80.2743 420.136 76.6695 412.663 76.6695C407.62 76.6695 402.962 78.3115 399.197 81.0883C401.983 77.3361 403.631 72.6934 403.631 67.6674C403.631 60.2199 400.013 53.6144 394.434 49.5C388.855 53.6144 385.238 60.2199 385.238 67.6674C385.238 75.1154 388.855 81.721 394.434 85.8347C398.562 91.3952 405.19 95 412.663 95Z" fill="#EDEDED"/>
<path fill-rule="evenodd" clip-rule="evenodd" d="M544.43 4C536.957 4 530.329 7.60485 526.202 13.1653C530.329 18.7257 536.957 22.3305 544.43 22.3305C549.473 22.3305 554.132 20.6886 557.897 17.9117C555.111 21.6639 553.463 26.3066 553.463 31.3326C553.463 38.7807 557.08 45.3863 562.66 49.5C568.239 45.3863 571.856 38.7807 571.856 31.3326C571.856 23.8852 568.239 17.279 562.66 13.1653C558.531 7.60485 551.903 4 544.43 4Z" fill="#EDEDED"/>
<path fill-rule="evenodd" clip-rule="evenodd" d="M507.972 4C515.445 4 522.073 7.60485 526.202 13.1653C522.073 18.7257 515.445 22.3305 507.972 22.3305C502.929 22.3305 498.272 20.6886 494.507 17.9117C497.293 21.6639 498.94 26.3066 498.94 31.3326C498.94 38.7807 495.322 45.3863 489.744 49.5C484.164 45.3863 480.547 38.7807 480.547 31.3326C480.547 23.8852 484.164 17.279 489.744 13.1653C493.871 7.60485 500.499 4 507.972 4Z" fill="#EDEDED"/>
<path fill-rule="evenodd" clip-rule="evenodd" d="M544.43 95C536.957 95 530.329 91.3952 526.202 85.8347C530.329 80.2743 536.957 76.6695 544.43 76.6695C549.473 76.6695 554.132 78.3115 557.897 81.0883C555.111 77.3361 553.463 72.6934 553.463 67.6674C553.463 60.2199 557.08 53.6144 562.66 49.5C568.239 53.6144 571.856 60.2199 571.856 67.6674C571.856 75.1154 568.239 81.721 562.66 85.8347C558.531 91.3952 551.903 95 544.43 95Z" fill="#EDEDED"/>
<path fill-rule="evenodd" clip-rule="evenodd" d="M507.972 95C515.445 95 522.073 91.3952 526.202 85.8347C522.073 80.2743 515.445 76.6695 507.972 76.6695C502.929 76.6695 498.272 78.3115 494.507 81.0883C497.293 77.3361 498.94 72.6934 498.94 67.6674C498.94 60.2199 495.322 53.6144 489.744 49.5C484.164 53.6144 480.547 60.2199 480.547 67.6674C480.547 75.1154 484.164 81.721 489.744 85.8347C493.871 91.3952 500.499 95 507.972 95Z" fill="#EDEDED"/>
<path fill-rule="evenodd" clip-rule="evenodd" d="M639.74 4C632.267 4 625.639 7.60485 621.511 13.1653C625.639 18.7257 632.267 22.3305 639.74 22.3305C644.783 22.3305 649.441 20.6886 653.206 17.9117C650.42 21.6639 648.773 26.3066 648.773 31.3326C648.773 38.7807 652.39 45.3863 657.969 49.5C663.548 45.3863 667.166 38.7807 667.166 31.3326C667.166 23.8852 663.548 17.279 657.969 13.1653C653.841 7.60485 647.213 4 639.74 4Z" fill="#EDEDED"/>
<path fill-rule="evenodd" clip-rule="evenodd" d="M603.282 4C610.755 4 617.383 7.60485 621.511 13.1653C617.383 18.7257 610.755 22.3305 603.282 22.3305C598.239 22.3305 593.581 20.6886 589.816 17.9117C592.602 21.6639 594.249 26.3066 594.249 31.3326C594.249 38.7807 590.632 45.3863 585.053 49.5C579.473 45.3863 575.856 38.7807 575.856 31.3326C575.856 23.8852 579.473 17.279 585.053 13.1653C589.181 7.60485 595.809 4 603.282 4Z" fill="#EDEDED"/>
<path fill-rule="evenodd" clip-rule="evenodd" d="M639.74 95C632.267 95 625.639 91.3952 621.511 85.8347C625.639 80.2743 632.267 76.6695 639.74 76.6695C644.783 76.6695 649.441 78.3115 653.206 81.0883C650.42 77.3361 648.773 72.6934 648.773 67.6674C648.773 60.2199 652.39 53.6144 657.969 49.5C663.548 53.6144 667.166 60.2199 667.166 67.6674C667.166 75.1154 663.548 81.721 657.969 85.8347C653.841 91.3952 647.213 95 639.74 95Z" fill="#EDEDED"/>
<path fill-rule="evenodd" clip-rule="evenodd" d="M603.282 95C610.755 95 617.383 91.3952 621.511 85.8347C617.383 80.2743 610.755 76.6695 603.282 76.6695C598.239 76.6695 593.581 78.3115 589.816 81.0883C592.602 77.3361 594.249 72.6934 594.249 67.6674C594.249 60.2199 590.632 53.6144 585.053 49.5C579.473 53.6144 575.856 60.2199 575.856 67.6674C575.856 75.1154 579.473 81.721 585.053 85.8347C589.181 91.3952 595.809 95 603.282 95Z" fill="#EDEDED"/>
<path fill-rule="evenodd" clip-rule="evenodd" d="M735.049 4C727.576 4 720.948 7.60485 716.82 13.1653C720.948 18.7257 727.576 22.3305 735.049 22.3305C740.092 22.3305 744.751 20.6886 748.516 17.9117C745.73 21.6639 744.082 26.3066 744.082 31.3326C744.082 38.7807 747.699 45.3863 753.278 49.5C758.858 45.3863 762.475 38.7807 762.475 31.3326C762.475 23.8852 758.858 17.279 753.278 13.1653C749.15 7.60485 742.522 4 735.049 4Z" fill="#EDEDED"/>
<path fill-rule="evenodd" clip-rule="evenodd" d="M698.591 4C706.064 4 712.692 7.60485 716.82 13.1653C712.692 18.7257 706.064 22.3305 698.591 22.3305C693.548 22.3305 688.89 20.6886 685.125 17.9117C687.911 21.6639 689.559 26.3066 689.559 31.3326C689.559 38.7807 685.941 45.3863 680.363 49.5C674.783 45.3863 671.166 38.7807 671.166 31.3326C671.166 23.8852 674.783 17.279 680.363 13.1653C684.49 7.60485 691.118 4 698.591 4Z" fill="#EDEDED"/>
<path fill-rule="evenodd" clip-rule="evenodd" d="M735.049 95C727.576 95 720.948 91.3952 716.82 85.8347C720.948 80.2743 727.576 76.6695 735.049 76.6695C740.092 76.6695 744.751 78.3115 748.516 81.0883C745.73 77.3361 744.082 72.6934 744.082 67.6674C744.082 60.2199 747.699 53.6144 753.278 49.5C758.858 53.6144 762.475 60.2199 762.475 67.6674C762.475 75.1154 758.858 81.721 753.278 85.8347C749.15 91.3952 742.522 95 735.049 95Z" fill="#EDEDED"/>
<path fill-rule="evenodd" clip-rule="evenodd" d="M698.591 95C706.064 95 712.692 91.3952 716.82 85.8347C712.692 80.2743 706.064 76.6695 698.591 76.6695C693.548 76.6695 688.89 78.3115 685.125 81.0883C687.911 77.3361 689.559 72.6934 689.559 67.6674C689.559 60.2199 685.941 53.6144 680.363 49.5C674.783 53.6144 671.166 60.2199 671.166 67.6674C671.166 75.1154 674.783 81.721 680.363 85.8347C684.49 91.3952 691.118 95 698.591 95Z" fill="#EDEDED"/>
<path fill-rule="evenodd" clip-rule="evenodd" d="M830.358 4C822.885 4 816.257 7.60485 812.13 13.1653C816.257 18.7257 822.885 22.3305 830.358 22.3305C835.401 22.3305 840.06 20.6886 843.825 17.9117C841.039 21.6639 839.391 26.3066 839.391 31.3326C839.391 38.7807 843.008 45.3863 848.588 49.5C854.167 45.3863 857.784 38.7807 857.784 31.3326C857.784 23.8852 854.167 17.279 848.588 13.1653C844.459 7.60485 837.831 4 830.358 4Z" fill="#EDEDED"/>
<path fill-rule="evenodd" clip-rule="evenodd" d="M793.901 4C801.373 4 808.001 7.60485 812.13 13.1653C808.001 18.7257 801.373 22.3305 793.901 22.3305C788.858 22.3305 784.2 20.6886 780.435 17.9117C783.221 21.6639 784.868 26.3066 784.868 31.3326C784.868 38.7807 781.251 45.3863 775.672 49.5C770.092 45.3863 766.475 38.7807 766.475 31.3326C766.475 23.8852 770.092 17.279 775.672 13.1653C779.8 7.60485 786.428 4 793.901 4Z" fill="#EDEDED"/>
<path fill-rule="evenodd" clip-rule="evenodd" d="M830.358 95C822.885 95 816.257 91.3952 812.13 85.8347C816.257 80.2743 822.885 76.6695 830.358 76.6695C835.401 76.6695 840.06 78.3115 843.825 81.0883C841.039 77.3361 839.391 72.6934 839.391 67.6674C839.391 60.2199 843.008 53.6144 848.588 49.5C854.167 53.6144 857.784 60.2199 857.784 67.6674C857.784 75.1154 854.167 81.721 848.588 85.8347C844.459 91.3952 837.831 95 830.358 95Z" fill="#EDEDED"/>
<path fill-rule="evenodd" clip-rule="evenodd" d="M793.901 95C801.373 95 808.001 91.3952 812.13 85.8347C808.001 80.2743 801.373 76.6695 793.901 76.6695C788.858 76.6695 784.2 78.3115 780.435 81.0883C783.221 77.3361 784.868 72.6934 784.868 67.6674C784.868 60.2199 781.251 53.6144 775.672 49.5C770.092 53.6144 766.475 60.2199 766.475 67.6674C766.475 75.1154 770.092 81.721 775.672 85.8347C779.8 91.3952 786.428 95 793.901 95Z" fill="#EDEDED"/>
<path fill-rule="evenodd" clip-rule="evenodd" d="M925.668 4C918.195 4 911.567 7.60485 907.439 13.1653C911.567 18.7257 918.195 22.3305 925.668 22.3305C930.711 22.3305 935.369 20.6886 939.134 17.9117C936.348 21.6639 934.701 26.3066 934.701 31.3326C934.701 38.7807 938.318 45.3863 943.897 49.5C949.476 45.3863 953.094 38.7807 953.094 31.3326C953.094 23.8852 949.476 17.279 943.897 13.1653C939.769 7.60485 933.141 4 925.668 4Z" fill="#EDEDED"/>
<path fill-rule="evenodd" clip-rule="evenodd" d="M889.21 4C896.683 4 903.311 7.60485 907.439 13.1653C903.311 18.7257 896.683 22.3305 889.21 22.3305C884.167 22.3305 879.509 20.6886 875.744 17.9117C878.53 21.6639 880.177 26.3066 880.177 31.3326C880.177 38.7807 876.56 45.3863 870.981 49.5C865.401 45.3863 861.784 38.7807 861.784 31.3326C861.784 23.8852 865.401 17.279 870.981 13.1653C875.109 7.60485 881.737 4 889.21 4Z" fill="#EDEDED"/>
<path fill-rule="evenodd" clip-rule="evenodd" d="M925.668 95C918.195 95 911.567 91.3952 907.439 85.8347C911.567 80.2743 918.195 76.6695 925.668 76.6695C930.711 76.6695 935.369 78.3115 939.134 81.0883C936.348 77.3361 934.701 72.6934 934.701 67.6674C934.701 60.2199 938.318 53.6144 943.897 49.5C949.476 53.6144 953.094 60.2199 953.094 67.6674C953.094 75.1154 949.476 81.721 943.897 85.8347C939.769 91.3952 933.141 95 925.668 95Z" fill="#EDEDED"/>
<path fill-rule="evenodd" clip-rule="evenodd" d="M889.21 95C896.683 95 903.311 91.3952 907.439 85.8347C903.311 80.2743 896.683 76.6695 889.21 76.6695C884.167 76.6695 879.509 78.3115 875.744 81.0883C878.53 77.3361 880.177 72.6934 880.177 67.6674C880.177 60.2199 876.56 53.6144 870.981 49.5C865.401 53.6144 861.784 60.2199 861.784 67.6674C861.784 75.1154 865.401 81.721 870.981 85.8347C875.109 91.3952 881.737 95 889.21 95Z" fill="#EDEDED"/>
<path fill-rule="evenodd" clip-rule="evenodd" d="M1020.98 4C1013.5 4 1006.88 7.60485 1002.75 13.1653C1006.88 18.7257 1013.5 22.3305 1020.98 22.3305C1026.02 22.3305 1030.68 20.6886 1034.44 17.9117C1031.66 21.6639 1030.01 26.3066 1030.01 31.3326C1030.01 38.7807 1033.63 45.3863 1039.21 49.5C1044.79 45.3863 1048.4 38.7807 1048.4 31.3326C1048.4 23.8852 1044.79 17.279 1039.21 13.1653C1035.08 7.60485 1028.45 4 1020.98 4Z" fill="#EDEDED"/>
<path fill-rule="evenodd" clip-rule="evenodd" d="M984.519 4C991.992 4 998.62 7.60485 1002.75 13.1653C998.62 18.7257 991.992 22.3305 984.519 22.3305C979.476 22.3305 974.818 20.6886 971.053 17.9117C973.839 21.6639 975.487 26.3066 975.487 31.3326C975.487 38.7807 971.869 45.3863 966.291 49.5C960.711 45.3863 957.094 38.7807 957.094 31.3326C957.094 23.8852 960.711 17.279 966.291 13.1653C970.418 7.60485 977.046 4 984.519 4Z" fill="#EDEDED"/>
<path fill-rule="evenodd" clip-rule="evenodd" d="M1020.98 95C1013.5 95 1006.88 91.3952 1002.75 85.8347C1006.88 80.2743 1013.5 76.6695 1020.98 76.6695C1026.02 76.6695 1030.68 78.3115 1034.44 81.0883C1031.66 77.3361 1030.01 72.6934 1030.01 67.6674C1030.01 60.2199 1033.63 53.6144 1039.21 49.5C1044.79 53.6144 1048.4 60.2199 1048.4 67.6674C1048.4 75.1154 1044.79 81.721 1039.21 85.8347C1035.08 91.3952 1028.45 95 1020.98 95Z" fill="#EDEDED"/>
<path fill-rule="evenodd" clip-rule="evenodd" d="M984.519 95C991.992 95 998.62 91.3952 1002.75 85.8347C998.62 80.2743 991.992 76.6695 984.519 76.6695C979.476 76.6695 974.818 78.3115 971.053 81.0883C973.839 77.3361 975.487 72.6934 975.487 67.6674C975.487 60.2199 971.869 53.6144 966.291 49.5C960.711 53.6144 957.094 60.2199 957.094 67.6674C957.094 75.1154 960.711 81.721 966.291 85.8347C970.418 91.3952 977.046 95 984.519 95Z" fill="#EDEDED"/>
<path fill-rule="evenodd" clip-rule="evenodd" d="M1116.29 4C1108.81 4 1102.19 7.60485 1098.06 13.1653C1102.19 18.7257 1108.81 22.3305 1116.29 22.3305C1121.33 22.3305 1125.99 20.6886 1129.75 17.9117C1126.97 21.6639 1125.32 26.3066 1125.32 31.3326C1125.32 38.7807 1128.94 45.3863 1134.52 49.5C1140.1 45.3863 1143.71 38.7807 1143.71 31.3326C1143.71 23.8852 1140.1 17.279 1134.52 13.1653C1130.39 7.60485 1123.76 4 1116.29 4Z" fill="#EDEDED"/>
<path fill-rule="evenodd" clip-rule="evenodd" d="M1079.83 4C1087.3 4 1093.93 7.60485 1098.06 13.1653C1093.93 18.7257 1087.3 22.3305 1079.83 22.3305C1074.79 22.3305 1070.13 20.6886 1066.36 17.9117C1069.15 21.6639 1070.8 26.3066 1070.8 31.3326C1070.8 38.7807 1067.18 45.3863 1061.6 49.5C1056.02 45.3863 1052.4 38.7807 1052.4 31.3326C1052.4 23.8852 1056.02 17.279 1061.6 13.1653C1065.73 7.60485 1072.36 4 1079.83 4Z" fill="#EDEDED"/>
<path fill-rule="evenodd" clip-rule="evenodd" d="M1116.29 95C1108.81 95 1102.19 91.3952 1098.06 85.8347C1102.19 80.2743 1108.81 76.6695 1116.29 76.6695C1121.33 76.6695 1125.99 78.3115 1129.75 81.0883C1126.97 77.3361 1125.32 72.6934 1125.32 67.6674C1125.32 60.2199 1128.94 53.6144 1134.52 49.5C1140.1 53.6144 1143.71 60.2199 1143.71 67.6674C1143.71 75.1154 1140.1 81.721 1134.52 85.8347C1130.39 91.3952 1123.76 95 1116.29 95Z" fill="#EDEDED"/>
<path fill-rule="evenodd" clip-rule="evenodd" d="M1079.83 95C1087.3 95 1093.93 91.3952 1098.06 85.8347C1093.93 80.2743 1087.3 76.6695 1079.83 76.6695C1074.79 76.6695 1070.13 78.3115 1066.36 81.0883C1069.15 77.3361 1070.8 72.6934 1070.8 67.6674C1070.8 60.2199 1067.18 53.6144 1061.6 49.5C1056.02 53.6144 1052.4 60.2199 1052.4 67.6674C1052.4 75.1154 1056.02 81.721 1061.6 85.8347C1065.73 91.3952 1072.36 95 1079.83 95Z" fill="#EDEDED"/>
<path fill-rule="evenodd" clip-rule="evenodd" d="M1211.6 4C1204.12 4 1197.5 7.60485 1193.37 13.1653C1197.5 18.7257 1204.12 22.3305 1211.6 22.3305C1216.64 22.3305 1221.3 20.6886 1225.06 17.9117C1222.28 21.6639 1220.63 26.3066 1220.63 31.3326C1220.63 38.7807 1224.25 45.3863 1229.83 49.5C1235.4 45.3863 1239.02 38.7807 1239.02 31.3326C1239.02 23.8852 1235.4 17.279 1229.83 13.1653C1225.7 7.60485 1219.07 4 1211.6 4Z" fill="#EDEDED"/>
<path fill-rule="evenodd" clip-rule="evenodd" d="M1175.14 4C1182.61 4 1189.24 7.60485 1193.37 13.1653C1189.24 18.7257 1182.61 22.3305 1175.14 22.3305C1170.1 22.3305 1165.44 20.6886 1161.67 17.9117C1164.46 21.6639 1166.11 26.3066 1166.11 31.3326C1166.11 38.7807 1162.49 45.3863 1156.91 49.5C1151.33 45.3863 1147.71 38.7807 1147.71 31.3326C1147.71 23.8852 1151.33 17.279 1156.91 13.1653C1161.04 7.60485 1167.67 4 1175.14 4Z" fill="#EDEDED"/>
<path fill-rule="evenodd" clip-rule="evenodd" d="M1211.6 95C1204.12 95 1197.5 91.3952 1193.37 85.8347C1197.5 80.2743 1204.12 76.6695 1211.6 76.6695C1216.64 76.6695 1221.3 78.3115 1225.06 81.0883C1222.28 77.3361 1220.63 72.6934 1220.63 67.6674C1220.63 60.2199 1224.25 53.6144 1229.83 49.5C1235.4 53.6144 1239.02 60.2199 1239.02 67.6674C1239.02 75.1154 1235.4 81.721 1229.83 85.8347C1225.7 91.3952 1219.07 95 1211.6 95Z" fill="#EDEDED"/>
<path fill-rule="evenodd" clip-rule="evenodd" d="M1175.14 95C1182.61 95 1189.24 91.3952 1193.37 85.8347C1189.24 80.2743 1182.61 76.6695 1175.14 76.6695C1170.1 76.6695 1165.44 78.3115 1161.67 81.0883C1164.46 77.3361 1166.11 72.6934 1166.11 67.6674C1166.11 60.2199 1162.49 53.6144 1156.91 49.5C1151.33 53.6144 1147.71 60.2199 1147.71 67.6674C1147.71 75.1154 1151.33 81.721 1156.91 85.8347C1161.04 91.3952 1167.67 95 1175.14 95Z" fill="#EDEDED"/>
<path fill-rule="evenodd" clip-rule="evenodd" d="M1306.91 4C1299.43 4 1292.8 7.60485 1288.68 13.1653C1292.8 18.7257 1299.43 22.3305 1306.91 22.3305C1311.95 22.3305 1316.61 20.6886 1320.37 17.9117C1317.59 21.6639 1315.94 26.3066 1315.94 31.3326C1315.94 38.7807 1319.56 45.3863 1325.13 49.5C1330.71 45.3863 1334.33 38.7807 1334.33 31.3326C1334.33 23.8852 1330.71 17.279 1325.13 13.1653C1321.01 7.60485 1314.38 4 1306.91 4Z" fill="#EDEDED"/>
<path fill-rule="evenodd" clip-rule="evenodd" d="M1270.45 4C1277.92 4 1284.55 7.60485 1288.68 13.1653C1284.55 18.7257 1277.92 22.3305 1270.45 22.3305C1265.4 22.3305 1260.75 20.6886 1256.98 17.9117C1259.77 21.6639 1261.41 26.3066 1261.41 31.3326C1261.41 38.7807 1257.8 45.3863 1252.22 49.5C1246.64 45.3863 1243.02 38.7807 1243.02 31.3326C1243.02 23.8852 1246.64 17.279 1252.22 13.1653C1256.35 7.60485 1262.97 4 1270.45 4Z" fill="#EDEDED"/>
<path fill-rule="evenodd" clip-rule="evenodd" d="M1306.91 95C1299.43 95 1292.8 91.3952 1288.68 85.8347C1292.8 80.2743 1299.43 76.6695 1306.91 76.6695C1311.95 76.6695 1316.61 78.3115 1320.37 81.0883C1317.59 77.3361 1315.94 72.6934 1315.94 67.6674C1315.94 60.2199 1319.56 53.6144 1325.13 49.5C1330.71 53.6144 1334.33 60.2199 1334.33 67.6674C1334.33 75.1154 1330.71 81.721 1325.13 85.8347C1321.01 91.3952 1314.38 95 1306.91 95Z" fill="#EDEDED"/>
<path fill-rule="evenodd" clip-rule="evenodd" d="M1270.45 95C1277.92 95 1284.55 91.3952 1288.68 85.8347C1284.55 80.2743 1277.92 76.6695 1270.45 76.6695C1265.4 76.6695 1260.75 78.3115 1256.98 81.0883C1259.77 77.3361 1261.41 72.6934 1261.41 67.6674C1261.41 60.2199 1257.8 53.6144 1252.22 49.5C1246.64 53.6144 1243.02 60.2199 1243.02 67.6674C1243.02 75.1154 1246.64 81.721 1252.22 85.8347C1256.35 91.3952 1262.97 95 1270.45 95Z" fill="#EDEDED"/>
<path fill-rule="evenodd" clip-rule="evenodd" d="M1402.21 4C1394.74 4 1388.11 7.60485 1383.99 13.1653C1388.11 18.7257 1394.74 22.3305 1402.21 22.3305C1407.26 22.3305 1411.92 20.6886 1415.68 17.9117C1412.9 21.6639 1411.25 26.3066 1411.25 31.3326C1411.25 38.7807 1414.86 45.3863 1420.44 49.5C1426.02 45.3863 1429.64 38.7807 1429.64 31.3326C1429.64 23.8852 1426.02 17.279 1420.44 13.1653C1416.32 7.60485 1409.69 4 1402.21 4Z" fill="#EDEDED"/>
<path fill-rule="evenodd" clip-rule="evenodd" d="M1365.76 4C1373.23 4 1379.86 7.60485 1383.99 13.1653C1379.86 18.7257 1373.23 22.3305 1365.76 22.3305C1360.71 22.3305 1356.06 20.6886 1352.29 17.9117C1355.08 21.6639 1356.72 26.3066 1356.72 31.3326C1356.72 38.7807 1353.11 45.3863 1347.53 49.5C1341.95 45.3863 1338.33 38.7807 1338.33 31.3326C1338.33 23.8852 1341.95 17.279 1347.53 13.1653C1351.66 7.60485 1358.28 4 1365.76 4Z" fill="#EDEDED"/>
<path fill-rule="evenodd" clip-rule="evenodd" d="M1402.21 95C1394.74 95 1388.11 91.3952 1383.99 85.8347C1388.11 80.2743 1394.74 76.6695 1402.21 76.6695C1407.26 76.6695 1411.92 78.3115 1415.68 81.0883C1412.9 77.3361 1411.25 72.6934 1411.25 67.6674C1411.25 60.2199 1414.86 53.6144 1420.44 49.5C1426.02 53.6144 1429.64 60.2199 1429.64 67.6674C1429.64 75.1154 1426.02 81.721 1420.44 85.8347C1416.32 91.3952 1409.69 95 1402.21 95Z" fill="#EDEDED"/>
<path fill-rule="evenodd" clip-rule="evenodd" d="M1365.76 95C1373.23 95 1379.86 91.3952 1383.99 85.8347C1379.86 80.2743 1373.23 76.6695 1365.76 76.6695C1360.71 76.6695 1356.06 78.3115 1352.29 81.0883C1355.08 77.3361 1356.72 72.6934 1356.72 67.6674C1356.72 60.2199 1353.11 53.6144 1347.53 49.5C1341.95 53.6144 1338.33 60.2199 1338.33 67.6674C1338.33 75.1154 1341.95 81.721 1347.53 85.8347C1351.66 91.3952 1358.28 95 1365.76 95Z" fill="#EDEDED"/>
<path fill-rule="evenodd" clip-rule="evenodd" d="M67.8834 99C60.4104 99 53.7824 102.605 49.6547 108.165C53.7824 113.726 60.4104 117.331 67.8834 117.331C72.9264 117.331 77.5848 115.689 81.3498 112.912C78.5639 116.664 76.9164 121.307 76.9164 126.333C76.9164 133.781 80.5334 140.386 86.1126 144.5C91.6918 140.386 95.3094 133.781 95.3094 126.333C95.3094 118.885 91.6918 112.279 86.1126 108.165C81.9843 102.605 75.3563 99 67.8834 99Z" fill="#EDEDED"/>
<path fill-rule="evenodd" clip-rule="evenodd" d="M31.4255 99C38.8984 99 45.5264 102.605 49.6547 108.165C45.5264 113.726 38.8984 117.331 31.4255 117.331C26.3824 117.331 21.7246 115.689 17.9596 112.912C20.7456 116.664 22.393 121.307 22.393 126.333C22.393 133.781 18.7754 140.386 13.1968 144.5C7.61698 140.386 4 133.781 4 126.333C4 118.885 7.61698 112.279 13.1968 108.165C17.3245 102.605 23.9525 99 31.4255 99Z" fill="#EDEDED"/>
<path fill-rule="evenodd" clip-rule="evenodd" d="M67.8834 190C60.4104 190 53.7824 186.395 49.6547 180.835C53.7824 175.274 60.4104 171.669 67.8834 171.669C72.9264 171.669 77.5848 173.311 81.3498 176.088C78.5639 172.336 76.9164 167.693 76.9164 162.667C76.9164 155.22 80.5334 148.614 86.1126 144.5C91.6918 148.614 95.3094 155.22 95.3094 162.667C95.3094 170.115 91.6918 176.721 86.1126 180.835C81.9843 186.395 75.3563 190 67.8834 190Z" fill="#EDEDED"/>
<path fill-rule="evenodd" clip-rule="evenodd" d="M31.4255 190C38.8984 190 45.5264 186.395 49.6547 180.835C45.5264 175.274 38.8984 171.669 31.4255 171.669C26.3824 171.669 21.7246 173.311 17.9596 176.088C20.7456 172.336 22.393 167.693 22.393 162.667C22.393 155.22 18.7754 148.614 13.1968 144.5C7.61698 148.614 4 155.22 4 162.667C4 170.115 7.61698 176.721 13.1968 180.835C17.3245 186.395 23.9525 190 31.4255 190Z" fill="#EDEDED"/>
<path fill-rule="evenodd" clip-rule="evenodd" d="M163.193 99C155.72 99 149.092 102.605 144.964 108.165C149.092 113.726 155.72 117.331 163.193 117.331C168.236 117.331 172.894 115.689 176.659 112.912C173.873 116.664 172.226 121.307 172.226 126.333C172.226 133.781 175.843 140.386 181.422 144.5C187.001 140.386 190.619 133.781 190.619 126.333C190.619 118.885 187.001 112.279 181.422 108.165C177.294 102.605 170.666 99 163.193 99Z" fill="#EDEDED"/>
<path fill-rule="evenodd" clip-rule="evenodd" d="M126.735 99C134.208 99 140.836 102.605 144.964 108.165C140.836 113.726 134.208 117.331 126.735 117.331C121.692 117.331 117.034 115.689 113.269 112.912C116.055 116.664 117.702 121.307 117.702 126.333C117.702 133.781 114.085 140.386 108.506 144.5C102.926 140.386 99.3094 133.781 99.3094 126.333C99.3094 118.885 102.926 112.279 108.506 108.165C112.634 102.605 119.262 99 126.735 99Z" fill="#EDEDED"/>
<path fill-rule="evenodd" clip-rule="evenodd" d="M163.193 190C155.72 190 149.092 186.395 144.964 180.835C149.092 175.274 155.72 171.669 163.193 171.669C168.236 171.669 172.894 173.311 176.659 176.088C173.873 172.336 172.226 167.693 172.226 162.667C172.226 155.22 175.843 148.614 181.422 144.5C187.001 148.614 190.619 155.22 190.619 162.667C190.619 170.115 187.001 176.721 181.422 180.835C177.294 186.395 170.666 190 163.193 190Z" fill="#EDEDED"/>
<path fill-rule="evenodd" clip-rule="evenodd" d="M126.735 190C134.208 190 140.836 186.395 144.964 180.835C140.836 175.274 134.208 171.669 126.735 171.669C121.692 171.669 117.034 173.311 113.269 176.088C116.055 172.336 117.702 167.693 117.702 162.667C117.702 155.22 114.085 148.614 108.506 144.5C102.926 148.614 99.3094 155.22 99.3094 162.667C99.3094 170.115 102.926 176.721 108.506 180.835C112.634 186.395 119.262 190 126.735 190Z" fill="#EDEDED"/>
<path fill-rule="evenodd" clip-rule="evenodd" d="M258.502 99C251.029 99 244.401 102.605 240.273 108.165C244.401 113.726 251.029 117.331 258.502 117.331C263.545 117.331 268.204 115.689 271.969 112.912C269.183 116.664 267.535 121.307 267.535 126.333C267.535 133.781 271.152 140.386 276.731 144.5C282.311 140.386 285.928 133.781 285.928 126.333C285.928 118.885 282.311 112.279 276.731 108.165C272.603 102.605 265.975 99 258.502 99Z" fill="#EDEDED"/>
<path fill-rule="evenodd" clip-rule="evenodd" d="M222.044 99C229.517 99 236.145 102.605 240.273 108.165C236.145 113.726 229.517 117.331 222.044 117.331C217.001 117.331 212.343 115.689 208.578 112.912C211.364 116.664 213.012 121.307 213.012 126.333C213.012 133.781 209.394 140.386 203.816 144.5C198.236 140.386 194.619 133.781 194.619 126.333C194.619 118.885 198.236 112.279 203.816 108.165C207.943 102.605 214.571 99 222.044 99Z" fill="#EDEDED"/>
<path fill-rule="evenodd" clip-rule="evenodd" d="M258.502 190C251.029 190 244.401 186.395 240.273 180.835C244.401 175.274 251.029 171.669 258.502 171.669C263.545 171.669 268.204 173.311 271.969 176.088C269.183 172.336 267.535 167.693 267.535 162.667C267.535 155.22 271.152 148.614 276.731 144.5C282.311 148.614 285.928 155.22 285.928 162.667C285.928 170.115 282.311 176.721 276.731 180.835C272.603 186.395 265.975 190 258.502 190Z" fill="#EDEDED"/>
<path fill-rule="evenodd" clip-rule="evenodd" d="M222.044 190C229.517 190 236.145 186.395 240.273 180.835C236.145 175.274 229.517 171.669 222.044 171.669C217.001 171.669 212.343 173.311 208.578 176.088C211.364 172.336 213.012 167.693 213.012 162.667C213.012 155.22 209.394 148.614 203.816 144.5C198.236 148.614 194.619 155.22 194.619 162.667C194.619 170.115 198.236 176.721 203.816 180.835C207.943 186.395 214.571 190 222.044 190Z" fill="#EDEDED"/>
<path fill-rule="evenodd" clip-rule="evenodd" d="M353.812 99C346.339 99 339.711 102.605 335.583 108.165C339.711 113.726 346.339 117.331 353.812 117.331C358.855 117.331 363.513 115.689 367.278 112.912C364.492 116.664 362.845 121.307 362.845 126.333C362.845 133.781 366.462 140.386 372.041 144.5C377.62 140.386 381.238 133.781 381.238 126.333C381.238 118.885 377.62 112.279 372.041 108.165C367.912 102.605 361.284 99 353.812 99Z" fill="#EDEDED"/>
<path fill-rule="evenodd" clip-rule="evenodd" d="M317.354 99C324.827 99 331.455 102.605 335.583 108.165C331.455 113.726 324.827 117.331 317.354 117.331C312.311 117.331 307.653 115.689 303.888 112.912C306.674 116.664 308.321 121.307 308.321 126.333C308.321 133.781 304.704 140.386 299.125 144.5C293.545 140.386 289.928 133.781 289.928 126.333C289.928 118.885 293.545 112.279 299.125 108.165C303.253 102.605 309.881 99 317.354 99Z" fill="#EDEDED"/>
<path fill-rule="evenodd" clip-rule="evenodd" d="M353.812 190C346.339 190 339.711 186.395 335.583 180.835C339.711 175.274 346.339 171.669 353.812 171.669C358.855 171.669 363.513 173.311 367.278 176.088C364.492 172.336 362.845 167.693 362.845 162.667C362.845 155.22 366.462 148.614 372.041 144.5C377.62 148.614 381.238 155.22 381.238 162.667C381.238 170.115 377.62 176.721 372.041 180.835C367.912 186.395 361.284 190 353.812 190Z" fill="#EDEDED"/>
<path fill-rule="evenodd" clip-rule="evenodd" d="M317.354 190C324.827 190 331.455 186.395 335.583 180.835C331.455 175.274 324.827 171.669 317.354 171.669C312.311 171.669 307.653 173.311 303.888 176.088C306.674 172.336 308.321 167.693 308.321 162.667C308.321 155.22 304.704 148.614 299.125 144.5C293.545 148.614 289.928 155.22 289.928 162.667C289.928 170.115 293.545 176.721 299.125 180.835C303.253 186.395 309.881 190 317.354 190Z" fill="#EDEDED"/>
<path fill-rule="evenodd" clip-rule="evenodd" d="M449.121 99C441.648 99 435.02 102.605 430.892 108.165C435.02 113.726 441.648 117.331 449.121 117.331C454.164 117.331 458.822 115.689 462.587 112.912C459.801 116.664 458.154 121.307 458.154 126.333C458.154 133.781 461.771 140.386 467.35 144.5C472.929 140.386 476.547 133.781 476.547 126.333C476.547 118.885 472.929 112.279 467.35 108.165C463.222 102.605 456.594 99 449.121 99Z" fill="#EDEDED"/>
<path fill-rule="evenodd" clip-rule="evenodd" d="M412.663 99C420.136 99 426.764 102.605 430.892 108.165C426.764 113.726 420.136 117.331 412.663 117.331C407.62 117.331 402.962 115.689 399.197 112.912C401.983 116.664 403.631 121.307 403.631 126.333C403.631 133.781 400.013 140.386 394.434 144.5C388.855 140.386 385.238 133.781 385.238 126.333C385.238 118.885 388.855 112.279 394.434 108.165C398.562 102.605 405.19 99 412.663 99Z" fill="#EDEDED"/>
<path fill-rule="evenodd" clip-rule="evenodd" d="M449.121 190C441.648 190 435.02 186.395 430.892 180.835C435.02 175.274 441.648 171.669 449.121 171.669C454.164 171.669 458.822 173.311 462.587 176.088C459.801 172.336 458.154 167.693 458.154 162.667C458.154 155.22 461.771 148.614 467.35 144.5C472.929 148.614 476.547 155.22 476.547 162.667C476.547 170.115 472.929 176.721 467.35 180.835C463.222 186.395 456.594 190 449.121 190Z" fill="#EDEDED"/>
<path fill-rule="evenodd" clip-rule="evenodd" d="M412.663 190C420.136 190 426.764 186.395 430.892 180.835C426.764 175.274 420.136 171.669 412.663 171.669C407.62 171.669 402.962 173.311 399.197 176.088C401.983 172.336 403.631 167.693 403.631 162.667C403.631 155.22 400.013 148.614 394.434 144.5C388.855 148.614 385.238 155.22 385.238 162.667C385.238 170.115 388.855 176.721 394.434 180.835C398.562 186.395 405.19 190 412.663 190Z" fill="#EDEDED"/>
<path fill-rule="evenodd" clip-rule="evenodd" d="M544.43 99C536.957 99 530.329 102.605 526.202 108.165C530.329 113.726 536.957 117.331 544.43 117.331C549.473 117.331 554.132 115.689 557.897 112.912C555.111 116.664 553.463 121.307 553.463 126.333C553.463 133.781 557.08 140.386 562.66 144.5C568.239 140.386 571.856 133.781 571.856 126.333C571.856 118.885 568.239 112.279 562.66 108.165C558.531 102.605 551.903 99 544.43 99Z" fill="#EDEDED"/>
<path fill-rule="evenodd" clip-rule="evenodd" d="M507.972 99C515.445 99 522.073 102.605 526.202 108.165C522.073 113.726 515.445 117.331 507.972 117.331C502.929 117.331 498.272 115.689 494.507 112.912C497.293 116.664 498.94 121.307 498.94 126.333C498.94 133.781 495.322 140.386 489.744 144.5C484.164 140.386 480.547 133.781 480.547 126.333C480.547 118.885 484.164 112.279 489.744 108.165C493.871 102.605 500.499 99 507.972 99Z" fill="#EDEDED"/>
<path fill-rule="evenodd" clip-rule="evenodd" d="M544.43 190C536.957 190 530.329 186.395 526.202 180.835C530.329 175.274 536.957 171.669 544.43 171.669C549.473 171.669 554.132 173.311 557.897 176.088C555.111 172.336 553.463 167.693 553.463 162.667C553.463 155.22 557.08 148.614 562.66 144.5C568.239 148.614 571.856 155.22 571.856 162.667C571.856 170.115 568.239 176.721 562.66 180.835C558.531 186.395 551.903 190 544.43 190Z" fill="#EDEDED"/>
<path fill-rule="evenodd" clip-rule="evenodd" d="M507.972 190C515.445 190 522.073 186.395 526.202 180.835C522.073 175.274 515.445 171.669 507.972 171.669C502.929 171.669 498.272 173.311 494.507 176.088C497.293 172.336 498.94 167.693 498.94 162.667C498.94 155.22 495.322 148.614 489.744 144.5C484.164 148.614 480.547 155.22 480.547 162.667C480.547 170.115 484.164 176.721 489.744 180.835C493.871 186.395 500.499 190 507.972 190Z" fill="#EDEDED"/>
<path fill-rule="evenodd" clip-rule="evenodd" d="M639.74 99C632.267 99 625.639 102.605 621.511 108.165C625.639 113.726 632.267 117.331 639.74 117.331C644.783 117.331 649.441 115.689 653.206 112.912C650.42 116.664 648.773 121.307 648.773 126.333C648.773 133.781 652.39 140.386 657.969 144.5C663.548 140.386 667.166 133.781 667.166 126.333C667.166 118.885 663.548 112.279 657.969 108.165C653.841 102.605 647.213 99 639.74 99Z" fill="#EDEDED"/>
<path fill-rule="evenodd" clip-rule="evenodd" d="M603.282 99C610.755 99 617.383 102.605 621.511 108.165C617.383 113.726 610.755 117.331 603.282 117.331C598.239 117.331 593.581 115.689 589.816 112.912C592.602 116.664 594.249 121.307 594.249 126.333C594.249 133.781 590.632 140.386 585.053 144.5C579.473 140.386 575.856 133.781 575.856 126.333C575.856 118.885 579.473 112.279 585.053 108.165C589.181 102.605 595.809 99 603.282 99Z" fill="#EDEDED"/>
<path fill-rule="evenodd" clip-rule="evenodd" d="M639.74 190C632.267 190 625.639 186.395 621.511 180.835C625.639 175.274 632.267 171.669 639.74 171.669C644.783 171.669 649.441 173.311 653.206 176.088C650.42 172.336 648.773 167.693 648.773 162.667C648.773 155.22 652.39 148.614 657.969 144.5C663.548 148.614 667.166 155.22 667.166 162.667C667.166 170.115 663.548 176.721 657.969 180.835C653.841 186.395 647.213 190 639.74 190Z" fill="#EDEDED"/>
<path fill-rule="evenodd" clip-rule="evenodd" d="M603.282 190C610.755 190 617.383 186.395 621.511 180.835C617.383 175.274 610.755 171.669 603.282 171.669C598.239 171.669 593.581 173.311 589.816 176.088C592.602 172.336 594.249 167.693 594.249 162.667C594.249 155.22 590.632 148.614 585.053 144.5C579.473 148.614 575.856 155.22 575.856 162.667C575.856 170.115 579.473 176.721 585.053 180.835C589.181 186.395 595.809 190 603.282 190Z" fill="#EDEDED"/>
<path fill-rule="evenodd" clip-rule="evenodd" d="M735.049 99C727.576 99 720.948 102.605 716.82 108.165C720.948 113.726 727.576 117.331 735.049 117.331C740.092 117.331 744.751 115.689 748.516 112.912C745.73 116.664 744.082 121.307 744.082 126.333C744.082 133.781 747.699 140.386 753.278 144.5C758.858 140.386 762.475 133.781 762.475 126.333C762.475 118.885 758.858 112.279 753.278 108.165C749.15 102.605 742.522 99 735.049 99Z" fill="#EDEDED"/>
<path fill-rule="evenodd" clip-rule="evenodd" d="M698.591 99C706.064 99 712.692 102.605 716.82 108.165C712.692 113.726 706.064 117.331 698.591 117.331C693.548 117.331 688.89 115.689 685.125 112.912C687.911 116.664 689.559 121.307 689.559 126.333C689.559 133.781 685.941 140.386 680.363 144.5C674.783 140.386 671.166 133.781 671.166 126.333C671.166 118.885 674.783 112.279 680.363 108.165C684.49 102.605 691.118 99 698.591 99Z" fill="#EDEDED"/>
<path fill-rule="evenodd" clip-rule="evenodd" d="M735.049 190C727.576 190 720.948 186.395 716.82 180.835C720.948 175.274 727.576 171.669 735.049 171.669C740.092 171.669 744.751 173.311 748.516 176.088C745.73 172.336 744.082 167.693 744.082 162.667C744.082 155.22 747.699 148.614 753.278 144.5C758.858 148.614 762.475 155.22 762.475 162.667C762.475 170.115 758.858 176.721 753.278 180.835C749.15 186.395 742.522 190 735.049 190Z" fill="#EDEDED"/>
<path fill-rule="evenodd" clip-rule="evenodd" d="M698.591 190C706.064 190 712.692 186.395 716.82 180.835C712.692 175.274 706.064 171.669 698.591 171.669C693.548 171.669 688.89 173.311 685.125 176.088C687.911 172.336 689.559 167.693 689.559 162.667C689.559 155.22 685.941 148.614 680.363 144.5C674.783 148.614 671.166 155.22 671.166 162.667C671.166 170.115 674.783 176.721 680.363 180.835C684.49 186.395 691.118 190 698.591 190Z" fill="#EDEDED"/>
<path fill-rule="evenodd" clip-rule="evenodd" d="M830.358 99C822.885 99 816.257 102.605 812.13 108.165C816.257 113.726 822.885 117.331 830.358 117.331C835.401 117.331 840.06 115.689 843.825 112.912C841.039 116.664 839.391 121.307 839.391 126.333C839.391 133.781 843.008 140.386 848.588 144.5C854.167 140.386 857.784 133.781 857.784 126.333C857.784 118.885 854.167 112.279 848.588 108.165C844.459 102.605 837.831 99 830.358 99Z" fill="#EDEDED"/>
<path fill-rule="evenodd" clip-rule="evenodd" d="M793.901 99C801.373 99 808.001 102.605 812.13 108.165C808.001 113.726 801.373 117.331 793.901 117.331C788.858 117.331 784.2 115.689 780.435 112.912C783.221 116.664 784.868 121.307 784.868 126.333C784.868 133.781 781.251 140.386 775.672 144.5C770.092 140.386 766.475 133.781 766.475 126.333C766.475 118.885 770.092 112.279 775.672 108.165C779.8 102.605 786.428 99 793.901 99Z" fill="#EDEDED"/>
<path fill-rule="evenodd" clip-rule="evenodd" d="M830.358 190C822.885 190 816.257 186.395 812.13 180.835C816.257 175.274 822.885 171.669 830.358 171.669C835.401 171.669 840.06 173.311 843.825 176.088C841.039 172.336 839.391 167.693 839.391 162.667C839.391 155.22 843.008 148.614 848.588 144.5C854.167 148.614 857.784 155.22 857.784 162.667C857.784 170.115 854.167 176.721 848.588 180.835C844.459 186.395 837.831 190 830.358 190Z" fill="#EDEDED"/>
<path fill-rule="evenodd" clip-rule="evenodd" d="M793.901 190C801.373 190 808.001 186.395 812.13 180.835C808.001 175.274 801.373 171.669 793.901 171.669C788.858 171.669 784.2 173.311 780.435 176.088C783.221 172.336 784.868 167.693 784.868 162.667C784.868 155.22 781.251 148.614 775.672 144.5C770.092 148.614 766.475 155.22 766.475 162.667C766.475 170.115 770.092 176.721 775.672 180.835C779.8 186.395 786.428 190 793.901 190Z" fill="#EDEDED"/>
<path fill-rule="evenodd" clip-rule="evenodd" d="M925.668 99C918.195 99 911.567 102.605 907.439 108.165C911.567 113.726 918.195 117.331 925.668 117.331C930.711 117.331 935.369 115.689 939.134 112.912C936.348 116.664 934.701 121.307 934.701 126.333C934.701 133.781 938.318 140.386 943.897 144.5C949.476 140.386 953.094 133.781 953.094 126.333C953.094 118.885 949.476 112.279 943.897 108.165C939.769 102.605 933.141 99 925.668 99Z" fill="#EDEDED"/>
<path fill-rule="evenodd" clip-rule="evenodd" d="M889.21 99C896.683 99 903.311 102.605 907.439 108.165C903.311 113.726 896.683 117.331 889.21 117.331C884.167 117.331 879.509 115.689 875.744 112.912C878.53 116.664 880.177 121.307 880.177 126.333C880.177 133.781 876.56 140.386 870.981 144.5C865.401 140.386 861.784 133.781 861.784 126.333C861.784 118.885 865.401 112.279 870.981 108.165C875.109 102.605 881.737 99 889.21 99Z" fill="#EDEDED"/>
<path fill-rule="evenodd" clip-rule="evenodd" d="M925.668 190C918.195 190 911.567 186.395 907.439 180.835C911.567 175.274 918.195 171.669 925.668 171.669C930.711 171.669 935.369 173.311 939.134 176.088C936.348 172.336 934.701 167.693 934.701 162.667C934.701 155.22 938.318 148.614 943.897 144.5C949.476 148.614 953.094 155.22 953.094 162.667C953.094 170.115 949.476 176.721 943.897 180.835C939.769 186.395 933.141 190 925.668 190Z" fill="#EDEDED"/>
<path fill-rule="evenodd" clip-rule="evenodd" d="M889.21 190C896.683 190 903.311 186.395 907.439 180.835C903.311 175.274 896.683 171.669 889.21 171.669C884.167 171.669 879.509 173.311 875.744 176.088C878.53 172.336 880.177 167.693 880.177 162.667C880.177 155.22 876.56 148.614 870.981 144.5C865.401 148.614 861.784 155.22 861.784 162.667C861.784 170.115 865.401 176.721 870.981 180.835C875.109 186.395 881.737 190 889.21 190Z" fill="#EDEDED"/>
<path fill-rule="evenodd" clip-rule="evenodd" d="M1020.98 99C1013.5 99 1006.88 102.605 1002.75 108.165C1006.88 113.726 1013.5 117.331 1020.98 117.331C1026.02 117.331 1030.68 115.689 1034.44 112.912C1031.66 116.664 1030.01 121.307 1030.01 126.333C1030.01 133.781 1033.63 140.386 1039.21 144.5C1044.79 140.386 1048.4 133.781 1048.4 126.333C1048.4 118.885 1044.79 112.279 1039.21 108.165C1035.08 102.605 1028.45 99 1020.98 99Z" fill="#EDEDED"/>
<path fill-rule="evenodd" clip-rule="evenodd" d="M984.519 99C991.992 99 998.62 102.605 1002.75 108.165C998.62 113.726 991.992 117.331 984.519 117.331C979.476 117.331 974.818 115.689 971.053 112.912C973.839 116.664 975.487 121.307 975.487 126.333C975.487 133.781 971.869 140.386 966.291 144.5C960.711 140.386 957.094 133.781 957.094 126.333C957.094 118.885 960.711 112.279 966.291 108.165C970.418 102.605 977.046 99 984.519 99Z" fill="#EDEDED"/>
<path fill-rule="evenodd" clip-rule="evenodd" d="M1020.98 190C1013.5 190 1006.88 186.395 1002.75 180.835C1006.88 175.274 1013.5 171.669 1020.98 171.669C1026.02 171.669 1030.68 173.311 1034.44 176.088C1031.66 172.336 1030.01 167.693 1030.01 162.667C1030.01 155.22 1033.63 148.614 1039.21 144.5C1044.79 148.614 1048.4 155.22 1048.4 162.667C1048.4 170.115 1044.79 176.721 1039.21 180.835C1035.08 186.395 1028.45 190 1020.98 190Z" fill="#EDEDED"/>
<path fill-rule="evenodd" clip-rule="evenodd" d="M984.519 190C991.992 190 998.62 186.395 1002.75 180.835C998.62 175.274 991.992 171.669 984.519 171.669C979.476 171.669 974.818 173.311 971.053 176.088C973.839 172.336 975.487 167.693 975.487 162.667C975.487 155.22 971.869 148.614 966.291 144.5C960.711 148.614 957.094 155.22 957.094 162.667C957.094 170.115 960.711 176.721 966.291 180.835C970.418 186.395 977.046 190 984.519 190Z" fill="#EDEDED"/>
<path fill-rule="evenodd" clip-rule="evenodd" d="M1116.29 99C1108.81 99 1102.19 102.605 1098.06 108.165C1102.19 113.726 1108.81 117.331 1116.29 117.331C1121.33 117.331 1125.99 115.689 1129.75 112.912C1126.97 116.664 1125.32 121.307 1125.32 126.333C1125.32 133.781 1128.94 140.386 1134.52 144.5C1140.1 140.386 1143.71 133.781 1143.71 126.333C1143.71 118.885 1140.1 112.279 1134.52 108.165C1130.39 102.605 1123.76 99 1116.29 99Z" fill="#EDEDED"/>
<path fill-rule="evenodd" clip-rule="evenodd" d="M1079.83 99C1087.3 99 1093.93 102.605 1098.06 108.165C1093.93 113.726 1087.3 117.331 1079.83 117.331C1074.79 117.331 1070.13 115.689 1066.36 112.912C1069.15 116.664 1070.8 121.307 1070.8 126.333C1070.8 133.781 1067.18 140.386 1061.6 144.5C1056.02 140.386 1052.4 133.781 1052.4 126.333C1052.4 118.885 1056.02 112.279 1061.6 108.165C1065.73 102.605 1072.36 99 1079.83 99Z" fill="#EDEDED"/>
<path fill-rule="evenodd" clip-rule="evenodd" d="M1116.29 190C1108.81 190 1102.19 186.395 1098.06 180.835C1102.19 175.274 1108.81 171.669 1116.29 171.669C1121.33 171.669 1125.99 173.311 1129.75 176.088C1126.97 172.336 1125.32 167.693 1125.32 162.667C1125.32 155.22 1128.94 148.614 1134.52 144.5C1140.1 148.614 1143.71 155.22 1143.71 162.667C1143.71 170.115 1140.1 176.721 1134.52 180.835C1130.39 186.395 1123.76 190 1116.29 190Z" fill="#EDEDED"/>
<path fill-rule="evenodd" clip-rule="evenodd" d="M1079.83 190C1087.3 190 1093.93 186.395 1098.06 180.835C1093.93 175.274 1087.3 171.669 1079.83 171.669C1074.79 171.669 1070.13 173.311 1066.36 176.088C1069.15 172.336 1070.8 167.693 1070.8 162.667C1070.8 155.22 1067.18 148.614 1061.6 144.5C1056.02 148.614 1052.4 155.22 1052.4 162.667C1052.4 170.115 1056.02 176.721 1061.6 180.835C1065.73 186.395 1072.36 190 1079.83 190Z" fill="#EDEDED"/>
<path fill-rule="evenodd" clip-rule="evenodd" d="M1211.6 99C1204.12 99 1197.5 102.605 1193.37 108.165C1197.5 113.726 1204.12 117.331 1211.6 117.331C1216.64 117.331 1221.3 115.689 1225.06 112.912C1222.28 116.664 1220.63 121.307 1220.63 126.333C1220.63 133.781 1224.25 140.386 1229.83 144.5C1235.4 140.386 1239.02 133.781 1239.02 126.333C1239.02 118.885 1235.4 112.279 1229.83 108.165C1225.7 102.605 1219.07 99 1211.6 99Z" fill="#EDEDED"/>
<path fill-rule="evenodd" clip-rule="evenodd" d="M1175.14 99C1182.61 99 1189.24 102.605 1193.37 108.165C1189.24 113.726 1182.61 117.331 1175.14 117.331C1170.1 117.331 1165.44 115.689 1161.67 112.912C1164.46 116.664 1166.11 121.307 1166.11 126.333C1166.11 133.781 1162.49 140.386 1156.91 144.5C1151.33 140.386 1147.71 133.781 1147.71 126.333C1147.71 118.885 1151.33 112.279 1156.91 108.165C1161.04 102.605 1167.67 99 1175.14 99Z" fill="#EDEDED"/>
<path fill-rule="evenodd" clip-rule="evenodd" d="M1211.6 190C1204.12 190 1197.5 186.395 1193.37 180.835C1197.5 175.274 1204.12 171.669 1211.6 171.669C1216.64 171.669 1221.3 173.311 1225.06 176.088C1222.28 172.336 1220.63 167.693 1220.63 162.667C1220.63 155.22 1224.25 148.614 1229.83 144.5C1235.4 148.614 1239.02 155.22 1239.02 162.667C1239.02 170.115 1235.4 176.721 1229.83 180.835C1225.7 186.395 1219.07 190 1211.6 190Z" fill="#EDEDED"/>
<path fill-rule="evenodd" clip-rule="evenodd" d="M1175.14 190C1182.61 190 1189.24 186.395 1193.37 180.835C1189.24 175.274 1182.61 171.669 1175.14 171.669C1170.1 171.669 1165.44 173.311 1161.67 176.088C1164.46 172.336 1166.11 167.693 1166.11 162.667C1166.11 155.22 1162.49 148.614 1156.91 144.5C1151.33 148.614 1147.71 155.22 1147.71 162.667C1147.71 170.115 1151.33 176.721 1156.91 180.835C1161.04 186.395 1167.67 190 1175.14 190Z" fill="#EDEDED"/>
<path fill-rule="evenodd" clip-rule="evenodd" d="M1306.91 99C1299.43 99 1292.8 102.605 1288.68 108.165C1292.8 113.726 1299.43 117.331 1306.91 117.331C1311.95 117.331 1316.61 115.689 1320.37 112.912C1317.59 116.664 1315.94 121.307 1315.94 126.333C1315.94 133.781 1319.56 140.386 1325.13 144.5C1330.71 140.386 1334.33 133.781 1334.33 126.333C1334.33 118.885 1330.71 112.279 1325.13 108.165C1321.01 102.605 1314.38 99 1306.91 99Z" fill="#EDEDED"/>
<path fill-rule="evenodd" clip-rule="evenodd" d="M1270.45 99C1277.92 99 1284.55 102.605 1288.68 108.165C1284.55 113.726 1277.92 117.331 1270.45 117.331C1265.4 117.331 1260.75 115.689 1256.98 112.912C1259.77 116.664 1261.41 121.307 1261.41 126.333C1261.41 133.781 1257.8 140.386 1252.22 144.5C1246.64 140.386 1243.02 133.781 1243.02 126.333C1243.02 118.885 1246.64 112.279 1252.22 108.165C1256.35 102.605 1262.97 99 1270.45 99Z" fill="#EDEDED"/>
<path fill-rule="evenodd" clip-rule="evenodd" d="M1306.91 190C1299.43 190 1292.8 186.395 1288.68 180.835C1292.8 175.274 1299.43 171.669 1306.91 171.669C1311.95 171.669 1316.61 173.311 1320.37 176.088C1317.59 172.336 1315.94 167.693 1315.94 162.667C1315.94 155.22 1319.56 148.614 1325.13 144.5C1330.71 148.614 1334.33 155.22 1334.33 162.667C1334.33 170.115 1330.71 176.721 1325.13 180.835C1321.01 186.395 1314.38 190 1306.91 190Z" fill="#EDEDED"/>
<path fill-rule="evenodd" clip-rule="evenodd" d="M1270.45 190C1277.92 190 1284.55 186.395 1288.68 180.835C1284.55 175.274 1277.92 171.669 1270.45 171.669C1265.4 171.669 1260.75 173.311 1256.98 176.088C1259.77 172.336 1261.41 167.693 1261.41 162.667C1261.41 155.22 1257.8 148.614 1252.22 144.5C1246.64 148.614 1243.02 155.22 1243.02 162.667C1243.02 170.115 1246.64 176.721 1252.22 180.835C1256.35 186.395 1262.97 190 1270.45 190Z" fill="#EDEDED"/>
<path fill-rule="evenodd" clip-rule="evenodd" d="M1402.21 99C1394.74 99 1388.11 102.605 1383.99 108.165C1388.11 113.726 1394.74 117.331 1402.21 117.331C1407.26 117.331 1411.92 115.689 1415.68 112.912C1412.9 116.664 1411.25 121.307 1411.25 126.333C1411.25 133.781 1414.86 140.386 1420.44 144.5C1426.02 140.386 1429.64 133.781 1429.64 126.333C1429.64 118.885 1426.02 112.279 1420.44 108.165C1416.32 102.605 1409.69 99 1402.21 99Z" fill="#EDEDED"/>
<path fill-rule="evenodd" clip-rule="evenodd" d="M1365.76 99C1373.23 99 1379.86 102.605 1383.99 108.165C1379.86 113.726 1373.23 117.331 1365.76 117.331C1360.71 117.331 1356.06 115.689 1352.29 112.912C1355.08 116.664 1356.72 121.307 1356.72 126.333C1356.72 133.781 1353.11 140.386 1347.53 144.5C1341.95 140.386 1338.33 133.781 1338.33 126.333C1338.33 118.885 1341.95 112.279 1347.53 108.165C1351.66 102.605 1358.28 99 1365.76 99Z" fill="#EDEDED"/>
<path fill-rule="evenodd" clip-rule="evenodd" d="M1402.21 190C1394.74 190 1388.11 186.395 1383.99 180.835C1388.11 175.274 1394.74 171.669 1402.21 171.669C1407.26 171.669 1411.92 173.311 1415.68 176.088C1412.9 172.336 1411.25 167.693 1411.25 162.667C1411.25 155.22 1414.86 148.614 1420.44 144.5C1426.02 148.614 1429.64 155.22 1429.64 162.667C1429.64 170.115 1426.02 176.721 1420.44 180.835C1416.32 186.395 1409.69 190 1402.21 190Z" fill="#EDEDED"/>
<path fill-rule="evenodd" clip-rule="evenodd" d="M1365.76 190C1373.23 190 1379.86 186.395 1383.99 180.835C1379.86 175.274 1373.23 171.669 1365.76 171.669C1360.71 171.669 1356.06 173.311 1352.29 176.088C1355.08 172.336 1356.72 167.693 1356.72 162.667C1356.72 155.22 1353.11 148.614 1347.53 144.5C1341.95 148.614 1338.33 155.22 1338.33 162.667C1338.33 170.115 1341.95 176.721 1347.53 180.835C1351.66 186.395 1358.28 190 1365.76 190Z" fill="#EDEDED"/>
<path fill-rule="evenodd" clip-rule="evenodd" d="M67.8834 194C60.4104 194 53.7824 197.605 49.6547 203.165C53.7824 208.726 60.4104 212.331 67.8834 212.331C72.9264 212.331 77.5848 210.689 81.3498 207.912C78.5639 211.664 76.9164 216.307 76.9164 221.333C76.9164 228.781 80.5334 235.386 86.1126 239.5C91.6918 235.386 95.3094 228.781 95.3094 221.333C95.3094 213.885 91.6918 207.279 86.1126 203.165C81.9843 197.605 75.3563 194 67.8834 194Z" fill="#EDEDED"/>
<path fill-rule="evenodd" clip-rule="evenodd" d="M31.4255 194C38.8984 194 45.5264 197.605 49.6547 203.165C45.5264 208.726 38.8984 212.331 31.4255 212.331C26.3824 212.331 21.7246 210.689 17.9596 207.912C20.7456 211.664 22.393 216.307 22.393 221.333C22.393 228.781 18.7754 235.386 13.1968 239.5C7.61698 235.386 4 228.781 4 221.333C4 213.885 7.61698 207.279 13.1968 203.165C17.3245 197.605 23.9525 194 31.4255 194Z" fill="#EDEDED"/>
<path fill-rule="evenodd" clip-rule="evenodd" d="M67.8834 285C60.4104 285 53.7824 281.395 49.6547 275.835C53.7824 270.274 60.4104 266.669 67.8834 266.669C72.9264 266.669 77.5848 268.311 81.3498 271.088C78.5639 267.336 76.9164 262.693 76.9164 257.667C76.9164 250.22 80.5334 243.614 86.1126 239.5C91.6918 243.614 95.3094 250.22 95.3094 257.667C95.3094 265.115 91.6918 271.721 86.1126 275.835C81.9843 281.395 75.3563 285 67.8834 285Z" fill="#EDEDED"/>
<path fill-rule="evenodd" clip-rule="evenodd" d="M31.4255 285C38.8984 285 45.5264 281.395 49.6547 275.835C45.5264 270.274 38.8984 266.669 31.4255 266.669C26.3824 266.669 21.7246 268.311 17.9596 271.088C20.7456 267.336 22.393 262.693 22.393 257.667C22.393 250.22 18.7754 243.614 13.1968 239.5C7.61698 243.614 4 250.22 4 257.667C4 265.115 7.61698 271.721 13.1968 275.835C17.3245 281.395 23.9525 285 31.4255 285Z" fill="#EDEDED"/>
<path fill-rule="evenodd" clip-rule="evenodd" d="M163.193 194C155.72 194 149.092 197.605 144.964 203.165C149.092 208.726 155.72 212.331 163.193 212.331C168.236 212.331 172.894 210.689 176.659 207.912C173.873 211.664 172.226 216.307 172.226 221.333C172.226 228.781 175.843 235.386 181.422 239.5C187.001 235.386 190.619 228.781 190.619 221.333C190.619 213.885 187.001 207.279 181.422 203.165C177.294 197.605 170.666 194 163.193 194Z" fill="#EDEDED"/>
<path fill-rule="evenodd" clip-rule="evenodd" d="M126.735 194C134.208 194 140.836 197.605 144.964 203.165C140.836 208.726 134.208 212.331 126.735 212.331C121.692 212.331 117.034 210.689 113.269 207.912C116.055 211.664 117.702 216.307 117.702 221.333C117.702 228.781 114.085 235.386 108.506 239.5C102.926 235.386 99.3093 228.781 99.3093 221.333C99.3093 213.885 102.926 207.279 108.506 203.165C112.634 197.605 119.262 194 126.735 194Z" fill="#EDEDED"/>
<path fill-rule="evenodd" clip-rule="evenodd" d="M163.193 285C155.72 285 149.092 281.395 144.964 275.835C149.092 270.274 155.72 266.669 163.193 266.669C168.236 266.669 172.894 268.311 176.659 271.088C173.873 267.336 172.226 262.693 172.226 257.667C172.226 250.22 175.843 243.614 181.422 239.5C187.001 243.614 190.619 250.22 190.619 257.667C190.619 265.115 187.001 271.721 181.422 275.835C177.294 281.395 170.666 285 163.193 285Z" fill="#EDEDED"/>
<path fill-rule="evenodd" clip-rule="evenodd" d="M126.735 285C134.208 285 140.836 281.395 144.964 275.835C140.836 270.274 134.208 266.669 126.735 266.669C121.692 266.669 117.034 268.311 113.269 271.088C116.055 267.336 117.702 262.693 117.702 257.667C117.702 250.22 114.085 243.614 108.506 239.5C102.926 243.614 99.3093 250.22 99.3093 257.667C99.3093 265.115 102.926 271.721 108.506 275.835C112.634 281.395 119.262 285 126.735 285Z" fill="#EDEDED"/>
<path fill-rule="evenodd" clip-rule="evenodd" d="M258.502 194C251.029 194 244.401 197.605 240.273 203.165C244.401 208.726 251.029 212.331 258.502 212.331C263.545 212.331 268.204 210.689 271.969 207.912C269.183 211.664 267.535 216.307 267.535 221.333C267.535 228.781 271.152 235.386 276.731 239.5C282.311 235.386 285.928 228.781 285.928 221.333C285.928 213.885 282.311 207.279 276.731 203.165C272.603 197.605 265.975 194 258.502 194Z" fill="#EDEDED"/>
<path fill-rule="evenodd" clip-rule="evenodd" d="M222.044 194C229.517 194 236.145 197.605 240.273 203.165C236.145 208.726 229.517 212.331 222.044 212.331C217.001 212.331 212.343 210.689 208.578 207.912C211.364 211.664 213.012 216.307 213.012 221.333C213.012 228.781 209.394 235.386 203.816 239.5C198.236 235.386 194.619 228.781 194.619 221.333C194.619 213.885 198.236 207.279 203.816 203.165C207.943 197.605 214.571 194 222.044 194Z" fill="#EDEDED"/>
<path fill-rule="evenodd" clip-rule="evenodd" d="M258.502 285C251.029 285 244.401 281.395 240.273 275.835C244.401 270.274 251.029 266.669 258.502 266.669C263.545 266.669 268.204 268.311 271.969 271.088C269.183 267.336 267.535 262.693 267.535 257.667C267.535 250.22 271.152 243.614 276.731 239.5C282.311 243.614 285.928 250.22 285.928 257.667C285.928 265.115 282.311 271.721 276.731 275.835C272.603 281.395 265.975 285 258.502 285Z" fill="#EDEDED"/>
<path fill-rule="evenodd" clip-rule="evenodd" d="M222.044 285C229.517 285 236.145 281.395 240.273 275.835C236.145 270.274 229.517 266.669 222.044 266.669C217.001 266.669 212.343 268.311 208.578 271.088C211.364 267.336 213.012 262.693 213.012 257.667C213.012 250.22 209.394 243.614 203.816 239.5C198.236 243.614 194.619 250.22 194.619 257.667C194.619 265.115 198.236 271.721 203.816 275.835C207.943 281.395 214.571 285 222.044 285Z" fill="#EDEDED"/>
<path fill-rule="evenodd" clip-rule="evenodd" d="M353.812 194C346.339 194 339.711 197.605 335.583 203.165C339.711 208.726 346.339 212.331 353.812 212.331C358.855 212.331 363.513 210.689 367.278 207.912C364.492 211.664 362.845 216.307 362.845 221.333C362.845 228.781 366.462 235.386 372.041 239.5C377.62 235.386 381.238 228.781 381.238 221.333C381.238 213.885 377.62 207.279 372.041 203.165C367.912 197.605 361.284 194 353.812 194Z" fill="#EDEDED"/>
<path fill-rule="evenodd" clip-rule="evenodd" d="M317.354 194C324.827 194 331.455 197.605 335.583 203.165C331.455 208.726 324.827 212.331 317.354 212.331C312.311 212.331 307.653 210.689 303.888 207.912C306.674 211.664 308.321 216.307 308.321 221.333C308.321 228.781 304.704 235.386 299.125 239.5C293.545 235.386 289.928 228.781 289.928 221.333C289.928 213.885 293.545 207.279 299.125 203.165C303.253 197.605 309.881 194 317.354 194Z" fill="#EDEDED"/>
<path fill-rule="evenodd" clip-rule="evenodd" d="M353.812 285C346.339 285 339.711 281.395 335.583 275.835C339.711 270.274 346.339 266.669 353.812 266.669C358.855 266.669 363.513 268.311 367.278 271.088C364.492 267.336 362.845 262.693 362.845 257.667C362.845 250.22 366.462 243.614 372.041 239.5C377.62 243.614 381.238 250.22 381.238 257.667C381.238 265.115 377.62 271.721 372.041 275.835C367.912 281.395 361.284 285 353.812 285Z" fill="#EDEDED"/>
<path fill-rule="evenodd" clip-rule="evenodd" d="M317.354 285C324.827 285 331.455 281.395 335.583 275.835C331.455 270.274 324.827 266.669 317.354 266.669C312.311 266.669 307.653 268.311 303.888 271.088C306.674 267.336 308.321 262.693 308.321 257.667C308.321 250.22 304.704 243.614 299.125 239.5C293.545 243.614 289.928 250.22 289.928 257.667C289.928 265.115 293.545 271.721 299.125 275.835C303.253 281.395 309.881 285 317.354 285Z" fill="#EDEDED"/>
<path fill-rule="evenodd" clip-rule="evenodd" d="M449.121 194C441.648 194 435.02 197.605 430.892 203.165C435.02 208.726 441.648 212.331 449.121 212.331C454.164 212.331 458.822 210.689 462.587 207.912C459.801 211.664 458.154 216.307 458.154 221.333C458.154 228.781 461.771 235.386 467.35 239.5C472.929 235.386 476.547 228.781 476.547 221.333C476.547 213.885 472.929 207.279 467.35 203.165C463.222 197.605 456.594 194 449.121 194Z" fill="#EDEDED"/>
<path fill-rule="evenodd" clip-rule="evenodd" d="M412.663 194C420.136 194 426.764 197.605 430.892 203.165C426.764 208.726 420.136 212.331 412.663 212.331C407.62 212.331 402.962 210.689 399.197 207.912C401.983 211.664 403.631 216.307 403.631 221.333C403.631 228.781 400.013 235.386 394.434 239.5C388.855 235.386 385.238 228.781 385.238 221.333C385.238 213.885 388.855 207.279 394.434 203.165C398.562 197.605 405.19 194 412.663 194Z" fill="#EDEDED"/>
<path fill-rule="evenodd" clip-rule="evenodd" d="M449.121 285C441.648 285 435.02 281.395 430.892 275.835C435.02 270.274 441.648 266.669 449.121 266.669C454.164 266.669 458.822 268.311 462.587 271.088C459.801 267.336 458.154 262.693 458.154 257.667C458.154 250.22 461.771 243.614 467.35 239.5C472.929 243.614 476.547 250.22 476.547 257.667C476.547 265.115 472.929 271.721 467.35 275.835C463.222 281.395 456.594 285 449.121 285Z" fill="#EDEDED"/>
<path fill-rule="evenodd" clip-rule="evenodd" d="M412.663 285C420.136 285 426.764 281.395 430.892 275.835C426.764 270.274 420.136 266.669 412.663 266.669C407.62 266.669 402.962 268.311 399.197 271.088C401.983 267.336 403.631 262.693 403.631 257.667C403.631 250.22 400.013 243.614 394.434 239.5C388.855 243.614 385.238 250.22 385.238 257.667C385.238 265.115 388.855 271.721 394.434 275.835C398.562 281.395 405.19 285 412.663 285Z" fill="#EDEDED"/>
<path fill-rule="evenodd" clip-rule="evenodd" d="M544.43 194C536.957 194 530.329 197.605 526.202 203.165C530.329 208.726 536.957 212.331 544.43 212.331C549.473 212.331 554.132 210.689 557.897 207.912C555.111 211.664 553.463 216.307 553.463 221.333C553.463 228.781 557.08 235.386 562.66 239.5C568.239 235.386 571.856 228.781 571.856 221.333C571.856 213.885 568.239 207.279 562.66 203.165C558.531 197.605 551.903 194 544.43 194Z" fill="#EDEDED"/>
<path fill-rule="evenodd" clip-rule="evenodd" d="M507.972 194C515.445 194 522.073 197.605 526.202 203.165C522.073 208.726 515.445 212.331 507.972 212.331C502.929 212.331 498.272 210.689 494.507 207.912C497.293 211.664 498.94 216.307 498.94 221.333C498.94 228.781 495.322 235.386 489.744 239.5C484.164 235.386 480.547 228.781 480.547 221.333C480.547 213.885 484.164 207.279 489.744 203.165C493.871 197.605 500.499 194 507.972 194Z" fill="#EDEDED"/>
<path fill-rule="evenodd" clip-rule="evenodd" d="M544.43 285C536.957 285 530.329 281.395 526.202 275.835C530.329 270.274 536.957 266.669 544.43 266.669C549.473 266.669 554.132 268.311 557.897 271.088C555.111 267.336 553.463 262.693 553.463 257.667C553.463 250.22 557.08 243.614 562.66 239.5C568.239 243.614 571.856 250.22 571.856 257.667C571.856 265.115 568.239 271.721 562.66 275.835C558.531 281.395 551.903 285 544.43 285Z" fill="#EDEDED"/>
<path fill-rule="evenodd" clip-rule="evenodd" d="M507.972 285C515.445 285 522.073 281.395 526.202 275.835C522.073 270.274 515.445 266.669 507.972 266.669C502.929 266.669 498.272 268.311 494.507 271.088C497.293 267.336 498.94 262.693 498.94 257.667C498.94 250.22 495.322 243.614 489.744 239.5C484.164 243.614 480.547 250.22 480.547 257.667C480.547 265.115 484.164 271.721 489.744 275.835C493.871 281.395 500.499 285 507.972 285Z" fill="#EDEDED"/>
<path fill-rule="evenodd" clip-rule="evenodd" d="M639.74 194C632.267 194 625.639 197.605 621.511 203.165C625.639 208.726 632.267 212.331 639.74 212.331C644.783 212.331 649.441 210.689 653.206 207.912C650.42 211.664 648.773 216.307 648.773 221.333C648.773 228.781 652.39 235.386 657.969 239.5C663.548 235.386 667.166 228.781 667.166 221.333C667.166 213.885 663.548 207.279 657.969 203.165C653.841 197.605 647.213 194 639.74 194Z" fill="#EDEDED"/>
<path fill-rule="evenodd" clip-rule="evenodd" d="M603.282 194C610.755 194 617.383 197.605 621.511 203.165C617.383 208.726 610.755 212.331 603.282 212.331C598.239 212.331 593.581 210.689 589.816 207.912C592.602 211.664 594.249 216.307 594.249 221.333C594.249 228.781 590.632 235.386 585.053 239.5C579.473 235.386 575.856 228.781 575.856 221.333C575.856 213.885 579.473 207.279 585.053 203.165C589.181 197.605 595.809 194 603.282 194Z" fill="#EDEDED"/>
<path fill-rule="evenodd" clip-rule="evenodd" d="M639.74 285C632.267 285 625.639 281.395 621.511 275.835C625.639 270.274 632.267 266.669 639.74 266.669C644.783 266.669 649.441 268.311 653.206 271.088C650.42 267.336 648.773 262.693 648.773 257.667C648.773 250.22 652.39 243.614 657.969 239.5C663.548 243.614 667.166 250.22 667.166 257.667C667.166 265.115 663.548 271.721 657.969 275.835C653.841 281.395 647.213 285 639.74 285Z" fill="#EDEDED"/>
<path fill-rule="evenodd" clip-rule="evenodd" d="M603.282 285C610.755 285 617.383 281.395 621.511 275.835C617.383 270.274 610.755 266.669 603.282 266.669C598.239 266.669 593.581 268.311 589.816 271.088C592.602 267.336 594.249 262.693 594.249 257.667C594.249 250.22 590.632 243.614 585.053 239.5C579.473 243.614 575.856 250.22 575.856 257.667C575.856 265.115 579.473 271.721 585.053 275.835C589.181 281.395 595.809 285 603.282 285Z" fill="#EDEDED"/>
<path fill-rule="evenodd" clip-rule="evenodd" d="M735.049 194C727.576 194 720.948 197.605 716.82 203.165C720.948 208.726 727.576 212.331 735.049 212.331C740.092 212.331 744.751 210.689 748.516 207.912C745.73 211.664 744.082 216.307 744.082 221.333C744.082 228.781 747.699 235.386 753.278 239.5C758.858 235.386 762.475 228.781 762.475 221.333C762.475 213.885 758.858 207.279 753.278 203.165C749.15 197.605 742.522 194 735.049 194Z" fill="#EDEDED"/>
<path fill-rule="evenodd" clip-rule="evenodd" d="M698.591 194C706.064 194 712.692 197.605 716.82 203.165C712.692 208.726 706.064 212.331 698.591 212.331C693.548 212.331 688.89 210.689 685.125 207.912C687.911 211.664 689.559 216.307 689.559 221.333C689.559 228.781 685.941 235.386 680.363 239.5C674.783 235.386 671.166 228.781 671.166 221.333C671.166 213.885 674.783 207.279 680.363 203.165C684.49 197.605 691.118 194 698.591 194Z" fill="#EDEDED"/>
<path fill-rule="evenodd" clip-rule="evenodd" d="M735.049 285C727.576 285 720.948 281.395 716.82 275.835C720.948 270.274 727.576 266.669 735.049 266.669C740.092 266.669 744.751 268.311 748.516 271.088C745.73 267.336 744.082 262.693 744.082 257.667C744.082 250.22 747.699 243.614 753.278 239.5C758.858 243.614 762.475 250.22 762.475 257.667C762.475 265.115 758.858 271.721 753.278 275.835C749.15 281.395 742.522 285 735.049 285Z" fill="#EDEDED"/>
<path fill-rule="evenodd" clip-rule="evenodd" d="M698.591 285C706.064 285 712.692 281.395 716.82 275.835C712.692 270.274 706.064 266.669 698.591 266.669C693.548 266.669 688.89 268.311 685.125 271.088C687.911 267.336 689.559 262.693 689.559 257.667C689.559 250.22 685.941 243.614 680.363 239.5C674.783 243.614 671.166 250.22 671.166 257.667C671.166 265.115 674.783 271.721 680.363 275.835C684.49 281.395 691.118 285 698.591 285Z" fill="#EDEDED"/>
<path fill-rule="evenodd" clip-rule="evenodd" d="M830.358 194C822.885 194 816.257 197.605 812.13 203.165C816.257 208.726 822.885 212.331 830.358 212.331C835.401 212.331 840.06 210.689 843.825 207.912C841.039 211.664 839.391 216.307 839.391 221.333C839.391 228.781 843.008 235.386 848.588 239.5C854.167 235.386 857.784 228.781 857.784 221.333C857.784 213.885 854.167 207.279 848.588 203.165C844.459 197.605 837.831 194 830.358 194Z" fill="#EDEDED"/>
<path fill-rule="evenodd" clip-rule="evenodd" d="M793.901 194C801.373 194 808.001 197.605 812.13 203.165C808.001 208.726 801.373 212.331 793.901 212.331C788.858 212.331 784.2 210.689 780.435 207.912C783.221 211.664 784.868 216.307 784.868 221.333C784.868 228.781 781.251 235.386 775.672 239.5C770.092 235.386 766.475 228.781 766.475 221.333C766.475 213.885 770.092 207.279 775.672 203.165C779.8 197.605 786.428 194 793.901 194Z" fill="#EDEDED"/>
<path fill-rule="evenodd" clip-rule="evenodd" d="M830.358 285C822.885 285 816.257 281.395 812.13 275.835C816.257 270.274 822.885 266.669 830.358 266.669C835.401 266.669 840.06 268.311 843.825 271.088C841.039 267.336 839.391 262.693 839.391 257.667C839.391 250.22 843.008 243.614 848.588 239.5C854.167 243.614 857.784 250.22 857.784 257.667C857.784 265.115 854.167 271.721 848.588 275.835C844.459 281.395 837.831 285 830.358 285Z" fill="#EDEDED"/>
<path fill-rule="evenodd" clip-rule="evenodd" d="M793.901 285C801.373 285 808.001 281.395 812.13 275.835C808.001 270.274 801.373 266.669 793.901 266.669C788.858 266.669 784.2 268.311 780.435 271.088C783.221 267.336 784.868 262.693 784.868 257.667C784.868 250.22 781.251 243.614 775.672 239.5C770.092 243.614 766.475 250.22 766.475 257.667C766.475 265.115 770.092 271.721 775.672 275.835C779.8 281.395 786.428 285 793.901 285Z" fill="#EDEDED"/>
<path fill-rule="evenodd" clip-rule="evenodd" d="M925.668 194C918.195 194 911.567 197.605 907.439 203.165C911.567 208.726 918.195 212.331 925.668 212.331C930.711 212.331 935.369 210.689 939.134 207.912C936.348 211.664 934.701 216.307 934.701 221.333C934.701 228.781 938.318 235.386 943.897 239.5C949.476 235.386 953.094 228.781 953.094 221.333C953.094 213.885 949.476 207.279 943.897 203.165C939.769 197.605 933.141 194 925.668 194Z" fill="#EDEDED"/>
<path fill-rule="evenodd" clip-rule="evenodd" d="M889.21 194C896.683 194 903.311 197.605 907.439 203.165C903.311 208.726 896.683 212.331 889.21 212.331C884.167 212.331 879.509 210.689 875.744 207.912C878.53 211.664 880.177 216.307 880.177 221.333C880.177 228.781 876.56 235.386 870.981 239.5C865.401 235.386 861.784 228.781 861.784 221.333C861.784 213.885 865.401 207.279 870.981 203.165C875.109 197.605 881.737 194 889.21 194Z" fill="#EDEDED"/>
<path fill-rule="evenodd" clip-rule="evenodd" d="M925.668 285C918.195 285 911.567 281.395 907.439 275.835C911.567 270.274 918.195 266.669 925.668 266.669C930.711 266.669 935.369 268.311 939.134 271.088C936.348 267.336 934.701 262.693 934.701 257.667C934.701 250.22 938.318 243.614 943.897 239.5C949.476 243.614 953.094 250.22 953.094 257.667C953.094 265.115 949.476 271.721 943.897 275.835C939.769 281.395 933.141 285 925.668 285Z" fill="#EDEDED"/>
<path fill-rule="evenodd" clip-rule="evenodd" d="M889.21 285C896.683 285 903.311 281.395 907.439 275.835C903.311 270.274 896.683 266.669 889.21 266.669C884.167 266.669 879.509 268.311 875.744 271.088C878.53 267.336 880.177 262.693 880.177 257.667C880.177 250.22 876.56 243.614 870.981 239.5C865.401 243.614 861.784 250.22 861.784 257.667C861.784 265.115 865.401 271.721 870.981 275.835C875.109 281.395 881.737 285 889.21 285Z" fill="#EDEDED"/>
<path fill-rule="evenodd" clip-rule="evenodd" d="M1020.98 194C1013.5 194 1006.88 197.605 1002.75 203.165C1006.88 208.726 1013.5 212.331 1020.98 212.331C1026.02 212.331 1030.68 210.689 1034.44 207.912C1031.66 211.664 1030.01 216.307 1030.01 221.333C1030.01 228.781 1033.63 235.386 1039.21 239.5C1044.79 235.386 1048.4 228.781 1048.4 221.333C1048.4 213.885 1044.79 207.279 1039.21 203.165C1035.08 197.605 1028.45 194 1020.98 194Z" fill="#EDEDED"/>
<path fill-rule="evenodd" clip-rule="evenodd" d="M984.519 194C991.992 194 998.62 197.605 1002.75 203.165C998.62 208.726 991.992 212.331 984.519 212.331C979.476 212.331 974.818 210.689 971.053 207.912C973.839 211.664 975.487 216.307 975.487 221.333C975.487 228.781 971.869 235.386 966.291 239.5C960.711 235.386 957.094 228.781 957.094 221.333C957.094 213.885 960.711 207.279 966.291 203.165C970.418 197.605 977.046 194 984.519 194Z" fill="#EDEDED"/>
<path fill-rule="evenodd" clip-rule="evenodd" d="M1020.98 285C1013.5 285 1006.88 281.395 1002.75 275.835C1006.88 270.274 1013.5 266.669 1020.98 266.669C1026.02 266.669 1030.68 268.311 1034.44 271.088C1031.66 267.336 1030.01 262.693 1030.01 257.667C1030.01 250.22 1033.63 243.614 1039.21 239.5C1044.79 243.614 1048.4 250.22 1048.4 257.667C1048.4 265.115 1044.79 271.721 1039.21 275.835C1035.08 281.395 1028.45 285 1020.98 285Z" fill="#EDEDED"/>
<path fill-rule="evenodd" clip-rule="evenodd" d="M984.519 285C991.992 285 998.62 281.395 1002.75 275.835C998.62 270.274 991.992 266.669 984.519 266.669C979.476 266.669 974.818 268.311 971.053 271.088C973.839 267.336 975.487 262.693 975.487 257.667C975.487 250.22 971.869 243.614 966.291 239.5C960.711 243.614 957.094 250.22 957.094 257.667C957.094 265.115 960.711 271.721 966.291 275.835C970.418 281.395 977.046 285 984.519 285Z" fill="#EDEDED"/>
<path fill-rule="evenodd" clip-rule="evenodd" d="M1116.29 194C1108.81 194 1102.19 197.605 1098.06 203.165C1102.19 208.726 1108.81 212.331 1116.29 212.331C1121.33 212.331 1125.99 210.689 1129.75 207.912C1126.97 211.664 1125.32 216.307 1125.32 221.333C1125.32 228.781 1128.94 235.386 1134.52 239.5C1140.1 235.386 1143.71 228.781 1143.71 221.333C1143.71 213.885 1140.1 207.279 1134.52 203.165C1130.39 197.605 1123.76 194 1116.29 194Z" fill="#EDEDED"/>
<path fill-rule="evenodd" clip-rule="evenodd" d="M1079.83 194C1087.3 194 1093.93 197.605 1098.06 203.165C1093.93 208.726 1087.3 212.331 1079.83 212.331C1074.79 212.331 1070.13 210.689 1066.36 207.912C1069.15 211.664 1070.8 216.307 1070.8 221.333C1070.8 228.781 1067.18 235.386 1061.6 239.5C1056.02 235.386 1052.4 228.781 1052.4 221.333C1052.4 213.885 1056.02 207.279 1061.6 203.165C1065.73 197.605 1072.36 194 1079.83 194Z" fill="#EDEDED"/>
<path fill-rule="evenodd" clip-rule="evenodd" d="M1116.29 285C1108.81 285 1102.19 281.395 1098.06 275.835C1102.19 270.274 1108.81 266.669 1116.29 266.669C1121.33 266.669 1125.99 268.311 1129.75 271.088C1126.97 267.336 1125.32 262.693 1125.32 257.667C1125.32 250.22 1128.94 243.614 1134.52 239.5C1140.1 243.614 1143.71 250.22 1143.71 257.667C1143.71 265.115 1140.1 271.721 1134.52 275.835C1130.39 281.395 1123.76 285 1116.29 285Z" fill="#EDEDED"/>
<path fill-rule="evenodd" clip-rule="evenodd" d="M1079.83 285C1087.3 285 1093.93 281.395 1098.06 275.835C1093.93 270.274 1087.3 266.669 1079.83 266.669C1074.79 266.669 1070.13 268.311 1066.36 271.088C1069.15 267.336 1070.8 262.693 1070.8 257.667C1070.8 250.22 1067.18 243.614 1061.6 239.5C1056.02 243.614 1052.4 250.22 1052.4 257.667C1052.4 265.115 1056.02 271.721 1061.6 275.835C1065.73 281.395 1072.36 285 1079.83 285Z" fill="#EDEDED"/>
<path fill-rule="evenodd" clip-rule="evenodd" d="M1211.6 194C1204.12 194 1197.5 197.605 1193.37 203.165C1197.5 208.726 1204.12 212.331 1211.6 212.331C1216.64 212.331 1221.3 210.689 1225.06 207.912C1222.28 211.664 1220.63 216.307 1220.63 221.333C1220.63 228.781 1224.25 235.386 1229.83 239.5C1235.4 235.386 1239.02 228.781 1239.02 221.333C1239.02 213.885 1235.4 207.279 1229.83 203.165C1225.7 197.605 1219.07 194 1211.6 194Z" fill="#EDEDED"/>
<path fill-rule="evenodd" clip-rule="evenodd" d="M1175.14 194C1182.61 194 1189.24 197.605 1193.37 203.165C1189.24 208.726 1182.61 212.331 1175.14 212.331C1170.1 212.331 1165.44 210.689 1161.67 207.912C1164.46 211.664 1166.11 216.307 1166.11 221.333C1166.11 228.781 1162.49 235.386 1156.91 239.5C1151.33 235.386 1147.71 228.781 1147.71 221.333C1147.71 213.885 1151.33 207.279 1156.91 203.165C1161.04 197.605 1167.67 194 1175.14 194Z" fill="#EDEDED"/>
<path fill-rule="evenodd" clip-rule="evenodd" d="M1211.6 285C1204.12 285 1197.5 281.395 1193.37 275.835C1197.5 270.274 1204.12 266.669 1211.6 266.669C1216.64 266.669 1221.3 268.311 1225.06 271.088C1222.28 267.336 1220.63 262.693 1220.63 257.667C1220.63 250.22 1224.25 243.614 1229.83 239.5C1235.4 243.614 1239.02 250.22 1239.02 257.667C1239.02 265.115 1235.4 271.721 1229.83 275.835C1225.7 281.395 1219.07 285 1211.6 285Z" fill="#EDEDED"/>
<path fill-rule="evenodd" clip-rule="evenodd" d="M1175.14 285C1182.61 285 1189.24 281.395 1193.37 275.835C1189.24 270.274 1182.61 266.669 1175.14 266.669C1170.1 266.669 1165.44 268.311 1161.67 271.088C1164.46 267.336 1166.11 262.693 1166.11 257.667C1166.11 250.22 1162.49 243.614 1156.91 239.5C1151.33 243.614 1147.71 250.22 1147.71 257.667C1147.71 265.115 1151.33 271.721 1156.91 275.835C1161.04 281.395 1167.67 285 1175.14 285Z" fill="#EDEDED"/>
<path fill-rule="evenodd" clip-rule="evenodd" d="M1306.91 194C1299.43 194 1292.8 197.605 1288.68 203.165C1292.8 208.726 1299.43 212.331 1306.91 212.331C1311.95 212.331 1316.61 210.689 1320.37 207.912C1317.59 211.664 1315.94 216.307 1315.94 221.333C1315.94 228.781 1319.56 235.386 1325.13 239.5C1330.71 235.386 1334.33 228.781 1334.33 221.333C1334.33 213.885 1330.71 207.279 1325.13 203.165C1321.01 197.605 1314.38 194 1306.91 194Z" fill="#EDEDED"/>
<path fill-rule="evenodd" clip-rule="evenodd" d="M1270.45 194C1277.92 194 1284.55 197.605 1288.68 203.165C1284.55 208.726 1277.92 212.331 1270.45 212.331C1265.4 212.331 1260.75 210.689 1256.98 207.912C1259.77 211.664 1261.41 216.307 1261.41 221.333C1261.41 228.781 1257.8 235.386 1252.22 239.5C1246.64 235.386 1243.02 228.781 1243.02 221.333C1243.02 213.885 1246.64 207.279 1252.22 203.165C1256.35 197.605 1262.97 194 1270.45 194Z" fill="#EDEDED"/>
<path fill-rule="evenodd" clip-rule="evenodd" d="M1306.91 285C1299.43 285 1292.8 281.395 1288.68 275.835C1292.8 270.274 1299.43 266.669 1306.91 266.669C1311.95 266.669 1316.61 268.311 1320.37 271.088C1317.59 267.336 1315.94 262.693 1315.94 257.667C1315.94 250.22 1319.56 243.614 1325.13 239.5C1330.71 243.614 1334.33 250.22 1334.33 257.667C1334.33 265.115 1330.71 271.721 1325.13 275.835C1321.01 281.395 1314.38 285 1306.91 285Z" fill="#EDEDED"/>
<path fill-rule="evenodd" clip-rule="evenodd" d="M1270.45 285C1277.92 285 1284.55 281.395 1288.68 275.835C1284.55 270.274 1277.92 266.669 1270.45 266.669C1265.4 266.669 1260.75 268.311 1256.98 271.088C1259.77 267.336 1261.41 262.693 1261.41 257.667C1261.41 250.22 1257.8 243.614 1252.22 239.5C1246.64 243.614 1243.02 250.22 1243.02 257.667C1243.02 265.115 1246.64 271.721 1252.22 275.835C1256.35 281.395 1262.97 285 1270.45 285Z" fill="#EDEDED"/>
<path fill-rule="evenodd" clip-rule="evenodd" d="M1402.21 194C1394.74 194 1388.11 197.605 1383.99 203.165C1388.11 208.726 1394.74 212.331 1402.21 212.331C1407.26 212.331 1411.92 210.689 1415.68 207.912C1412.9 211.664 1411.25 216.307 1411.25 221.333C1411.25 228.781 1414.86 235.386 1420.44 239.5C1426.02 235.386 1429.64 228.781 1429.64 221.333C1429.64 213.885 1426.02 207.279 1420.44 203.165C1416.32 197.605 1409.69 194 1402.21 194Z" fill="#EDEDED"/>
<path fill-rule="evenodd" clip-rule="evenodd" d="M1365.76 194C1373.23 194 1379.86 197.605 1383.99 203.165C1379.86 208.726 1373.23 212.331 1365.76 212.331C1360.71 212.331 1356.06 210.689 1352.29 207.912C1355.08 211.664 1356.72 216.307 1356.72 221.333C1356.72 228.781 1353.11 235.386 1347.53 239.5C1341.95 235.386 1338.33 228.781 1338.33 221.333C1338.33 213.885 1341.95 207.279 1347.53 203.165C1351.66 197.605 1358.28 194 1365.76 194Z" fill="#EDEDED"/>
<path fill-rule="evenodd" clip-rule="evenodd" d="M1402.21 285C1394.74 285 1388.11 281.395 1383.99 275.835C1388.11 270.274 1394.74 266.669 1402.21 266.669C1407.26 266.669 1411.92 268.311 1415.68 271.088C1412.9 267.336 1411.25 262.693 1411.25 257.667C1411.25 250.22 1414.86 243.614 1420.44 239.5C1426.02 243.614 1429.64 250.22 1429.64 257.667C1429.64 265.115 1426.02 271.721 1420.44 275.835C1416.32 281.395 1409.69 285 1402.21 285Z" fill="#EDEDED"/>
<path fill-rule="evenodd" clip-rule="evenodd" d="M1365.76 285C1373.23 285 1379.86 281.395 1383.99 275.835C1379.86 270.274 1373.23 266.669 1365.76 266.669C1360.71 266.669 1356.06 268.311 1352.29 271.088C1355.08 267.336 1356.72 262.693 1356.72 257.667C1356.72 250.22 1353.11 243.614 1347.53 239.5C1341.95 243.614 1338.33 250.22 1338.33 257.667C1338.33 265.115 1341.95 271.721 1347.53 275.835C1351.66 281.395 1358.28 285 1365.76 285Z" fill="#EDEDED"/>
</svg>
