<svg width="231" height="231" viewBox="0 0 231 231" fill="none" xmlns="http://www.w3.org/2000/svg">
<path fill-rule="evenodd" clip-rule="evenodd" d="M175.12 153.707C171.984 151.506 168.98 148.504 169.314 144.502C169.047 144.369 168.78 144.235 168.513 144.102C158.904 139.566 149.428 134.631 139.951 129.895C134.946 127.36 130.075 125.293 124.936 124.092C127.139 140.9 130.208 157.642 135.48 173.717C137.749 173.85 139.685 178.986 140.218 180.52C141.42 184.122 142.487 189.458 138.216 191.592C133.679 193.86 131.076 188.124 130.409 184.522C129.741 180.787 129.675 176.518 132.811 173.917C132.722 173.65 132.633 173.361 132.544 173.05C128.94 163.045 125.737 152.973 122.401 142.901C120.599 137.565 118.664 132.563 115.861 128.161C105.517 141.567 95.8407 155.574 88.2331 170.649C89.768 172.383 87.4991 177.385 86.765 178.853C85.03 182.254 82.0269 186.79 77.5558 185.256C72.6843 183.588 74.9533 177.719 76.9553 174.784C79.1575 171.582 82.1604 168.581 86.1644 168.914C86.2979 168.648 86.4313 168.381 86.5648 168.114C91.1027 158.509 96.041 149.105 100.779 139.633C103.315 134.564 105.45 129.695 106.585 124.626C89.768 126.76 73.018 129.828 56.9353 135.098C56.8685 137.432 51.73 139.366 50.1284 139.9C46.5248 141.101 41.1862 142.168 39.1174 137.899C36.8485 133.297 42.5876 130.762 46.1244 130.095C49.9282 129.361 54.1324 129.361 56.735 132.43C57.0465 132.341 57.3357 132.252 57.6026 132.163C67.6126 128.561 77.756 125.359 87.8328 122.024C93.1714 120.29 98.1097 118.289 102.514 115.554C89.1007 105.216 75.0867 95.5444 60.005 87.8739C58.2699 89.4747 53.2649 87.1402 51.7968 86.4065C48.3934 84.739 43.8555 81.7375 45.3904 77.2019C47.0587 72.3995 52.9313 74.6006 55.9343 76.6683C59.0707 78.8027 62.0737 81.8042 61.74 85.8729C62.007 86.0063 62.2739 86.1397 62.5408 86.2731C72.1504 90.8087 81.5598 95.6778 91.1027 100.414C96.1077 102.948 100.979 105.083 106.118 106.216C103.916 89.4747 100.846 72.733 95.5738 56.6583C93.2381 56.5249 91.3029 51.389 90.8358 49.7882C89.6346 46.2531 88.5668 40.8504 92.771 38.7827C97.3756 36.5149 99.9115 42.2511 100.646 45.7862C101.313 49.5881 101.313 53.8569 98.2431 56.4582C98.3321 56.725 98.4211 57.014 98.5101 57.3253C102.114 67.3303 105.317 77.402 108.654 87.4737C110.455 92.8097 112.391 97.7455 115.193 102.214C125.47 88.8077 135.147 74.8007 142.821 59.7265C141.286 57.9923 143.555 52.9898 144.289 51.5224C145.957 48.1207 149.027 43.5851 153.498 45.1192C158.37 46.72 156.101 52.5896 154.032 55.5911C151.897 58.7927 148.894 61.7942 144.89 61.4607C144.756 61.7275 144.601 61.9943 144.423 62.2611C139.885 71.8659 135.013 81.2706 130.275 90.742C127.739 95.7445 125.604 100.68 124.469 105.75C141.219 103.548 157.97 100.48 174.052 95.2776C174.186 92.9431 179.324 91.0088 180.926 90.4752C184.529 89.2746 189.868 88.2074 191.937 92.4762C194.206 97.0785 188.467 99.6131 184.93 100.28C181.126 101.014 176.922 101.014 174.319 97.9456C174.008 98.0345 173.719 98.1235 173.452 98.2124C163.442 101.748 153.298 104.949 143.221 108.351C137.883 110.085 132.945 112.019 128.473 114.821C141.887 125.159 155.901 134.831 171.049 142.501C172.718 140.9 177.723 143.168 179.257 143.902C182.594 145.636 187.132 148.638 185.664 153.107C183.995 157.976 178.123 155.708 175.12 153.707Z" fill="#8E8E8E"/>
<path fill-rule="evenodd" clip-rule="evenodd" d="M217.429 123.092C211.957 122.558 206.084 120.824 203.749 115.488C203.304 115.488 202.859 115.488 202.414 115.488C187.132 116.355 171.85 116.622 156.568 117.089C148.493 117.355 140.819 118.022 133.612 120.023C147.893 139.767 163.241 158.909 180.926 175.651C183.929 174.184 189.868 179.386 191.603 181.054C195.607 184.789 200.679 190.792 196.675 196.395C192.404 202.398 185.263 196.862 181.927 192.793C178.457 188.524 175.52 183.188 177.656 177.785C177.344 177.474 177.033 177.163 176.722 176.852C165.31 166.647 154.366 156.041 143.221 145.569C137.282 140.033 131.41 135.098 124.87 131.362C120.999 155.441 118.33 179.786 118.997 204.132C122.134 205.266 122.668 213.137 122.734 215.538C122.935 221.007 122.2 228.811 115.46 229.945C108.186 231.212 107.052 222.208 107.586 217.005C108.12 211.536 109.855 205.666 115.193 203.332C115.193 202.931 115.193 202.509 115.193 202.064C114.326 186.79 114.059 171.516 113.592 156.241C113.325 148.104 112.724 140.5 110.656 133.23C90.9026 147.504 71.7501 162.845 55 180.52C56.4681 183.522 51.2629 189.525 49.6613 191.259C45.9243 195.261 39.8515 200.263 34.3127 196.328C28.2399 192.059 33.7788 184.856 37.8495 181.587C42.1204 178.119 47.5259 175.184 52.9313 177.319C53.2427 177.007 53.5318 176.696 53.7988 176.385C64.0757 164.979 74.6863 153.974 85.0967 142.835C90.7023 136.965 95.6406 131.096 99.311 124.492C75.2202 120.624 50.8625 117.956 26.5048 118.623C25.3704 121.757 17.4958 122.358 15.0934 122.425C9.62131 122.558 1.81352 121.891 0.679056 115.154C-0.588877 107.884 8.42014 106.683 13.6253 107.217C19.0975 107.817 24.97 109.551 27.3057 114.887C27.7506 114.843 28.1954 114.821 28.6403 114.821C43.9223 114.02 59.2042 113.753 74.4861 113.287C82.5608 113.02 90.1685 112.353 97.4424 110.352C83.1615 90.6086 67.8128 71.4657 50.1284 54.724C47.1254 56.1247 41.1195 50.9888 39.3844 49.3213C35.4471 45.5861 30.3754 39.5831 34.3127 33.9803C38.5836 27.9773 45.7908 33.5134 49.0607 37.5154C52.5976 41.8509 55.4671 47.1869 53.3317 52.5896C53.6431 52.9009 53.9768 53.2121 54.3327 53.5234C65.6773 63.7285 76.6883 74.3338 87.8328 84.8057C93.772 90.3418 99.6446 95.2776 106.184 98.9461C110.055 74.9341 112.724 50.5886 112.057 26.2431C108.921 25.1092 108.387 17.2386 108.32 14.8374C108.12 9.368 108.787 1.56411 115.527 0.363506C122.801 -0.837094 124.002 8.16741 123.468 13.3033C122.935 18.8394 121.199 24.709 115.861 26.9768C115.861 27.4215 115.861 27.8661 115.861 28.3108C116.662 43.5851 116.929 58.8594 117.462 74.1337C117.663 82.2044 118.33 89.8749 120.399 97.0785C140.152 82.8714 159.237 67.5304 176.054 49.8549C174.586 46.7867 179.791 40.8504 181.393 39.1162C185.13 35.1142 191.203 30.1117 196.742 34.047C202.748 38.3158 197.275 45.4527 193.205 48.7877C188.934 52.2561 183.528 55.1909 178.123 53.0565C177.812 53.3678 177.5 53.679 177.189 53.9903C166.979 65.396 156.368 76.3348 145.891 87.5404C140.352 93.41 135.414 99.2796 131.743 105.816C155.767 109.752 180.192 112.353 204.549 111.753C205.617 108.551 213.558 108.017 215.961 107.951C221.366 107.751 229.241 108.484 230.375 115.221C231.576 122.491 222.634 123.625 217.429 123.092Z" fill="#C7C7C7"/>
<path d="M113.058 104.882C112.991 106.683 113.125 108.484 113.258 110.285C113.325 111.552 115.193 111.552 115.26 110.285C115.394 108.484 115.527 106.683 115.46 104.882C115.394 103.348 113.125 103.348 113.058 104.882Z" fill="#8E8E8E"/>
<path d="M106.918 113.887C107.853 113.887 108.453 113.087 108.52 112.219C108.587 111.686 108.654 111.085 108.654 110.552C108.72 109.818 108.387 109.285 107.986 108.684C107.519 107.817 106.251 107.817 105.784 108.684C105.45 109.285 105.117 109.818 105.117 110.552C105.183 111.085 105.25 111.686 105.317 112.219C105.384 113.087 105.984 113.887 106.918 113.887Z" fill="#8E8E8E"/>
<path d="M100.979 102.948C101.024 102.77 101.046 102.57 101.046 102.348C101.046 102.17 101.046 102.059 101.046 102.014C101.002 101.836 101.002 101.659 101.046 101.481C101.046 100.88 100.512 100.28 99.9783 100.08C99.4444 99.9466 98.6436 100.213 98.3767 100.747C97.9763 101.614 97.7093 102.481 98.1764 103.348C98.5101 103.949 98.9772 104.416 99.5111 104.816C100.245 105.349 101.246 104.482 100.979 103.682C100.979 103.482 100.979 103.415 100.979 103.282C100.979 103.193 100.979 103.126 100.979 103.082C100.979 103.037 100.979 102.993 100.979 102.948Z" fill="#8E8E8E"/>
<path d="M108.12 123.358C106.985 123.091 105.651 123.358 104.716 123.959C103.916 124.359 103.181 124.959 102.848 125.826C102.581 126.693 102.581 127.694 103.115 128.427C104.249 129.962 106.518 128.961 107.252 127.56C107.519 127.116 107.786 126.671 108.053 126.226C108.253 125.893 108.52 125.559 108.72 125.226C109.788 124.826 109.254 123.158 108.12 123.358Z" fill="#8E8E8E"/>
<path d="M118.664 122.758C118.53 121.758 116.862 121.758 116.728 122.758C116.595 123.225 116.395 123.625 116.261 124.092C116.194 124.492 116.128 124.959 116.061 125.359C115.927 126.36 115.861 127.36 116.194 128.294C116.728 129.761 118.664 129.761 119.131 128.294C119.531 127.36 119.464 126.36 119.264 125.359C119.197 124.959 119.197 124.492 119.064 124.092C118.93 123.625 118.73 123.225 118.664 122.758Z" fill="#8E8E8E"/>
<path d="M125.804 117.689C124.469 117.355 124.069 119.156 125.27 119.623C126.204 120.023 127.072 120.69 127.739 121.491C128.073 121.958 128.54 122.291 129.141 122.091C129.474 122.024 129.741 121.824 129.875 121.491C130.208 121.024 130.075 120.424 129.675 119.957C128.674 118.823 127.272 118.022 125.804 117.689Z" fill="#8E8E8E"/>
<path d="M128.807 103.882C128.807 103.215 128.206 102.615 127.472 102.615C126.204 102.548 125.27 103.482 124.403 104.349C123.602 105.149 123.068 106.216 122.601 107.284C122 108.351 123.135 109.551 124.269 108.951C125.27 108.418 126.338 107.884 127.139 107.017C127.939 106.15 128.874 105.149 128.807 103.882Z" fill="#8E8E8E"/>
<path d="M120.399 117.222C120.666 116.955 120.732 116.622 120.666 116.288C120.532 115.821 120.198 115.288 119.931 115.021C119.598 114.687 119.064 114.487 118.73 114.287C118.33 114.087 117.796 114.087 117.462 114.42C117.195 114.754 117.062 115.288 117.329 115.688L117.663 116.155C117.796 116.355 117.929 116.622 118.13 116.755C118.463 117.088 119.064 117.422 119.464 117.489C119.798 117.555 120.132 117.489 120.399 117.222Z" fill="#8E8E8E"/>
<path d="M113.659 96.6116C113.659 96.0113 113.859 95.411 114.059 94.8774C114.393 94.077 114.526 93.3433 114.726 92.5429C114.926 91.7425 114.593 90.5419 113.725 90.1417C113.592 90.0972 113.436 90.0305 113.258 89.9416C112.457 89.6748 111.256 90.1417 110.856 90.9421C110.255 92.1427 109.855 93.3433 110.322 94.6773C110.722 95.6778 111.189 96.5449 111.923 97.3453C112.524 98.079 113.592 97.412 113.659 96.6116Z" fill="#8E8E8E"/>
<path d="M182.994 44.052C183.662 44.3855 184.396 44.3188 184.93 43.8519C185.263 43.5184 185.664 43.2516 185.864 42.8514C186.131 42.3178 186.131 41.7842 186.131 41.2506C186.198 40.7837 185.864 40.3168 185.464 40.05C185.063 39.7832 184.529 39.8499 184.062 40.05C183.662 40.3168 183.195 40.5169 182.928 40.9171C182.594 41.3173 182.461 41.8509 182.26 42.3178C182.06 42.9181 182.461 43.7852 182.994 44.052Z" fill="#8E8E8E"/>
<path d="M193.071 39.2496C192.471 38.9161 191.87 38.9828 191.269 39.2496L190.869 39.4497C190.268 39.7165 189.868 40.2501 189.735 40.7837C189.601 41.1172 189.601 41.5174 189.534 41.8509C189.468 42.1177 189.468 42.4512 189.534 42.7847C189.668 43.1182 189.868 43.4517 190.202 43.7185C190.669 44.1187 191.603 44.2521 192.137 43.8519C192.537 43.5851 193.004 43.3183 193.271 42.9848C193.739 42.5179 194.005 41.9176 193.939 41.3173C193.939 41.1394 193.939 40.9616 193.939 40.7837C193.872 40.1167 193.605 39.5831 193.071 39.2496Z" fill="#8E8E8E"/>
<path d="M185.263 46.72C184.93 46.9201 184.596 47.0535 184.262 47.2536C183.795 47.5204 183.528 48.054 183.261 48.5209C182.661 49.4547 183.862 50.722 184.863 50.1217C185.33 49.8549 185.864 49.5881 186.131 49.1212C186.331 48.7877 186.465 48.4542 186.665 48.1207C187.132 47.1869 186.131 46.2531 185.263 46.72Z" fill="#8E8E8E"/>
<path d="M111.857 20.1067C112.658 20.6403 113.792 20.1734 114.259 19.4397C114.726 18.7727 114.726 17.7055 114.459 16.9718C114.259 16.5716 114.126 16.1714 113.792 15.8379C113.614 15.66 113.436 15.4822 113.258 15.3043C112.457 14.5039 111.323 14.9708 110.989 15.9046C110.722 16.5049 110.522 17.0385 110.522 17.7055C110.589 18.706 111.056 19.5064 111.857 20.1067Z" fill="#8E8E8E"/>
<path d="M116.728 9.1012C117.529 8.9011 117.93 8.2341 117.996 7.4337C118.063 7.2336 118.13 6.9668 118.13 6.7C118.063 6.033 117.729 5.5661 117.329 5.0325C116.662 4.2988 115.594 3.9653 114.726 4.699C114.259 5.1659 114.059 5.9663 114.059 6.5666C114.059 7.3003 114.393 7.7672 114.793 8.3675C115.26 8.9011 115.927 9.368 116.728 9.1012Z" fill="#8E8E8E"/>
<path d="M121.133 15.1709C121.044 15.0375 120.955 14.9041 120.866 14.7707C120.821 14.7262 120.777 14.6818 120.732 14.6373C120.732 14.6373 120.732 14.6151 120.732 14.5706C120.732 14.5261 120.71 14.4817 120.666 14.4372C120.666 14.3705 120.666 14.3705 120.666 14.3705C120.666 13.37 119.331 12.9698 118.797 13.8369C118.463 14.3038 118.33 14.8374 118.33 15.4377C118.263 16.1714 118.597 16.7717 119.131 17.3053C119.598 17.7722 120.399 17.8389 120.999 17.4387C121.533 17.0385 121.733 16.1714 121.333 15.5711C121.244 15.4377 121.177 15.3043 121.133 15.1709Z" fill="#8E8E8E"/>
<path d="M40.9859 46.1864C41.0749 46.2309 41.1639 46.2531 41.2529 46.2531C41.2529 46.2531 41.2751 46.2753 41.3196 46.3198C41.3641 46.3643 41.4308 46.4087 41.5197 46.4532C41.5197 46.4532 41.5865 46.4532 41.5865 46.5199C41.631 46.5644 41.6755 46.6088 41.72 46.6533C41.7645 46.6533 41.7867 46.6755 41.7867 46.72C41.8312 46.8534 41.9202 46.9646 42.0536 47.0535C42.0536 47.0535 42.3873 47.3203 42.2539 47.1869C42.6543 47.5204 43.4551 47.5204 43.5885 46.8534C43.6553 46.4532 43.6552 46.1197 43.455 45.7195C43.3216 45.4972 43.1659 45.2971 42.9879 45.1192C42.5875 44.719 42.0536 44.3855 41.5197 44.2521C41.0526 44.1187 40.3853 44.4522 40.3186 44.9858C40.1851 45.4527 40.4521 46.053 40.9859 46.1864Z" fill="#8E8E8E"/>
<path d="M38.5836 37.5821C38.7838 37.7822 39.0507 37.8489 39.3176 37.8489C39.5846 37.8489 39.8515 37.7822 40.0517 37.5821C40.2519 37.382 40.3854 37.1152 40.3186 36.8484C40.3186 36.5816 40.2519 36.3148 40.0517 36.1147L39.5846 35.6478C39.3844 35.4477 39.1174 35.3143 38.8505 35.3143C38.5835 35.3143 38.3166 35.4477 38.1164 35.6478C37.9162 35.8479 37.7827 36.1147 37.8495 36.3815C37.8495 36.6483 37.9162 36.9151 38.1164 37.0485L38.5836 37.5821Z" fill="#8E8E8E"/>
<path d="M47.2589 45.0525C47.6593 45.5194 48.3933 45.5194 48.8605 45.1859C49.3276 44.7857 49.4611 44.1187 49.1274 43.5851C48.9272 43.2516 48.6603 42.8514 48.3934 42.4512C48.0597 41.9843 47.5926 41.7175 47.1254 41.384C46.4581 40.8504 45.3904 41.7175 45.6573 42.5179C45.8575 43.0515 45.991 43.5851 46.3247 44.052C46.6361 44.4077 46.9475 44.7412 47.2589 45.0525Z" fill="#8E8E8E"/>
<path d="M10.8225 116.422C10.5555 116.155 10.1552 116.088 9.75475 115.955C9.44333 115.866 9.10966 115.754 8.75375 115.621C8.21988 115.421 7.61927 115.821 7.4858 116.355C7.35233 116.822 7.68607 117.489 8.21993 117.622C8.57584 117.667 8.93174 117.711 9.28765 117.756C9.68805 117.822 10.0884 117.956 10.4221 117.889C11.2229 117.822 11.5565 116.888 10.8225 116.422Z" fill="#8E8E8E"/>
<path d="M13.8923 111.419C13.2249 111.063 12.5798 110.708 11.957 110.352C11.4231 110.085 10.8225 110.218 10.5556 110.752C10.2887 111.152 10.4221 111.886 10.8893 112.153C11.5566 112.464 12.2239 112.775 12.8913 113.087C13.3584 113.287 13.959 113.22 14.2259 112.686C14.4929 112.286 14.2927 111.619 13.8923 111.419Z" fill="#8E8E8E"/>
<path d="M21.8334 115.554C21.5665 115.488 21.2996 115.421 21.0327 115.421C20.699 115.488 20.4321 115.621 20.2319 115.754C19.5646 116.088 19.5646 117.155 20.2319 117.489C20.4321 117.622 20.6322 117.755 20.8324 117.822C21.1661 117.889 21.4998 117.822 21.8334 117.755C22.3006 117.689 22.7677 117.622 23.1014 117.355C23.6353 117.022 23.6353 116.288 23.1014 115.888C22.7677 115.621 22.3006 115.621 21.8334 115.554Z" fill="#8E8E8E"/>
<path d="M40.7857 188.724C40.2518 188.724 39.7847 188.858 39.3176 189.191C39.0062 189.369 38.6725 189.547 38.3166 189.725C37.4491 190.258 37.8494 191.592 38.8504 191.659C39.2508 191.659 39.629 191.659 39.9849 191.659C40.5855 191.659 40.9859 191.592 41.5197 191.259C42.6542 190.592 42.1871 188.724 40.7857 188.724Z" fill="#8E8E8E"/>
<path d="M42.6543 179.453C42.5209 179.453 42.1204 179.653 42.1872 179.586C42.0537 179.675 41.9202 179.787 41.7868 179.92C41.7423 179.92 41.7201 179.92 41.7201 179.92C41.6533 179.92 41.6533 179.92 41.6533 179.987C41.2529 179.786 40.7858 179.786 40.5188 180.12C40.1184 180.52 40.0517 181.187 40.5188 181.587C40.6078 181.632 40.6968 181.699 40.7858 181.787C40.9192 182.01 41.1195 182.165 41.3864 182.254C41.987 182.455 42.6543 182.388 43.1882 182.121C43.989 181.787 44.4561 180.92 44.1224 180.053C43.8555 179.453 43.2549 179.119 42.6543 179.453Z" fill="#8E8E8E"/>
<path d="M48.1264 183.855C47.726 183.789 47.3256 183.789 46.9252 183.922C46.6583 184.055 46.4136 184.166 46.1911 184.255C45.5238 184.589 45.5238 185.723 46.1911 186.056C46.4136 186.19 46.6583 186.301 46.9252 186.39C47.3256 186.59 47.726 186.523 48.1264 186.457C48.8605 186.457 49.5278 185.923 49.4611 185.189C49.4611 184.389 48.8605 183.922 48.1264 183.855Z" fill="#8E8E8E"/>
<path d="M113.258 215.271C112.657 215.271 111.99 215.804 112.057 216.471C112.146 217.138 112.213 217.805 112.257 218.472C112.324 219.006 112.657 219.473 113.258 219.473C113.859 219.473 114.259 219.006 114.326 218.472C114.37 217.805 114.437 217.138 114.526 216.471C114.593 215.871 113.859 215.271 113.258 215.271Z" fill="#8E8E8E"/>
<path d="M119.131 218.272C118.864 218.272 118.597 218.361 118.33 218.539C118.107 218.673 117.907 218.85 117.729 219.073C117.685 219.162 117.663 219.251 117.663 219.34C117.529 219.517 117.462 219.718 117.462 219.94C117.418 220.118 117.418 220.318 117.462 220.54C117.596 220.874 117.863 221.274 118.196 221.407C118.463 221.541 118.664 221.674 118.997 221.674C119.264 221.674 119.531 221.541 119.798 221.407C119.842 221.363 119.909 221.341 119.998 221.341C120.221 221.207 120.399 221.007 120.532 220.74C120.71 220.473 120.799 220.207 120.799 219.94C120.732 219.473 120.599 219.073 120.332 218.739C119.998 218.472 119.598 218.272 119.131 218.272Z" fill="#8E8E8E"/>
<path d="M115.727 205.466C115.327 205.466 114.927 205.599 114.66 205.866C114.526 206 114.437 206.155 114.393 206.333C114.304 206.511 114.259 206.711 114.259 206.933C114.259 207.334 114.393 207.734 114.66 207.934C114.993 208.201 115.327 208.401 115.727 208.401C116.128 208.401 116.528 208.201 116.795 207.934C116.928 207.801 117.017 207.645 117.062 207.467C117.151 207.289 117.195 207.111 117.195 206.933C117.195 206.533 117.062 206.133 116.795 205.866C116.461 205.599 116.128 205.466 115.727 205.466Z" fill="#8E8E8E"/>
<path d="M184.863 186.256C184.529 185.923 184.062 185.789 183.662 185.656C183.328 185.523 182.994 185.523 182.661 185.456C182.194 185.389 181.793 185.456 181.46 185.789C181.126 186.123 181.059 186.523 181.126 186.99C181.193 187.257 181.259 187.657 181.326 187.924C181.46 188.324 181.593 188.658 181.793 188.924C181.994 189.125 182.194 189.325 182.394 189.525C182.794 189.858 183.261 190.058 183.795 190.058C184.262 190.058 184.863 189.858 185.197 189.525C185.53 189.125 185.797 188.658 185.797 188.124C185.731 187.524 185.53 187.123 185.197 186.723C185.063 186.59 184.997 186.39 184.863 186.256Z" fill="#8E8E8E"/>
<path d="M191.737 186.99C191.47 186.768 191.158 186.59 190.802 186.457C190.535 186.19 190.135 186.056 189.735 186.19C189.334 186.39 189.067 186.857 189.134 187.324C189.045 187.724 189 188.124 189 188.524C189 189.191 189.334 189.792 189.935 190.125C190.068 190.214 190.202 190.303 190.335 190.392C190.802 190.659 191.403 190.659 191.87 190.392C192.337 190.058 192.537 189.658 192.604 189.125C192.604 188.902 192.626 188.702 192.671 188.524C192.737 187.857 192.204 187.324 191.737 186.99Z" fill="#8E8E8E"/>
<path d="M183.195 180.854C183.528 181.12 183.862 181.254 184.262 181.254C184.596 181.254 185.063 181.12 185.33 180.854C185.597 180.587 185.731 180.187 185.731 179.786L185.664 179.386C185.619 179.164 185.508 178.964 185.33 178.786C185.019 178.43 184.73 178.052 184.463 177.652C184.196 177.385 183.662 177.185 183.261 177.185C182.861 177.185 182.394 177.385 182.127 177.652C181.86 177.986 181.66 178.386 181.66 178.853C181.66 179.253 181.793 179.72 182.127 179.987C182.483 180.253 182.839 180.542 183.195 180.854Z" fill="#8E8E8E"/>
<path d="M215.56 116.155C215.227 116.088 214.893 116.088 214.626 116.021C214.626 116.021 214.559 116.021 214.493 116.021C214.426 116.021 214.226 116.021 214.226 116.021C213.959 115.888 213.692 115.821 213.358 115.821C213.158 115.821 212.958 115.888 212.691 115.888C212.624 115.955 212.424 115.955 212.691 115.955C211.89 116.021 211.289 116.688 211.49 117.489C211.757 118.422 212.357 119.089 213.358 119.29C214.226 119.423 215.16 119.423 215.894 118.889C216.361 118.489 216.695 118.022 216.561 117.422C216.495 116.888 216.094 116.221 215.56 116.155Z" fill="#8E8E8E"/>
<path d="M211.823 112.753C211.823 112.42 211.69 112.153 211.49 111.953C211.289 111.753 211.023 111.619 210.756 111.686C210.578 111.686 210.4 111.686 210.222 111.686C210.088 111.686 209.977 111.73 209.888 111.819C209.755 111.864 209.643 111.93 209.554 112.019C209.354 112.153 209.221 112.486 209.221 112.753C209.221 112.953 209.354 113.287 209.554 113.42C209.599 113.464 209.666 113.531 209.755 113.62C209.888 113.709 210.044 113.754 210.222 113.754C210.4 113.754 210.578 113.776 210.756 113.82C211.023 113.82 211.289 113.62 211.49 113.487C211.69 113.287 211.823 112.953 211.823 112.753Z" fill="#8E8E8E"/>
<path d="M142.688 112.753C142.198 112.709 141.709 112.686 141.219 112.686C140.686 112.686 140.152 113.153 140.152 113.687C140.218 114.22 140.619 114.754 141.219 114.687C141.709 114.687 142.198 114.687 142.688 114.687C143.155 114.621 143.622 114.22 143.622 113.687C143.622 113.153 143.221 112.753 142.688 112.753Z" fill="#8E8E8E"/>
<path d="M133.879 130.162C133.478 130.095 133.211 130.095 132.878 130.162C132.611 130.206 132.344 130.273 132.077 130.362C131.143 130.562 131.143 132.096 132.077 132.296C132.344 132.385 132.611 132.452 132.878 132.496C133.211 132.563 133.478 132.496 133.879 132.496C134.479 132.429 135.08 131.963 135.013 131.296C135.013 130.629 134.479 130.228 133.879 130.162Z" fill="#8E8E8E"/>
<path d="M119.197 144.902C119.598 144.702 119.798 144.169 119.665 143.769C119.598 143.568 119.531 143.435 119.464 143.302C119.531 143.435 119.531 143.235 119.464 143.235C119.464 143.235 119.464 143.213 119.464 143.168C119.464 143.168 119.487 143.146 119.531 143.102C119.798 142.635 119.665 141.968 119.197 141.701C118.664 141.434 118.13 141.567 117.796 142.034C117.262 142.768 117.195 144.169 117.996 144.769C118.33 145.036 118.797 145.169 119.197 144.902Z" fill="#8E8E8E"/>
<path d="M98.8438 133.03C98.4879 133.341 98.1542 133.652 97.8428 133.964C97.4424 134.364 97.4424 135.097 97.8428 135.498C98.2432 135.898 98.9106 135.965 99.311 135.498C99.6669 135.142 100.001 134.808 100.312 134.497C100.646 134.097 100.712 133.43 100.312 133.03C99.8448 132.696 99.2442 132.696 98.8438 133.03Z" fill="#8E8E8E"/>
<path d="M99.5777 117.822C99.3775 117.289 98.8437 117.022 98.3099 117.155C97.5091 117.244 96.686 117.355 95.8407 117.489C95.2401 117.622 94.9065 118.356 95.0399 118.889C95.2401 119.49 95.8407 119.823 96.4413 119.69C97.2421 119.467 98.0429 119.267 98.8437 119.09C99.3776 118.956 99.7112 118.356 99.5777 117.822Z" fill="#8E8E8E"/>
<path d="M223.969 113.553C223.702 113.331 223.435 113.131 223.168 112.953C222.834 112.686 222.434 112.486 222.033 112.486C221.944 112.486 221.833 112.486 221.7 112.486C221.655 112.486 221.611 112.486 221.566 112.486C220.832 112.553 220.298 113.22 220.499 113.887C220.499 113.976 220.521 114.043 220.565 114.087C220.565 114.22 220.565 114.22 220.565 114.087C220.521 113.865 220.521 113.887 220.565 114.154C220.632 114.621 220.899 115.021 221.366 115.288C221.633 115.51 221.9 115.71 222.167 115.888C222.768 116.221 223.635 116.021 224.102 115.488C224.503 114.954 224.503 114.02 223.969 113.553Z" fill="#C7C7C7"/>
<path d="M133.612 35.5811C133.345 35.3143 133.033 35.1142 132.678 34.9808C131.877 34.7807 131.076 35.0475 130.475 35.5811C130.142 35.9146 129.808 36.4482 129.675 36.9818C129.141 37.5154 128.874 38.3158 129.074 39.1162C129.408 40.3835 130.609 41.0505 131.877 40.9171C133.011 40.7837 133.879 39.9166 134.212 38.8494C134.479 38.1824 134.479 37.1819 134.212 36.5816C134.123 36.1814 133.923 35.8479 133.612 35.5811Z" fill="#C7C7C7"/>
<path d="M77.5558 27.4437C77.7337 27.5771 77.9117 27.7105 78.0897 27.8439C78.5791 28.1107 79.0684 28.2441 79.5578 28.2441C79.9582 28.2886 80.3364 28.2219 80.6923 28.044C81.0482 27.9106 81.3596 27.7105 81.6266 27.4437C81.8935 27.1769 82.0936 26.8656 82.2271 26.5099C82.4051 26.1542 82.4941 25.7762 82.4941 25.376C82.4496 25.1092 82.4051 24.8424 82.3606 24.5756C82.2272 24.0865 81.9825 23.664 81.6266 23.3083L81.026 22.8414C80.5811 22.5746 80.0916 22.4412 79.5578 22.4412C79.1574 22.4412 78.8015 22.5301 78.4901 22.708C78.0897 22.8414 77.7782 23.0415 77.5558 23.3083C77.2444 23.5751 77.0442 23.8864 76.9552 24.2421C76.7773 24.5978 76.6883 24.9758 76.6883 25.376C76.7328 25.6428 76.755 25.8874 76.755 26.1097C76.8885 26.5988 77.1554 27.0435 77.5558 27.4437Z" fill="#C7C7C7"/>
<path d="M81.1594 59.5931C80.9814 59.5042 80.7812 59.4597 80.5588 59.4597C80.3363 59.4597 80.1362 59.5042 79.9582 59.5931C79.6246 59.7932 79.3576 60.1934 79.3576 60.5936C79.3576 60.9938 79.6246 61.394 79.9582 61.5941C80.1362 61.7275 80.3363 61.7942 80.5588 61.7942C80.7812 61.7942 80.9814 61.7275 81.1594 61.5941C81.2484 61.5496 81.3373 61.5052 81.4263 61.4607C81.6933 61.3273 81.8934 60.9271 81.8934 60.5936C81.8934 60.2601 81.6933 59.8599 81.4263 59.7265C81.3373 59.682 81.2484 59.6376 81.1594 59.5931Z" fill="#C7C7C7"/>
<path d="M26.8384 82.5379C23.3683 82.5379 23.3683 87.9406 26.8384 87.9406C30.3085 87.9406 30.3085 82.5379 26.8384 82.5379Z" fill="#C7C7C7"/>
<path d="M21.9002 152.306C21.4331 152.306 20.9659 152.439 20.699 152.773C20.521 152.906 20.4098 153.084 20.3653 153.307C20.2319 153.529 20.1651 153.751 20.1651 153.974C20.2318 154.374 20.3653 154.841 20.699 155.107C21.0327 155.441 21.4331 155.641 21.9002 155.641C22.3006 155.641 22.7677 155.441 23.0347 155.107C23.2126 154.974 23.3461 154.796 23.435 154.574C23.524 154.396 23.5686 154.196 23.5686 153.974C23.5018 153.507 23.3683 153.04 23.0347 152.773C22.701 152.439 22.3006 152.306 21.9002 152.306Z" fill="#C7C7C7"/>
<path d="M53.2649 153.04C52.9535 153.04 52.6865 153.107 52.4641 153.24C52.1971 153.329 51.9525 153.484 51.73 153.707C51.5521 153.885 51.4186 154.107 51.3296 154.374C51.1962 154.641 51.1294 154.907 51.1294 155.174C51.1294 155.708 51.3296 156.308 51.73 156.708C52.1971 157.042 52.6643 157.309 53.2649 157.309C53.5318 157.309 53.7987 157.242 54.0657 157.108C54.3326 157.02 54.5551 156.886 54.733 156.708C54.9555 156.486 55.1111 156.264 55.2001 156.041C55.3336 155.774 55.4003 155.485 55.4003 155.174C55.3336 154.641 55.2001 154.04 54.733 153.707C54.3326 153.307 53.7988 153.04 53.2649 153.04Z" fill="#C7C7C7"/>
<path d="M82.5608 202.865C82.3383 202.642 82.0937 202.442 81.8267 202.264C81.2929 201.953 80.7145 201.798 80.0917 201.798C79.6023 201.798 79.1352 201.909 78.6903 202.131C78.2899 202.264 77.9117 202.509 77.5558 202.865C77.2444 203.176 77.0219 203.532 76.8884 203.932C76.666 204.377 76.5548 204.843 76.5548 205.333C76.5993 205.644 76.6438 205.955 76.6883 206.266C76.8663 206.844 77.1554 207.356 77.5558 207.801C77.8227 207.978 78.0675 208.156 78.2899 208.334C78.8238 208.645 79.4243 208.801 80.0917 208.801C80.5811 208.845 81.0259 208.757 81.4263 208.534C81.8712 208.401 82.2494 208.156 82.5608 207.801C82.9167 207.489 83.1614 207.111 83.2949 206.667C83.5174 206.266 83.6063 205.822 83.5618 205.333C83.5173 205.021 83.4728 204.71 83.4283 204.399C83.2949 203.776 83.0057 203.265 82.5608 202.865Z" fill="#C7C7C7"/>
<path d="M154.966 176.452C151.229 176.452 151.229 182.254 154.966 182.254C158.704 182.254 158.704 176.452 154.966 176.452Z" fill="#C7C7C7"/>
<path d="M200.812 145.703C197.342 145.703 197.342 151.106 200.812 151.106C204.282 151.106 204.282 145.703 200.812 145.703Z" fill="#C7C7C7"/>
<path d="M201.413 79.9366C196.208 79.9366 196.141 88.074 201.413 88.074C206.685 88.074 206.685 79.9366 201.413 79.9366Z" fill="#C7C7C7"/>
<path d="M184.73 65.0625C181.727 65.0625 181.727 69.5981 184.73 69.5981C187.666 69.5981 187.666 65.0625 184.73 65.0625Z" fill="#C7C7C7"/>
<path d="M168.513 23.4417C168.291 23.2638 168.068 23.086 167.846 22.9081C167.312 22.5968 166.734 22.4412 166.111 22.4412C165.666 22.4412 165.243 22.5524 164.843 22.7747C164.398 22.9081 164.02 23.1304 163.709 23.4417C163.397 23.753 163.175 24.1309 163.041 24.5756C162.819 24.9758 162.708 25.3982 162.708 25.8429C162.752 26.1542 162.797 26.4654 162.841 26.7767C163.019 27.3548 163.308 27.8439 163.709 28.2441C163.931 28.422 164.153 28.5998 164.376 28.7777C164.91 29.089 165.488 29.2446 166.111 29.2446C166.6 29.2891 167.045 29.2001 167.446 28.9778C167.846 28.8444 168.202 28.5998 168.513 28.2441C168.869 27.9328 169.114 27.5771 169.247 27.1769C169.47 26.7767 169.559 26.332 169.514 25.8429C169.47 25.5316 169.425 25.2426 169.381 24.9758C169.247 24.3977 168.958 23.8864 168.513 23.4417Z" fill="#C7C7C7"/>
</svg>
