<svg width="28" height="28" viewBox="0 0 28 28" fill="none" xmlns="http://www.w3.org/2000/svg">
<path d="M2.68637 24.934C5.7877 21.8313 10.8197 21.8313 13.925 24.934L13.213 25.642C10.5024 28.354 6.10504 28.354 3.3957 25.642L2.68637 24.934Z" fill="white"/>
<path d="M2.80103 25.046C5.90237 21.9434 5.90237 16.9114 2.80103 13.8074L2.09037 14.518C-0.621634 17.2287 -0.621634 21.626 2.09037 24.338L2.80103 25.046Z" fill="white"/>
<path d="M2.74233 2.62732C5.845 5.72999 5.845 10.762 2.74233 13.8647L2.033 13.1567C-0.677667 10.446 -0.677667 6.04865 2.033 3.33665L2.74233 2.62732Z" fill="white"/>
<path d="M2.62903 2.742C5.73036 5.84467 10.7637 5.84467 13.8664 2.742L13.157 2.034C10.4464 -0.677999 6.05036 -0.677999 3.33703 2.034L2.62903 2.742Z" fill="white"/>
<path d="M24.961 2.77133C21.8583 5.87399 16.8277 5.87399 13.7237 2.77133L14.433 2.06199C17.145 -0.650005 21.541 -0.650005 24.253 2.06199L24.961 2.77133Z" fill="white"/>
<path d="M24.8477 2.65665C21.745 5.75932 21.745 10.7913 24.8477 13.894L25.5557 13.1833C28.269 10.4753 28.269 6.07798 25.5557 3.36598L24.8477 2.65665Z" fill="white"/>
<path d="M24.9064 25.0753C21.8024 21.9727 21.8024 16.9393 24.9064 13.8367L25.6144 14.5473C28.3264 17.258 28.3264 21.654 25.6144 24.3647L24.9064 25.0753Z" fill="white"/>
<path d="M25.0183 24.9607C21.9157 21.858 16.8837 21.858 13.7797 24.9607L14.4917 25.67C17.2023 28.382 21.5983 28.382 24.3117 25.67L25.0183 24.9607Z" fill="white"/>
</svg>
