<svg width="197" height="423" viewBox="0 0 197 423" fill="none" xmlns="http://www.w3.org/2000/svg">
<path d="M28.3 385.3H34.4V383.7H28.3V385.3Z" fill="#2B201F"/>
<path d="M28.3 422.3H34.4V420.7H28.3V422.3Z" fill="#2B201F"/>
<path d="M22 403C22 413.7 27.4 422.3 34 422.3C40.6 422.3 46 413.7 46 403C46 392.4 40.6 383.8 34 383.8C27.4 383.8 22 392.4 22 403Z" fill="#2B201F"/>
<path d="M16.4 403C16.4 413.7 21.7 422.3 28.3 422.3C34.9 422.3 40.3 413.7 40.3 403C40.3 392.4 34.9 383.8 28.3 383.8C21.7 383.8 16.4 392.4 16.4 403Z" fill="#473A37"/>
<path d="M18.1 402.7C18.1 411.8 22.7 419.1 28.3 419.1C34 419.1 38.5 411.8 38.5 402.7C38.5 393.7 34 386.4 28.3 386.4C22.7 386.4 18.1 393.7 18.1 402.7Z" fill="#568469"/>
<path d="M21 395.2C21 398.6 22.7 401.4 24.8 401.4C26.9 401.4 28.6 398.6 28.6 395.2C28.6 391.8 26.9 389.1 24.8 389.1C22.7 389.1 21 391.8 21 395.2Z" fill="#B7B334"/>
<path d="M88.3 385.3H94.4V383.7H88.3V385.3Z" fill="#2B201F"/>
<path d="M88.3 422.3H94.4V420.7H88.3V422.3Z" fill="#2B201F"/>
<path d="M82 403C82 413.7 87.4 422.3 94 422.3C100.6 422.3 106 413.7 106 403C106 392.4 100.6 383.8 94 383.8C87.4 383.8 82 392.4 82 403Z" fill="#2B201F"/>
<path d="M76.4 403C76.4 413.7 81.7 422.3 88.3 422.3C95 422.3 100.3 413.7 100.3 403C100.3 392.4 95 383.8 88.3 383.8C81.7 383.8 76.4 392.4 76.4 403Z" fill="#473A37"/>
<path d="M78.1 402.7C78.1 411.8 82.7 419.1 88.3 419.1C94 419.1 98.5 411.8 98.5 402.7C98.5 393.7 94 386.4 88.3 386.4C82.7 386.4 78.1 393.7 78.1 402.7Z" fill="#568469"/>
<path d="M81 395.2C81 398.6 82.7 401.4 84.8 401.4C86.9 401.4 88.6 398.6 88.6 395.2C88.6 391.8 86.9 389.1 84.8 389.1C82.7 389.1 81 391.8 81 395.2Z" fill="#B7B334"/>
<path d="M159.2 385.3H165.3V383.7H159.2V385.3Z" fill="#2B201F"/>
<path d="M159.2 422.3H165.3V420.7H159.2V422.3Z" fill="#2B201F"/>
<path d="M152.9 403C152.9 413.7 158.2 422.3 164.9 422.3C171.5 422.3 176.8 413.7 176.8 403C176.8 392.4 171.5 383.8 164.9 383.8C158.2 383.8 152.9 392.4 152.9 403Z" fill="#2B201F"/>
<path d="M147.2 403C147.2 413.7 152.6 422.3 159.2 422.3C165.8 422.3 171.2 413.7 171.2 403C171.2 392.4 165.8 383.8 159.2 383.8C152.6 383.8 147.2 392.4 147.2 403Z" fill="#473A37"/>
<path d="M149 402.7C149 411.8 153.6 419.1 159.2 419.1C164.8 419.1 169.4 411.8 169.4 402.7C169.4 393.7 164.8 386.4 159.2 386.4C153.6 386.4 149 393.7 149 402.7Z" fill="#568469"/>
<path d="M151.9 395.2C151.9 398.6 153.6 401.4 155.7 401.4C157.8 401.4 159.5 398.6 159.5 395.2C159.5 391.8 157.8 389.1 155.7 389.1C153.6 389.1 151.9 391.8 151.9 395.2Z" fill="#B7B334"/>
<path d="M10.9 9C10.7 9.6 10.6 10.2333 10.6 10.9V398.3C10.6 403.9 15.2 408.5 20.8 408.5H176.5C182.1 408.5 186.7 403.9 186.7 398.3V10.9C186.7 10.2333 186.633 9.6 186.5 9H10.9Z" fill="#568469"/>
<path d="M114.4 9H62.5H59H10.7C10.5667 9.6 10.5 10.2333 10.5 10.9V398.3C10.5 403.9 15.1 408.5 20.7 408.5H59H62.5H104.4C110 408.5 114.6 403.9 114.6 398.3V10.9C114.6 10.3 114.5 9.6 114.4 9Z" fill="#5C9B7B"/>
<path d="M95 0.400002H5.6C2.6 0.400002 0.199997 2.9 0.199997 5.8C0.199997 8.8 2.6 11.2 5.6 11.2H95V0.400002Z" fill="#568469"/>
<path d="M190.8 0.400002H82.2V11.2H190.8C193.8 11.2 196.2 8.8 196.2 5.8C196.2 2.9 193.8 0.400002 190.8 0.400002Z" fill="#568469"/>
<path d="M66 382.1C66 382.9 65.3 383.6 64.4 383.6H22.5C21.6 383.6 20.9 382.9 20.9 382.1C20.9 381.2 21.6 380.5 22.5 380.5H64.4C65.3 380.5 66 381.2 66 382.1Z" fill="#568469"/>
<path d="M66 386.7C66 387.6 65.3 388.3 64.4 388.3H22.5C21.6 388.3 20.9 387.6 20.9 386.7C20.9 385.9 21.6 385.2 22.5 385.2H64.4C65.3 385.2 66 385.9 66 386.7Z" fill="#568469"/>
<path d="M66 391.4C66 392.3 65.3 393 64.4 393H22.5C21.6 393 20.9 392.3 20.9 391.4C20.9 390.6 21.6 389.9 22.5 389.9H64.4C65.3 389.9 66 390.6 66 391.4Z" fill="#568469"/>
<path d="M47.1 394.8H35.6H33H22.5C21.6 394.8 20.9 395.5 20.9 396.4C20.9 397.2 21.6 397.9 22.5 397.9H33H35.6H47.1C48 397.9 48.7 397.2 48.7 396.4C48.7 395.5 48 394.8 47.1 394.8Z" fill="#568469"/>
<path d="M174.4 64.4L155.2 32.2C153.3 29.2 149.4 28.2 146.4 30C143.4 31.8 142.4 35.7 144.2 38.8L157.8 61.5L140.3 61.2L143.7 55.9L144.3 55.1C144.6 54.5 145.3 54.4 145.8 54.7L146.4 55C146.9 55.4 147.2 55.1 147.1 54.5L144.7 43.8C144.5 43.2 143.9 42.8 143.3 42.9L132.7 45.6C132.1 45.7 132.1 46.1 132.6 46.4L133.1 46.8C133.5 47 133.7 47.6 133.6 48L123.6 63.8C121.7 66.8 122.6 70.7 125.6 72.6C126.6 73.2 127.6 73.5 128.7 73.6C129.3 73.8 129.9 73.9 130.5 73.9L168.1 74.5C169.233 74.4333 170.267 74.1667 171.2 73.7C171.533 73.5667 171.867 73.4 172.2 73.2C175.2 71.4 176.2 67.4 174.4 64.4Z" fill="white"/>
</svg>
