<svg width="572" height="572" viewBox="0 0 572 572" fill="none" xmlns="http://www.w3.org/2000/svg">
<path d="M565.6 286C565.6 131.6 440.4 6.40001 286 6.40001C131.6 6.40001 6.40002 131.6 6.40002 286C6.40002 440.4 131.6 565.6 286 565.6C440.4 565.6 565.6 440.4 565.6 286Z" fill="white"/>
<path d="M471.2 76.6C493.1 116.5 505.5 162.3 505.5 211C505.5 365.4 380.4 490.5 226 490.5C155 490.5 90.1 464.1 40.8 420.4C88.3 506.9 180.3 565.6 286 565.6C440.4 565.6 565.6 440.4 565.6 286C565.6 202.6 529.1 127.8 471.2 76.6Z" fill="#EDEDED"/>
<g style="mix-blend-mode:multiply">
<path d="M485.1 89.8C519.5 136.2 539.8 193.7 539.8 256C539.8 410.4 414.7 535.6 260.3 535.6C182.5 535.6 112.1 503.8 61.4 452.5C112.3 521.1 194 565.6 286 565.6C440.4 565.6 565.6 440.4 565.6 286C565.6 209.5 534.8 140.3 485.1 89.8Z" fill="#EDEDED"/>
</g>
<path fill-rule="evenodd" clip-rule="evenodd" d="M572 286C572 443.7 443.7 572 286 572C128.3 572 0 443.7 0 286C0 128.3 128.3 0 286 0C443.7 0 572 128.3 572 286ZM137.1 398.8C155.9 350.1 182.7 312.9 189 304.4C152.4 247.7 150.4 199.8 151.6 184.4C140.1 184.1 100.7 182.6 69.3 178.3C63.4 183.9 33.8 214.3 16.8 274.2C17.2 279.8 21.6 332.2 52.5 380.4C55.5 382.9 83.1 404.5 137.1 398.8ZM237.8 94.6L158.2 182.7C157.6 189.8 155.1 240.2 194.8 301.5C250.5 304.3 305.3 319.6 315.2 322.5C323 316.3 365.9 281.6 400.2 231.3C395.9 220.4 370.6 155.4 361.8 126.7C321.6 104 249.3 95.8 237.8 94.6ZM204.9 25.2C176.4 34.1 149.9 47.5 126.2 64.6C144.5 54.4 168.4 42 192.1 32.7C193.4 31.8 197.8 28.9 204.9 25.2ZM81.4 105.3C43.9 147.7 19.3 201.9 14 261.5C31.9 206.6 59 179.1 65 173.5C64.9 166.7 65.7 138.8 81.4 105.3ZM436 459.5C440.5 456.8 471 436.4 516.3 370.6C516.2 308.6 501.2 266 497.9 257.4C488.5 255.8 443.4 247.8 405.1 235.5C371 285.2 328.9 319.8 319.7 327.1C335.3 371.4 336.8 431.2 336.9 441.6C342.7 445.7 371.9 463.5 436 459.5ZM559.1 286C559.1 249.9 552.1 215.4 539.3 183.8C532.6 180.7 526.6 178.6 523 177.3C521.5 188.8 516.3 223.6 503.7 254.6C506.8 262.4 522.4 305.1 522.7 369.6L542.6 379.5C553.3 350.4 559.1 318.9 559.1 286ZM406.9 41.2C418 51.7 429.8 65.2 437 80.2C443 84.4 485.8 115.8 522.3 170.4C524.4 171 529.3 172.6 535.6 175.2C509.6 116.9 463.9 69.4 406.9 41.2ZM286 12.9C272.8 12.9 259.8 13.8 247 15.7C223.2 22.2 206.1 31.6 199 35.9C206.7 42.8 225.7 61.4 238.7 88.2C251.2 89.5 322.4 97.5 364.1 120.6C370.8 114.9 396 94.4 430.1 80.6C419.3 59.9 398.8 41.8 386.4 32C355.3 19.7 321.4 12.9 286 12.9ZM187.2 540.6C203.4 543 215.2 541.9 220.4 541.1C219.3 534.4 217.3 518 220.2 493.6C196.2 479.8 175 456.5 161.3 439.2C149.1 423.6 140.5 410 137.6 405.2C131 405.933 124.733 406.267 118.8 406.2C83.2 406.2 61.5 394.6 52.6 388.5C51.7 398 51.1 418 58.7 434L60.6 438.1L59.3 438.2C90.3 484.2 134.8 520.3 187.2 540.6ZM286 559.2C336.6 559.2 384.1 545.3 424.8 521.2L418.6 520.5L422.1 516C422.3 515.8 434.9 498.6 433.9 466.1C428.233 466.433 422.833 466.6 417.7 466.6C365.8 466.6 340.7 452.1 333.7 447.2C289.1 480.4 238 492.2 226.6 494.5C223.4 521.3 226.3 538.2 227.1 542C235.6 550.1 246.1 554.7 254.3 557.3C264.7 558.5 275.3 559.2 286 559.2Z" fill="#1B2028"/>
<g style="mix-blend-mode:soft-light" opacity="0.5">
<path d="M207.5 49.5C221.5 65.9 201 106.4 161.7 140C122.4 173.5 79.1 187.4 65.1 171C51.1 154.6 71.7 114.1 111 80.5C150.3 47 193.5 33.1 207.5 49.5Z" fill="#EDEDED"/>
</g>
<g style="mix-blend-mode:soft-light" opacity="0.2">
<path d="M168.4 62.5C161.5 54.4 136.9 64 113.4 83.9C90 103.9 76.7 126.7 83.6 134.9C90.6 143.1 115.2 133.5 138.7 113.5C162.1 93.5 175.4 70.7 168.4 62.5Z" fill="#EDEDED"/>
</g>
</svg>
