<svg width="972" height="861" viewBox="0 0 972 861" fill="none" xmlns="http://www.w3.org/2000/svg">
<path d="M127.7 454.5C111.2 509 101.9 565.7 100.2 622.6C98.4999 675.7 46.2998 733 16.8998 777.1C10.9998 786 3.59982 794.7 2.89982 805.3C2.09982 818.3 11.9998 830 23.8998 835.4C35.7998 840.8 105.2 841.1 118.2 841.4C195.933 843 273.7 844.633 351.5 846.3C427.1 847.9 502.9 849.5 578.4 844.8C651.3 840.3 724.3 830 797.2 835.6C835.9 838.6 874.2 846 912.2 854.1C923.4 856.5 934.9 858.9 946.2 856.9C957.4 854.9 968.5 847.2 970.9 836.1C975.3 815.9 952.3 802.1 937.4 787.8C912.7 764.1 906.6 727.4 904.2 693.2C894.9 563.8 917.8 427.8 867.2 308.4C865.7 304.9 864.1 301.4 861.2 299C857.5 295.9 852.4 295.4 847.6 295C658.4 278.7 468.4 266.3 278.7 274.7C245.4 276.1 211.2 278.5 181.4 293.3C153.9 306.9 142.3 324.4 144.9 352.5C148.2 388.6 138.1 420.1 127.7 454.5Z" fill="#B27C57"/>
<path d="M935.5 790.6C910.8 767 904.7 730.2 902.3 696C896.4 614.2 903.4 529.7 896.5 448.4C878.5 434.5 860.9 420.8 854.1 409.3C839.5 384.4 816.7 362.3 788.3 357.2C827.8 375.6 854.1 414 885.7 444.2C780.9 381.5 653.1 359 530.9 371C420.1 382 311.3 419.4 200.2 411.7C181.4 410.4 162 407.8 144.1 413.6C141.833 414.333 139.633 415.2 137.5 416.2C134.2 429.8 130 443.3 125.7 457.4C120.2 475.7 115.5 494.3 111.6 513C115.3 519.7 121.9 522.1 132.7 523C189.7 527.5 247 522.7 304 526.8C357.4 530.6 409.9 542.2 462.6 551.7C523.3 562.6 584.7 570.9 646.4 573.1C677.6 574.3 710.3 574.1 738.1 588.5C765.9 602.9 786.3 637.4 773.3 665.9C768.9 675.5 760.9 685.4 764.5 695.4C766.1 700.1 770 703.5 773.9 706.5C802.2 728.5 841.3 745.1 847.9 780.2C805.2 791.5 760.1 784.4 716.1 780C493 758 269.5 809.7 45.3999 814.1C36.2999 814.3 26.7999 814.3 18.6999 810.1C11.8999 806.5 6.60009 799 7.10009 791.6C3.90009 796.7 1.39999 802.2 0.999988 808.2C0.0999875 821.2 10.1 832.9 22 838.2C33.8 843.6 103.2 843.9 116.2 844.2C194 845.866 271.8 847.5 349.6 849.1C425.2 850.7 501 852.3 576.5 847.6C649.4 843.2 722.4 832.9 795.2 838.4C834 841.4 872.2 848.8 910.2 856.9C921.4 859.3 933 861.7 944.2 859.7C955.5 857.7 966.6 850.1 969 838.9C973.4 818.7 950.4 804.9 935.5 790.6Z" fill="#996B4D"/>
<path d="M266.6 106.4C280.8 97.5998 293.7 87.5999 307.9 78.7999C324.5 68.3999 343 59.5999 361.9 51.2999C403.3 32.9999 446.9 17.2998 492 4.19984C499 2.09984 506.5 0.0998439 514.1 0.699844C520.2 1.19984 525.8 3.29984 531.2 5.39984C563.2 17.8998 595.6 30.4998 622.8 47.8998C647.7 63.7998 667.7 83.2998 692.1 99.4998C710.7 111.9 731.7 122.3 751.6 133.7C807.8 166.1 854.3 207.1 887.2 253.1C862.3 261.6 833.7 261.7 806.2 263.1C764.6 265.1 723.5 270.3 682 272.9C601.1 277.9 519.7 272.7 438.8 267.5C373.267 263.3 307.767 259.1 242.3 254.9C215.8 253.2 188.5 251.3 164.9 242.5C52.7998 200.2 224.9 132.5 266.6 106.4Z" fill="#EAD181"/>
<path d="M442.5 267.5C523.4 272.7 604.8 277.9 685.7 272.9C695.7 272.3 705.7 271.5 715.6 270.7C712.2 263.5 703.6 256.9 695.1 251.8C668.9 236.2 639.8 222.9 609 212.5C616.333 208.167 623.7 203.833 631.1 199.5C632.8 198.6 634.5 197.5 635.4 196.1C636.5 194.2 635.8 192 635 190C631.3 180.1 624.1 168.1 609.8 168.1C613.2 164.7 618.1 162 623.6 160.6C606.333 156.133 589.067 151.7 571.8 147.3C570.6 147 569.5 146.7 568.8 146C567.6 144.8 568.6 143.1 569.6 141.8C576 133.9 585 127.1 595.6 122.2C593.8 115.6 601.2 109.8 605.1 103.7C609 97.5998 605.3 87.4998 596.1 88.6998C599.767 84.4998 603.4 80.2999 607 76.0999C579.4 66.1999 545.2 73.8999 516.1 66.5999C513.8 65.9999 511.3 65.2998 510 63.6998C507.6 60.9998 510.2 57.3998 512.8 54.6998C519 48.0998 525.2 41.5332 531.4 34.9998C526.5 35.1998 523.5 31.2999 521.7 28.0999C519 23.0999 509.4 11.8999 511.7 6.59985C512.9 3.89985 516.4 2.39985 520.1 0.999847C519.367 0.866514 518.6 0.766511 517.8 0.699844C510.2 0.0998439 502.7 2.09984 495.7 4.19984C450.6 17.2998 407 32.9999 365.6 51.2999C346.7 59.5999 328.2 68.3999 311.6 78.7999C297.4 87.5999 284.5 97.5998 270.3 106.4C228.6 132.5 56.5001 200.2 168.6 242.5C192.2 251.3 219.5 253.2 246 254.9C311.467 259.1 376.967 263.3 442.5 267.5Z" fill="#F7E1AA"/>
<path d="M553.8 45.6C555.733 45.9334 557.7 46.3 559.7 46.7C560.1 46.8 560.6 46.8 561 46.5C561.4 46.3 561.7 45.9 561.8 45.5C562 44.7 561.5 43.6 560.6 43.4C558.6 43.0667 556.633 42.7 554.7 42.3C554.2 42.2 553.8 42.2 553.4 42.5C553 42.7 552.7 43.1 552.6 43.5C552.4 44.3 552.9 45.4 553.8 45.6Z" fill="#F7E1AA"/>
<path d="M542.9 26.9996C545.7 27.7996 548.467 28.5996 551.2 29.3996C552.1 29.6996 553.1 29.0996 553.3 28.1996C553.5 27.2996 553.1 26.3996 552.1 26.0996C549.367 25.2996 546.6 24.4996 543.8 23.6996C542.9 23.3996 541.9 23.9996 541.7 24.8996C541.5 25.7996 542 26.6996 542.9 26.9996Z" fill="#F7E1AA"/>
<path d="M537.1 61.7998C538.5 61.3998 539.867 60.9665 541.2 60.4998C541.6 60.3998 542 60.0998 542.2 59.7998C542.5 59.3998 542.5 58.8998 542.4 58.3998C542.1 57.5998 541.2 56.9998 540.3 57.2998C538.967 57.6998 537.6 58.1331 536.2 58.5998C535.8 58.6998 535.4 58.9998 535.2 59.2998C535 59.6998 534.9 60.1998 535 60.6998C535.3 61.4998 536.2 62.0998 537.1 61.7998Z" fill="#F7E1AA"/>
<path d="M541.2 40.7998C542.067 40.9998 542.9 41.1997 543.7 41.3997C544.2 41.4997 544.6 41.4997 545 41.1997C545.4 40.9997 545.7 40.5997 545.8 40.1997C545.9 39.7997 545.9 39.2997 545.7 38.8997C545.4 38.4997 545.1 38.1998 544.6 38.0998C543.8 37.8998 542.967 37.6997 542.1 37.4997C541.7 37.3997 541.2 37.3997 540.8 37.6997C540.4 37.8997 540.1 38.2997 540 38.6997C539.9 39.0997 539.9 39.5997 540.2 39.9997C540.4 40.3997 540.8 40.6998 541.2 40.7998Z" fill="#F7E1AA"/>
<path d="M527.5 20.7999C528.3 20.3999 529.133 19.9999 530 19.5999C530.2 19.5332 530.367 19.3999 530.5 19.1999C530.633 18.9999 530.733 18.7999 530.8 18.5999C530.867 18.3999 530.867 18.1666 530.8 17.8999C530.8 17.6999 530.734 17.4999 530.6 17.2999C530.4 16.8999 530 16.5999 529.6 16.4999C529.4 16.4999 529.234 16.4666 529.1 16.3999C528.834 16.3999 528.567 16.4999 528.3 16.6999C527.433 17.0999 526.567 17.4999 525.7 17.8999C525.5 17.9666 525.367 18.0999 525.3 18.2999C525.1 18.4332 525 18.6332 525 18.8999C524.867 19.0999 524.833 19.3332 524.9 19.5999C524.9 19.7999 524.967 19.9999 525.1 20.1999C525.4 20.5999 525.7 20.8999 526.1 20.9999C526.3 20.9999 526.467 20.9999 526.6 20.9999C526.934 20.9999 527.233 20.9332 527.5 20.7999Z" fill="#F7E1AA"/>
<path d="M568.8 66.8C571.867 64.3334 574.933 61.9 578 59.5C578.7 59 578.6 57.7 578 57.1C577.2 56.4 576.3 56.5 575.6 57.1C572.534 59.5 569.467 61.9334 566.4 64.4C565.7 64.9 565.7 66.2 566.4 66.8C567.1 67.5 568 67.4 568.8 66.8Z" fill="#F7E1AA"/>
<path d="M571.7 77.1996C575.633 74.7996 579.567 72.3996 583.5 69.9996C584.3 69.4996 584.6 68.4996 584.1 67.6996C583.6 66.8996 582.6 66.5996 581.8 66.9996C577.867 69.3996 573.933 71.7996 570 74.1996C569.2 74.6996 568.9 75.7997 569.4 76.5997C569.9 77.3997 570.9 77.6996 571.7 77.1996Z" fill="#F7E1AA"/>
<path d="M606.2 77.5998C606.933 77.4665 607.7 77.4331 608.5 77.4998C608.633 77.4998 608.8 77.5331 609 77.5998C609.3 77.5998 608.7 77.4998 609 77.5998C609.067 77.5998 609.133 77.5998 609.2 77.5998C609.6 77.6665 609.967 77.7331 610.3 77.7998C610.633 77.9331 610.967 78.0665 611.3 78.1998C611.4 78.1998 611.5 78.1998 611.6 78.2998C611.5 78.1998 611.3 78.1998 611.5 78.2998C611.633 78.3665 611.8 78.4331 612 78.4998C612.267 78.6331 612.567 78.7998 612.9 78.9998C612.967 79.0665 613 79.0998 613 79.0998C613.2 79.2998 612.8 78.8998 613 79.0998C613.133 79.2331 613.267 79.3331 613.4 79.3998C614 80.0998 615.1 80.0998 615.8 79.3998C616.4 78.7998 616.5 77.6998 615.8 76.9998C613.3 74.6998 609.6 73.7998 606.2 74.0998C605.3 74.1998 604.5 74.8998 604.5 75.7998C604.5 76.6998 605.3 77.6998 606.2 77.5998Z" fill="#F7E1AA"/>
<path d="M604.9 98.5001C609.3 99.2001 613.5 100.3 617.6 102C618.5 102.3 619.5 101.6 619.7 100.8C620 99.8001 619.4 99.0001 618.5 98.7001C614.4 97.0001 610.2 95.9001 605.8 95.2001C604.9 95.1001 604 95.5001 603.7 96.4001C603.5 97.2001 604 98.4001 604.9 98.5001Z" fill="#F7E1AA"/>
<path d="M595.7 108.3C597.1 109.7 598.5 111.1 599.9 112.5C600.6 113.2 601.7 113.2 602.4 112.5C603 111.8 603 110.8 602.4 110.1C601 108.7 599.6 107.3 598.2 105.9C597.5 105.3 596.4 105.2 595.7 105.9C595.1 106.6 595.1 107.6 595.7 108.3Z" fill="#F7E1AA"/>
<path d="M614 122.4C614.867 123.733 615.767 125.1 616.7 126.5C616.9 126.9 617.3 127.2 617.7 127.3C618.1 127.4 618.7 127.4 619 127.1C619.4 126.9 619.7 126.5 619.8 126.1C619.9 125.7 619.9 125.2 619.7 124.8C618.767 123.4 617.833 122.033 616.9 120.7C616.7 120.3 616.3 120 615.9 119.9C615.5 119.8 614.9 119.8 614.6 120C614.2 120.3 613.9 120.6 613.8 121.1C613.7 121.5 613.7 122 614 122.4Z" fill="#F7E1AA"/>
<path d="M596.1 136.4C596.167 136.6 596.233 136.8 596.3 137C596.233 136.867 596.2 136.7 596.2 136.5C596.267 136.833 596.267 137.2 596.2 137.6C596.2 137.4 596.2 137.233 596.2 137.1C596.2 137.433 596.133 137.767 596 138.1C596.067 137.967 596.1 137.833 596.1 137.7C595.967 138.033 595.767 138.367 595.5 138.7C595.3 139 595.3 139.6 595.4 140C595.5 140.4 595.8 140.8 596.2 141C596.6 141.3 597 141.4 597.5 141.2C597.633 141.133 597.767 141.067 597.9 141C598.167 140.867 598.367 140.667 598.5 140.4C599.5 139.1 599.9 137.2 599.4 135.5C599.3 135.1 599 134.7 598.6 134.5C598.3 134.3 597.7 134.2 597.3 134.3C596.9 134.4 596.5 134.7 596.3 135.1C596.1 135.5 596 136 596.1 136.4Z" fill="#F7E1AA"/>
<path d="M575.4 143.9C574.4 146.8 575 150.1 576.8 152.5C577.1 152.9 577.4 153.2 577.8 153.3C578.2 153.4 578.8 153.4 579.1 153.2C579.8 152.7 580.3 151.6 579.7 150.8C579.5 150.533 579.333 150.267 579.2 150C579.1 149.8 578.8 149.4 578.7 149.1C578.833 149.367 578.867 149.4 578.8 149.2C578.733 149.133 578.7 149.067 578.7 149C578.633 148.867 578.6 148.733 578.6 148.6C578.467 148.333 578.4 148.033 578.4 147.7C578.333 147.633 578.3 147.567 578.3 147.5C578.367 147.767 578.367 147.8 578.3 147.6C578.3 147.467 578.3 147.3 578.3 147.1C578.3 146.833 578.3 146.567 578.3 146.3C578.3 146.233 578.3 146.167 578.3 146.1C578.367 145.9 578.367 145.933 578.3 146.2L578.4 145.8C578.467 145.467 578.567 145.133 578.7 144.8C579 144 578.3 142.9 577.5 142.7C576.5 142.5 575.7 143 575.4 143.9Z" fill="#F7E1AA"/>
<path d="M601.2 156.3C606.467 155.7 611.767 155.067 617.1 154.4C618 154.2 618.8 153.7 618.8 152.6C618.8 151.8 618 150.8 617.1 150.9C611.767 151.567 606.467 152.233 601.2 152.9C600.3 153.1 599.5 153.6 599.5 154.6C599.5 155.5 600.3 156.5 601.2 156.3Z" fill="#F7E1AA"/>
<path d="M628.8 151.8C632.2 150.067 635.6 148.333 639 146.6C639.8 146.2 640.1 145 639.7 144.2C639.1 143.4 638.2 143.2 637.3 143.6C633.9 145.333 630.467 147.067 627 148.8C626.2 149.2 626 150.4 626.4 151.1C627 152 627.9 152.2 628.8 151.8Z" fill="#F7E1AA"/>
<path d="M645.2 135.8C647.467 135.4 649.7 135 651.9 134.6C652.8 134.5 653.4 133.3 653.1 132.5C652.8 131.6 652 131.2 651 131.3C648.8 131.7 646.567 132.1 644.3 132.5C643.4 132.7 642.9 133.8 643.1 134.6C643.4 135.5 644.3 136 645.2 135.8Z" fill="#F7E1AA"/>
<path d="M628.1 136.3C629.433 135.433 630.767 134.567 632.1 133.7C632.5 133.5 632.7 133.1 632.9 132.7C633 132.3 632.9 131.7 632.7 131.4C632.5 131 632.1 130.7 631.7 130.6C631.2 130.5 630.7 130.5 630.4 130.8C629.067 131.667 627.733 132.533 626.4 133.4C626 133.6 625.7 133.9 625.6 134.4C625.5 134.8 625.6 135.3 625.8 135.7C626 136.1 626.4 136.4 626.8 136.5C627.2 136.6 627.7 136.6 628.1 136.3Z" fill="#F7E1AA"/>
<path d="M639.8 112.2C641.2 111.2 642.567 110.2 643.9 109.2C644.3 108.9 644.6 108.6 644.7 108.1C644.8 107.7 644.8 107.2 644.6 106.8C644.3 106.5 644 106.1 643.5 106C643.1 105.9 642.6 106 642.2 106.2C640.8 107.2 639.4 108.2 638 109.2C637.7 109.5 637.4 109.8 637.3 110.2C637.1 110.7 637.2 111.2 637.4 111.6C637.7 111.9 638 112.2 638.4 112.3C638.9 112.4 639.4 112.4 639.8 112.2Z" fill="#F7E1AA"/>
<path d="M663.5 110.1C665.967 111.033 668.533 111.733 671.2 112.2C672.1 112.4 673.1 112 673.3 111C673.5 110.2 673 109.1 672.1 108.9C669.434 108.433 666.867 107.733 664.4 106.8C663.5 106.5 662.5 107.2 662.3 108C662.1 109 662.6 109.8 663.5 110.1Z" fill="#F7E1AA"/>
<path d="M692.2 128.1C693.333 129.1 694.467 130.1 695.6 131.1C695.9 131.4 696.3 131.6 696.8 131.6C697.2 131.6 697.7 131.4 698 131.1C698.3 130.8 698.5 130.4 698.5 129.9C698.5 129.5 698.3 129 698 128.7C696.867 127.7 695.767 126.7 694.7 125.7C694.3 125.4 693.9 125.2 693.4 125.2C693 125.2 692.5 125.4 692.2 125.7C691.9 126 691.7 126.4 691.7 126.9C691.8 127.3 691.9 127.8 692.2 128.1Z" fill="#F7E1AA"/>
<path d="M662.3 160.9C662.7 161.1 663.1 161.333 663.5 161.6C663.367 161.533 663.233 161.467 663.1 161.4C663.567 161.733 664 162.133 664.4 162.6C664.333 162.533 664.233 162.433 664.1 162.3C664.433 162.7 664.7 163.1 664.9 163.5C664.833 163.367 664.767 163.233 664.7 163.1C664.833 163.433 664.933 163.767 665 164.1C665.1 164.5 665.4 164.9 665.8 165.1C666.1 165.3 666.7 165.4 667.1 165.2C667.5 165.1 667.9 164.9 668.1 164.5C668.3 164.033 668.367 163.567 668.3 163.1C667.8 160.9 666 159 664 157.9C663.7 157.7 663.2 157.7 662.7 157.8C662.3 157.9 661.9 158.2 661.7 158.6C661.3 159.4 661.5 160.4 662.3 160.9Z" fill="#F7E1AA"/>
<path d="M634.7 174.2C637.233 174.466 639.733 174.733 642.2 175C643.1 175.1 644 174.1 644 173.3C643.9 172.3 643.2 171.6 642.2 171.5C639.733 171.3 637.233 171.066 634.7 170.8C633.8 170.7 633 171.6 633 172.5C633.1 173.5 633.8 174.1 634.7 174.2Z" fill="#F7E1AA"/>
<path d="M623.8 187.1C627.733 186.7 631.667 186.333 635.6 186C636.5 185.9 637.3 185.2 637.3 184.3C637.3 183.4 636.5 182.5 635.6 182.6C631.667 182.933 627.733 183.3 623.8 183.7C622.9 183.8 622.1 184.4 622.1 185.4C622.1 186.2 622.9 187.2 623.8 187.1Z" fill="#F7E1AA"/>
<path d="M623.3 200.8C626.8 202.2 630.6 202.4 634.3 201.9C635.2 201.7 635.8 200.6 635.5 199.8C635.2 198.8 634.3 198.4 633.4 198.6C633.267 198.6 633.133 198.6 633 198.6C633.2 198.6 633.2 198.6 633 198.6C632.8 198.666 632.6 198.7 632.4 198.7C632 198.7 631.6 198.733 631.2 198.8C630.333 198.8 629.5 198.733 628.7 198.6C628.6 198.6 628.1 198.6 628.4 198.6C628.2 198.6 627.967 198.566 627.7 198.5C627.3 198.433 626.9 198.333 626.5 198.2C625.7 198.066 624.933 197.833 624.2 197.5C623.4 197.2 622.3 197.9 622.1 198.7C621.9 199.7 622.4 200.4 623.3 200.8Z" fill="#F7E1AA"/>
<path d="M619.2 219C623.3 215.7 627.6 212.8 632 210C633.9 208.9 632.2 205.9 630.3 207.1C625.633 209.966 621.133 213.1 616.8 216.5C616 217.1 616.2 218.4 616.8 219C617.5 219.7 618.5 219.5 619.2 219Z" fill="#F7E1AA"/>
<path d="M636.9 222.4C639.367 221.4 641.867 220.4 644.4 219.4C644.8 219.2 645.1 219 645.4 218.6C645.6 218.2 645.7 217.7 645.6 217.3C645.3 216.5 644.3 215.7 643.5 216.1C640.967 217.1 638.467 218.1 636 219.1C635.5 219.3 635.2 219.5 635 219.9C634.7 220.3 634.6 220.8 634.8 221.2C635 222 636 222.8 636.9 222.4Z" fill="#F7E1AA"/>
<path d="M666.2 227.2C667.333 226.8 668.533 226.5 669.8 226.3C669.933 226.233 670.067 226.2 670.2 226.2C670.4 226.2 670.4 226.2 670.2 226.2C670.267 226.2 670.333 226.2 670.4 226.2C670.666 226.133 670.967 226.1 671.3 226.1C671.967 226.033 672.633 226 673.3 226C674.2 226 675 225.2 675 224.3C674.9 223.4 674.2 222.6 673.3 222.6C670.6 222.6 667.8 223 665.3 223.9C664.4 224.2 663.8 225.1 664.1 226C664.4 226.8 665.3 227.5 666.2 227.2Z" fill="#F7E1AA"/>
<path d="M662.4 204.4C664.2 204.5 666.1 204.3 667.8 203.7C668.3 203.6 668.6 203.3 668.8 202.9C669.1 202.6 669.2 202 669 201.6C668.8 200.8 667.8 200.1 666.9 200.4C666.167 200.667 665.4 200.867 664.6 201C664.734 200.933 664.867 200.9 665 200.9C664.133 201.033 663.267 201.067 662.4 201C662 200.9 661.4 201.2 661.2 201.5C660.9 201.8 660.6 202.3 660.7 202.7C660.7 203.7 661.4 204.3 662.4 204.4Z" fill="#F7E1AA"/>
<path d="M692.5 190.9C694.433 189.7 696.4 188.5 698.4 187.3C699.1 186.8 699.5 185.7 699 184.9C698.5 184.2 697.5 183.8 696.6 184.3C694.667 185.5 692.733 186.7 690.8 187.9C690 188.4 689.7 189.5 690.2 190.3C690.7 191 691.7 191.4 692.5 190.9Z" fill="#F7E1AA"/>
<path d="M720.2 183.4C720.733 183.4 721.3 183.4 721.9 183.4C722.1 183.4 722.3 183.333 722.5 183.2C722.767 183.133 722.967 183.033 723.1 182.9C723.233 182.7 723.333 182.5 723.4 182.3C723.533 182.1 723.6 181.867 723.6 181.6C723.6 181.467 723.567 181.333 723.5 181.2C723.433 180.933 723.3 180.667 723.1 180.4C722.8 180.1 722.3 179.9 721.9 179.9C721.3 179.9 720.733 179.9 720.2 179.9C720 179.9 719.767 179.967 719.5 180.1C719.3 180.167 719.133 180.267 719 180.4C718.8 180.6 718.667 180.8 718.6 181C718.533 181.2 718.5 181.4 718.5 181.6C718.5 181.8 718.533 181.967 718.6 182.1C718.667 182.367 718.8 182.633 719 182.9C719.3 183.2 719.7 183.4 720.2 183.4Z" fill="#F7E1AA"/>
<path d="M700.5 212.2C703.567 212.866 706.667 213.533 709.8 214.2C710.7 214.4 711.7 214 711.9 213C712.1 212.2 711.7 211.2 710.7 211C707.633 210.266 704.533 209.566 701.4 208.9C700.5 208.7 699.5 209.1 699.3 210.1C699.1 210.9 699.5 212 700.5 212.2Z" fill="#F7E1AA"/>
<path d="M717.3 230.8C718.7 230.4 720.1 230 721.5 229.6C721.9 229.5 722.3 229.2 722.5 228.8C722.7 228.4 722.8 227.9 722.7 227.5C722.4 226.6 721.5 226 720.6 226.3C719.2 226.7 717.8 227.1 716.4 227.5C716 227.6 715.6 227.9 715.4 228.3C715.2 228.6 715.1 229.2 715.2 229.6C715.5 230.5 716.4 231.1 717.3 230.8Z" fill="#F7E1AA"/>
<path d="M760.8 212C765.1 210.8 769.4 210.3 773.8 210.4C774.8 210.5 775.6 209.6 775.6 208.7C775.6 207.8 774.8 207 773.8 207C769.2 206.9 764.4 207.4 759.9 208.7C757.8 209.3 758.7 212.6 760.8 212Z" fill="#F7E1AA"/>
<path d="M734.6 174C735 174.3 735.4 174.5 735.9 174.6C736.4 174.8 736.9 174.9 737.4 174.9C738.4 174.9 739.5 174.7 740.4 174.1C740.8 173.9 741.1 173.5 741.2 173.1C741.3 172.7 741.2 172.2 741 171.8C740.5 171 739.5 170.7 738.7 171.2C738.567 171.266 738.4 171.333 738.2 171.4C738.333 171.333 738.5 171.266 738.7 171.2C738.367 171.333 738.033 171.433 737.7 171.5C737.833 171.5 738 171.466 738.2 171.4C737.8 171.466 737.4 171.466 737 171.4C737.133 171.466 737.3 171.5 737.5 171.5C737.167 171.433 736.833 171.333 736.5 171.2C736.633 171.266 736.767 171.333 736.9 171.4C736.7 171.333 736.5 171.233 736.3 171.1C736 170.8 735.4 170.8 735 170.9C734.6 171 734.1 171.3 734 171.7C733.7 172.1 733.6 172.5 733.8 173C733.867 173.133 733.933 173.266 734 173.4C734.133 173.666 734.333 173.866 734.6 174Z" fill="#F7E1AA"/>
<path d="M755.7 197.9C756.833 196.633 757.933 195.4 759 194.2C759.3 193.9 759.5 193.5 759.5 193C759.5 192.6 759.3 192.1 759 191.8C758.7 191.5 758.3 191.3 757.8 191.3C757.4 191.3 756.9 191.5 756.6 191.8C755.533 193 754.433 194.2 753.3 195.4C753 195.8 752.8 196.2 752.8 196.7C752.8 197.1 753 197.6 753.3 197.9C753.6 198.2 754.1 198.4 754.5 198.4C755 198.3 755.4 198.2 755.7 197.9Z" fill="#F7E1AA"/>
<path d="M720.6 163C721.733 162 722.867 161 724 160C724.3 159.7 724.5 159.2 724.5 158.8C724.5 158.4 724.3 157.9 724 157.6C723.6 157.3 723.2 157.1 722.8 157.1C722.333 157.1 721.9 157.266 721.5 157.6C720.433 158.6 719.333 159.6 718.2 160.6C717.9 160.9 717.7 161.4 717.7 161.8C717.7 162.2 717.9 162.7 718.2 163C718.5 163.3 719 163.6 719.4 163.5C719.867 163.5 720.267 163.333 720.6 163Z" fill="#F7E1AA"/>
<path d="M771.3 170.1C772.9 170.033 774.467 170.1 776 170.3C775.6 170.3 776.2 170.3 776.2 170.3C776.4 170.367 776.6 170.4 776.8 170.4C777.133 170.467 777.467 170.567 777.8 170.7C778.6 170.833 779.367 171.033 780.1 171.3C780.9 171.5 782 171 782.2 170.1C782.4 169.2 781.9 168.3 781 168C777.9 167 774.6 166.6 771.3 166.7C770.4 166.7 769.6 167.5 769.6 168.4C769.7 169.3 770.4 170.1 771.3 170.1Z" fill="#F7E1AA"/>
<path d="M807.7 193.6C809.967 194.4 812.2 195.2 814.4 196C815.3 196.3 816.3 195.6 816.5 194.8C816.8 193.8 816.2 193 815.3 192.7C813.1 191.9 810.867 191.1 808.6 190.3C807.8 190 806.7 190.6 806.5 191.5C806.3 192.4 806.8 193.2 807.7 193.6Z" fill="#F7E1AA"/>
<path d="M746.1 236.5C746.033 236.633 745.967 236.8 745.9 237C745.967 236.866 746.033 236.733 746.1 236.6C745.767 237.333 745.333 238.033 744.8 238.7C744.867 238.566 744.967 238.466 745.1 238.4C744.433 239.2 743.7 239.9 742.9 240.5C743.033 240.366 743.167 240.266 743.3 240.2C742.9 240.466 742.5 240.733 742.1 241C741.4 241.5 741 242.6 741.5 243.4C742 244.1 743 244.5 743.8 244C746.3 242.4 748.4 240.2 749.4 237.4C749.7 236.5 749 235.5 748.2 235.3C747.2 235.1 746.4 235.6 746.1 236.5Z" fill="#F7E1AA"/>
<path d="M690.9 256.7C693.5 256.5 696.3 255.8 698.5 254.1C698.8 253.8 699.1 253.5 699.3 253.1C699.4 252.7 699.3 252.1 699.1 251.8C698.8 251.4 698.5 251.1 698.1 251C697.6 250.9 697.1 250.9 696.7 251.1C696.3 251.5 695.833 251.833 695.3 252.1C695.1 252.233 694.867 252.333 694.6 252.4C694.4 252.466 694.433 252.466 694.7 252.4C694.633 252.4 694.567 252.433 694.5 252.5C694.367 252.5 694.233 252.533 694.1 252.6C693.567 252.8 693 252.966 692.4 253.1C692.267 253.1 692.1 253.133 691.9 253.2C691.8 253.2 691.6 253.3 691.5 253.3C691.767 253.233 691.8 253.2 691.6 253.2C691.533 253.266 691.433 253.3 691.3 253.3C691.167 253.3 691.033 253.3 690.9 253.3C690 253.4 689.1 254 689.2 255C689.2 255.9 689.9 256.8 690.9 256.7Z" fill="#F7E1AA"/>
<path d="M674 238C675.8 239.7 678.4 240.4 680.9 240.2C681.3 240.2 681.7 240 682.1 239.7C682.4 239.4 682.6 238.9 682.6 238.5C682.5 237.6 681.8 236.7 680.9 236.8C680.233 236.867 679.6 236.867 679 236.8C679.133 236.8 679.267 236.8 679.4 236.8C678.733 236.733 678.067 236.567 677.4 236.3C677.533 236.367 677.667 236.433 677.8 236.5C677.467 236.367 677.167 236.2 676.9 236C676.8 235.9 676.6 235.8 676.5 235.7C676.5 235.8 676.8 236 676.6 235.8C676.533 235.733 676.467 235.667 676.4 235.6C675.7 235 674.6 234.9 674 235.6C673.4 236.3 673.3 237.4 674 238Z" fill="#F7E1AA"/>
<path d="M653.8 231.3C653.933 231.367 654.033 231.433 654.1 231.5C653.967 231.433 653.833 231.333 653.7 231.2C654.033 231.467 654.3 231.733 654.5 232C654.433 231.867 654.367 231.767 654.3 231.7C654.433 231.9 654.567 232.167 654.7 232.5C654.633 232.367 654.567 232.233 654.5 232.1C654.633 232.367 654.733 232.633 654.8 232.9C654.733 232.767 654.7 232.6 654.7 232.4C654.767 232.733 654.767 233.033 654.7 233.3C654.767 233.167 654.8 233 654.8 232.8C654.733 233.067 654.667 233.333 654.6 233.6C654.667 233.467 654.7 233.333 654.7 233.2C654.633 233.4 654.533 233.6 654.4 233.8C654.2 234.1 654.1 234.7 654.2 235.1C654.4 235.5 654.7 235.9 655 236.1C655.9 236.6 656.8 236.3 657.4 235.5C658.1 234.4 658.3 232.9 658 231.6C657.7 230.3 656.7 229.2 655.6 228.4C655.2 228.1 654.6 228.1 654.2 228.2C653.8 228.3 653.4 228.6 653.2 229C652.8 229.9 653 230.8 653.8 231.3Z" fill="#F7E1AA"/>
<path d="M665.5 214.6C666.1 216 666.7 217.4 667.3 218.8C667.5 219.2 667.7 219.6 668.1 219.8C668.4 220 669 220.1 669.4 220C669.8 219.9 670.2 219.6 670.4 219.2C670.6 218.8 670.8 218.3 670.6 217.9C670 216.5 669.4 215.1 668.8 213.7C668.7 213.3 668.5 212.9 668.1 212.7C667.7 212.5 667.2 212.4 666.7 212.5C666.3 212.6 665.9 212.9 665.7 213.3C665.5 213.7 665.4 214.2 665.5 214.6Z" fill="#F7E1AA"/>
<path d="M634.8 219.8C635.333 219.333 635.467 219.166 635.2 219.3C635.333 219.233 635.467 219.166 635.6 219.1C635.6 219.166 635.567 219.2 635.5 219.2C635.633 219.2 635.8 219.166 636 219.1C635.867 219.1 635.767 219.1 635.7 219.1C635.833 219.1 636 219.133 636.2 219.2C636.133 219.2 636.033 219.166 635.9 219.1C636.033 219.166 636.167 219.233 636.3 219.3C636.2 219.2 636.2 219.1 636.5 219.4C636.3 219.3 636.7 219.8 636.6 219.6C636.667 219.733 636.733 219.866 636.8 220C636.8 220.133 636.833 220.266 636.9 220.4C636.9 220.4 636.9 220.366 636.9 220.3C636.833 220.433 636.8 220.566 636.8 220.7C636.8 220.7 636.8 220.666 636.8 220.6C636.8 220.733 636.767 220.866 636.7 221C636.7 221 636.8 220.9 636.7 220.8C636.8 220.9 636.5 221.2 636.7 221C636.767 220.933 636.833 220.833 636.9 220.7C637.167 220.5 637.433 220.333 637.7 220.2C638.167 219.8 638.634 219.4 639.1 219C640.1 218.266 641.067 217.5 642 216.7C642.4 216.4 642.5 215.9 642.5 215.5C642.5 215.1 642.4 214.6 642 214.3C641.7 214 641.3 213.8 640.8 213.8C640.4 213.8 640 214 639.6 214.3C638 215.566 636.433 216.833 634.9 218.1C634.4 218.4 634 218.7 633.8 219.2C633.3 220 633.4 221.1 634 221.8C634.5 222.3 635.1 222.5 635.8 222.5C636.6 222.6 637.3 222.2 637.7 221.5C638.2 220.8 637.9 219.6 637.1 219.2C636.2 218.7 635.3 219 634.8 219.8Z" fill="#F7E1AA"/>
<path d="M615.9 213.2C617.3 213.6 618.7 214.033 620.1 214.5C620.9 214.7 622 214.1 622.2 213.3C622.4 212.3 621.9 211.4 621 211.2C619.6 210.733 618.2 210.3 616.8 209.9C615.9 209.7 614.9 210.2 614.7 211.1C614.5 212 615 212.9 615.9 213.2Z" fill="#F7E1AA"/>
<path d="M646 205.1C646.133 205.233 646.267 205.4 646.4 205.6C646.333 205.466 646.233 205.333 646.1 205.2C646.5 205.666 646.8 206.166 647 206.7C647 206.566 646.967 206.433 646.9 206.3C647.1 206.833 647.233 207.366 647.3 207.9C647.3 207.766 647.267 207.6 647.2 207.4C647.267 207.866 647.3 208.3 647.3 208.7C647.2 209.1 647.5 209.6 647.8 209.9C648.1 210.2 648.6 210.4 649 210.4C649.4 210.4 649.9 210.2 650.2 209.9C650.5 209.6 650.6 209.2 650.7 208.7C650.9 206.5 649.9 204.3 648.5 202.7C647.9 202 646.6 202 646 202.7C645.4 203.4 645.4 204.4 646 205.1Z" fill="#F7E1AA"/>
<path d="M657.3 186.7C657.9 187.1 658.467 187.5 659 187.9C659.2 188.033 659.4 188.1 659.6 188.1C659.867 188.166 660.1 188.166 660.3 188.1C660.5 188.033 660.7 187.933 660.9 187.8C661.1 187.666 661.233 187.5 661.3 187.3C661.367 187.166 661.433 187.033 661.5 186.9C661.567 186.633 661.567 186.333 661.5 186C661.433 185.866 661.367 185.733 661.3 185.6C661.167 185.333 660.967 185.133 660.7 185C660.167 184.6 659.6 184.2 659 183.8C658.8 183.666 658.6 183.6 658.4 183.6C658.2 183.533 657.967 183.533 657.7 183.6C657.5 183.666 657.3 183.766 657.1 183.9C656.967 184.033 656.833 184.2 656.7 184.4C656.633 184.533 656.567 184.666 656.5 184.8C656.433 185.133 656.433 185.433 656.5 185.7C656.567 185.833 656.633 185.966 656.7 186.1C656.833 186.366 657.033 186.566 657.3 186.7Z" fill="#F7E1AA"/>
<path d="M593.6 149C595.6 148.8 597.567 148.6 599.5 148.4C600 148.4 600.3 148.3 600.7 147.9C601 147.6 601.2 147.1 601.2 146.7C601.2 146.3 601 145.8 600.7 145.5C600.4 145.2 599.9 144.9 599.5 145C597.567 145.2 595.6 145.4 593.6 145.6C593.2 145.7 592.8 145.8 592.4 146.1C592.1 146.4 591.9 146.9 591.9 147.3C591.9 147.8 592.1 148.2 592.4 148.6C592.7 148.8 593.2 149.1 593.6 149Z" fill="#F7E1AA"/>
<path d="M582.8 135.6C584.2 136.4 585.6 137.2 587 138C587.4 138.2 587.8 138.3 588.3 138.1C588.7 138 589.1 137.7 589.3 137.4C589.7 136.5 589.5 135.5 588.7 135C587.3 134.2 585.9 133.4 584.5 132.6C584.1 132.4 583.6 132.3 583.2 132.4C582.8 132.6 582.4 132.9 582.2 133.2C581.7 134 581.9 135.1 582.8 135.6Z" fill="#F7E1AA"/>
<path d="M594.4 117C598.1 118.7 602.2 119.4 606.2 119C607.1 118.9 608 118.3 607.9 117.3C607.9 116.4 607.2 115.5 606.2 115.6C605.333 115.666 604.433 115.7 603.5 115.7C603.033 115.7 602.567 115.666 602.1 115.6C601.9 115.6 601.667 115.6 601.4 115.6C601.6 115.6 601 115.5 601 115.5C600.133 115.366 599.267 115.166 598.4 114.9C598 114.766 597.6 114.633 597.2 114.5C596.7 114.3 596.7 114.3 596.2 114C595.4 113.7 594.3 113.8 593.8 114.7C593.4 115.4 593.6 116.6 594.4 117Z" fill="#F7E1AA"/>
<path d="M623.8 101.9C625.2 101.3 626.6 100.7 628 100.1C628.4 100 628.7 99.5 628.8 99.1C628.9 98.7 628.9 98.2 628.6 97.8C628.4 97.4 628 97.1 627.6 97C627.467 97 627.333 97 627.2 97C626.867 97 626.567 97.0667 626.3 97.2C624.9 97.8 623.5 98.4 622.1 99C621.7 99.2 621.4 99.7 621.3 100C621.2 100.4 621.3 101 621.5 101.3C621.7 101.7 622.1 102 622.5 102.1C622.633 102.167 622.8 102.2 623 102.2C623.267 102.2 623.533 102.1 623.8 101.9Z" fill="#F7E1AA"/>
<path d="M623.8 77.4996C624.067 77.4996 624.333 77.4996 624.6 77.4996C624.867 77.4996 625.1 77.4663 625.3 77.3996C625.5 77.3329 625.7 77.1996 625.9 76.9996C626.033 76.8663 626.133 76.6996 626.2 76.4996C626.333 76.2996 626.4 76.0663 626.4 75.7996C626.333 75.6663 626.3 75.5329 626.3 75.3996C626.233 75.0663 626.1 74.7996 625.9 74.5996C625.767 74.5329 625.633 74.4663 625.5 74.3996C625.233 74.1996 624.933 74.0996 624.6 74.0996C624.333 74.0996 624.067 74.0996 623.8 74.0996C623.6 74.0996 623.4 74.1663 623.2 74.2996C622.933 74.3663 622.733 74.4663 622.6 74.5996C622.467 74.7996 622.333 74.9996 622.2 75.1996C622.133 75.3996 622.1 75.5996 622.1 75.7996C622.1 75.9996 622.133 76.1663 622.2 76.2996C622.267 76.5663 622.4 76.7996 622.6 76.9996C622.733 77.1329 622.833 77.2329 622.9 77.2996C623.167 77.4329 623.467 77.4996 623.8 77.4996Z" fill="#F7E1AA"/>
<path d="M527.8 71C530.6 67.5 534.1 65.2 538.3 63.4C539.1 63.1 539.4 61.8 538.9 61.1C538.3 60.2 537.4 60.1 536.6 60.5C532.3 62.3 528.3 65 525.4 68.6C524.9 69.3 524.7 70.4 525.4 71C526 71.6 527.2 71.8 527.8 71Z" fill="#F7E1AA"/>
<path d="M507.3 61.2997C511.1 61.0997 514.8 61.4997 518.5 62.5997C519.4 62.7997 520.4 62.1997 520.6 61.3997C520.9 60.4997 520.3 59.4997 519.4 59.2997C515.5 58.0997 511.4 57.6997 507.3 57.8997C506.4 57.8997 505.6 58.5997 505.6 59.5997C505.6 60.4997 506.4 61.2997 507.3 61.2997Z" fill="#F7E1AA"/>
<path d="M517.4 49.6C519.8 50.9 522.5 51.8 525.3 52.3C526.1 52.4 527.1 52.1 527.4 51.1C527.5 50.3 527.1 49.2 526.2 49C524.867 48.8 523.567 48.5 522.3 48.1C521.967 47.9667 521.666 47.8333 521.4 47.7C521.266 47.7 521.133 47.6667 521 47.6C520.9 47.6 520.4 47.3 520.8 47.5C520.2 47.3 519.6 47 519.1 46.7C518.3 46.3 517.2 46.5 516.7 47.3C516.3 48.1 516.5 49.2 517.4 49.6Z" fill="#F7E1AA"/>
<path d="M523.3 59.3C521.233 62.1667 519.133 65.0333 517 67.9C516.5 68.6 516.9 69.8 517.7 70.2C518.5 70.7 519.4 70.4 520 69.6C522.067 66.7334 524.133 63.8667 526.2 61C526.7 60.3 526.4 59.1 525.6 58.7C524.7 58.2 523.8 58.5 523.3 59.3Z" fill="#F7E1AA"/>
<path d="M517.3 71.8999C518.433 72.4999 519.567 73.0999 520.7 73.6999C521.1 73.8999 521.6 73.9999 522 73.8999C522.4 73.7999 522.8 73.3999 523 73.0999C523.2 72.6999 523.3 72.1999 523.2 71.7999C523.1 71.2999 522.8 70.9999 522.4 70.6999C521.267 70.0999 520.167 69.4999 519.1 68.8999C518.7 68.6999 518.2 68.5999 517.7 68.7999C517.3 68.8999 516.9 69.1999 516.7 69.5999C516.5 69.8999 516.4 70.3999 516.5 70.8999C516.7 71.2999 516.9 71.6999 517.3 71.8999Z" fill="#F7E1AA"/>
<path d="M546.8 67.5999C548.467 68.5999 550.133 69.5999 551.8 70.5999C552.5 71.0999 553.7 70.7999 554.1 69.9999C554.5 69.1999 554.3 68.1999 553.5 67.6999C551.833 66.6999 550.167 65.6666 548.5 64.5999C547.7 64.1999 546.6 64.3999 546.2 65.1999C545.7 66.0999 546 67.0999 546.8 67.5999Z" fill="#F7E1AA"/>
<path d="M397.9 51.5998C400.167 51.1332 402.4 50.6998 404.6 50.2998C405.5 50.0998 406.1 48.9998 405.8 48.1998C405.5 47.2998 404.6 46.7998 403.7 46.9998C401.5 47.3998 399.267 47.8332 397 48.2998C396.1 48.3998 395.6 49.4998 395.8 50.3998C396.1 51.2998 397 51.6998 397.9 51.5998Z" fill="white"/>
<path d="M418.1 40.2C421.4 39.6 425 39.5 428.5 39.7C429.4 39.7 430.2 38.9 430.2 38C430.2 37 429.5 36.3 428.5 36.3C424.7 36 420.9 36.2 417.1 36.9C416.3 37 415.7 38.2 416 39C416.3 39.9 417.1 40.3 418.1 40.2Z" fill="white"/>
<path d="M421 51.0999C421.8 51.0333 422.633 51.0333 423.5 51.0999C423.367 51.0999 423.234 51.0999 423.1 51.0999C423.634 51.1666 424.2 51.2999 424.8 51.4999C425 51.5999 425.3 51.5999 425.6 51.7999C425.5 51.6999 425.2 51.5999 425.4 51.6999C425.467 51.6999 425.534 51.7333 425.6 51.7999C425.734 51.8666 425.867 51.9333 426 51.9999C426.8 52.3999 427.9 52.1999 428.4 51.3999C428.8 50.5999 428.6 49.4999 427.7 48.9999C425.7 47.8999 423.3 47.4999 421 47.6999C420.5 47.6999 420.1 47.7999 419.8 48.1999C419.5 48.4999 419.2 48.9999 419.3 49.3999C419.3 50.1999 420 51.1999 421 51.0999Z" fill="white"/>
<path d="M369 69.6998C370.933 69.6998 372.9 69.6998 374.9 69.6998C375.7 69.6998 376.6 68.8998 376.6 67.9998C376.5 67.0998 375.8 66.2998 374.9 66.2998C372.9 66.2998 370.933 66.2998 369 66.2998C368.1 66.2998 367.2 67.0998 367.3 67.9998C367.3 68.8998 368 69.6998 369 69.6998Z" fill="white"/>
<path d="M341.9 82.4C343.033 83.4 344.167 84.3667 345.3 85.3C345.7 85.6 346.1 85.8 346.5 85.8C346.9 85.8 347.4 85.7 347.7 85.3C348 85 348.3 84.6 348.2 84.1C348.2 83.7 348.1 83.2 347.7 82.9C346.567 81.9667 345.433 81 344.3 80C344 79.7 343.6 79.5 343.1 79.5C342.7 79.5 342.2 79.7 341.9 80C341.6 80.3 341.4 80.7 341.4 81.2C341.4 81.6 341.6 82.1 341.9 82.4Z" fill="white"/>
<path d="M364.3 60.6997C365.967 61.0997 367.633 61.5331 369.3 61.9997C370.2 62.1997 371.2 61.6997 371.4 60.7997C371.6 59.8997 371.1 58.8997 370.2 58.6997C368.533 58.2331 366.867 57.7997 365.2 57.3997C364.4 57.1997 363.3 57.6997 363.1 58.5997C362.9 59.4997 363.4 60.4997 364.3 60.6997Z" fill="white"/>
<path d="M392.9 69.7998C393.033 69.9332 393.167 70.0665 393.3 70.1998C393.3 70.1998 393.5 70.5999 393.6 70.5999C393.5 70.5999 393.4 70.2998 393.5 70.4998C393.567 70.5665 393.633 70.6332 393.7 70.6998C393.767 70.8332 393.867 70.9665 394 71.0999C394.133 71.3665 394.267 71.6332 394.4 71.8998C394.467 72.0332 394.533 72.1665 394.6 72.2998C394.6 72.1998 394.5 71.9998 394.6 72.1998C394.6 72.3332 394.633 72.4332 394.7 72.4998C394.767 72.7665 394.833 73.0665 394.9 73.3998C394.967 73.5332 395 73.6665 395 73.7998C395 73.8998 395 74.0998 395 73.8998C395 73.7998 395 73.5998 395 73.8998C395 74.1665 395 74.4665 395 74.7998C395 74.9332 395 75.0665 395 75.1998C395 75.2665 395 75.3332 395 75.3998C395.1 74.9998 395 75.6998 395 75.3998C394.9 75.7998 394.9 76.2998 395.2 76.6998C395.4 76.9998 395.8 77.3998 396.2 77.4998C397 77.6998 398.1 77.1998 398.3 76.2998C398.5 74.6998 398.5 73.0999 398 71.5999C397.4 69.9999 396.5 68.5998 395.3 67.3998C394.7 66.7998 393.5 66.6998 392.9 67.3998C392.3 68.0998 392.3 69.0998 392.9 69.7998Z" fill="white"/>
<path d="M384.2 92.8999C386 94.1999 388.1 95.0999 390.3 95.6999C391.1 95.8999 392.1 95.3999 392.4 94.4999C392.6 93.5999 392.1 92.5999 391.2 92.3999C390.267 92.1332 389.4 91.8332 388.6 91.4999C388.733 91.5665 388.867 91.6332 389 91.6999C387.867 91.2332 386.833 90.6332 385.9 89.8999C385.6 89.6999 385 89.5999 384.6 89.6999C384.2 89.7999 383.8 90.0999 383.6 90.4999C383.3 90.8999 383.2 91.3999 383.4 91.7999C383.5 92.2999 383.8 92.5999 384.2 92.8999Z" fill="white"/>
<path d="M421.4 78.0001C422.7 78.3001 424.1 78.3001 425.4 78.1001C426.5 77.9001 427.7 77.5001 428.6 76.8001C429 76.5001 429.3 76.2001 429.4 75.7001C429.5 75.3001 429.5 74.8001 429.2 74.4001C428.8 73.7001 427.7 73.3001 426.9 73.8001C426.7 73.9334 426.5 74.0667 426.3 74.2001C426.167 74.2667 426.033 74.3334 425.9 74.4001C425.7 74.5001 426 74.4001 426 74.4001C425.933 74.4001 425.867 74.4001 425.8 74.4001C425.267 74.6001 424.733 74.7334 424.2 74.8001C424.333 74.8001 424.467 74.8001 424.6 74.8001C423.934 74.8667 423.267 74.8667 422.6 74.8001C422.734 74.8001 422.867 74.8001 423 74.8001C422.8 74.8001 422.567 74.7667 422.3 74.7001C421.4 74.5001 420.4 75.0001 420.2 75.9001C420 76.8001 420.5 77.8001 421.4 78.0001Z" fill="white"/>
<path d="M454.6 28.6999C456.267 27.8999 457.967 27.0999 459.7 26.2999C460 26.1999 460.3 25.6999 460.4 25.2999C460.6 24.8999 460.5 24.3999 460.3 23.9999C460 23.5999 459.7 23.2999 459.3 23.1999C458.8 23.0999 458.4 23.1999 457.9 23.3999C456.233 24.1999 454.567 24.9665 452.9 25.6999C452.5 25.8999 452.2 26.3999 452.1 26.7999C452 27.1999 452 27.6999 452.2 28.0999C452.5 28.3999 452.8 28.6999 453.3 28.7999C453.7 28.9999 454.1 28.8999 454.6 28.6999Z" fill="white"/>
<path d="M482.1 79.9C482.967 79.9 483.833 79.9 484.7 79.9C485.1 79.9 485.6 79.7 485.9 79.4C486.2 79.1 486.4 78.7 486.4 78.2C486.4 77.8 486.2 77.3 485.9 77C485.5 76.7 485.1 76.5 484.7 76.5C483.833 76.5 482.967 76.5 482.1 76.5C481.7 76.5 481.3 76.7 480.9 77C480.6 77.3 480.4 77.8 480.4 78.2C480.5 78.7 480.6 79.1 480.9 79.4C481.3 79.7 481.7 79.9 482.1 79.9Z" fill="white"/>
<path d="M490.9 126.1C492.633 126.5 494.333 126.9 496 127.3C496.8 127.5 497.9 127.1 498.1 126.1C498.3 125.3 497.8 124.3 496.9 124C495.233 123.6 493.533 123.2 491.8 122.8C491 122.6 490 123.1 489.7 124C489.5 124.9 490 125.9 490.9 126.1Z" fill="white"/>
<path d="M514.4 137C516.6 136.4 518.8 135.3 520.3 133.6C520.6 133.3 520.8 132.9 520.8 132.4C520.8 132 520.7 131.5 520.3 131.2C519.7 130.6 518.6 130.5 517.9 131.2C517.567 131.6 517.2 131.933 516.8 132.2C516.933 132.133 517.067 132.066 517.2 132C516.467 132.466 515.7 132.866 514.9 133.2C515.033 133.2 515.167 133.166 515.3 133.1C514.767 133.3 514.167 133.5 513.5 133.7C512.7 133.9 512.1 134.9 512.3 135.8C512.6 136.7 513.5 137.2 514.4 137Z" fill="white"/>
<path d="M528.7 100.3C531.2 99.3997 533.7 98.1997 535.8 96.4997C536.2 96.2997 536.5 95.9997 536.6 95.4997C536.7 95.0997 536.7 94.5997 536.4 94.1997C536 93.4997 534.9 92.9997 534.1 93.5997C533.1 94.3331 532.067 94.9997 531 95.5997C530.467 95.8664 529.9 96.1331 529.3 96.3997C529.167 96.4664 529.033 96.5331 528.9 96.5997C528.7 96.6997 529.2 96.4997 529 96.5997C528.933 96.5997 528.867 96.6331 528.8 96.6997C528.467 96.8331 528.133 96.9331 527.8 96.9997C527 97.2997 526.3 98.1997 526.6 99.0997C526.9 99.8997 527.8 100.6 528.7 100.3Z" fill="white"/>
<path d="M563.1 87.0999C564.767 86.6999 566.433 86.3332 568.1 85.9999C569 85.7999 569.6 84.6999 569.3 83.8999C569 82.8999 568.2 82.4999 567.2 82.6999C565.533 83.0332 563.867 83.3999 562.2 83.7999C561.3 83.9999 560.7 84.9999 561 85.8999C561.3 86.7999 562.1 87.2999 563.1 87.0999Z" fill="white"/>
<path d="M331.7 111.1C334.1 112 336.9 112 339.3 111.2C340.1 110.9 340.8 110 340.5 109.1C340.2 108.3 339.3 107.6 338.4 107.9C337.867 108.1 337.333 108.233 336.8 108.3C336.6 108.367 336.633 108.367 336.9 108.3C336.833 108.3 336.767 108.3 336.7 108.3C336.567 108.3 336.433 108.333 336.3 108.4C336.033 108.4 335.767 108.4 335.5 108.4C335.233 108.4 334.967 108.367 334.7 108.3C334.633 108.3 334.567 108.3 334.5 108.3C334.767 108.367 334.8 108.367 334.6 108.3C334.467 108.3 334.333 108.267 334.2 108.2C333.667 108.133 333.133 108 332.6 107.8C332.2 107.6 331.7 107.7 331.3 107.9C331 108.1 330.6 108.6 330.5 109C330.4 109.4 330.4 109.9 330.7 110.3C331 110.7 331.3 110.9 331.7 111.1Z" fill="white"/>
<path d="M276 121.8C277.667 120.6 279.333 119.4 281 118.2C281.4 117.9 281.7 117.6 281.8 117.2C281.9 116.8 281.8 116.2 281.6 115.8C281.4 115.5 281 115.2 280.6 115.1C280.2 115 279.6 115 279.3 115.2C277.633 116.4 275.933 117.6 274.2 118.8C273.9 119.1 273.6 119.4 273.5 119.9C273.4 120.3 273.4 120.8 273.6 121.2C273.9 121.5 274.2 121.9 274.7 122C275.1 122.1 275.6 122.1 276 121.8Z" fill="white"/>
<path d="M303.6 96.6998C304.1 96.6998 304.5 96.5998 304.9 96.3998C305.3 96.2998 305.8 96.0998 306.1 95.8998C306.5 95.6998 306.8 95.3998 307.1 95.0998C307.4 94.6998 307.6 94.2998 307.8 93.6998C307.867 93.4998 307.9 93.2665 307.9 92.9998C307.833 92.7998 307.767 92.5998 307.7 92.3998C307.5 92.0998 307 91.6998 306.6 91.5998C306.2 91.4998 305.7 91.4998 305.3 91.7998C305.233 91.8665 305.133 91.9665 305 92.0998C304.8 92.2998 304.633 92.5332 304.5 92.7998C304.5 92.8665 304.5 92.8998 304.5 92.8998C304.567 92.7665 304.633 92.6332 304.7 92.4998C304.633 92.6998 304.533 92.8665 304.4 92.9998C304.467 92.8665 304.567 92.7332 304.7 92.5998C304.567 92.7998 304.4 92.9665 304.2 93.0998C304.333 93.0332 304.433 92.9332 304.5 92.7998C304.3 92.9998 304.067 93.1665 303.8 93.2998C303.933 93.2332 304.067 93.1665 304.2 93.0998C303.867 93.2332 303.533 93.3332 303.2 93.3998C303.333 93.3332 303.467 93.2998 303.6 93.2998C303.333 93.2998 303.1 93.3665 302.9 93.4998C302.7 93.5665 302.533 93.6665 302.4 93.7998C302.1 94.0998 301.9 94.5998 301.9 94.9998C301.9 95.4998 302.1 95.8998 302.4 96.1998C302.533 96.3332 302.633 96.4332 302.7 96.4998C302.967 96.6332 303.267 96.6998 303.6 96.6998Z" fill="white"/>
<path d="M405.5 120.2C407.7 119.4 409.933 118.6 412.2 117.8C413 117.5 413.7 116.6 413.4 115.7C413.1 114.8 412.2 114.1 411.3 114.5C409.033 115.3 406.8 116.1 404.6 116.9C403.7 117.2 403.1 118 403.4 119C403.7 119.8 404.6 120.5 405.5 120.2Z" fill="white"/>
<path d="M511.1 194.7C514.433 193.7 517.767 192.7 521.1 191.7C522 191.4 522.6 190.5 522.3 189.6C522.1 188.7 521.1 188.1 520.2 188.4C516.867 189.4 513.533 190.4 510.2 191.4C509.3 191.7 508.7 192.6 509 193.5C509.3 194.4 510.2 195 511.1 194.7Z" fill="white"/>
<path d="M563.9 185.1C565.9 184.3 567.867 183.5 569.8 182.7C570.2 182.5 570.6 182.4 570.8 181.9C571 181.6 571.1 181 571 180.6C570.9 180.2 570.6 179.8 570.2 179.6C569.8 179.4 569.3 179.3 568.9 179.4C566.967 180.2 565 181 563 181.8C562.6 182 562.3 182.2 562 182.6C561.8 183 561.7 183.5 561.8 183.9C562 184.4 562.2 184.8 562.6 185C563 185.2 563.5 185.3 563.9 185.1Z" fill="white"/>
<path d="M490 212.9C490.6 212.3 491.167 211.7 491.7 211.1C491.833 210.966 491.933 210.766 492 210.5C492.133 210.3 492.2 210.1 492.2 209.9C492.2 209.633 492.133 209.4 492 209.2C491.933 209 491.833 208.833 491.7 208.7C491.4 208.4 490.9 208.2 490.5 208.2C490.367 208.2 490.2 208.2 490 208.2C489.733 208.333 489.5 208.5 489.3 208.7C488.7 209.3 488.133 209.9 487.6 210.5C487.467 210.633 487.367 210.8 487.3 211C487.167 211.2 487.1 211.433 487.1 211.7C487.1 211.9 487.167 212.1 487.3 212.3C487.367 212.566 487.467 212.766 487.6 212.9C487.9 213.2 488.4 213.4 488.8 213.4C489 213.4 489.167 213.366 489.3 213.3C489.567 213.233 489.8 213.1 490 212.9Z" fill="white"/>
<path d="M511.6 203.6C513 203 514.4 202.4 515.8 201.8C516.1 201.7 516.4 201.2 516.5 200.8C516.6 200.4 516.6 199.8 516.4 199.5C516.1 199.1 515.8 198.8 515.3 198.7C515.167 198.7 515.033 198.666 514.9 198.6C514.567 198.6 514.267 198.7 514 198.9C512.6 199.5 511.2 200.1 509.8 200.7C509.5 200.8 509.2 201.3 509.1 201.7C508.9 202.1 509 202.7 509.2 203C509.5 203.4 509.8 203.7 510.3 203.8C510.433 203.8 510.567 203.833 510.7 203.9C511.033 203.9 511.333 203.8 511.6 203.6Z" fill="white"/>
<path d="M529.6 197.8C530.133 197.6 530.7 197.4 531.3 197.2C531.5 197.133 531.667 197.033 531.8 196.9C532 196.766 532.167 196.6 532.3 196.4C532.433 196.2 532.5 196 532.5 195.8C532.567 195.533 532.567 195.3 532.5 195.1C532.433 194.966 532.367 194.833 532.3 194.7C532.167 194.433 531.967 194.233 531.7 194.1C531.567 194.033 531.433 193.966 531.3 193.9C530.967 193.833 530.667 193.833 530.4 193.9C529.8 194.1 529.233 194.3 528.7 194.5C528.5 194.566 528.3 194.666 528.1 194.8C527.9 194.933 527.767 195.1 527.7 195.3C527.567 195.5 527.5 195.7 527.5 195.9C527.433 196.166 527.433 196.4 527.5 196.6C527.567 196.733 527.633 196.866 527.7 197C527.833 197.266 528.033 197.466 528.3 197.6C528.433 197.666 528.567 197.733 528.7 197.8C528.967 197.866 529.267 197.866 529.6 197.8Z" fill="white"/>
<path d="M545 198.4C546.4 198.4 547.8 198.4 549.2 198.4C549.6 198.4 550.1 198.2 550.4 197.9C550.7 197.6 550.9 197.1 550.9 196.7C550.9 195.8 550.2 195 549.2 195C547.8 195 546.4 195 545 195C544.6 195 544.1 195.2 543.8 195.5C543.5 195.8 543.3 196.3 543.3 196.7C543.4 197.6 544.1 198.4 545 198.4Z" fill="white"/>
<path d="M559.4 210.6C561.6 211.666 563.8 212.7 566 213.7C566.5 213.9 566.9 214 567.3 213.9C567.7 213.8 568.2 213.5 568.4 213.1C568.8 212.3 568.6 211.1 567.7 210.8C565.5 209.733 563.3 208.7 561.1 207.7C560.6 207.5 560.2 207.4 559.8 207.5C559.4 207.6 558.9 207.9 558.7 208.3C558.3 209.1 558.5 210.3 559.4 210.6Z" fill="white"/>
<path d="M583.6 218.8C585.3 218.8 587.2 218.4 588.7 217.4C589 217.2 589.3 216.8 589.5 216.4C589.6 216 589.5 215.5 589.3 215.1C589 214.7 588.7 214.4 588.3 214.3C587.8 214.2 587.3 214.2 586.9 214.5C586.567 214.7 586.233 214.9 585.9 215.1C586.033 215.033 586.167 214.967 586.3 214.9C585.7 215.167 585.067 215.333 584.4 215.4C584.533 215.4 584.667 215.367 584.8 215.3C584.4 215.367 584 215.4 583.6 215.4C582.7 215.4 581.8 216.2 581.9 217.1C581.9 218 582.6 218.8 583.6 218.8Z" fill="white"/>
<path d="M585.7 199.6C588.233 199.2 590.767 198.833 593.3 198.5C593.7 198.4 594.1 198 594.3 197.7C594.5 197.3 594.6 196.8 594.5 196.4C594.2 195.4 593.3 195 592.4 195.2C589.867 195.533 587.333 195.9 584.8 196.3C584.4 196.4 584 196.8 583.8 197.1C583.6 197.5 583.5 198 583.6 198.4C583.9 199.4 584.8 199.7 585.7 199.6Z" fill="white"/>
<path d="M450 212.8C450.8 212.6 451.633 212.433 452.5 212.3C452.9 212.2 453.3 211.8 453.5 211.5C453.633 211.3 453.7 211.067 453.7 210.8C453.767 210.6 453.767 210.4 453.7 210.2C453.5 209.7 453.3 209.3 452.9 209.1C452.5 208.9 452.067 208.867 451.6 209C450.733 209.2 449.867 209.367 449 209.5C448.6 209.6 448.2 210 448 210.3C447.867 210.5 447.8 210.733 447.8 211C447.733 211.2 447.766 211.4 447.9 211.6C448 212.1 448.2 212.5 448.6 212.7C449.067 212.9 449.533 212.933 450 212.8Z" fill="white"/>
<path d="M433.6 208.4C434.4 208 435.233 207.6 436.1 207.2C436.3 207.067 436.467 206.933 436.6 206.8C436.733 206.6 436.833 206.4 436.9 206.2C436.967 205.933 436.967 205.7 436.9 205.5C436.9 205.3 436.833 205.1 436.7 204.9C436.5 204.5 436.1 204.2 435.7 204.1C435.567 204.1 435.4 204.067 435.2 204C434.933 204 434.667 204.1 434.4 204.3C433.533 204.7 432.7 205.067 431.9 205.4C431.7 205.533 431.533 205.7 431.4 205.9C431.2 206.033 431.1 206.233 431.1 206.5C431.033 206.7 431 206.9 431 207.1C431.067 207.367 431.133 207.6 431.2 207.8C431.5 208.1 431.8 208.5 432.3 208.6C432.433 208.6 432.567 208.6 432.7 208.6C433.033 208.6 433.333 208.533 433.6 208.4Z" fill="white"/>
<path d="M486.4 185.5C488.6 184.3 490.833 183.1 493.1 181.9C493.8 181.5 494.2 180.3 493.7 179.6C493.2 178.8 492.2 178.5 491.3 179C489.1 180.2 486.867 181.4 484.6 182.6C483.8 183 483.5 184.1 484 184.9C484.5 185.7 485.5 186 486.4 185.5Z" fill="white"/>
<path d="M468.3 270.7C502.2 276 537.1 276.3 571.8 276.6C612.2 277 652.9 277.4 693.1 274.3C733.3 271.1 773.5 264.2 809.3 250.8C812.7 249.5 816.1 248.2 819.3 246.7C801.8 242 782.5 246.5 764.2 249.2C744.8 252.2 723.8 250.8 704.8 254.3C688.2 257.5 672.7 261.8 655.6 263.9C615.8 268.6 575.3 267.9 535.1 268.2C524 268.3 512.8 268.5 501.6 268.9C496 269.033 490.433 269.267 484.9 269.6C480.1 269.9 472.9 271.4 468.3 270.7Z" fill="#EAD181"/>
<path d="M88.6 335.9C83.8 352.8 73.7998 367.8 68.3998 384.5C57.8998 416.4 64.9 451.2 71.8 484.1C72.4 486.5 72.8998 489.1 74.3998 491.1C79.2998 497.7 89.4999 494.8 96.9999 491.7C164.9 464.1 241.4 473.4 314.4 480C455.7 492.9 598 494.1 739.5 483.7C798.3 479.3 857.8 473 915.7 483.4C920.8 484.4 926.1 485.4 931.1 484C943 480.7 947 465.8 946.9 453.4C946.7 426.5 936.9 400.1 938.7 373.3C939.9 356.5 945.7 340.2 945.5 323.3C945.3 298.3 931.9 274.5 933.1 249.5C933.4 243.4 934.6 237.2 933.5 231.1C931.3 218.9 919.9 209.9 907.9 206.5C895.9 203.2 883.2 204.3 870.7 205.1C772.1 211.2 673.6 195.7 575.1 188.9C425.8 178.5 276 188.1 126.7 197.7C112.4 198.6 97.4 199.7 85.3 207.4C64.8 220.6 63.2998 242.9 72.8998 261.3C85.7998 286.2 96.9 306.4 88.6 335.9Z" fill="#BF975E"/>
<path d="M937.5 374.1C938.7 357.3 944.4 341 944.3 324.2C944 299.1 930.7 275.3 931.9 250.3C932.2 244.2 933.4 238 932.3 232C930 219.7 918.7 210.7 906.7 207.4C894.7 204 881.9 205.1 869.5 205.9C866.3 206.1 863.1 206.267 859.9 206.4C865.6 207.4 871.1 208.6 876 211.6C884.4 216.7 888.6 230.4 880.6 236.2C877.1 238.7 872.4 238.9 868 238.9C846 239.167 823.967 239.4 801.9 239.6C794 239.7 783 243.9 785.6 251.3C821.7 246 858.8 247.8 894.2 256.5C882.3 276.9 855.2 281.6 831.7 284.1C714.633 296.567 597.533 309.067 480.4 321.6C463.7 323.4 444.8 326.4 435.7 340.5C456.7 347.9 479.8 345.5 502.1 343.4C626.9 331.6 753.1 333.4 877.6 348.9C882.8 349.5 888.8 350.8 891.1 355.5C893.2 359.8 891.1 365 888.1 368.7C865.5 396.4 812.8 368.4 787.7 393.9C817.9 395.767 848.1 397.6 878.3 399.4C882.7 399.7 887.5 400.1 890.8 403C895.8 407.3 895.3 415.6 891.5 420.9C887.6 426.2 881.3 429.1 875.2 431.4C845 442.4 812 442.4 779.9 441.5C555.8 435.1 327.4 393.8 110.1 449.1C94.9001 453 78.9001 457.9 67.1001 467.7C68.2001 473.5 69.4001 479.2 70.6001 484.9C71.1001 487.3 71.7 489.9 73.2 491.9C78 498.5 88.2 495.6 95.8 492.5C163.7 464.9 240.2 474.2 313.2 480.8C454.5 493.7 596.8 494.9 738.2 484.5C797 480.2 856.5 473.8 914.5 484.3C919.6 485.2 924.8 486.2 929.8 484.8C941.7 481.5 945.7 466.6 945.6 454.2C945.4 427.3 935.6 401 937.5 374.1Z" fill="#B28A59"/>
<g opacity="0.5">
<path d="M321.4 703.5C321.267 703.434 321.133 703.367 321 703.3C319.933 702.5 318.733 700.2 317.4 696.4L312.9 684.2L288.7 693L291.1 699.6C293.833 707.067 296.7 712.567 299.7 716.1C302.7 719.633 307.133 721.834 313 722.7C318.4 723.5 324.233 722.867 330.5 720.8C326.6 715.7 323.4 709.5 321.4 703.5Z" fill="#EAD181"/>
<path d="M304.9 635.3C305.8 636.5 306 637.7 305.7 638.8C305.833 639.133 305.967 639.467 306.1 639.8L308.8 647.3L333 638.5L331.6 634.5C328.667 626.567 325.833 621.2 323.1 618.4C320.367 615.667 316.2 614.067 310.6 613.6C306 613.2 300.967 613.833 295.5 615.5C298.3 622.3 300.8 629.3 304.9 635.3Z" fill="#EAD181"/>
<path d="M351.2 682C347.667 672.133 343.6 665.533 339 662.2C334.333 658.933 324.967 655.933 310.9 653.2C305.967 652.267 302.767 651.133 301.3 649.8C299.767 648.4 298.4 646.033 297.2 642.7C296.933 641.967 296.7 641.267 296.5 640.6C296.433 640.533 296.367 640.433 296.3 640.3C291.9 634 289.3 626.3 286.3 619.1C282.767 620.9 279.8 622.967 277.4 625.3C273.733 628.9 271.567 632.833 270.9 637.1C270.233 641.367 271.267 647.333 274 655C275.933 660.333 278.233 664.467 280.9 667.4C283.5 670.333 286.2 672.367 289 673.5C291.8 674.7 297.233 676.267 305.3 678.2C313.3 680.133 318.467 681.7 320.8 682.9C323.067 684.167 325.267 687.733 327.4 693.6C328.5 694.1 329.4 695.1 329.8 696.7C331.5 703.4 335.2 711.1 340.1 716.6C343.033 714.867 345.6 712.9 347.8 710.7C351.8 706.7 354 702.7 354.4 698.7C354.867 694.7 353.8 689.133 351.2 682Z" fill="#EAD181"/>
<path d="M394.6 691.6C391.4 686.4 388.4 680.9 386.7 675C386.567 674.467 386.5 673.967 386.5 673.5C386.1 672.567 385.7 671.5 385.3 670.3L358 595.1L332 604.5L353.5 663.9C357.567 675.167 360.467 682.5 362.2 685.9C363.867 689.3 366.4 692.167 369.8 694.5C373.267 696.833 377.633 698.167 382.9 698.5C387.567 698.767 392.5 698.1 397.7 696.5C396.633 694.833 395.6 693.2 394.6 691.6Z" fill="#EAD181"/>
<path d="M420.9 666.2C420.3 662.933 418.633 657.5 415.9 649.9L391.6 582.9L365.5 592.4L392.3 666.2C392.7 667.267 393.033 668.233 393.3 669.1C394.7 669.5 395.9 670.5 396.4 672.4C397.8 677.5 400.5 682 403.2 686.5C404.467 688.5 405.733 690.5 407 692.5C409.267 691.167 411.267 689.7 413 688.1C416.4 684.967 418.733 681.367 420 677.3C421.267 673.167 421.567 669.467 420.9 666.2Z" fill="#EAD181"/>
<path d="M420.5 624.7C428.6 623.8 436.3 619.2 443.5 615.5L436.5 596.3C434.7 591.233 433.867 587.966 434 586.5C434.067 585.033 434.933 584 436.6 583.4C438.4 582.733 439.833 583.033 440.9 584.3C441.9 585.566 443.433 589.066 445.5 594.8L448.8 603.9L474.9 594.5L473.3 590.2C470.367 581.933 467.333 575.933 464.2 572.2C461.133 568.4 456.5 565.866 450.3 564.6C444.167 563.266 437.267 564 429.6 566.8C421.867 569.6 416.2 573.7 412.6 579.1C409 584.433 407.467 589.466 408 594.2C408.533 598.933 410.533 606.066 414 615.6L417.7 625.8C418.5 625.2 419.4 624.8 420.5 624.7Z" fill="#EAD181"/>
<path d="M478.4 604L448.8 614.7C452 616.1 453.6 620.5 450.7 622.9L453.3 630.3L458.6 628.4L462.9 640.3C464.633 644.967 465.433 648.233 465.3 650.1C465.233 651.967 464.233 653.233 462.3 653.9C460.567 654.5 459.167 654.2 458.1 653C456.967 651.8 455.6 648.967 454 644.5L446.9 625C438.7 629.2 430.2 633.5 420.9 634.6L424.8 645.4C427.333 652.333 429.467 657.433 431.2 660.7C432.933 663.967 435.367 666.8 438.5 669.2C441.633 671.6 445.5 673.167 450.1 673.9C454.7 674.633 459.167 674.233 463.5 672.7C467.167 671.367 470.1 669.433 472.3 666.9C474.433 664.367 475.833 661.233 476.5 657.5L481.5 663.8L497.9 657.8L478.4 604Z" fill="#EAD181"/>
<path d="M507 566.4C510.4 573.933 513.6 580.867 516.6 587.2C517.2 586.7 517.9 586.3 518.8 586C525.5 584.2 532.4 582.5 538.4 579C538.6 578.933 538.767 578.867 538.9 578.8L516.7 537.6L479 551.2L488.9 596.3C496.3 593.1 504.4 591.8 512 589.1C510.467 582.5 508.8 574.933 507 566.4Z" fill="#EAD181"/>
<path d="M543.7 587.5C543.633 587.567 543.567 587.633 543.5 587.7C536.7 591.6 529 593.6 521.4 595.7C521.2 595.767 520.967 595.8 520.7 595.8C522.633 599.867 524.467 603.633 526.2 607.1L517.2 610.3C516.333 607.167 515.367 603.367 514.3 598.9C510.3 600.6 506.3 602.1 502.3 603.8C500.6 604.5 499.2 604.2 498.2 603.4C496.3 604 494.4 604.7 492.5 605.6C492.033 605.867 491.533 606.033 491 606.1L502 656.3L529 646.6L524 628L533.3 624.6L541.3 642.1L567.9 632.4L543.7 587.5Z" fill="#EAD181"/>
<path d="M589.4 575.7C590.733 576.7 592.367 579.867 594.3 585.2L606.3 618.5L630.6 609.7L621 583.3C618.067 575.233 616.033 570.367 614.9 568.7C613.833 567.033 612.033 565.467 609.5 564C606.967 562.467 602.867 562 597.2 562.6C602.733 560 605.967 557 606.9 553.6C607.567 551.4 607.367 548.2 606.3 544C600.2 546.4 593.8 548.1 587.5 549.4C581.2 550.6 578.5 540.9 584.8 539.7C591.1 538.5 597.3 536.9 603.2 534.5C600.333 527.233 597.033 522.3 593.3 519.7C589.1 516.767 584.667 515.633 580 516.3C575.267 516.9 566.767 519.433 554.5 523.9L536 530.6L544.6 554.3C545.2 553.7 546 553.2 547.2 553C554.8 551.7 562.3 549.1 569.1 545.4C569.633 545.133 570.167 544.967 570.7 544.9L568.3 538.3C571.3 537.233 573.567 536.967 575.1 537.5C576.567 538.1 577.867 540 579 543.2L581 548.7C582.6 553.1 582.967 555.9 582.1 557.1C581.233 558.367 579.333 559.533 576.4 560.6L574 554.1C566.5 558.1 558.3 561.2 549.8 562.7C549 562.833 548.267 562.8 547.6 562.6L572.3 630.8L598.4 621.4L582 576.2C585.6 574.867 588.067 574.7 589.4 575.7Z" fill="#EAD181"/>
</g>
<path opacity="0.2" d="M132 251.9C171 239.8 212.6 239.3 253.5 238.9C309.367 238.433 365.233 237.933 421.1 237.4C434.7 237.3 450.4 236.2 458.7 225.3C453 218.7 443.4 217.6 434.7 217C357.2 211.9 279.5 212.1 201.9 213.7C174.6 214.3 126.1 206.2 101.2 219.7C91.4999 224.9 85.1 233.8 90.3 245.3C98 262.2 118.3 256.2 132 251.9Z" fill="white"/>
<path opacity="0.2" d="M107.2 401.7C134.3 392.6 163.1 390.4 191.6 388.2C218.933 386.133 246.3 384.033 273.7 381.9C319.1 378.4 364.6 374.9 410.1 374.4C464.7 373.7 519.3 377.2 573.3 384.9C593.7 387.9 614.9 391.3 634.7 385.4C633.2 374.5 619.7 370.7 608.8 369.4C506.2 356.7 403.2 347.7 300 342.3C295.4 342.1 290.4 341.6 287.3 338.2C283.5 333.9 285 326.7 289 322.6C293 318.5 298.8 316.7 304.4 315.2C338.1 305.7 372.7 299.6 407.6 296.7C410.9 291.4 403.4 285.9 397.3 284.4C325.5 267.4 254.5 326.7 181.1 319C150.8 315.8 118.8 307.9 105.8 342C99.5001 358.7 67 415.2 107.2 401.7Z" fill="white"/>
</svg>
