<svg width="887" height="936" viewBox="0 0 887 936" fill="none" xmlns="http://www.w3.org/2000/svg">
<path d="M639.999 698.4C675.999 630.3 725.299 569.6 784.599 520.4C801.399 506.5 818.999 493.6 837.299 481.6C839.199 480.4 840.199 477.7 838.799 475.6C792.799 408 743.199 342.7 699.499 273.5C688.199 255.5 677.199 237.3 667.299 218.6C664.699 213.6 657.099 218 659.699 223C678.199 257.9 699.899 291.1 722.099 323.8C745.799 358.9 770.399 393.3 794.899 427.9C807.099 445.2 819.299 462.5 831.299 480.1C831.833 478.1 832.333 476.1 832.799 474.1C767.399 516.8 710.799 572.5 666.799 637C654.299 655.3 642.799 674.3 632.499 693.9C629.799 698.9 637.399 703.4 639.999 698.4Z" fill="#231F20"/>
<path d="M536 755.8C536.7 738.7 540.6 713.6 557 704.1C566.6 698.5 580.9 699.8 591.2 702.5C603.3 705.6 614.2 711.9 624.9 717.9C629.9 720.7 634.3 713.1 629.4 710.4C617.1 703.5 604.6 696.3 590.7 693.3C578.7 690.7 563.5 690.1 552.5 696.5C533.2 707.7 528 735.4 527.2 755.8C527 761.5 535.7 761.5 536 755.8Z" fill="#231F20"/>
<path d="M42.2001 502.7C61.4001 541.5 77.2 582.2 93.3 622.3C112.4 669.7 131 717.3 150.8 764.4C159.2 784.6 167.8 804.7 177.5 824.4C178.5 826.6 181.5 827 183.5 825.9C260.8 785.4 348.9 769 435.4 763C459.8 761.3 484.3 760.4 508.7 760.2C514.4 760.2 514.4 751.4 508.7 751.4C420.3 752.2 330.2 760.8 246.2 789.6C223.1 797.5 200.6 807 179 818.4C181 818.933 183 819.433 185 819.9C165.9 781.1 150.1 740.4 133.9 700.3C114.9 652.9 96.3 605.3 76.5 558.2C68 538 59.5 517.9 49.8 498.2C47.3 493.2 39.7001 497.6 42.2001 502.7Z" fill="#231F20"/>
<path d="M412.5 420.5C441.1 491.6 474.5 561 511.4 628.2C521.5 646.6 531.9 664.8 542.7 682.8C545.6 687.7 553.2 683.3 550.3 678.4C511.2 613.3 476.5 545.3 445.5 475.9C437 456.8 428.8 437.6 421 418.1C418.9 413 410.4 415.2 412.5 420.5Z" fill="#231F20"/>
<path d="M517.801 753.2C516.801 729 525.201 702 547.001 688.8C574.701 672 607.801 686.7 631.601 703.5C636.201 706.8 640.601 699.2 636.001 696C614.001 680.4 586.201 667.7 558.701 674.5C538.101 679.7 522.901 695.7 515.101 715.1C510.301 727.1 508.501 740.3 509.001 753.2C509.201 758.9 518.001 758.9 517.801 753.2Z" fill="#231F20"/>
<path d="M68.6004 449C104.8 534.4 135.6 621.9 169.5 708.2C178.7 731.6 188.1 755 197.9 778.2C198.7 779.8 201.2 780.7 202.9 780.2C279.6 754.7 359.9 742.2 440.3 736.7C463.2 735.1 486.1 734.1 508.9 733.5C514.6 733.4 514.6 724.6 508.9 724.8C427.9 726.9 346.5 734.2 267.5 752.8C244.9 758.1 222.6 764.4 200.6 771.7C202.2 772.367 203.834 773.033 205.5 773.7C169.4 688.4 138.5 600.9 104.7 514.6C95.5004 491.1 86.0004 467.8 76.2004 444.6C74.0004 439.4 66.5004 443.9 68.6004 449Z" fill="#231F20"/>
<path d="M91.0002 428.2C137.4 504 171.2 587.4 197.1 672.2C204.3 695.734 210.767 719.467 216.5 743.4C217.1 745.7 219.7 747.1 221.9 746.5C297.1 724.2 375 711.3 453.4 708.5C475.7 707.7 498 707.7 520.3 708.5C525.9 708.7 525.9 700 520.3 699.8C441.5 697 362.4 704.1 285.4 721C263.3 725.9 241.3 731.6 219.6 738C221.4 739 223.2 740.034 225 741.1C204 654 174 568.5 134.1 488.3C123.2 466.3 111.4 444.7 98.6002 423.8C95.6002 419 88.1002 423.4 91.0002 428.2Z" fill="#231F20"/>
<path d="M545.8 676.9C467 662.5 381.9 653.2 303.5 674.6C281.9 680.5 260.9 689.1 242 701.1C244.133 701.967 246.266 702.867 248.4 703.8C220.9 600.8 177.2 502.2 118.9 413C118.4 412.3 117.5 410.4 116.7 409.7C116.366 409.167 116 408.634 115.6 408.1C114.133 412.367 114 413.9 115.2 412.7C115.4 412.8 114 412.8 115.5 412.6C115.9 412.5 117.5 411.8 118.9 411.3C123.5 409.8 128.3 408.5 133.1 407.3C146.9 403.9 160.8 400.9 174.7 398C188.5 395.2 202.2 392.5 216 390C228 387.8 236.8 387.1 249.4 386.5C306 384.1 363.6 389.4 410.9 423.6C415.5 426.9 419.9 419.3 415.3 416C372.6 385.1 320.5 376.7 268.8 377.2C253 377.4 237 377.6 221.4 380.2C208.3 382.4 195.3 384.9 182.3 387.5C167.3 390.5 152.4 393.7 137.5 397.2C131.8 398.6 126 400 120.3 401.7C117.1 402.7 113.2 403.5 110.4 405.4C103.9 409.8 110.5 416.2 113.4 420.7C120.933 432.3 128.166 444 135.1 455.8C149.3 479.8 162.5 504.4 174.6 529.5C201.9 586.1 223.7 645.3 239.9 706.1C240.7 708.7 244 710.2 246.4 708.7C280.3 687.3 320 677.3 359.5 673.4C399.8 669.4 440.5 671.2 480.6 675.8C501.7 678.3 522.6 681.5 543.5 685.3C549 686.4 551.3 677.9 545.8 676.9Z" fill="#231F20"/>
<path d="M596.3 207.1C604 204.5 611.9 202.3 619.8 200.6C618.2 199.934 616.567 199.267 614.9 198.6C651.1 271.9 692.9 342.5 739.9 409.4C753.3 428.4 767.067 447.1 781.2 465.5C781.734 463.5 782.267 461.5 782.8 459.5C720 500.7 669.2 559.6 637.6 627.7C628.7 646.7 621.4 666.4 615.6 686.5C614.1 692 622.5 694.3 624.1 688.9C644.2 618.6 684.2 554.6 738.1 505.2C753.4 491.2 769.9 478.4 787.2 467C789 465.9 790.3 463 788.8 461C738.9 396.2 694 327.6 654.6 255.9C643.467 235.567 632.767 214.967 622.5 194.1C621.6 192.3 619.3 191.7 617.5 192.1C609.5 193.9 601.7 196 594 198.6C588.6 200.4 590.9 208.9 596.3 207.1Z" fill="#231F20"/>
<path d="M539.5 170.8C518.2 194.6 499.5 220.9 482.3 247.7C460.3 281.9 440.6 318.2 427 356.7C419.8 377 414.5 398.1 412.9 419.7C412.4 425.4 421.2 425.3 421.6 419.7C424.5 381.3 439.4 344.1 456.6 310C473.8 275.9 494.3 243.4 517 212.7C526.1 200.4 535.5 188.4 545.7 177C549.4 172.8 543.2 166.5 539.5 170.8Z" fill="#231F20"/>
<path d="M599.299 674.7C619.599 608 655.599 546.5 703.799 496.2C717.299 482.1 731.699 468.9 746.899 456.7C748.699 455.3 748.599 451.9 746.899 450.5C736.499 441.7 726.499 432.3 716.899 422.8C712.799 418.8 706.599 425 710.699 429C720.299 438.5 730.299 447.9 740.699 456.7C740.699 454.633 740.699 452.567 740.699 450.5C685.599 494.8 641.099 552.2 611.899 616.6C603.699 634.7 596.599 653.3 590.899 672.3C589.199 677.7 597.699 680.1 599.299 674.7Z" fill="#231F20"/>
<path d="M551.4 194.6C562.8 188 574.6 182.3 587 177.6C585.2 176.6 583.4 175.567 581.6 174.5C601 240.3 628.8 303.6 664.3 362.3C674.3 379 685 395.3 696.3 411.2C696.5 409.4 696.734 407.634 697 405.9C667.8 433.7 641.5 463.7 619.3 497.3C596.9 531.2 578.6 567.9 565 606.2C557.3 627.8 551.2 650 546.6 672.5C545.5 678 554 680.4 555.1 674.8C571 596.6 606.2 522.5 657 460.9C671.3 443.5 686.9 427.6 703.2 412.1C704.5 410.8 704.9 408.3 703.9 406.8C664.5 351.1 632.2 290.5 608.3 226.7C601.5 208.7 595.5 190.6 590 172.2C589.4 170.1 586.9 168.3 584.6 169.1C571.6 174.1 559.067 180.067 547 187C542.1 189.8 546.5 197.4 551.4 194.6Z" fill="#231F20"/>
<path d="M51.9002 500.9C63.2002 495.7 75.2002 492.2 87.4002 490.3C89.7002 489.9 91.0002 487 90.5002 484.9C89.8002 482.4 87.4002 481.5 85.1002 481.8C72.1002 483.9 59.5002 487.8 47.5002 493.3C45.4002 494.3 44.8002 497.4 45.9002 499.3C47.2002 501.5 49.8002 501.8 51.9002 500.9Z" fill="#231F20"/>
<path d="M74.7005 450.7C75.1672 450.433 75.6339 450.167 76.1005 449.9C76.3005 449.767 76.5005 449.667 76.7005 449.6C76.2005 449.9 76.4005 449.7 76.8005 449.6C77.8672 449.2 78.9339 448.867 80.0005 448.6C81.2672 448.267 82.5338 448 83.8005 447.8C84.1338 447.733 84.4672 447.7 84.8005 447.7C84.9005 447.7 85.7005 447.5 85.2005 447.6C84.7005 447.7 85.8005 447.5 85.9005 447.5C86.2339 447.5 86.6005 447.467 87.0005 447.4C91.8005 446.9 96.7005 446.8 101.501 446.9C103.801 446.9 106.001 444.9 105.901 442.5C105.801 440.1 104.001 438.1 101.501 438.1C96.4005 438.1 91.2005 438.2 86.1005 438.7C80.7005 439.3 75.0005 440.2 70.3005 443.1C68.3005 444.3 67.5005 447 68.7005 449.1C69.9005 451.1 72.7005 451.9 74.7005 450.7Z" fill="#231F20"/>
<path d="M92.4 427.8C100.3 427.5 108.1 426 115.5 423.3C117.6 422.5 119.3 420.3 118.5 417.9C117.9 415.8 115.4 414 113.1 414.8C109.7 416.134 106.2 417.167 102.6 417.9C101.733 418.034 100.867 418.167 100 418.3C99.5333 418.367 99.0666 418.434 98.6 418.5C99.5 418.4 98.2 418.6 98.1 418.6C96.2333 418.8 94.3333 418.934 92.4 419C90.2 419.1 88 421 88.1 423.4C88.2 425.7 90 427.9 92.4 427.8Z" fill="#231F20"/>
<path d="M627.7 212.1C631.366 209.7 635.033 207.267 638.7 204.8C640.566 203.6 642.466 202.367 644.4 201.1C645.266 200.567 646.133 200 647 199.4C647.5 199.1 648.1 198.9 648.4 198.5C648.9 197.9 649.3 198.6 648.3 198.1C647.9 198.1 647.6 197.967 647.4 197.7C647.133 197.367 647.1 197.367 647.3 197.7C647.4 198.1 647.7 198.5 647.9 198.9C648.366 199.834 648.8 200.8 649.2 201.8C650.133 203.8 651.066 205.834 652 207.9C653.866 211.967 655.733 216.067 657.6 220.2C658.5 222.3 661.7 222.8 663.6 221.7C665.8 220.4 666.1 217.9 665.1 215.7C662.966 210.967 660.833 206.234 658.7 201.5C657.7 199.234 656.666 196.967 655.6 194.7C654.5 192.4 652.9 190.3 650.3 189.7C647.6 188.9 645.1 190.2 642.9 191.6C640.7 193.067 638.533 194.5 636.4 195.9C632 198.767 627.6 201.634 623.2 204.5C621.2 205.8 620.4 208.4 621.7 210.5C622.8 212.5 625.7 213.4 627.7 212.1Z" fill="#231F20"/>
<path d="M575 673.8C600.2 599.9 627.8 523.7 677.9 462.6C691.8 445.6 707.4 430.1 724.6 416.4C726.5 415 726.1 411.8 724.6 410.2C701.5 386.9 680.5 361.6 662.7 334C644.9 306.4 630.2 277 616.7 247.2C614.4 242.1 606.8 246.5 609.1 251.6C622.9 282 637.8 311.8 656 339.8C674 367.5 695.2 393 718.4 416.4C718.4 414.334 718.4 412.267 718.4 410.2C655.3 460.2 617.9 533.7 589.5 607.4C581.3 628.6 573.9 650 566.6 671.5C564.7 676.8 573.2 679.1 575 673.8Z" fill="#231F20"/>
<path d="M539.1 178C563.4 247.7 604.7 310.1 651.3 366.7C664.6 382.9 678.4 398.6 692.6 414C696.4 418.1 702.6 411.9 698.8 407.8C649.7 354.6 604.3 296.8 571.6 232C562.4 213.7 554.3 195 547.6 175.7C545.7 170.4 537.3 172.7 539.1 178Z" fill="#231F20"/>
<path d="M476 349.9C489.4 322.7 504.8 296.2 523.7 272.4C525.5 270.2 522.4 267.1 520.6 269.3C501.4 293.5 485.8 320.1 472.2 347.7C471 350.2 474.8 352.4 476 349.9Z" fill="#231F20"/>
<path d="M446.8 425.7C452 406.2 459.1 387.2 467.2 368.7C468.4 366.1 464.6 363.9 463.5 366.4C455.1 385.3 447.8 404.6 442.6 424.6C441.9 427.3 446.1 428.5 446.8 425.7Z" fill="#231F20"/>
<path d="M534.4 328.6C538.866 321.934 543.533 315.4 548.4 309C549.1 308.1 548.6 306.6 547.6 306C546.5 305.4 545.3 305.9 544.6 306.8C539.733 313.2 535.066 319.7 530.6 326.3C529.9 327.3 530.4 328.8 531.4 329.3C532.4 330 533.7 329.5 534.4 328.6Z" fill="#231F20"/>
<path d="M471.5 459.9C484 423.6 498.6 388 517.9 354.7C519.3 352.3 515.5 350.1 514.1 352.5C494.6 386.1 479.9 422.1 467.3 458.8C466.3 461.4 470.6 462.6 471.5 459.9Z" fill="#231F20"/>
<path d="M541.1 390.8C549.3 377 558.2 363.5 568.2 350.9C569.9 348.7 566.8 345.6 565.1 347.8C554.9 360.7 545.7 374.4 537.3 388.6C535.9 391.1 539.7 393.3 541.1 390.8Z" fill="#231F20"/>
<path d="M490.1 499.7C501.6 470.6 513.9 441.8 528.3 414C529.6 411.5 525.8 409.3 524.5 411.8C509.9 439.9 497.5 469.1 485.9 498.5C484.9 501.1 489.1 502.3 490.1 499.7Z" fill="#231F20"/>
<path d="M526.2 498C541.8 466.1 559.1 434.9 580 406.1C586.067 397.767 592.467 389.667 599.2 381.8C601 379.7 598 376.5 596.1 378.7C572.7 406.1 553.3 436.7 536.3 468.5C531.5 477.5 526.9 486.6 522.4 495.7C521.2 498.3 524.9 500.5 526.2 498Z" fill="#231F20"/>
<path d="M507.6 538.3C509.667 533.567 511.733 528.867 513.8 524.2C514.3 523.1 514.2 521.8 513.1 521.2C512.1 520.7 510.6 520.9 510.1 522C507.967 526.667 505.867 531.367 503.8 536.1C503.3 537.1 503.4 538.5 504.6 539.1C505.5 539.6 507.1 539.4 507.6 538.3Z" fill="#231F20"/>
<path d="M577.3 490.2C587.1 473.5 597.3 457.1 608.4 441.2C610 438.9 606.2 436.7 604.6 439C593.5 454.8 583.3 471.3 573.5 488C572.1 490.5 575.9 492.7 577.3 490.2Z" fill="#231F20"/>
<path d="M528.3 587.9C539 559.6 553.2 532.9 568 506.6C569.3 504.1 565.6 501.9 564.2 504.4C549.2 531 534.9 558.1 524.1 586.7C523.1 589.3 527.3 590.5 528.3 587.9Z" fill="#231F20"/>
<path d="M270.601 420.9C310.201 417.1 350.401 420.5 388.401 432.6C391.101 433.4 392.201 429.2 389.601 428.3C351.201 416.1 310.501 412.7 270.601 416.5C267.801 416.8 267.701 421.2 270.601 420.9Z" fill="#231F20"/>
<path d="M189.7 438.4C207.1 432.7 224.8 428.1 242.8 424.8C245.6 424.3 244.4 420.1 241.7 420.6C223.7 423.9 205.9 428.5 188.6 434.1C185.9 435 187 439.2 189.7 438.4Z" fill="#231F20"/>
<path d="M216.4 471.3C262.3 462.4 309.5 453.4 356.4 459.2C369.6 460.8 382.6 463.7 395.1 467.9C397.8 468.8 399 464.6 396.3 463.7C350.9 448.4 302.2 452 255.6 459.7C242.1 461.9 228.7 464.5 215.3 467.1C212.5 467.6 213.7 471.9 216.4 471.3Z" fill="#231F20"/>
<path d="M321.4 497.7C351.4 496 381.5 496.9 411.3 500.3C414.1 500.6 414.1 496.2 411.3 495.9C381.5 492.5 351.4 491.6 321.4 493.3C318.6 493.5 318.6 497.9 321.4 497.7Z" fill="#231F20"/>
<path d="M234.3 510C253.5 505.9 272.9 502.5 292.5 500.2C295.2 499.9 295.3 495.5 292.5 495.9C272.5 498.2 252.8 501.5 233.2 505.8C230.4 506.4 231.6 510.6 234.3 510Z" fill="#231F20"/>
<path d="M417.2 539.6C423.467 539.933 429.7 540.367 435.9 540.9C437.1 541 438.1 539.8 438.1 538.7C438.1 537.4 437.1 536.6 435.9 536.5C429.7 535.967 423.467 535.534 417.2 535.2C416 535.1 415 536.3 415 537.4C415 538.6 416 539.5 417.2 539.6Z" fill="#231F20"/>
<path d="M257.9 553.6C291.2 543.5 325.9 539.4 360.6 538.5C370.4 538.3 380.1 538.3 389.9 538.5C392.7 538.6 392.7 534.2 389.9 534.1C355.1 533.4 320 535.1 285.7 542C275.967 544 266.333 546.433 256.8 549.3C254.1 550.1 255.2 554.4 257.9 553.6Z" fill="#231F20"/>
<path d="M329.6 580.9C368.3 576.2 407.5 575.3 446.5 578.3C449.3 578.5 449.3 574.1 446.5 573.9C407.5 570.9 368.3 571.8 329.6 576.5C326.8 576.8 326.8 581.2 329.6 580.9Z" fill="#231F20"/>
<path d="M272.4 590.9C281.934 588.767 291.534 586.833 301.2 585.1C303.9 584.6 302.8 580.4 300 580.9C290.4 582.567 280.834 584.5 271.3 586.7C268.5 587.3 269.7 591.5 272.4 590.9Z" fill="#231F20"/>
<path d="M413.1 619C434.3 618.6 455.6 619.2 476.8 619.8C479.6 619.9 479.6 615.5 476.8 615.4C455.6 614.8 434.3 614.3 413.1 614.6C410.2 614.7 410.2 619.1 413.1 619Z" fill="#231F20"/>
<path d="M287.1 641.2C318.4 628.4 351.8 622.5 385.4 620.2C388.2 620 388.2 615.6 385.4 615.8C351.5 618.1 317.6 624 286 637C283.4 638 284.5 642.3 287.1 641.2Z" fill="#231F20"/>
<path d="M509.1 747.7C508 751.6 507.5 755.9 508.7 759.8C509.7 763.2 511.7 766.1 514.6 768.1C519.8 771.6 527.1 770.9 531.6 766.6C534.5 763.8 535.8 759.8 535.9 755.8C536 753.5 533.9 751.3 531.6 751.4C529.1 751.5 527.3 753.3 527.2 755.8C527.2 756.134 527.167 756.5 527.1 756.9C527.1 757.3 526.8 757.8 527.2 756.4C527.134 756.534 527.1 756.7 527.1 756.9C526.967 757.5 526.8 758.1 526.6 758.7C526.534 758.834 526.467 759 526.4 759.2C526.9 757.8 526.8 758.3 526.6 758.7C526.534 758.9 526.434 759.1 526.3 759.3C526.167 759.567 526 759.8 525.8 760C525.6 760.3 525.2 760.6 526.2 759.5C526.067 759.634 525.967 759.767 525.9 759.9C525.6 760.3 525.2 760.6 524.8 761C526 759.9 525.4 760.5 525 760.8C524.8 760.934 524.567 761.067 524.3 761.2C523.9 761.4 523 761.6 524.5 761.1C524.367 761.167 524.2 761.234 524 761.3C523.734 761.367 523.467 761.434 523.2 761.5C522.7 761.6 521.6 761.7 523.4 761.5C523 761.6 522.5 761.6 522 761.6C521.8 761.6 521.567 761.6 521.3 761.6C520.9 761.5 520.5 761.4 522.1 761.7C521.9 761.634 521.734 761.6 521.6 761.6C521.134 761.467 520.667 761.334 520.2 761.2C519.2 760.8 521.2 761.7 520.5 761.3C520.167 761.167 519.9 761.034 519.7 760.9C519.5 760.767 519.3 760.634 519.1 760.5C518.2 759.9 519.9 761.3 519.3 760.7C518.834 760.3 518.434 759.9 518.1 759.5C517.5 758.9 518.8 760.6 518.2 759.6C518.067 759.4 517.934 759.2 517.8 759C517.667 758.734 517.534 758.5 517.4 758.3C517.334 758.167 517.267 758.034 517.2 757.9C517.9 759.2 517.5 758.6 517.4 758.2C517.1 757.5 517 756.8 516.8 756.1C516.7 755.7 516.8 755.2 516.9 756.6C516.9 756.4 516.8 756.2 516.8 755.9C516.8 755.567 516.8 755.2 516.8 754.8C516.8 754.334 516.8 753.867 516.8 753.4C516.867 753.2 516.9 753 516.9 752.8C517 752.1 516.7 754 516.8 753.2C517 752.134 517.234 751.067 517.5 750C518.2 747.8 516.8 745.2 514.5 744.6C512.1 744.1 509.8 745.3 509.1 747.7Z" fill="#231F20"/>
<path d="M620.8 716C626.1 718.9 632.5 720.9 638.2 718.2C642.9 715.9 644.4 710.1 642.7 705.4C641.6 702.2 639.5 699.4 637.1 697C635.4 695.4 632.5 695.2 630.9 697C629.3 698.7 629.1 701.5 630.9 703.2C631.7 704 632.433 704.834 633.1 705.7C632.9 705.434 632.7 705.134 632.5 704.8C633.2 705.8 633.9 707 634.5 708.1C634.3 707.767 634.133 707.434 634 707.1C634.333 707.9 634.566 708.734 634.7 709.6C634.7 709.2 634.666 708.8 634.6 708.4C634.666 709 634.666 709.634 634.6 710.3C634.666 709.9 634.733 709.5 634.8 709.1C634.733 709.567 634.6 710.034 634.4 710.5C634.533 710.167 634.666 709.834 634.8 709.5C634.666 709.9 634.433 710.267 634.1 710.6C634.366 710.334 634.6 710.067 634.8 709.8C634.533 710.134 634.233 710.434 633.9 710.7C634.166 710.434 634.466 710.2 634.8 710C634.4 710.267 633.966 710.5 633.5 710.7C633.833 710.567 634.2 710.434 634.6 710.3C633.933 710.5 633.266 710.667 632.6 710.8C633 710.734 633.4 710.667 633.8 710.6C632.8 710.734 631.8 710.734 630.8 710.6C631.133 710.667 631.5 710.734 631.9 710.8C630.2 710.5 628.6 710 627.1 709.4C627.433 709.534 627.766 709.667 628.1 709.8C627.1 709.4 626.166 708.934 625.3 708.4C623.2 707.3 620.4 707.9 619.3 710C618.2 712 618.7 714.8 620.8 716Z" fill="#231F20"/>
<path fill-rule="evenodd" clip-rule="evenodd" d="M803.5 267.5C794.6 267.5 787.4 260.3 787.4 251.5C787.4 242.6 794.6 235.4 803.5 235.4C812.3 235.4 819.6 242.6 819.6 251.5C819.6 260.3 812.3 267.5 803.5 267.5ZM803.5 239.8C797 239.8 791.8 245 791.8 251.5C791.8 257.9 797 263.1 803.5 263.1C809.9 263.1 815.2 257.9 815.2 251.5C815.2 245 809.9 239.8 803.5 239.8Z" fill="#231F20"/>
<path fill-rule="evenodd" clip-rule="evenodd" d="M365.2 242C361.7 242 358.8 239.1 358.8 235.5C358.8 231.9 361.7 229 365.2 229C368.8 229 371.7 231.9 371.7 235.5C371.7 239.1 368.8 242 365.2 242ZM365.2 233.4C364.1 233.4 363.2 234.4 363.2 235.5C363.2 236.6 364.1 237.6 365.2 237.6C366.4 237.6 367.3 236.6 367.3 235.5C367.3 234.4 366.4 233.4 365.2 233.4Z" fill="#231F20"/>
<path fill-rule="evenodd" clip-rule="evenodd" d="M271.3 935.9C260.7 935.9 252 927.3 252 916.7C252 906 260.7 897.4 271.3 897.4C281.9 897.4 290.6 906 290.6 916.7C290.6 927.3 281.9 935.9 271.3 935.9ZM271.3 901.8C263.1 901.8 256.4 908.4 256.4 916.7C256.4 924.9 263.1 931.5 271.3 931.5C279.5 931.5 286.2 924.9 286.2 916.7C286.2 908.4 279.5 901.8 271.3 901.8Z" fill="#231F20"/>
<path fill-rule="evenodd" clip-rule="evenodd" d="M729.701 741C722.601 741 716.801 735.2 716.801 728.1C716.801 721 722.601 715.3 729.701 715.3C736.801 715.3 742.501 721 742.501 728.1C742.501 735.2 736.801 741 729.701 741ZM729.701 719.6C725.001 719.6 721.201 723.4 721.201 728.1C721.201 732.8 725.001 736.6 729.701 736.6C734.401 736.6 738.201 732.8 738.201 728.1C738.201 723.4 734.401 719.6 729.701 719.6Z" fill="#231F20"/>
<path fill-rule="evenodd" clip-rule="evenodd" d="M19.3 876.1C8.69999 876.1 0 867.5 0 856.9C0 846.2 8.69999 837.6 19.3 837.6C29.9 837.6 38.6 846.2 38.6 856.9C38.6 867.5 29.9 876.1 19.3 876.1ZM19.3 842C11.1 842 4.39999 848.7 4.39999 856.9C4.39999 865.1 11.1 871.8 19.3 871.8C27.5 871.8 34.2 865.1 34.2 856.9C34.2 848.7 27.5 842 19.3 842Z" fill="#231F20"/>
<path fill-rule="evenodd" clip-rule="evenodd" d="M869.101 35.6001C859.301 35.6001 851.301 27.7001 851.301 17.9001C851.301 8.1001 859.301 0.100098 869.101 0.100098C878.901 0.100098 886.901 8.1001 886.901 17.9001C886.901 27.7001 878.901 35.6001 869.101 35.6001ZM869.101 4.5001C861.701 4.5001 855.701 10.5001 855.701 17.9001C855.701 25.2001 861.701 31.2001 869.101 31.2001C876.501 31.2001 882.501 25.2001 882.501 17.9001C882.501 10.5001 876.501 4.5001 869.101 4.5001Z" fill="#231F20"/>
<path fill-rule="evenodd" clip-rule="evenodd" d="M47.5006 238.3C42.9006 238.3 39.1006 234.5 39.1006 229.8C39.1006 225.2 42.9006 221.4 47.5006 221.4C52.2006 221.4 55.9006 225.2 55.9006 229.8C55.9006 234.5 52.2006 238.3 47.5006 238.3ZM47.5006 225.8C45.3006 225.8 43.5006 227.6 43.5006 229.8C43.5006 232.1 45.3006 233.9 47.5006 233.9C49.7006 233.9 51.5006 232.1 51.5006 229.8C51.5006 227.6 49.7006 225.8 47.5006 225.8Z" fill="#231F20"/>
<path d="M721.701 108.7C721.701 113.967 721.701 119.233 721.701 124.5C721.701 125.7 722.701 126.7 723.901 126.7C725.101 126.7 726.101 125.7 726.101 124.5C726.101 119.233 726.101 113.967 726.101 108.7C726.101 107.5 725.101 106.5 723.901 106.5C722.701 106.5 721.701 107.5 721.701 108.7Z" fill="#231F20"/>
<path d="M716.001 118.8C721.267 118.8 726.534 118.8 731.801 118.8C733.001 118.8 734.001 117.8 734.001 116.6C734.001 115.4 733.001 114.4 731.801 114.4C726.534 114.4 721.267 114.4 716.001 114.4C714.801 114.4 713.801 115.4 713.801 116.6C713.801 117.8 714.801 118.8 716.001 118.8Z" fill="#231F20"/>
</svg>
