<svg width="138" height="84" viewBox="0 0 138 84" fill="none" xmlns="http://www.w3.org/2000/svg">
<path fill-rule="evenodd" clip-rule="evenodd" d="M135.599 81.5001C135.499 82.4001 134.999 83.1001 133.899 83.1001C111.899 82.9001 89.799 81.9001 67.799 81.3001C46.099 80.6001 24.0991 80.8001 2.49906 78.7001C2.09906 78.9001 1.69905 78.8001 1.39905 78.6001C0.499053 78.3001 0.299059 77.1001 0.999059 76.5001C0.999059 76.4334 1.0324 76.3668 1.09907 76.3001C13.6991 60.1001 27.3991 44.6001 40.6991 28.9001C46.9991 21.5001 52.9991 14.0001 59.3991 6.80008C61.9991 3.80008 64.7991 -0.699928 69.3991 0.100072C75.0991 1.10007 80.699 10.6001 84.299 14.6001C90.499 21.4001 96.599 28.3335 102.599 35.4001C114.599 49.5001 126.299 64.1001 137.599 78.8001C138.799 80.3001 137.099 81.8001 135.599 81.5001ZM54.9991 17.0001C63.3991 23.6001 74.1991 24.6001 83.3991 19.2001C81.9324 17.5334 80.4657 15.8668 78.9991 14.2001C77.2991 12.3001 73.5991 6.30012 70.9991 5.40012C65.0991 3.50012 59.2991 11.0001 54.9991 17.0001ZM28.9991 76.1001C29.4991 68.6001 27.499 61.9001 21.799 56.8001C16.299 63.3001 10.7991 69.8001 5.09907 76.1001C12.9991 75.9001 20.9991 76.0001 28.9991 76.1001ZM67.799 77.4001C81.899 77.9001 95.999 78.1001 110.099 78.6001C108.999 71.8001 112.299 64.2001 118.299 60.9001C118.432 60.8335 118.566 60.8001 118.699 60.8001C113.366 54.1334 107.932 47.5667 102.399 41.1001C97.3324 35.0334 92.1658 29.0334 86.8991 23.1001C86.4324 22.5667 85.9657 22.0334 85.4991 21.5001C75.7991 28.0001 62.0991 27.0001 53.5991 18.9001C52.7991 20.1001 51.999 21.1001 51.299 22.0001C45.9657 28.2668 40.6324 34.5334 35.299 40.8001C31.1657 45.7334 26.999 50.7001 22.799 55.7001C29.499 60.0001 33.499 68.3001 31.799 76.2001C43.799 76.5001 55.799 77.1001 67.799 77.4001ZM133.299 79.4001C128.966 73.8001 124.599 68.2334 120.199 62.7001C120.132 62.8334 120.032 62.9334 119.899 63.0001C114.799 67.1001 112.299 72.3001 112.599 78.6001C119.466 78.8001 126.366 79.0668 133.299 79.4001Z" fill="#F2F2F2"/>
<path d="M55.299 71.7004C50.499 71.8004 45.799 71.6004 40.999 71.3004C40.399 71.2004 40.199 72.3004 40.899 72.4004C45.499 73.6004 50.599 73.9004 55.299 73.5004C56.499 73.4004 56.499 71.6004 55.299 71.7004Z" fill="#F2F2F2"/>
<path d="M56.6994 68.9002C53.1994 68.5002 49.5994 68.3002 45.9994 68.2002C45.0994 68.2002 45.1994 69.5002 45.9994 69.6002C49.5994 70.1002 53.1994 70.5002 56.6994 70.6002C57.8994 70.7002 57.7994 69.0002 56.6994 68.9002Z" fill="#F2F2F2"/>
<path d="M79.0982 26.8001C76.2982 28.9001 73.8982 30.4001 70.2982 30.6001C69.4982 30.6001 69.3982 31.9002 70.2982 31.9002C73.6982 32.0002 77.8982 30.9001 80.0982 28.1001C80.6982 27.5001 79.8982 26.3001 79.0982 26.8001Z" fill="#F2F2F2"/>
<path d="M82.5998 29.4004C79.3998 31.1004 76.3998 32.1003 72.8998 32.6003C71.8998 32.8003 72.1998 34.3003 73.1998 34.3003C76.7998 34.3003 80.5998 33.2003 83.6998 31.3003C84.8998 30.6003 83.7998 28.7004 82.5998 29.4004Z" fill="#F2F2F2"/>
</svg>
