<svg width="917" height="786" viewBox="0 0 917 786" fill="none" xmlns="http://www.w3.org/2000/svg">
<path d="M242.8 256.4C242 317.1 243.4 377.7 244.8 438.3C246.1 491.7 247.8 545 248.7 598.4C248.8 604.9 248.9 611.4 248.9 618C248.9 619.733 248.866 621.466 248.8 623.2C248.7 624.5 248.4 623.9 248.8 623.5C250.7 621.3 249.8 622.2 248 623.1C227.4 633.1 200.9 632.7 178.6 630.6C168.2 629.6 156.5 628 147.2 622.8C144.7 621.4 142 619.5 141.3 616.9C139.7 611.8 140.2 603.9 139.8 598.1C137.5 564 135.7 529.9 134.2 495.7C130.9 422.7 128.4 349.6 127.2 276.5C127.066 269.166 126.966 261.833 126.9 254.5C126.8 248.8 118.1 248.8 118.1 254.5C119 328.3 121.4 402.1 124.5 475.9C126.1 512.2 127.8 548.5 130.2 584.8C130.666 592.6 131.166 600.4 131.7 608.2C132.1 613.1 131.7 618.6 134.4 622.9C139.2 630.8 150 634.1 158.4 636.1C183.2 642.1 211.5 642.1 236.3 636.5C242.1 635.2 255.2 632.6 257.2 625.8C258.3 622.5 257.7 618.1 257.7 614.6C257.6 566.2 255.5 517.8 254.3 469.3C252.8 404.8 251.2 340.3 251.4 275.8C251.466 269.333 251.533 262.866 251.6 256.4C251.7 250.8 242.9 250.8 242.8 256.4Z" fill="#231F20"/>
<path d="M125 255.5C130.6 255.5 130.6 246.7 125 246.7C119.3 246.7 119.3 255.5 125 255.5Z" fill="#231F20"/>
<path d="M126.6 254C176.1 219.8 227.8 188.6 281.3 160.9C286.3 158.3 281.9 150.7 276.9 153.3C223.4 181.1 171.7 212.2 122.2 246.5C117.6 249.7 121.9 257.3 126.6 254Z" fill="#231F20"/>
<path d="M249.399 255.9C288.699 228.1 329.599 202.5 366.399 171.4C370.799 167.7 364.499 161.6 360.199 165.2C323.999 195.8 283.599 220.9 244.999 248.4C240.399 251.6 244.799 259.2 249.399 255.9Z" fill="#231F20"/>
<path d="M334.999 623.5C334.299 626.9 328.699 628.5 325.599 629.4C318.799 631.4 311.599 632.1 304.499 632.4C297.199 632.6 289.799 632.3 282.599 631C277.699 630.1 271.599 629 267.899 625.4C268.299 626.4 268.699 627.433 269.099 628.5C266.599 544 268.199 459.4 270.099 375C270.599 351.7 271.099 328.4 271.599 305.1C271.699 299.4 262.999 299.4 262.799 305.1C261.399 372.4 259.699 439.7 259.199 507.1C258.999 540.1 259.099 573.1 259.799 606.1C259.866 609.833 259.966 613.6 260.099 617.4C260.099 621 259.599 625.5 260.399 629.1C261.299 632.5 265.199 634.5 268.299 635.9C276.199 639.5 285.199 640.5 293.799 641C304.499 641.6 315.599 641 326.099 638.4C332.699 636.7 341.899 633.4 343.399 625.8C344.499 620.3 336.099 617.9 334.999 623.5Z" fill="#231F20"/>
<path d="M268.8 306.3C279.7 310.4 291.4 312.7 303 313.9C314.3 315.1 328.1 315.6 338 309C342.7 305.9 338.3 298.3 333.6 301.5C324.8 307.3 312 306.1 302.1 305C291.7 303.9 281 301.6 271.2 297.8C265.9 295.8 263.6 304.3 268.8 306.3Z" fill="#231F20"/>
<path d="M350.4 268.7C363.7 278.2 383.3 279.1 399.1 278.5C407.3 278.2 415.7 277.4 423.6 275.3C428.9 273.8 434.8 271.8 438.1 267C441.3 262.4 433.7 258 430.5 262.6C430.9 262 429.4 263.5 429.5 263.4C428.6 264.1 427.5 264.6 426.5 265.1C424.1 266.1 421.6 266.8 419.1 267.4C411.9 269 404.5 269.7 397.1 269.8C383.4 270.1 366.5 269.4 354.8 261.2C350.2 257.9 345.8 265.5 350.4 268.7Z" fill="#231F20"/>
<path d="M346.299 262.8C343.699 327.6 339.6 392.3 337.2 457.1C336.1 490.1 335.299 523.1 335.499 556.1C335.599 572.5 335.899 588.8 336.499 605.2C336.799 611.7 336.699 618.4 337.499 624.8C337.799 627.6 338.899 630.1 340.799 632.1C349.499 641.7 367.3 642.6 379.2 643.2C395.5 644.1 412.599 643.3 428.399 639C433.399 637.6 439.199 635.8 442.899 632C444.399 630.5 445.3 628.9 445.7 626.9C446.4 623.8 445.999 620.3 445.999 617.2C446.066 612.333 446.099 607.5 446.099 602.7C446.399 568.4 446.1 534.2 445.7 499.9C444.9 423.2 443.199 346.5 444.899 269.8C444.999 264.2 436.199 264.2 436.099 269.8C434.699 335.2 435.699 400.7 436.499 466.1C436.999 498.4 437.399 530.8 437.399 563.1C437.466 579.367 437.433 595.667 437.299 612C437.299 615.8 437.1 619.6 437.2 623.3C437.133 624.033 437.099 624.733 437.099 625.4C437.233 624.8 437.233 624.767 437.099 625.3C436.799 626.3 437.599 624.6 436.999 625.6C436.699 626 434.599 627.4 433.099 628.1C420.899 633.9 405.199 634.4 391.999 634.7C378.899 634.9 361.799 635.2 350.099 628.4C348.599 627.5 347.199 626.5 346.499 625.2C346.099 624.4 346.199 624.2 346.099 622.5C345.899 618.6 345.699 614.8 345.599 611C344.899 595.3 344.499 579.7 344.299 564C343.999 533.1 344.599 502.2 345.499 471.4C347.699 401.8 352.299 332.4 355.099 262.8C355.299 257.2 346.499 257.2 346.299 262.8Z" fill="#231F20"/>
<path d="M685.9 236.9C727.6 239.6 770.4 239.9 811.7 232.7C817.3 231.8 814.9 223.3 809.4 224.3C768.9 231.3 726.8 230.8 685.9 228.2C680.2 227.8 680.3 236.6 685.9 236.9Z" fill="#231F20"/>
<path d="M678.499 235C679.399 264.4 679.499 293.8 679.699 323.2C680.099 365.5 680.299 407.8 680.499 450.1C680.799 489.2 680.999 528.3 681.399 567.3C681.599 587.6 680.699 608.4 682.799 628.6C683.399 633.3 686.799 635.5 690.799 637.9C699.699 643.3 710.299 645.6 720.499 646.9C743.499 649.8 768.499 647.7 790.399 640.3C794.699 638.9 798.999 637.1 802.999 635C807.999 632.3 803.499 624.7 798.599 627.4C779.799 637.5 755.699 639.7 734.799 639.2C723.899 638.9 712.699 637.7 702.399 633.8C700.399 633.067 698.432 632.166 696.499 631.1C694.899 630.2 692.599 627.7 690.999 627.2C691.399 627.4 691.599 629 691.599 628.7C691.199 609.3 690.399 589.9 690.199 570.5C689.799 533.1 689.599 495.6 689.299 458.1C689.099 416.9 688.899 375.6 688.599 334.4C688.299 303.7 688.199 273 687.499 242.3C687.432 239.9 687.366 237.466 687.299 235C687.099 229.4 678.399 229.4 678.499 235Z" fill="#231F20"/>
<path d="M811.2 228.3C813.1 291 813.6 353.8 813.1 416.5C812.6 471.5 811.9 526.7 807.2 581.4C805.9 596.4 805.4 613.5 799.7 627.6C797.6 632.8 806.1 635.1 808.2 629.9C813.1 617.7 813.8 603.3 815.1 590.3C817.4 567 818.6 543.5 819.5 520.1C822 457.7 822.4 395.1 821.9 332.7C821.6 297.9 821 263.1 820 228.3C819.8 222.7 811 222.6 811.2 228.3Z" fill="#231F20"/>
<path d="M712.5 162.2C726.2 172.5 740.6 181.6 755 190.9C774.1 203.2 793 215.7 811.5 229.1C816 232.4 820.4 224.8 815.9 221.5C797.5 208.2 778.6 195.6 759.4 183.3C745.1 174 730.6 164.9 716.9 154.6C712.4 151.2 708 158.8 712.5 162.2Z" fill="#231F20"/>
<path d="M636.201 155.5C653.301 181 668.201 207.6 679.301 236.2C681.301 241.4 689.801 239.2 687.701 233.9C676.401 204.5 661.301 177.2 643.701 151.1C640.601 146.5 633.001 150.8 636.201 155.5Z" fill="#231F20"/>
<path d="M576.1 239.8C594.6 243.6 614.2 243.3 632.9 241.8C648.6 240.5 668.1 239.3 681.7 230.3C686.4 227.2 682 219.6 677.3 222.7C671.9 226.3 665.3 227.9 659.1 229.3C650 231.3 640.8 232.4 631.5 233.1C614 234.4 595.7 234.8 578.4 231.4C572.9 230.3 570.6 238.7 576.1 239.8Z" fill="#231F20"/>
<path d="M571.699 239.2C568.699 320.7 573.699 402.3 575.699 483.7C576.699 524.1 576.799 564.4 575.199 604.8C574.799 614.3 571.199 627 579.299 634C587.599 641.2 600.199 642.8 610.599 643.8C626.199 645.4 642.199 644.6 657.699 642.1C667.299 640.6 681.199 638.6 687.299 630.1C690.599 625.5 682.999 621.1 679.699 625.6C678.699 627 674.399 628.9 671.699 629.9C666.599 631.6 661.299 632.7 655.899 633.6C642.799 635.7 629.299 636.3 616.099 635.5C606.499 634.9 593.599 634.2 585.699 627.9C584.599 627.1 583.799 626.1 583.099 624.9C583.199 626.5 582.699 624.2 583.099 624.9C583.099 624 583.199 622.9 583.199 622C583.499 614.6 583.799 607.2 584.099 599.8C587.199 521.4 583.099 443.1 580.999 364.8C579.899 323 578.899 281 580.399 239.2C580.599 233.6 571.899 233.6 571.699 239.2Z" fill="#231F20"/>
<path d="M579.5 152C576.4 178.2 573.7 204.5 571.7 230.8C571.2 236.4 580 236.4 580.4 230.8C582.5 204.5 585.2 178.2 588.2 152C588.9 146.4 580.1 146.4 579.5 152Z" fill="#231F20"/>
<path d="M498.699 283C508.799 290.4 523.699 291.5 535.699 291.7C548.999 291.9 563.499 290.6 575.499 284.6C580.499 282.1 576.099 274.5 571.099 277C560.499 282.3 547.299 283.1 535.699 282.9C525.099 282.8 511.999 282 503.099 275.4C498.599 272 494.199 279.7 498.699 283Z" fill="#231F20"/>
<path d="M492.6 280.1C494.5 369.6 495.701 459.1 499.701 548.6C500.901 574.667 502.367 600.7 504.1 626.7C504.4 632.3 513.2 632.4 512.8 626.7C506.9 536.6 504.7 446.4 502.9 356.2C502.4 330.8 501.9 305.4 501.3 280.1C501.2 274.5 492.5 274.4 492.6 280.1Z" fill="#231F20"/>
<path d="M444.8 346.6C453.2 348.3 461.9 348.8 470.5 348.8C479 348.9 487.8 348.7 496.1 346.6C501.6 345.2 499.2 336.7 493.8 338.1C486.2 340.1 478.2 340.1 470.5 340.1C462.7 340 454.8 339.7 447.1 338.1C441.6 337 439.3 345.5 444.8 346.6Z" fill="#231F20"/>
<path d="M500.201 280C508.001 264.6 521.701 252.9 529.601 237.5C532.201 232.5 524.601 228 522.001 233.1C514.101 248.5 500.501 260.2 492.601 275.6C490.001 280.6 497.601 285.1 500.201 280Z" fill="#231F20"/>
<path d="M476.399 289.3C463.399 304 451.199 319.4 439.799 335.4C438.399 337.4 439.399 340.3 441.399 341.4C443.599 342.7 445.999 341.8 447.399 339.8C458.299 324.5 470.099 309.6 482.599 295.5C486.399 291.3 480.199 285.1 476.399 289.3Z" fill="#231F20"/>
<path d="M354.299 262.1C378.799 238.9 406.599 219.1 434.399 200C438.999 196.8 434.599 189.2 429.899 192.4C401.599 211.9 373.099 232.2 348.099 255.9C343.999 259.8 350.199 266 354.299 262.1Z" fill="#231F20"/>
<path d="M276.8 162C307.4 161.1 338.3 162.5 368.8 165C367.333 163.6 365.866 162.166 364.4 160.7C364.4 184 361.1 207.3 361.1 230.6C361.1 236.3 369.9 236.3 369.9 230.6C369.9 207.3 373.2 184 373.2 160.7C373.2 158.1 371.2 156.5 368.8 156.3C338.3 153.7 307.4 152.3 276.8 153.2C271.2 153.4 271.2 162.2 276.8 162Z" fill="#231F20"/>
<path d="M651.5 164.2C672.233 163.266 693 162.366 713.8 161.5C719.4 161.2 719.4 152.5 713.8 152.7C693 153.633 672.233 154.533 651.5 155.4C645.8 155.7 645.8 164.4 651.5 164.2Z" fill="#231F20"/>
<path d="M528.499 239C544.832 239 561.165 239 577.499 239C583.099 239 583.099 230.3 577.499 230.3C561.165 230.3 544.832 230.3 528.499 230.3C522.899 230.3 522.899 239 528.499 239Z" fill="#231F20"/>
<path d="M477.5 300.9C483.9 300.1 490.3 300.8 496.7 300C497.9 299.9 498.9 299.6 499.8 298.7C500.6 298 501.1 296.7 501.1 295.6C501 293.5 499.1 290.9 496.7 291.2C490.3 292 483.9 291.4 477.5 292.1C476.3 292.3 475.3 292.5 474.4 293.4C473.6 294.2 473.1 295.4 473.1 296.5C473.2 298.7 475 301.2 477.5 300.9Z" fill="#231F20"/>
<path d="M123.6 260.7C142.5 264.6 162 265.1 181.2 264.7C202.9 264.2 224.8 262.1 246.1 257.6C251.6 256.5 249.3 248 243.7 249.2C223.2 253.4 202.2 255.4 181.2 255.9C162.8 256.3 144 256 126 252.2C120.5 251.1 118.1 259.5 123.6 260.7Z" fill="#231F20"/>
<path d="M270.5 304.7C306.8 281.6 339.3 253 375.6 229.8C380.3 226.8 375.9 219.2 371.2 222.2C334.9 245.4 302.4 274 266.1 297.1C261.3 300.1 265.7 307.7 270.5 304.7Z" fill="#231F20"/>
<path d="M436.399 200.6C451.699 200.7 466.699 204.5 481.899 204.5C487.499 204.6 487.599 195.8 481.899 195.8C466.699 195.7 451.699 191.9 436.399 191.9C430.799 191.8 430.799 200.6 436.399 200.6Z" fill="#231F20"/>
<path d="M477 200.5C477 231.2 474.9 261.8 476.1 292.5C476.3 298.1 485.1 298.1 484.8 292.5C483.7 261.8 485.8 231.2 485.8 200.5C485.8 194.9 477 194.9 477 200.5Z" fill="#231F20"/>
<path d="M442.3 267.2C457.5 247.2 473.2 227.1 485.7 205.3C488.5 200.4 480.9 196 478.1 200.9C465.6 222.7 449.9 242.8 434.8 262.8C433.3 264.7 434.5 267.7 436.3 268.8C438.6 270.1 440.9 269.1 442.3 267.2Z" fill="#231F20"/>
<path d="M587 156.4C604.4 155 621.8 154.633 639.2 155.3C644.8 155.5 644.8 146.8 639.2 146.5C621.8 145.833 604.4 146.2 587 147.6C581.5 148.1 581.4 156.8 587 156.4Z" fill="#231F20"/>
<path d="M377.599 228.8C377.866 228.8 378.133 228.766 378.399 228.7C377.999 228.766 377.599 228.833 377.199 228.9C379.666 228.566 382.099 228.566 384.499 228.9C384.099 228.833 383.699 228.8 383.299 228.8C385.233 229.066 387.133 229.5 388.999 230.1C391.199 230.9 393.899 229.3 394.399 227C394.899 224.6 393.599 222.5 391.299 221.7C386.099 219.8 380.699 219.6 375.299 220.4C374.299 220.5 373.099 221.6 372.699 222.4C372.099 223.3 371.899 224.7 372.199 225.8C372.599 226.8 373.199 227.9 374.199 228.4C375.299 229 376.399 229 377.599 228.8Z" fill="#231F20"/>
<path d="M340.799 307.4C343.933 305 347.033 302.6 350.099 300.2C350.633 299.933 351.066 299.567 351.399 299.1C351.799 298.7 352.066 298.2 352.199 297.6C352.399 296.6 352.299 295.2 351.699 294.2C351.099 293.3 350.199 292.5 349.099 292.2C347.999 292 346.599 292 345.699 292.7C342.633 295.033 339.532 297.4 336.399 299.8C335.932 300.067 335.533 300.433 335.199 300.9C334.799 301.3 334.532 301.8 334.399 302.4C334.099 303.5 334.199 304.9 334.799 305.8C335.399 306.7 336.299 307.5 337.499 307.8C338.499 308 339.899 308.1 340.799 307.4Z" fill="#231F20"/>
<path d="M442.3 629.3C461.5 638.1 483.3 639.8 503.6 633.6C509 632 506.7 623.5 501.3 625.2C483.4 630.7 463.8 629.6 446.7 621.7C444.6 620.7 442 621.1 440.7 623.3C439.6 625.2 440.2 628.3 442.3 629.3Z" fill="#231F20"/>
<path d="M504.599 629.1C506.799 634 512.299 636.7 517.099 638.6C523.799 641.2 531.099 642.3 538.199 642.8C551.399 643.7 568.099 642.8 578.599 633.6C582.799 629.8 576.599 623.7 572.399 627.4C568.599 630.7 563.099 632.2 558.199 633.1C551.899 634.3 545.399 634.4 538.999 634C532.999 633.7 526.899 632.7 521.199 630.8C518.999 630 516.899 629.1 514.999 627.8C513.599 626.9 512.799 626.1 512.199 624.6C509.799 619.5 502.299 624 504.599 629.1Z" fill="#231F20"/>
<path d="M145.699 259.3C158.833 250.167 171.999 241.033 185.199 231.9C187.499 230.2 185.299 226.4 182.999 228.1C169.799 237.233 156.633 246.366 143.499 255.5C141.199 257.1 143.399 260.9 145.699 259.3Z" fill="#231F20"/>
<path d="M266.199 183.1C277.333 175.633 288.466 168.167 299.599 160.7C301.899 159.1 299.699 155.3 297.299 156.9C286.233 164.367 275.133 171.867 263.999 179.4C261.699 180.9 263.899 184.7 266.199 183.1Z" fill="#231F20"/>
<path d="M298.6 171.9C301.333 169.9 304.033 167.9 306.7 165.9C307.2 165.5 307.6 165.1 307.7 164.5C307.9 164 307.8 163.3 307.5 162.9C306.9 161.9 305.5 161.3 304.5 162.1C301.767 164.1 299.067 166.1 296.4 168.1C295.9 168.5 295.5 168.9 295.4 169.5C295.2 170 295.3 170.7 295.6 171.1C296.2 172.1 297.6 172.7 298.6 171.9Z" fill="#231F20"/>
<path d="M190.6 258.8C216.4 238.4 242.6 218.3 270.3 200.4C272.7 198.9 270.5 195.1 268.1 196.6C240.1 214.7 213.6 235.1 187.5 255.7C185.3 257.4 188.4 260.5 190.6 258.8Z" fill="#231F20"/>
<path d="M218.699 252.2C231.433 242.667 244.199 233.1 256.999 223.5C259.199 221.8 256.999 218 254.699 219.7C241.966 229.3 229.233 238.867 216.499 248.4C214.199 250.1 216.399 253.9 218.699 252.2Z" fill="#231F20"/>
<path d="M173.299 259.7C185.766 249.9 198.266 240.066 210.799 230.2C212.999 228.5 209.799 225.4 207.699 227.1C195.166 236.966 182.666 246.8 170.199 256.6C167.999 258.4 171.099 261.4 173.299 259.7Z" fill="#231F20"/>
<path d="M297 306.4C307.5 296.8 318.5 287.8 330.1 279.5C332.3 277.8 330.2 274 327.9 275.7C316 284.2 304.7 293.4 293.9 303.3C291.8 305.2 294.9 308.2 297 306.4Z" fill="#231F20"/>
<path d="M319.099 306.2C323.566 302.2 328.033 298.2 332.499 294.2C333.299 293.4 333.299 291.9 332.499 291.1C331.599 290.3 330.299 290.3 329.399 291.1C324.933 295.1 320.466 299.1 315.999 303.1C315.199 303.8 315.199 305.4 315.999 306.2C316.899 307 318.199 307 319.099 306.2Z" fill="#231F20"/>
<path d="M443.699 198C430.766 209.133 417.799 220.266 404.799 231.4C402.599 233.3 405.799 236.4 407.899 234.5C420.899 223.366 433.866 212.233 446.799 201.1C448.999 199.3 445.899 196.2 443.699 198Z" fill="#231F20"/>
<path d="M434.699 225.9C444.299 216.2 454.499 207.1 465.199 198.6C466.199 197.9 465.999 196.3 465.199 195.5C464.299 194.6 462.999 194.8 462.099 195.5C451.399 204 441.199 213.1 431.599 222.8C429.599 224.8 432.699 227.9 434.699 225.9Z" fill="#231F20"/>
<path d="M546.899 233.8C539.799 245.7 533.599 258.2 528.399 271C527.299 273.7 531.599 274.8 532.599 272.2C537.699 259.7 543.799 247.6 550.699 236C552.199 233.6 548.399 231.4 546.899 233.8Z" fill="#231F20"/>
<path d="M555.599 235.2C552.132 243.067 548.666 250.933 545.199 258.8C544.699 259.9 544.899 261.2 545.999 261.8C546.899 262.4 548.499 262.1 548.999 261C552.465 253.133 555.932 245.267 559.399 237.4C559.899 236.3 559.699 235 558.599 234.4C557.699 233.8 556.099 234.1 555.599 235.2Z" fill="#231F20"/>
<path d="M471.3 322.4C466.833 329.333 462.366 336.233 457.9 343.1C456.4 345.5 460.2 347.7 461.7 345.3C466.166 338.433 470.6 331.533 475 324.6C476.6 322.2 472.8 320 471.3 322.4Z" fill="#231F20"/>
<path d="M477.2 325.4C474.733 329.333 472.267 333.266 469.8 337.2C469.2 338.2 469.5 339.6 470.6 340.2C471.6 340.8 472.9 340.4 473.6 339.4C476.067 335.466 478.533 331.533 481 327.6C481.6 326.6 481.2 325.1 480.2 324.6C479.1 324 477.8 324.3 477.2 325.4Z" fill="#231F20"/>
<path d="M596.399 186C597.799 202.267 599.166 218.533 600.499 234.8C600.699 237.6 605.099 237.6 604.899 234.8C603.566 218.533 602.199 202.267 600.799 186C600.599 183.2 596.199 183.2 596.399 186Z" fill="#231F20"/>
<path d="M609.9 202.2C610.4 213.9 611.9 225.5 614.3 236.9C614.9 239.6 619.1 238.5 618.5 235.7C616.2 224.7 614.7 213.5 614.3 202.2C614.2 199.4 609.8 199.4 609.9 202.2Z" fill="#231F20"/>
<path d="M631.399 164.7C640.199 185.433 648.966 206.166 657.699 226.9C658.799 229.5 662.599 227.3 661.499 224.7C652.765 203.966 643.999 183.233 635.199 162.5C634.099 159.9 630.299 162.1 631.399 164.7Z" fill="#231F20"/>
<path d="M639.499 210.2C641.499 215.667 643.466 221.1 645.399 226.5C645.799 227.6 646.899 228.4 648.099 228.1C649.199 227.8 650.099 226.5 649.699 225.4C647.699 219.933 645.732 214.5 643.799 209.1C643.399 208 642.299 207.2 641.099 207.5C639.999 207.8 639.099 209.1 639.499 210.2Z" fill="#231F20"/>
<path d="M718.699 188.9C733.966 201.7 749.232 214.5 764.499 227.3C766.699 229.1 769.799 226 767.599 224.2C752.333 211.4 737.066 198.6 721.799 185.8C719.599 184 716.499 187.1 718.699 188.9Z" fill="#231F20"/>
<path d="M727.3 211.3C733.234 217.233 739.134 223.166 745 229.1C747 231.1 750.1 228 748.1 226C742.234 220.066 736.334 214.133 730.4 208.2C728.4 206.2 725.3 209.3 727.3 211.3Z" fill="#231F20"/>
<path d="M662.399 165.3C668.333 172.7 674.266 180.1 680.199 187.5C680.899 188.4 682.499 188.3 683.299 187.5C684.199 186.6 683.999 185.3 683.299 184.4C677.366 177 671.433 169.6 665.499 162.2C664.799 161.3 663.199 161.4 662.399 162.2C661.499 163.1 661.699 164.4 662.399 165.3Z" fill="#231F20"/>
<path d="M678.299 170.8C679.766 173.267 681.233 175.733 682.699 178.2C683.299 179.2 684.699 179.6 685.699 179C686.699 178.4 687.099 177 686.499 176C685.033 173.533 683.566 171.067 682.1 168.6C681.5 167.6 680.1 167.2 679.1 167.8C678.1 168.5 677.699 169.8 678.299 170.8Z" fill="#231F20"/>
<path d="M703.4 216.7C706.866 221.633 710.333 226.533 713.8 231.4C714.5 232.4 715.7 232.9 716.8 232.2C717.7 231.7 718.2 230.2 717.6 229.2C714.133 224.267 710.667 219.333 707.2 214.4C706.5 213.5 705.3 213 704.2 213.7C703.3 214.2 702.7 215.7 703.4 216.7Z" fill="#231F20"/>
<path d="M684.899 357.3C728.299 361.2 772.299 359.2 815.199 351.2C820.699 350.1 818.399 341.7 812.899 342.7C770.799 350.6 727.499 352.4 684.899 348.5C679.299 348 679.299 356.8 684.899 357.3Z" fill="#231F20"/>
<path d="M690.4 493.7C713.5 499.9 737.9 500.5 761.5 498.1C780.4 496.3 800.2 493 817.5 484.7C822.6 482.3 818.2 474.7 813.1 477.2C796.8 485 777.6 487.9 759.9 489.5C737.5 491.6 714.5 491.1 692.8 485.3C687.3 483.8 685 492.3 690.4 493.7Z" fill="#231F20"/>
<path d="M576.1 311.2C609.9 320.6 647.6 316.2 681.3 309C686.9 307.8 684.5 299.4 679 300.6C646.8 307.4 610.6 311.7 578.4 302.7C573 301.2 570.7 309.7 576.1 311.2Z" fill="#231F20"/>
<path d="M579.3 564.9C595.7 576 618.3 577 637.5 575.7C654.2 574.5 675.1 571.8 688.3 560.3C692.5 556.6 686.3 550.4 682.1 554.1C677 558.5 670 560.8 663.7 562.6C654.7 565.1 645.4 566.5 636.1 567C618.8 568.1 598.6 567.3 583.7 557.3C579 554.2 574.6 561.8 579.3 564.9Z" fill="#231F20"/>
<path d="M442.299 396.5C460.299 402.3 479.699 402.6 497.899 397.5C503.299 395.9 500.999 387.5 495.499 389C478.799 393.8 461.199 393.4 444.599 388.1C439.199 386.3 436.899 394.8 442.299 396.5Z" fill="#231F20"/>
<path d="M442.4 584.7C453.2 588.9 464.6 591 476.1 591.2C481.9 591.2 487.7 590.7 493.4 589.8C498.2 589 503 587.6 506.5 583.9C510.4 579.8 504.2 573.6 500.3 577.7C497.5 580.7 492.8 581.1 488.9 581.6C484 582.3 479 582.5 474 582.3C464 582 454.1 579.9 444.7 576.3C439.5 574.3 437.2 582.8 442.4 584.7Z" fill="#231F20"/>
<path d="M446.3 561.7C463 568.7 482.4 568.8 499.1 561.9C501.3 561 502.8 559 502.1 556.5C501.6 554.4 499 552.5 496.8 553.4C481.3 559.8 464.1 559.8 448.6 553.3C446.5 552.4 443.8 554.3 443.2 556.3C442.5 558.9 444.1 560.8 446.3 561.7Z" fill="#231F20"/>
<path d="M443.599 421.8C461.299 426.4 479.899 426.6 497.699 422.3C503.199 421 500.899 412.5 495.399 413.8C479.099 417.7 462.099 417.5 445.899 413.3C440.499 411.9 438.099 420.3 443.599 421.8Z" fill="#231F20"/>
<path d="M346.2 378.4C377.7 383.3 409.499 383.3 440.899 378.6C446.499 377.7 444.1 369.3 438.6 370.1C408.8 374.6 378.399 374.6 348.599 370C343.099 369.1 340.7 377.6 346.2 378.4Z" fill="#231F20"/>
<path d="M341.199 521.6C373.199 528.9 406.099 529.8 438.399 524.3C443.999 523.4 441.599 514.9 436.099 515.9C405.399 521 373.899 520.1 343.499 513.1C337.999 511.9 335.599 520.3 341.199 521.6Z" fill="#231F20"/>
<path d="M262.599 398.1C268.999 408.3 282.099 411.4 293.399 412C309.599 412.9 325.899 408.7 340.299 401.6C345.299 399.1 340.899 391.5 335.899 394C323.399 400.1 309.399 403.7 295.399 403.4C286.999 403.1 275.099 401.6 270.199 393.7C267.199 388.9 259.599 393.3 262.599 398.1Z" fill="#231F20"/>
<path d="M262.1 574.6C271.7 582.6 286.1 584.4 298.2 584.5C312.5 584.7 328 581.7 339.1 572.2C343.4 568.5 337.2 562.4 332.9 566C323.6 573.9 310 575.9 298.2 575.8C288.8 575.7 275.8 574.6 268.3 568.4C264 564.8 257.8 571 262.1 574.6Z" fill="#231F20"/>
<path d="M257.699 630C260.699 627.333 263.699 624.7 266.699 622.1C267.499 621.4 267.999 620 267.999 619C267.999 617.9 267.499 616.6 266.699 615.9C265.899 615.1 264.799 614.5 263.599 614.6C262.399 614.7 261.399 615.1 260.499 615.9C257.499 618.5 254.499 621.133 251.499 623.8C250.599 624.5 250.199 625.8 250.199 626.9C250.199 628 250.599 629.2 251.499 630C252.299 630.8 253.399 631.3 254.599 631.3C255.799 631.2 256.699 630.8 257.699 630Z" fill="#231F20"/>
<path d="M173.299 352.4C189.999 348.9 206.199 364.6 207.199 380.7C207.899 390.8 204.199 400.8 195.799 406.8C188.299 412.1 178.599 413.9 169.899 411.3C159.899 408.3 153.499 399.5 151.799 389.4C149.199 374.3 157.699 356.2 173.299 352.4C178.799 351 176.499 342.6 170.999 343.9C138.699 351.8 131.699 404 162.899 418C174.199 423 187.499 422 198.099 415.7C209.699 408.8 216.199 396.3 216.099 382.9C215.899 360.1 194.299 339.1 170.999 343.9C165.499 345.1 167.799 353.5 173.299 352.4Z" fill="#231F20"/>
<path d="M123.799 425.4C135.599 436.4 152.299 440.9 167.899 443C185.599 445.4 203.999 444.9 221.399 440.6C229.799 438.6 238.099 435.6 245.299 430.9C247.599 429.3 245.399 425.5 243.099 427.1C230.199 435.6 213.899 438.6 198.799 439.6C181.899 440.8 164.399 439.5 148.199 434.1C140.499 431.6 132.899 427.9 126.899 422.3C124.899 420.4 121.799 423.5 123.799 425.4Z" fill="#231F20"/>
<path d="M133.599 575C162.399 588.1 195.099 593 225.999 584.9C234.099 582.7 241.899 579.7 249.299 575.8C251.899 574.6 249.599 570.8 247.099 572.1C212.399 590 170.799 587.2 135.799 571.3C133.299 570.1 131.099 573.9 133.599 575Z" fill="#231F20"/>
<path d="M524.4 344.8C531.9 336.2 548.1 336.8 553.1 347.8C555.8 353.8 556.7 360.7 557.2 367.2C557.8 373.8 557.9 380.4 557.9 387C558.234 425.2 558.534 463.433 558.8 501.7C558.867 511.167 558.934 520.633 559 530.1C559.1 534.8 559 539.5 559.2 544.2C559.5 548.2 559.9 552.2 560 556.2C560 563.7 557.7 570.2 550.9 574C546 576.9 538.6 578.6 533.4 575.4C527.4 571.8 523.6 563.6 522.7 556.9C521.4 547.5 521.3 537.8 520.8 528.4C519.7 509.4 519.1 490.4 518.8 471.4C518.4 452.4 518.3 433.3 518.3 414.3C518.3 395.5 517.9 376.6 518.4 357.8C518.5 353.9 518.9 349.7 521.5 346.5C523.3 344.4 520.2 341.2 518.4 343.4C512.9 350.2 514 359.4 514 367.5C514 377.833 513.967 388.2 513.9 398.6C513.9 419.4 513.9 440.2 514.2 461.1C514.5 481.7 515 502.3 516.1 522.9C516.634 533.3 517.267 543.633 518 553.9C518.7 562 521.4 569.5 526.8 575.5C531.4 580.5 537.4 582.2 544 581.1C550.2 580.1 556.6 576.8 560.3 571.6C565.3 564.7 564.5 555.9 563.9 547.9C563.1 538 563.4 528 563.3 518.1C562.967 476.367 562.667 434.667 562.4 393C562.2 378.4 563.1 362.5 558.1 348.5C556.1 343 552.9 338.6 547.3 336.3C541.5 333.9 534.6 333.9 528.8 336.3C525.9 337.5 523.4 339.3 521.3 341.7C519.4 343.8 522.5 346.9 524.4 344.8Z" fill="#231F20"/>
<path d="M397.399 276.1C401.399 271.833 405.366 267.567 409.299 263.3C410.099 262.4 410.199 261 409.299 260.2C408.399 259.4 406.999 259.3 406.199 260.2C402.266 264.467 398.299 268.733 394.299 273C393.499 273.9 393.399 275.3 394.299 276.1C395.199 276.9 396.599 277 397.399 276.1Z" fill="#231F20"/>
<path d="M395.199 254.2C392.599 257.133 389.966 260.1 387.299 263.1C386.499 263.9 386.399 265.3 387.299 266.2C388.099 266.9 389.599 267.1 390.399 266.2C393.066 263.2 395.699 260.233 398.299 257.3C399.099 256.4 399.199 255 398.299 254.2C397.499 253.4 395.999 253.3 395.199 254.2Z" fill="#231F20"/>
<path fill-rule="evenodd" clip-rule="evenodd" d="M126.7 143.9C116.1 143.9 107.4 135.2 107.4 124.6C107.4 114 116.1 105.3 126.7 105.3C137.3 105.3 146 114 146 124.6C146 135.2 137.3 143.9 126.7 143.9ZM126.7 109.7C118.5 109.7 111.8 116.4 111.8 124.6C111.8 132.8 118.5 139.5 126.7 139.5C134.9 139.5 141.6 132.8 141.6 124.6C141.6 116.4 134.9 109.7 126.7 109.7Z" fill="#231F20"/>
<path fill-rule="evenodd" clip-rule="evenodd" d="M877.2 592.3C871.9 592.3 867.6 588 867.6 582.6C867.6 577.3 871.9 573 877.2 573C882.6 573 886.9 577.3 886.9 582.6C886.9 588 882.6 592.3 877.2 592.3ZM877.2 577.3C874.3 577.3 871.9 579.7 871.9 582.6C871.9 585.5 874.3 587.9 877.2 587.9C880.1 587.9 882.5 585.5 882.5 582.6C882.5 579.7 880.1 577.3 877.2 577.3Z" fill="#231F20"/>
<path fill-rule="evenodd" clip-rule="evenodd" d="M906.7 199.2C901.4 199.2 897 194.8 897 189.5C897 184.2 901.4 179.8 906.7 179.8C912 179.8 916.4 184.2 916.4 189.5C916.4 194.8 912 199.2 906.7 199.2ZM906.7 184.2C903.8 184.2 901.4 186.6 901.4 189.5C901.4 192.4 903.8 194.8 906.7 194.8C909.6 194.8 912 192.4 912 189.5C912 186.6 909.6 184.2 906.7 184.2Z" fill="#231F20"/>
<path fill-rule="evenodd" clip-rule="evenodd" d="M427.3 20.0001C422 20.0001 417.7 15.6002 417.7 10.3002C417.7 5.00017 422 0.600098 427.3 0.600098C432.7 0.600098 437 5.00017 437 10.3002C437 15.6002 432.7 20.0001 427.3 20.0001ZM427.3 5.00012C424.4 5.00012 422 7.40017 422 10.3002C422 13.2002 424.4 15.6001 427.3 15.6001C430.2 15.6001 432.6 13.2002 432.6 10.3002C432.6 7.40017 430.2 5.00012 427.3 5.00012Z" fill="#231F20"/>
<path fill-rule="evenodd" clip-rule="evenodd" d="M368.7 786C358.9 786 350.9 778 350.9 768.2C350.9 758.4 358.9 750.5 368.7 750.5C378.5 750.5 386.5 758.4 386.5 768.2C386.5 778 378.5 786 368.7 786ZM368.7 754.9C361.3 754.9 355.3 760.9 355.3 768.2C355.3 775.6 361.3 781.6 368.7 781.6C376.1 781.6 382.1 775.6 382.1 768.2C382.1 760.9 376.1 754.9 368.7 754.9Z" fill="#231F20"/>
<path d="M172.399 10.0001C172.399 19.4001 172.399 28.7668 172.399 38.1001C172.399 40.2001 174.199 42.0001 176.299 42.0001C178.399 42.0001 180.199 40.2001 180.199 38.1001C180.199 28.7668 180.199 19.4001 180.199 10.0001C180.199 7.90012 178.399 6.1001 176.299 6.1001C174.199 6.1001 172.399 7.90012 172.399 10.0001Z" fill="#231F20"/>
<path d="M162.2 27.9001C171.6 27.9001 180.966 27.9001 190.3 27.9001C192.4 27.9001 194.2 26.2001 194.2 24.1001C194.2 21.9001 192.4 20.2002 190.3 20.2002C180.966 20.2002 171.6 20.2002 162.2 20.2002C160.1 20.2002 158.3 22.0001 158.3 24.1001C158.3 26.2001 160.1 27.9001 162.2 27.9001Z" fill="#231F20"/>
<path d="M658 727.6C658 736.933 658 746.3 658 755.7C658 757.8 659.8 759.6 661.9 759.6C664 759.6 665.7 757.8 665.7 755.7C665.7 746.3 665.7 736.933 665.7 727.6C665.7 725.5 664 723.7 661.9 723.7C659.7 723.7 658 725.5 658 727.6Z" fill="#231F20"/>
<path d="M647.8 745.5C657.2 745.5 666.567 745.5 675.9 745.5C678 745.5 679.8 743.7 679.8 741.6C679.8 739.5 678 737.7 675.9 737.7C666.567 737.7 657.2 737.7 647.8 737.7C645.7 737.7 643.9 739.5 643.9 741.6C643.9 743.7 645.7 745.5 647.8 745.5Z" fill="#231F20"/>
<path d="M14.7998 508.8C14.7998 518.2 14.7998 527.567 14.7998 536.9C14.7998 539 16.5998 540.8 18.6998 540.8C20.7998 540.8 22.5998 539 22.5998 536.9C22.5998 527.567 22.5998 518.2 22.5998 508.8C22.5998 506.7 20.7998 504.9 18.6998 504.9C16.5998 504.9 14.7998 506.7 14.7998 508.8Z" fill="#231F20"/>
<path d="M4.60019 526.7C14.0002 526.7 23.3669 526.7 32.7002 526.7C34.8002 526.7 36.6002 525 36.6002 522.9C36.6002 520.7 34.8002 519 32.7002 519C23.3669 519 14.0002 519 4.60019 519C2.50019 519 0.700195 520.7 0.700195 522.9C0.700195 525 2.50019 526.7 4.60019 526.7Z" fill="#231F20"/>
</svg>
