<svg width="163" height="157" viewBox="0 0 163 157" fill="none" xmlns="http://www.w3.org/2000/svg">
<g style="mix-blend-mode:multiply">
<path fill-rule="evenodd" clip-rule="evenodd" d="M162.482 86.6512C162.482 91.8701 158.402 95.6656 151.57 95.6656C144.169 95.6656 134.49 90.1621 130.884 95.0014C126.235 101.217 139.709 107.29 139.709 115.403C139.709 120.194 135.249 125.793 127.278 125.793C116.841 125.793 103.793 118.771 102.702 130.253C101.563 143.063 91.9797 145.008 87.4725 143.252C78.458 139.694 83.0601 126.552 75.1369 124.037C61.9948 119.862 55.2577 138.555 44.1082 132.767C35.8054 128.497 43.5389 112.698 35.9478 109.33C31.061 107.1 23.4699 110.706 20.386 116.541C17.7291 121.523 13.6015 123.563 9.75845 123.563C5.15634 123.563 1.02867 120.574 0.554228 116.019C-0.394661 106.341 10.3278 107.574 14.5503 102.118C19.6269 95.6182 14.2657 91.111 14.2182 84.4688C14.1233 76.9251 23.4224 71.5639 22.948 63.9728C22.7582 60.6517 20.6707 57.805 19.2473 54.816C17.7766 51.827 17.1123 47.8891 19.3897 45.422C22.521 42.006 28.6413 43.4768 32.4843 40.9622C36.3273 38.4477 39.5536 33.7981 38.2251 29.0062C36.3273 22.0793 23.9443 14.3459 30.3968 6.70733C33.7179 2.76944 39.8857 2.91177 43.3491 6.28033C47.4293 10.2657 45.0571 17.2874 46.7651 22.2217C47.8089 25.2107 50.9402 27.8675 53.9292 26.8712C57.3452 25.78 58.2941 20.9881 61.5203 19.4699C65.8852 17.3823 71.626 22.4114 76.9398 17.2874C78.5529 15.6743 78.6478 12.7802 78.8376 10.1233C79.4069 1.39355 87.1878 2.24755 87.1878 10.3605C87.1878 13.0174 86.998 16.0064 88.5637 18.1414C92.6913 23.8822 103.604 23.4078 107.636 17.0502C109.155 14.678 110.246 11.9737 112.381 10.2182C116.271 7.03943 123.151 7.13433 126.187 11.9737C133.446 23.5027 113.14 23.3603 114.753 31.8529C115.844 37.4039 125.096 34.9842 128.512 38.0207C135.012 43.8089 128.464 49.9767 131.121 54.2941C132.26 56.1919 134.775 56.8087 136.435 58.3269C139.519 61.0787 137.052 71.5164 140.8 75.2645C143.647 78.1112 146.731 74.9799 154.844 77.5893C158.781 78.8703 162.482 81.4798 162.482 86.6512ZM65.221 149.088C59.8123 147.475 57.0131 140.216 61.2831 133.858C65.648 127.406 72.3851 129.494 75.0895 133.147C80.4981 140.501 73.1917 151.413 65.221 149.088ZM132.118 23.645C135.818 23.3603 141.844 25.9223 137.669 29.9551C136.103 31.5208 134.063 32.4697 131.88 32.8492C120.873 34.6047 120.826 24.5939 132.118 23.645ZM10.3278 28.5792C10.0906 26.3968 10.2329 24.072 11.5139 22.3165C15.5941 16.7181 29.353 18.8057 28.072 29.1485C26.791 39.3491 11.846 40.9622 10.3278 28.5792ZM84.6732 151.603C84.863 153.358 83.7243 155.161 82.0638 155.778C80.3083 156.442 78.1259 155.635 77.177 153.975C76.6077 152.931 76.5128 151.603 76.9872 150.511C77.6515 148.851 79.5018 147.807 81.2572 148.044C83.0127 148.282 84.4835 149.847 84.6732 151.603ZM16.3058 10.5503C15.689 9.12699 16.3532 7.3241 17.7291 6.65988C19.105 5.99566 20.9079 6.56499 21.667 7.89344C22.3787 9.22188 21.9042 11.0722 20.6232 11.8788C19.1524 12.7802 17.0174 12.0685 16.3058 10.5503ZM153.847 103.874C157.785 108.76 154.464 113.173 149.72 112.414C146.541 111.939 142.081 109.709 140.136 106.293C135.012 97.1839 147.537 96.0452 153.847 103.874ZM24.2764 128.402C22.0466 127.738 20.813 124.844 21.9042 122.804C22.7582 121.238 24.7035 120.432 26.364 120.906C28.072 121.381 29.3056 123.089 29.2107 124.844C29.1158 127.169 26.5063 129.019 24.2764 128.402ZM34.5245 137.322C34.3347 140.074 31.6778 142.351 28.926 142.161C26.2217 141.971 23.8969 139.315 24.0867 136.61C24.2764 133.858 26.9333 131.581 29.6851 131.771C32.3895 131.961 34.7142 134.618 34.5245 137.322Z" fill="#E6E6E6"/>
</g>
<path d="M14.2182 81.6221C14.1233 74.0784 23.4224 68.7172 22.948 61.1261C22.7582 57.805 20.6707 54.9583 19.2473 51.9693C17.7766 48.9803 17.1123 45.0424 19.3897 42.5753C22.521 39.1593 28.6413 40.6301 32.4843 38.1155C36.3273 35.601 39.5536 30.9514 38.2251 26.1596C36.3273 19.2327 23.9443 11.4992 30.3968 3.86066C33.7179 -0.0772272 39.8857 0.0651056 43.3491 3.43366C47.4293 7.41899 45.0571 14.4408 46.7651 19.375C47.8089 22.364 50.9402 25.0209 53.9292 24.0246C57.3452 22.9333 58.2941 18.1414 61.5203 16.6232C65.8852 14.5357 71.626 19.5648 76.9398 14.4408C78.5529 12.8277 78.6478 9.93355 78.8376 7.27666C79.4069 -1.45312 87.1878 -0.599118 87.1878 7.51388C87.1878 10.1708 86.998 13.1598 88.5637 15.2948C92.6913 21.0355 103.604 20.5611 107.636 14.2035C109.155 11.8313 110.246 9.12699 112.381 7.37155C116.271 4.19277 123.103 4.33511 126.187 9.12699C133.446 20.656 113.14 20.5137 114.753 29.0062C115.844 34.5572 125.096 32.1375 128.512 35.174C135.012 40.9622 128.464 47.13 131.121 51.4474C132.26 53.3452 134.775 53.962 136.435 55.4802C139.519 58.232 137.052 68.6698 140.8 72.4179C143.647 75.2645 146.731 72.1332 154.844 74.7427C158.781 76.0237 162.482 78.6331 162.482 83.8045C162.482 89.0234 158.402 92.819 151.57 92.819C144.169 92.819 134.49 87.3154 130.884 92.1548C126.235 98.37 139.709 104.443 139.709 112.556C139.709 117.348 135.249 122.946 127.278 122.946C116.841 122.946 103.793 115.924 102.702 127.406C101.516 140.263 91.9797 142.161 87.4725 140.406C78.458 136.847 83.0601 123.705 75.1369 121.191C61.9948 117.016 55.2577 135.709 44.1082 129.921C35.8054 125.651 43.5389 109.852 35.9478 106.483C31.061 104.253 23.4699 107.859 20.386 113.695C17.7291 118.676 13.6015 120.716 9.75845 120.716C5.15634 120.716 1.02867 117.727 0.554228 113.173C-0.394661 103.494 10.3278 104.728 14.5503 99.2714C19.6269 92.7715 14.2657 88.2643 14.2182 81.6221Z" fill="#FCECDE"/>
<path d="M36.8967 39.2542C36.612 39.2542 36.3273 39.1593 36.0901 38.9696C35.7106 38.5426 35.7106 37.8309 36.1376 37.4039C39.3638 34.1777 40.8346 30.1449 40.1229 26.4442C39.9806 25.8749 40.3601 25.3056 40.9769 25.1632C41.5462 25.0683 42.163 25.4479 42.2579 26.0172C43.1119 30.477 41.4513 35.174 37.6558 38.9696C37.466 39.1593 37.1813 39.2542 36.8967 39.2542Z" fill="white"/>
<path d="M22.9006 52.8708L21.9042 53.3452C21.5247 52.6336 21.1451 51.9219 20.813 51.2102C19.6269 48.7906 19.0101 45.5643 20.6707 43.7615C21.9991 42.3381 24.1816 42.006 26.6961 41.6265C27.1073 41.5632 27.5343 41.4999 27.9771 41.4367C28.5939 41.3418 29.1158 41.7213 29.2107 42.3381C29.3056 42.9075 28.926 43.4768 28.3567 43.5717C27.8822 43.6666 27.4394 43.7456 27.0282 43.8089C24.8932 44.0936 23.0429 44.3782 22.2363 45.2797C21.4298 46.1337 21.9042 48.4585 22.7582 50.2613C23.0903 50.9256 23.4699 51.6372 23.8494 52.3014L22.9006 52.8708Z" fill="white"/>
<path d="M22.6633 71.8011C22.4419 71.8011 22.2363 71.7379 22.0466 71.6113C21.5721 71.2792 21.4298 70.615 21.7144 70.0931C22.2838 69.2391 22.7582 68.4326 23.1378 67.6734C23.4224 67.1516 24.0867 66.9143 24.6086 67.199C25.1304 67.4837 25.3677 68.1479 25.083 68.6698C24.656 69.4763 24.1816 70.3303 23.5648 71.2792C23.375 71.6113 22.9954 71.8011 22.6633 71.8011Z" fill="white"/>
<path d="M18.251 88.2169C17.7766 88.2169 17.3496 87.9322 17.2072 87.4578C16.5904 85.5126 15.9737 83.6622 15.9737 81.6221C15.9262 78.728 17.6342 76.0237 19.5794 73.2719C19.9116 72.7975 20.5758 72.6551 21.0977 72.9872C21.5721 73.3193 21.7144 74.031 21.3823 74.5054C19.5794 77.0674 18.1087 79.3448 18.1561 81.6221C18.1561 83.3301 18.7254 84.9907 19.2948 86.7936C19.4846 87.3629 19.1524 87.9797 18.5831 88.1694C18.4882 88.2011 18.3775 88.2169 18.251 88.2169Z" fill="white"/>
<path d="M16.8277 102.118C16.5904 102.118 16.3532 102.023 16.116 101.881C15.6416 101.501 15.5941 100.837 15.9262 100.363C16.4956 99.6036 16.97 98.8603 17.3496 98.1328C17.6342 97.6109 18.2984 97.3737 18.8203 97.6583C19.3897 97.8956 19.5794 98.5598 19.2948 99.1291C18.852 99.9831 18.3143 100.837 17.6817 101.691C17.4444 101.976 17.1123 102.118 16.8277 102.118Z" fill="white"/>
<path d="M9.75845 118.961C6.34245 118.961 2.68922 116.921 2.30967 112.983C1.83522 108.191 4.72933 106.863 8.76211 105.107C9.42633 104.791 10.1064 104.475 10.8022 104.158C11.3241 103.874 11.9883 104.111 12.273 104.68C12.5102 105.202 12.3204 105.866 11.7511 106.103C11.0394 106.483 10.3752 106.768 9.66356 107.052C5.15633 109.092 4.20744 109.804 4.49211 112.793C4.72933 115.403 7.33878 116.778 9.75845 116.778C10.3752 116.778 10.8497 117.253 10.8497 117.87C10.8497 118.486 10.3752 118.961 9.75845 118.961Z" fill="white"/>
<path d="M48.4257 129.304C47.2396 129.304 46.1009 128.972 44.9148 128.355C42.6374 127.169 42.0207 124.749 41.7834 122.756C41.6886 122.14 42.1156 121.618 42.7323 121.523C43.3491 121.475 43.871 121.855 43.9659 122.472C44.2506 124.702 44.8199 125.888 45.9111 126.41C46.7651 126.884 47.6191 127.121 48.4257 127.121C49.4694 127.121 50.703 126.694 52.1738 125.888C52.6957 125.603 53.3599 125.793 53.6446 126.315C53.9767 126.837 53.7394 127.501 53.2176 127.786C51.4147 128.829 49.8964 129.304 48.4257 129.304Z" fill="#E3D2C8"/>
<path d="M83.582 130.537C83.1076 130.537 82.6331 130.205 82.5382 129.683C81.5419 125.651 80.4507 121.048 75.6588 119.53C74.188 119.056 72.7172 118.819 71.2939 118.819C65.9801 118.819 61.6627 121.95 57.8671 124.702C57.3927 125.034 56.7285 124.939 56.3489 124.464C56.0168 123.99 56.1117 123.278 56.5861 122.946C60.6663 119.957 65.2685 116.636 71.2939 116.636C72.9545 116.636 74.6625 116.921 76.323 117.443C82.301 119.34 83.6769 125.034 84.6258 129.161C84.7681 129.778 84.436 130.348 83.8192 130.49C83.756 130.522 83.6769 130.537 83.582 130.537Z" fill="#E3D2C8"/>
<path d="M90.6987 139.22C89.7498 139.22 88.8483 139.03 88.0892 138.745C86.3338 138.081 85.1477 136.895 84.2462 135.139C83.9616 134.57 84.1988 133.953 84.7207 133.669C85.29 133.384 85.9068 133.621 86.1914 134.143C86.8557 135.472 87.6622 136.231 88.8958 136.705C89.3702 136.895 90.0344 137.037 90.6987 137.037C91.6159 137.037 92.5016 136.863 93.3556 136.515C93.8775 136.278 94.5417 136.563 94.7789 137.085C94.9687 137.654 94.7315 138.271 94.1621 138.508C93.0709 138.982 91.8848 139.22 90.6987 139.22Z" fill="#E3D2C8"/>
<path d="M99.9029 128.26C99.8713 128.26 99.8396 128.26 99.808 128.26C99.1912 128.213 98.7642 127.643 98.8117 127.074C99.4285 120.527 103.414 116.873 110.103 116.873C112.808 116.873 115.654 117.395 118.691 117.965C119.308 118.059 119.687 118.629 119.592 119.198C119.497 119.815 118.928 120.194 118.311 120.1C115.37 119.578 112.618 119.056 110.103 119.056C104.552 119.056 101.469 121.808 100.994 127.264C100.947 127.833 100.472 128.26 99.9029 128.26Z" fill="#E3D2C8"/>
<path d="M136.435 115.687C136.309 115.687 136.182 115.671 136.056 115.64C135.486 115.403 135.202 114.786 135.439 114.216C135.676 113.647 135.771 113.078 135.771 112.556C135.771 110.326 133.541 107.669 131.359 105.107C130.457 104.063 129.461 102.877 128.559 101.644C128.227 101.169 128.322 100.505 128.844 100.125C129.318 99.7933 129.983 99.8882 130.362 100.41C131.169 101.549 132.118 102.64 133.019 103.684C135.439 106.53 137.953 109.519 137.953 112.556C137.953 113.315 137.811 114.169 137.479 115.023C137.289 115.45 136.91 115.687 136.435 115.687Z" fill="white"/>
<path d="M153.373 90.9212C152.851 90.9212 152.376 90.5417 152.282 89.9723C152.234 89.403 152.661 88.8337 153.23 88.7388C155.176 88.5016 156.646 87.7899 157.548 86.7461C157.927 86.2717 158.592 86.1768 159.066 86.6038C159.541 86.9833 159.588 87.6475 159.208 88.122C157.975 89.6402 155.982 90.5891 153.515 90.9212C153.483 90.9212 153.436 90.9212 153.373 90.9212Z" fill="#E3D2C8"/>
<path d="M158.022 80.8156C157.738 80.8156 157.453 80.7207 157.263 80.4835C156.457 79.6769 155.271 79.0127 153.657 78.4908C151.048 77.6842 149.15 77.5419 147.774 77.5419C147.173 77.5419 146.62 77.5577 146.114 77.5893C145.45 77.6368 144.928 77.6368 144.453 77.6368C142.603 77.6368 140.183 77.3521 138.001 75.1697C136.957 74.1259 136.198 72.8449 135.629 71.1843C135.439 70.615 135.723 69.9982 136.293 69.8085C136.862 69.5712 137.479 69.9033 137.669 70.4727C138.143 71.8011 138.76 72.8449 139.566 73.6514C141.18 75.2646 142.84 75.4543 144.453 75.4543C144.896 75.4543 145.386 75.4385 145.924 75.4069C146.541 75.4069 147.158 75.3594 147.774 75.3594C149.293 75.3594 151.428 75.5018 154.322 76.4507C156.267 77.0675 157.738 77.9215 158.829 78.9652C159.256 79.3922 159.208 80.0565 158.781 80.4835C158.592 80.7207 158.307 80.8156 158.022 80.8156Z" fill="white"/>
<path d="M135.344 62.5969C134.822 62.5969 134.348 62.1699 134.253 61.6006C134.063 59.1809 133.826 58.5167 133.731 58.3269C133.399 58.0422 132.829 57.7101 132.213 57.378C131.691 57.0459 131.074 56.7138 130.457 56.2868C129.935 55.9547 129.84 55.243 130.172 54.7686C130.505 54.2467 131.216 54.1518 131.691 54.4839C132.213 54.8634 132.782 55.1956 133.304 55.4802C134.063 55.9072 134.727 56.2868 135.249 56.7612C135.818 57.3306 136.15 58.232 136.435 61.4108C136.483 62.0276 136.056 62.5494 135.439 62.5969C135.407 62.5969 135.376 62.5969 135.344 62.5969Z" fill="white"/>
<path d="M127.8 51.827C127.278 51.827 126.851 51.4949 126.709 50.973C126.187 48.7431 126.662 46.5607 127.089 44.6154C127.8 41.152 127.895 39.871 125.902 38.1156C125.381 37.6411 123.008 37.309 121.822 37.1667C121.253 37.0718 120.826 36.5499 120.921 35.9331C121.016 35.3163 121.538 34.8893 122.154 34.9842C124.621 35.3638 126.424 35.6484 127.326 36.455C130.315 39.1119 129.983 41.4367 129.224 45.0899C128.844 46.8928 128.464 48.7431 128.844 50.4986C128.986 51.1153 128.607 51.6847 128.037 51.827C127.943 51.827 127.863 51.827 127.8 51.827Z" fill="white"/>
<path d="M123.767 11.7364C123.388 11.7364 123.056 11.5941 122.866 11.262C121.632 9.36423 119.545 9.17445 118.691 9.17445C117.268 9.17445 115.892 9.60145 114.895 10.408C114.421 10.7876 113.757 10.7401 113.377 10.2657C112.998 9.79123 113.045 9.127 113.519 8.74745C114.895 7.60878 116.793 6.992 118.691 6.992C119.924 6.992 122.913 7.27667 124.669 10.0759C125.001 10.5978 124.859 11.262 124.337 11.5941C124.147 11.689 123.957 11.7364 123.767 11.7364Z" fill="white"/>
<path d="M110.056 16.813C109.835 16.813 109.645 16.7497 109.487 16.6232C108.965 16.2911 108.822 15.6269 109.107 15.105C109.534 14.4882 109.914 13.7766 110.293 13.1123L110.625 12.543C110.957 12.0211 111.622 11.8313 112.144 12.116C112.665 12.4481 112.855 13.1123 112.523 13.6342L112.238 14.1087C111.811 14.9152 111.384 15.6269 110.957 16.2911C110.768 16.6232 110.388 16.813 110.056 16.813Z" fill="white"/>
<path d="M84.7207 8.3679C84.1513 8.3679 83.6294 7.89345 83.6294 7.32412C83.582 5.90078 83.2499 4.9519 82.728 4.80956C82.1587 4.66723 81.8266 4.05045 81.9689 3.48112C82.1112 2.91178 82.728 2.57967 83.2973 2.72201C84.3886 3.00667 85.717 4.05045 85.8119 7.22923C85.8119 7.84601 85.3374 8.3679 84.7681 8.3679C84.7365 8.3679 84.7207 8.3679 84.7207 8.3679Z" fill="white"/>
<path d="M60.2868 22.9808C60.0654 22.9808 59.8598 22.9175 59.67 22.791C59.1956 22.4114 59.0532 21.7472 59.3853 21.2728C60.2868 19.9443 61.1882 18.7108 62.2794 18.1889C62.8013 17.9517 63.4181 17.8568 64.1772 17.8568C65.0787 17.8568 66.0276 17.9991 67.1188 18.1889C68.5421 18.4261 70.2501 18.6633 71.8632 18.5684C72.48 18.521 73.0019 18.948 73.0493 19.5648C73.0968 20.1816 72.6223 20.7034 72.0056 20.7034C71.6893 20.7351 71.3571 20.7509 71.0092 20.7509C69.4436 20.7509 68.0202 20.5137 66.7392 20.3239C65.221 20.0867 63.7977 19.8969 63.2283 20.1816C62.6116 20.4662 61.8999 21.51 61.1882 22.5063C60.9984 22.791 60.6189 22.9808 60.2868 22.9808Z" fill="white"/>
<path d="M52.6482 28.1522C52.0315 28.1522 51.557 27.6778 51.557 27.061C51.557 26.4917 52.0315 25.9698 52.6482 25.9698C53.2808 25.9698 53.8976 25.8749 54.4986 25.6851C54.7832 25.5902 55.0837 25.4637 55.4 25.3056C55.9219 25.0683 56.5861 25.2581 56.8233 25.8274C57.108 26.3493 56.9182 27.0136 56.3489 27.2982C55.9693 27.488 55.574 27.6461 55.1628 27.7727C54.3404 28.0257 53.5022 28.1522 52.6482 28.1522Z" fill="white"/>
<path d="M41.3564 6.565C41.0718 6.565 40.7871 6.47011 40.5973 6.23289C40.3759 6.04311 40.1387 5.85333 39.8857 5.66355C39.3638 5.33144 39.2215 4.66722 39.5536 4.14533C39.8857 3.67089 40.5499 3.52855 41.0718 3.81322C41.4513 4.06626 41.7993 4.35092 42.1156 4.66722C42.5426 5.09422 42.5426 5.80589 42.1156 6.23289C41.9258 6.47011 41.6411 6.565 41.3564 6.565Z" fill="white"/>
<path d="M31.4406 9.64889C31.4089 9.64889 31.3931 9.64889 31.3931 9.64889C30.8238 9.64889 30.3019 9.127 30.3493 8.55767C30.3493 7.27667 30.7763 6.138 31.7252 4.99934C33.4807 2.95922 35.758 2.67456 36.9916 2.67456C37.5609 2.67456 38.0828 3.149 38.0828 3.76578C38.0828 4.33511 37.5609 4.857 36.9916 4.857C36.1376 4.857 34.5719 5.04678 33.3858 6.42267C32.8164 7.13434 32.5318 7.79856 32.5318 8.55767C32.4843 9.127 32.0099 9.64889 31.4406 9.64889Z" fill="white"/>
<path d="M17.8714 113.457C17.6817 113.457 17.5077 113.41 17.3496 113.315C16.8277 113.03 16.6379 112.366 16.9226 111.844C19.959 106.056 26.6012 101.881 32.7216 101.881C34.4296 101.881 36.0901 102.213 37.5609 102.877C40.7871 104.301 42.6849 107.1 43.3491 111.37C43.444 111.939 43.017 112.508 42.4477 112.603C41.8309 112.698 41.309 112.271 41.2141 111.702C40.6448 108.144 39.2689 106.009 36.6594 104.87C35.4733 104.348 34.1449 104.063 32.7216 104.063C27.3603 104.063 21.5247 107.764 18.8203 112.888C18.6306 113.268 18.251 113.457 17.8714 113.457Z" fill="#E3D2C8"/>
<path d="M127.041 96.2824C126.472 96.2824 125.997 95.808 125.95 95.2387C125.855 93.3409 126.472 91.4905 127.753 89.7825C129.508 87.4103 132.165 86.2242 135.676 86.2242C137.764 86.2242 139.946 86.6038 142.603 87.2205C143.172 87.3629 143.552 87.9797 143.409 88.549C143.267 89.1183 142.698 89.4979 142.081 89.3555C139.614 88.7862 137.574 88.4067 135.676 88.4067C132.924 88.4067 130.837 89.3081 129.508 91.111C128.512 92.392 128.085 93.7204 128.132 95.0963C128.18 95.7131 127.705 96.235 127.089 96.2824C127.089 96.2824 127.073 96.2824 127.041 96.2824Z" fill="#E3D2C8"/>
<path d="M75.0895 130.3C80.4981 137.654 73.1917 148.566 65.221 146.241C59.8123 144.628 57.0131 137.369 61.2831 131.012C65.648 124.559 72.3851 126.647 75.0895 130.3Z" fill="#FCECDE"/>
<path d="M63.6553 133.716C63.4339 133.716 63.2283 133.653 63.0386 133.526C62.5641 133.194 62.4218 132.53 62.7539 132.008C64.2721 129.731 66.1224 128.592 68.3049 128.592C70.772 128.592 72.7647 130.063 73.6661 131.344C74.0457 131.818 73.9508 132.53 73.4289 132.862C72.9544 133.242 72.2902 133.147 71.9107 132.625C71.2464 131.771 69.8231 130.775 68.3049 130.775C66.8816 130.775 65.648 131.581 64.5568 133.242C64.367 133.526 63.9874 133.716 63.6553 133.716Z" fill="white"/>
<path d="M132.118 20.7983C135.818 20.5137 141.844 23.0757 137.669 27.1084C136.103 28.6741 134.063 29.623 131.88 30.0026C120.873 31.758 120.826 21.7472 132.118 20.7983Z" fill="#FCECDE"/>
<path d="M126.519 27.5354C125.902 27.5354 125.428 27.1084 125.428 26.4917C125.333 24.8785 127.943 22.9333 132.307 22.5538C134.015 22.4114 135.961 23.0757 136.767 23.7399C137.242 24.072 137.337 24.7837 137.004 25.2581C136.625 25.7325 135.961 25.8274 135.439 25.4479C135.107 25.2107 133.968 24.7362 132.782 24.7362C132.655 24.7362 132.545 24.7362 132.45 24.7362C129.129 25.0209 127.8 26.207 127.563 26.5865C127.516 27.1084 127.089 27.5354 126.567 27.5354C126.535 27.5354 126.519 27.5354 126.519 27.5354Z" fill="white"/>
<path d="M28.072 26.3019C26.791 36.5024 11.846 38.1155 10.3278 25.7325C10.0906 23.5501 10.2329 21.2253 11.5139 19.4699C15.5941 13.8714 29.353 15.959 28.072 26.3019Z" fill="#FCECDE"/>
<path d="M13.1744 26.4917C12.6051 26.4917 12.1307 26.0647 12.0832 25.4953C11.7986 23.3129 12.0832 21.6049 12.9372 20.4662C13.981 19.0429 16.0686 18.1889 18.4882 18.1889C21.0502 18.1889 23.4699 19.1852 24.8932 20.7509C25.2728 21.2253 25.2253 21.8896 24.7983 22.3166C24.3239 22.6961 23.6597 22.6487 23.2327 22.2217C22.2838 21.083 20.386 20.3713 18.4882 20.3713C16.7802 20.3713 15.3094 20.9407 14.6927 21.7947C14.2182 22.4114 14.0284 23.645 14.2657 25.2581C14.3131 25.8274 13.8861 26.3968 13.3168 26.4442C13.2535 26.4759 13.2061 26.4917 13.1744 26.4917Z" fill="white"/>
<path d="M77.177 151.128C78.1259 152.789 80.3083 153.595 82.0638 152.931C83.7243 152.314 84.863 150.511 84.6732 148.756C84.4834 147.001 83.0127 145.435 81.2572 145.198C79.5018 144.96 77.6514 146.004 76.9872 147.665C76.5128 148.756 76.6077 150.084 77.177 151.128Z" fill="#FCECDE"/>
<path d="M16.3058 7.70366C17.0175 9.22189 19.1525 9.93355 20.6232 9.03211C21.9042 8.22555 22.3787 6.37522 21.667 5.04678C20.9079 3.71833 19.105 3.149 17.7291 3.81322C16.3532 4.47744 15.689 6.28033 16.3058 7.70366Z" fill="#FCECDE"/>
<path d="M153.847 101.027C147.537 93.1986 135.012 94.3372 140.136 103.447C142.081 106.863 146.541 109.092 149.72 109.567C154.464 110.326 157.785 105.914 153.847 101.027Z" fill="#FCECDE"/>
<path d="M151.617 103.921C151.285 103.921 151.001 103.779 150.763 103.494C148.676 100.932 145.734 99.7459 143.789 99.7459C143.362 99.7459 143.077 99.7933 142.888 99.8408C142.935 100.173 143.125 100.742 143.552 101.501C143.884 102.023 143.694 102.687 143.172 102.972C142.603 103.304 141.939 103.114 141.654 102.593C140.705 100.885 140.468 99.4612 140.895 98.6547C141.322 97.9904 142.413 97.5634 143.789 97.5634C146.256 97.5634 149.957 98.9868 152.471 102.118C152.851 102.593 152.756 103.304 152.329 103.684C152.092 103.826 151.855 103.921 151.617 103.921Z" fill="white"/>
<path d="M29.2107 121.997C29.3056 120.242 28.072 118.534 26.364 118.059C24.7035 117.585 22.7582 118.392 21.9042 119.957C20.813 121.997 22.0466 124.891 24.2765 125.556C26.5063 126.172 29.1158 124.322 29.2107 121.997Z" fill="#FCECDE"/>
<path d="M34.5244 134.475C34.7142 131.771 32.3894 129.114 29.6851 128.924C26.9333 128.734 24.2764 131.012 24.0867 133.764C23.8969 136.468 26.2217 139.125 28.926 139.315C31.6778 139.504 34.3347 137.227 34.5244 134.475Z" fill="#FCECDE"/>
</svg>
