<svg width="133" height="111" viewBox="0 0 133 111" fill="none" xmlns="http://www.w3.org/2000/svg">
<g clip-path="url(#clip0_488_94)">
<path d="M31.9138 80.3563C27.6958 82.8158 23.7368 84.9539 18.8828 85.6885C15.7188 86.1013 16.2158 90.5153 19.3448 90.4167C24.8898 90.3316 31.0218 88.9752 35.4283 85.3912C38.5706 82.8761 35.3428 78.4138 31.9138 80.3563Z" fill="white"/>
<path d="M59.0286 59.0546C56.0542 62.6383 53.1286 66.3547 49.6023 69.4635C47.291 71.3708 49.6385 74.8764 52.3201 73.3601C56.7545 70.6701 60.9513 67.5401 63.8558 63.1533C66.0341 59.8631 61.7937 55.925 59.0286 59.0546Z" fill="white"/>
<path d="M90.1372 33.8687C91.3726 30.4741 86.8738 26.8572 84.3393 30.2033C80.5201 35.3796 77.9374 41.4566 74.3488 46.8493C73.3295 48.5817 75.1601 51.2981 77.0804 49.7611C82.2757 45.6601 87.9247 40.3367 90.1372 33.8687Z" fill="white"/>
<path d="M101.181 9.44832C102.06 6.10961 96.7936 3.68034 94.8248 6.51645C93.4563 8.52826 92.947 10.8261 92.2142 13.1311C91.5652 15.2545 90.6926 17.385 90.316 19.634C90.0232 21.7014 92.7055 23.0488 94.1299 21.3931C95.5962 19.6467 96.7411 17.6419 97.8442 15.728C99.1218 13.6743 100.539 11.7952 101.181 9.44832Z" fill="white"/>
<path d="M72.4134 76.3521C65.6254 79.6084 59.6481 84.45 53.3842 88.7189C50.8004 90.5005 53.5112 94.1736 56.1928 92.6574C62.5268 89.1916 69.4545 86.1099 75.2224 81.7224C77.7992 79.7173 75.6747 74.7728 72.4134 76.3521Z" fill="white"/>
<path d="M96.7624 49.5887C93.2645 55.0232 89.8156 60.5905 84.8019 64.7753C82.8397 66.4032 84.9567 69.6924 87.2332 68.0994C93.0501 63.8445 98.3641 59.2475 101.512 52.6605C102.811 49.8455 98.5567 46.8923 96.7624 49.5887Z" fill="white"/>
<path d="M117.012 27.6528C117.116 23.8463 111.556 23.4845 110.083 26.4392C108.827 29.1634 108.695 32.0759 107.256 34.7163C105.784 37.671 103.905 40.549 101.42 42.596C99.4991 44.1331 101.462 46.8005 103.439 45.6197C109.807 41.8397 116.86 35.6219 117.012 27.6528Z" fill="white"/>
</g>
<defs>
<clipPath id="clip0_488_94">
<rect width="111" height="133" fill="white" transform="matrix(0 1 -1 0 133 0)"/>
</clipPath>
</defs>
</svg>
