<svg width="197" height="118" viewBox="0 0 197 118" fill="none" xmlns="http://www.w3.org/2000/svg">
<path d="M28.5 80.3H34.5V78.7H28.5V80.3Z" fill="#2B201F"/>
<path d="M28.5 117.3H34.5V115.7H28.5V117.3Z" fill="#2B201F"/>
<path d="M22.2 98C22.2 108.7 27.5 117.3 34.1 117.3C40.7 117.3 46.1 108.7 46.1 98C46.1 87.4 40.7 78.8 34.1 78.8C27.5 78.8 22.2 87.4 22.2 98Z" fill="#2B201F"/>
<path d="M16.5 98C16.5 108.7 21.9 117.3 28.5 117.3C35.1 117.3 40.4 108.7 40.4 98C40.4 87.4 35.1 78.8 28.5 78.8C21.9 78.8 16.5 87.4 16.5 98Z" fill="#473A37"/>
<path d="M18.3 97.7C18.3 106.8 22.8 114.1 28.5 114.1C34.1 114.1 38.7 106.8 38.7 97.7C38.7 88.7 34.1 81.4 28.5 81.4C22.8 81.4 18.3 88.7 18.3 97.7Z" fill="#FCA438"/>
<path d="M21.1 90.2C21.1 93.6 22.8 96.4 24.9 96.4C27.1 96.4 28.8 93.6 28.8 90.2C28.8 86.8 27.1 84.1 24.9 84.1C22.8 84.1 21.1 86.8 21.1 90.2Z" fill="#B7B334"/>
<path d="M88.5 80.3H94.5V78.7H88.5V80.3Z" fill="#2B201F"/>
<path d="M88.5 117.3H94.5V115.7H88.5V117.3Z" fill="#2B201F"/>
<path d="M82.2 98C82.2 108.7 87.5 117.3 94.1 117.3C100.7 117.3 106.1 108.7 106.1 98C106.1 87.4 100.7 78.8 94.1 78.8C87.5 78.8 82.2 87.4 82.2 98Z" fill="#2B201F"/>
<path d="M76.5 98C76.5 108.7 81.9 117.3 88.5 117.3C95.1 117.3 100.5 108.7 100.5 98C100.5 87.4 95.1 78.8 88.5 78.8C81.9 78.8 76.5 87.4 76.5 98Z" fill="#473A37"/>
<path d="M78.3 97.7C78.3 106.8 82.9 114.1 88.5 114.1C94.1 114.1 98.7 106.8 98.7 97.7C98.7 88.7 94.1 81.4 88.5 81.4C82.9 81.4 78.3 88.7 78.3 97.7Z" fill="#FCA438"/>
<path d="M81.1 90.2C81.1 93.6 82.8 96.4 84.9 96.4C87.1 96.4 88.8 93.6 88.8 90.2C88.8 86.8 87.1 84.1 84.9 84.1C82.8 84.1 81.1 86.8 81.1 90.2Z" fill="#B7B334"/>
<path d="M159.3 80.3H165.4V78.7H159.3V80.3Z" fill="#2B201F"/>
<path d="M159.3 117.3H165.4V115.7H159.3V117.3Z" fill="#2B201F"/>
<path d="M153 98C153 108.7 158.4 117.3 165 117.3C171.6 117.3 177 108.7 177 98C177 87.4 171.6 78.8 165 78.8C158.4 78.8 153 87.4 153 98Z" fill="#2B201F"/>
<path d="M147.4 98C147.4 108.7 152.7 117.3 159.3 117.3C165.9 117.3 171.3 108.7 171.3 98C171.3 87.4 165.9 78.8 159.3 78.8C152.7 78.8 147.4 87.4 147.4 98Z" fill="#473A37"/>
<path d="M149.2 97.7C149.2 106.8 153.7 114.1 159.3 114.1C165 114.1 169.5 106.8 169.5 97.7C169.5 88.7 165 81.4 159.3 81.4C153.7 81.4 149.2 88.7 149.2 97.7Z" fill="#FCA438"/>
<path d="M152 90.2C152 93.6 153.7 96.4 155.8 96.4C157.9 96.4 159.6 93.6 159.6 90.2C159.6 86.8 157.9 84.1 155.8 84.1C153.7 84.1 152 86.8 152 90.2Z" fill="#B7B334"/>
<path d="M11 8.60001C10.8667 9.20001 10.8 9.83333 10.8 10.5V93.3C10.8 98.9 15.4 103.5 21 103.5H176.6C182.3 103.5 186.8 98.9 186.8 93.3V10.5C186.8 9.83333 186.733 9.20001 186.6 8.60001H11Z" fill="#FCA438"/>
<path d="M114.5 8.60001H62.6H59.2H10.9C10.7667 9.20001 10.7 9.83333 10.7 10.5V93.3C10.7 98.9 15.3 103.5 20.9 103.5H59.2H62.6H104.5C110.1 103.5 114.7 98.9 114.7 93.3V10.5C114.7 9.9 114.6 9.20001 114.5 8.60001Z" fill="#E8D94F"/>
<path d="M95.2 0.100006H5.70001C2.70001 0.100006 0.299988 2.49999 0.299988 5.39999C0.299988 8.39999 2.70001 10.8 5.70001 10.8H95.2V0.100006Z" fill="#FCA438"/>
<path d="M191 0.100006H82.3V10.8H191C193.9 10.8 196.3 8.39999 196.3 5.39999C196.3 2.49999 193.9 0.100006 191 0.100006Z" fill="#FCA438"/>
<path d="M66.1 77.1C66.1 77.9 65.4 78.6 64.6 78.6H22.6C21.7 78.6 21 77.9 21 77.1C21 76.2 21.7 75.5 22.6 75.5H64.6C65.4 75.5 66.1 76.2 66.1 77.1Z" fill="#FCA438"/>
<path d="M66.1 81.7C66.1 82.6 65.4 83.3 64.6 83.3H22.6C21.7 83.3 21 82.6 21 81.7C21 80.9 21.7 80.2 22.6 80.2H64.6C65.4 80.2 66.1 80.9 66.1 81.7Z" fill="#FCA438"/>
<path d="M66.1 86.4C66.1 87.3 65.4 88 64.6 88H22.6C21.7 88 21 87.3 21 86.4C21 85.6 21.7 84.9 22.6 84.9H64.6C65.4 84.9 66.1 85.6 66.1 86.4Z" fill="#FCA438"/>
<path d="M47.3 89.8H35.7H33.1H22.6C21.7 89.8 21 90.5 21 91.4C21 92.2 21.7 92.9 22.6 92.9H33.1H35.7H47.3C48.1 92.9 48.8 92.2 48.8 91.4C48.8 90.5 48.1 89.8 47.3 89.8Z" fill="#FCA438"/>
<path d="M174.6 64L155.3 31.8C153.5 28.8 149.6 27.8 146.5 29.6C143.5 31.4 142.5 35.3 144.3 38.4L157.9 61.1L140.5 60.9L143.9 55.5L144.4 54.7C144.8 54.1 145.5 54 146 54.3L146.5 54.6C147.1 55 147.4 54.7 147.2 54.1L144.8 43.4C144.7 42.8 144.1 42.4 143.5 42.5L132.9 45.2C132.3 45.3 132.2 45.7 132.7 46.1L133.2 46.4C133.7 46.6 133.9 47.2 133.7 47.6L123.8 63.4C121.9 66.4 122.8 70.3 125.7 72.2C126.7 72.8 127.8 73.1 128.8 73.2C129.4 73.4 130.033 73.5 130.7 73.5L168.2 74.1C169.333 74.0333 170.4 73.7666 171.4 73.3C171.733 73.1666 172.067 73 172.4 72.8C175.4 71 176.4 67 174.6 64Z" fill="white"/>
</svg>
