<svg width="197" height="348" viewBox="0 0 197 348" fill="none" xmlns="http://www.w3.org/2000/svg">
<path d="M28.4 310.3H34.4V308.7H28.4V310.3Z" fill="#2B201F"/>
<path d="M28.4 347.3H34.4V345.7H28.4V347.3Z" fill="#2B201F"/>
<path d="M22.1 328C22.1 338.7 27.4 347.3 34 347.3C40.7 347.3 46 338.7 46 328C46 317.4 40.7 308.8 34 308.8C27.4 308.8 22.1 317.4 22.1 328Z" fill="#2B201F"/>
<path d="M16.4 328C16.4 338.7 21.8 347.3 28.4 347.3C35 347.3 40.4 338.7 40.4 328C40.4 317.4 35 308.8 28.4 308.8C21.8 308.8 16.4 317.4 16.4 328Z" fill="#473A37"/>
<path d="M18.2 327.7C18.2 336.8 22.8 344.1 28.4 344.1C34 344.1 38.6 336.8 38.6 327.7C38.6 318.7 34 311.4 28.4 311.4C22.8 311.4 18.2 318.7 18.2 327.7Z" fill="#B7B334"/>
<path d="M21.1 320.2C21.1 323.6 22.8 326.4 24.9 326.4C27 326.4 28.7 323.6 28.7 320.2C28.7 316.8 27 314.1 24.9 314.1C22.8 314.1 21.1 316.8 21.1 320.2Z" fill="#B7B334"/>
<path d="M88.4 310.3H94.5V308.7H88.4V310.3Z" fill="#2B201F"/>
<path d="M88.4 347.3H94.5V345.7H88.4V347.3Z" fill="#2B201F"/>
<path d="M82.1 328C82.1 338.7 87.5 347.3 94.1 347.3C100.7 347.3 106 338.7 106 328C106 317.4 100.7 308.8 94.1 308.8C87.5 308.8 82.1 317.4 82.1 328Z" fill="#2B201F"/>
<path d="M76.4 328C76.4 338.7 81.8 347.3 88.4 347.3C95 347.3 100.4 338.7 100.4 328C100.4 317.4 95 308.8 88.4 308.8C81.8 308.8 76.4 317.4 76.4 328Z" fill="#473A37"/>
<path d="M78.2 327.7C78.2 336.8 82.8 344.1 88.4 344.1C94 344.1 98.6 336.8 98.6 327.7C98.6 318.7 94 311.4 88.4 311.4C82.8 311.4 78.2 318.7 78.2 327.7Z" fill="#B7B334"/>
<path d="M81.1 320.2C81.1 323.6 82.8 326.4 84.9 326.4C87 326.4 88.7 323.6 88.7 320.2C88.7 316.8 87 314.1 84.9 314.1C82.8 314.1 81.1 316.8 81.1 320.2Z" fill="#B7B334"/>
<path d="M159.3 310.3H165.3V308.7H159.3V310.3Z" fill="#2B201F"/>
<path d="M159.3 347.3H165.3V345.7H159.3V347.3Z" fill="#2B201F"/>
<path d="M153 328C153 338.7 158.3 347.3 164.9 347.3C171.5 347.3 176.9 338.7 176.9 328C176.9 317.4 171.5 308.8 164.9 308.8C158.3 308.8 153 317.4 153 328Z" fill="#2B201F"/>
<path d="M147.3 328C147.3 338.7 152.7 347.3 159.3 347.3C165.9 347.3 171.2 338.7 171.2 328C171.2 317.4 165.9 308.8 159.3 308.8C152.7 308.8 147.3 317.4 147.3 328Z" fill="#473A37"/>
<path d="M149.1 327.7C149.1 336.8 153.6 344.1 159.3 344.1C164.9 344.1 169.5 336.8 169.5 327.7C169.5 318.7 164.9 311.4 159.3 311.4C153.6 311.4 149.1 318.7 149.1 327.7Z" fill="#B7B334"/>
<path d="M151.9 320.2C151.9 323.6 153.6 326.4 155.7 326.4C157.9 326.4 159.6 323.6 159.6 320.2C159.6 316.8 157.9 314.1 155.7 314.1C153.6 314.1 151.9 316.8 151.9 320.2Z" fill="#B7B334"/>
<path d="M10.9 8.8C10.7667 9.4 10.7 10.0333 10.7 10.7V323.3C10.7 328.9 15.3 333.5 20.9 333.5H176.6C182.2 333.5 186.8 328.9 186.8 323.3V10.7C186.8 10.0333 186.733 9.4 186.6 8.8H10.9Z" fill="#B7B334"/>
<path d="M114.4 8.8H62.5H59.1H10.8C10.6667 9.4 10.6 10.0333 10.6 10.7V323.3C10.6 328.9 15.2 333.5 20.8 333.5H59.1H62.5H104.4C110.1 333.5 114.6 328.9 114.6 323.3V10.7C114.6 10.1 114.6 9.4 114.4 8.8Z" fill="#D6D63A"/>
<path d="M95.1 0.300003H5.60001C2.70001 0.300003 0.299988 2.70001 0.299988 5.60001C0.299988 8.60001 2.70001 11 5.60001 11H95.1V0.300003Z" fill="#B7B334"/>
<path d="M190.9 0.300003H82.3V11H190.9C193.9 11 196.3 8.60001 196.3 5.60001C196.3 2.70001 193.9 0.300003 190.9 0.300003Z" fill="#B7B334"/>
<path d="M66.1 307.1C66.1 307.9 65.4 308.6 64.5 308.6H22.5C21.7 308.6 21 307.9 21 307.1C21 306.2 21.7 305.5 22.5 305.5H64.5C65.4 305.5 66.1 306.2 66.1 307.1Z" fill="#B7B334"/>
<path d="M66.1 311.7C66.1 312.6 65.4 313.3 64.5 313.3H22.5C21.7 313.3 21 312.6 21 311.7C21 310.9 21.7 310.2 22.5 310.2H64.5C65.4 310.2 66.1 310.9 66.1 311.7Z" fill="#B7B334"/>
<path d="M66.1 316.4C66.1 317.3 65.4 318 64.5 318H22.5C21.7 318 21 317.3 21 316.4C21 315.6 21.7 314.9 22.5 314.9H64.5C65.4 314.9 66.1 315.6 66.1 316.4Z" fill="#B7B334"/>
<path d="M47.2 319.8H35.6H33H22.5C21.7 319.8 21 320.5 21 321.4C21 322.2 21.7 322.9 22.5 322.9H33H35.6H47.2C48.1 322.9 48.8 322.2 48.8 321.4C48.8 320.5 48.1 319.8 47.2 319.8Z" fill="#B7B334"/>
<path d="M174.5 64.2L155.2 32C153.4 29 149.5 28 146.5 29.8C143.4 31.6 142.4 35.5 144.3 38.6L157.9 61.3L140.4 61.1L143.8 55.7V55.8L144.4 54.9C144.7 54.3 145.4 54.2 145.9 54.5L146.5 54.8C147 55.2 147.3 54.9 147.2 54.3L144.7 43.6C144.6 43 144 42.6 143.4 42.8L132.8 45.4C132.2 45.6 132.1 45.9 132.7 46.3L133.2 46.6C133.6 46.9 133.8 47.4 133.7 47.8L123.7 63.6C121.8 66.6 122.7 70.5 125.7 72.4C126.6 73 127.7 73.3 128.8 73.4C129.333 73.6 129.933 73.7 130.6 73.7L168.1 74.3C169.3 74.3 170.367 74.0333 171.3 73.5C171.633 73.3667 171.967 73.2 172.3 73C175.3 71.2 176.3 67.2 174.5 64.2Z" fill="white"/>
</svg>
