<svg width="127" height="143" viewBox="0 0 127 143" fill="none" xmlns="http://www.w3.org/2000/svg">
<path fill-rule="evenodd" clip-rule="evenodd" d="M125.3 47.4002C115.7 78.2002 107.8 110.4 96 140.5C95.9 140.7 95.7 140.9 95.5 140.9C95.5 141.3 95.2 141.7 94.7 141.7C94.6333 141.7 94.5667 141.7 94.5 141.7C94.3 142.1 93.7 142.3 93.2 142.1C93 141.967 92.8 141.833 92.6 141.7C71.9 141.7 51 138.4 30.8 133.8C24.8 132.4 10.9 130.1 4.20001 123.9C3.90001 123.9 3.60001 123.8 3.40001 123.4C3.40001 123.267 3.36667 123.1 3.3 122.9C1.2 120.6 0.100006 117.8 0.700006 114.4C0.800006 113.8 1.00001 113.2 1.20001 112.6C0.800006 99.7002 7.40001 85.3002 10.8 74.0002C16.9 53.4002 22.9 32.5002 30.5 12.4002C36 -1.89985 45.9 -0.699845 59.3 2.40015C78.1 6.60015 96.5 12.7002 113.9 21.1002C114.6 21.4002 114.8 22.0002 114.6 22.5002C115.7 22.4002 117 23.2002 116.7 24.6002C116.367 26.2668 116.033 27.9335 115.7 29.6002C116 29.8002 116.1 30.1002 116.1 30.5002C116 37.4002 119.7 42.7001 125.8 45.7001C126.6 46.1001 126.1 47.3002 125.3 47.4002ZM5.1 107.2C12.1 101.7 25.4 101.7 32.4 102.4C51.7 104.4 70.9 111.8 89.5 117.4C93 101.8 98.6 86.6002 102.6 71.1002C106.7 55.5002 110.2 39.7002 113.4 23.8002C113.1 23.9002 112.7 23.9002 112.3 23.7002C97.2 17.2002 81.8 11.5002 65.8 7.40015C62.1 6.50015 58.4 5.60015 54.7 4.90015C48.4 3.70015 45.8 2.90015 40.2 6.70015C32.5 11.8002 31.1 21.6002 28.3 30.2002C23.4333 45.0668 18.7667 60.0002 14.3 75.0002C11.4 84.8002 6.8 96.2001 5.1 107.2ZM51.5 134.1C52.2333 134.167 52.9667 134.267 53.7 134.4C46.2 133.1 38.9 131.3 31.8 129C31.4 128.8 31.6 128.3 32 128.3C50.1 131.4 67.9 134.3 86.2 135.7C85.4 134.5 84.8 133.1 84.4 131.7C84.2667 131.833 84.1 131.9 83.9 131.9C60.2 129.9 36 123.8 13.1 117.5C12.3 117.3 12.6 116.1 13.4 116.3C36.9 121.1 60.8 124.6 84 130.1C83.9333 129.767 83.9 129.433 83.9 129.1C83.7 126.9 84.2 124.6 85.2 122.8C85 122.9 84.7 123.1 84.4 123C63.6 118.2 43 114.3 21.8 112C21 112 21 110.7 21.8 110.7C43 112.5 64.3 115.7 84.8 121.4C85.4 121.5 85.5 122 85.4 122.4C85.9 121.5 86.6 120.7 87.4 120C75 116.6 62.6 113.1 50.2 109.8C43.1 107.9 36 106.3 28.7 105.9C24.8 105.7 20.4 105.8 16.5 106.8C14.0333 107.133 11.8 108.033 9.80001 109.5C5.53334 110.567 5.06667 113.133 8.40001 117.2C10.5 124.5 13.7 125.2 20.4 127.3C24.1 128.4 28 129.3 31.8 130.1C38.3333 131.567 44.9 132.9 51.5 134.1ZM89.1 139.1C88.5667 138.633 88.0667 138.1 87.6 137.5C87.6 137.5 87.5667 137.5 87.5 137.5C78.7 137.4 69.6 136.8 60.6 135.5C70.1 136.9 79.6 137.9 89.1 139.1ZM122.9 46.5002C118.8 44.7002 115.8 40.9001 114.4 36.7001C109.1 64.2001 102.8 93.1001 91.6 118.4C92.3 119.4 91.5 121.1 89.9 120.7C87.3 123.2 86 126.6 87 130.4C87.9 134.3 90.9 136.9 93.7 139.7C94.0333 139.767 94.3667 139.8 94.7 139.8C101.2 108.4 112.8 77.0002 122.9 46.5002Z" fill="#F2F2F2"/>
<path fill-rule="evenodd" clip-rule="evenodd" d="M92.0006 76.1999C89.0006 84.1999 86.0006 92.2999 82.9006 100.3C82.6006 101.1 81.9006 101.6 81.1006 101.4C63.5006 96.7999 45.8006 92.7999 28.1006 88.7999C27.2006 88.5999 27.4006 87.5999 28.0006 87.2999C27.5006 87.0999 27.1006 86.4999 27.3006 85.7999C29.7673 78.2666 32.234 70.6999 34.7006 63.0999C34.9006 62.3999 35.6006 61.9999 36.4006 62.1999C54.6006 66.0999 72.7006 70.0999 90.8006 74.1999C91.6006 74.2999 92.3006 75.3999 92.0006 76.1999ZM86.8006 77.5999C85.2006 74.5999 74.2006 73.6999 70.6006 72.8999C64.134 71.4333 57.634 69.9666 51.1006 68.4999C45.3006 67.1999 39.2006 63.7999 35.5006 69.5999C32.7006 74.0999 31.6006 81.3999 30.0006 86.4999C29.8006 86.9999 29.5006 87.1999 29.1006 87.3999C42.1006 89.4999 54.9006 92.0999 67.6006 95.0999C74.7006 96.6999 79.0006 99.4999 82.5006 92.5999C84.0006 89.7999 88.3006 80.2999 86.8006 77.5999Z" fill="#F2F2F2"/>
<path d="M76.3007 88.3999C62.5007 85.7999 48.7007 83.1999 35.0007 80.0999C34.1007 79.8999 33.8007 81.1999 34.6007 81.4999C48.0007 85.6999 62.1007 88.7999 76.1007 90.2999C77.2007 90.3999 77.4007 88.5999 76.3007 88.3999Z" fill="#F2F2F2"/>
<path d="M78.5007 84.6C66.4007 79.9 53.3007 77 40.6007 74.9C39.7007 74.8 39.3007 76.1 40.2007 76.3C53.0007 79.1 65.4007 82.9 78.0007 86.4C79.2007 86.7 79.6007 85.1 78.5007 84.6Z" fill="#F2F2F2"/>
<path d="M34.2008 97.7003C28.8008 96.4003 22.7008 96.4003 17.3008 97.4003C16.6008 97.5003 16.8008 98.7003 17.5008 98.6003C23.1008 98.5003 28.3008 98.8003 33.9008 99.3003C34.9008 99.4003 35.0008 97.9003 34.2008 97.7003Z" fill="#F2F2F2"/>
<path d="M37.2002 94.9001C33.0002 92.8001 27.6002 92.1001 23.1002 93.3001C22.6002 93.5001 22.7002 94.3001 23.2002 94.2001C28.1002 93.8001 32.0002 94.4001 36.6002 96.2001C37.4002 96.5001 37.9002 95.3001 37.2002 94.9001Z" fill="#F2F2F2"/>
<path d="M102.3 23.2999C97.9003 20.6999 92.7003 19.2 87.7003 18.4C86.9003 18.3 86.5003 19.4999 87.4003 19.6999C92.3003 20.7999 96.8003 22.6 101.4 24.9C102.4 25.4 103.3 23.8999 102.3 23.2999Z" fill="#F2F2F2"/>
<path d="M101.5 26.2002C98.0002 24.2002 93.8002 22.8002 89.8002 22.2002C89.2002 22.2002 89.0002 23.0002 89.5002 23.1002C93.5002 24.2002 97.1002 25.7002 100.7 27.6002C101.6 28.1002 102.4 26.7002 101.5 26.2002Z" fill="#F2F2F2"/>
</svg>
