<svg width="59" height="120" viewBox="0 0 59 120" fill="none" xmlns="http://www.w3.org/2000/svg">
<path fill-rule="evenodd" clip-rule="evenodd" d="M58.4992 113.8C58.7992 116.4 56.5992 119 54.0992 119.7C52.1992 120.3 50.2992 119.7 48.8992 118.5C48.0992 118.9 46.9992 118.6 46.9992 117.5C46.8992 114.8 46.3992 112.5 45.5992 110.4C45.4659 110.4 45.3659 110.4 45.2992 110.4C35.2992 110.6 25.2992 111 15.3992 111.2C15.5992 112.2 15.7992 113.2 16.0992 114.2C16.7992 114.3 17.2992 114.9 17.0992 115.6C15.9992 118.8 11.0992 119.6 8.49921 117.6C8.09921 117.6 7.5992 117.4 7.2992 116.9C1.4992 109 1.6992 99.1002 7.2992 91.0002C8.6992 89.1002 10.3992 87.5002 12.2992 86.1002C12.2325 86.1002 12.1992 86.1002 12.1992 86.1002C-13.4008 79.5002 9.89918 50.8002 23.0992 42.7002C18.3992 40.1002 13.6992 37.3002 10.7992 33.2002C4.5992 24.6002 2.89918 13.8002 6.59918 3.90022C6.39918 3.50022 6.49922 2.80022 7.19922 2.50022C9.49922 1.60022 12.0992 0.800209 14.5992 1.80021C16.1992 2.50021 17.3992 3.90023 17.5992 5.60023C18.2992 5.40023 18.9992 5.80023 18.9992 6.70023C18.7992 8.90023 18.6992 11.2002 18.7992 13.3002C27.0992 13.1002 35.4992 13.2002 43.8992 13.5002C44.0992 10.6002 43.8992 7.70021 43.4992 4.80021C43.4325 4.60021 43.4659 4.40023 43.5992 4.20023C42.8992 4.30023 42.3992 3.40021 42.8992 2.80021C46.6992 -1.19979 54.4992 -0.499779 57.1992 4.50022C57.4992 5.10022 57.1992 5.70022 56.7992 6.00022C61.0992 18.8002 52.0992 30.4002 42.9992 38.8002C50.0992 43.2002 54.2992 50.2002 54.2992 58.7002C54.2992 67.7002 49.2992 75.8002 42.3992 81.3002C39.6992 83.4002 36.7992 85.0002 33.7992 86.4002C46.6992 88.1002 56.8992 100 57.6992 112.9C58.0992 113 58.3992 113.3 58.4992 113.8ZM46.4992 13.6002C46.8325 13.6002 47.1326 13.6002 47.3992 13.6002C48.8992 13.6002 48.8992 16.0002 47.3992 15.9002C47.0659 15.9002 46.7326 15.9002 46.3992 15.9002C45.6992 23.6002 41.9992 31.3002 35.9992 35.4002C37.7992 36.2002 39.5992 37.0002 41.2992 37.9002C49.4992 28.6002 58.7992 18.5002 53.6992 5.10023C53.5992 4.90023 53.6992 4.70022 53.6992 4.40022C50.9992 2.40022 47.5992 2.00021 44.4992 3.80021C44.6992 3.90021 44.8992 4.00022 45.0992 4.40022C46.0992 7.20022 46.5992 10.3002 46.4992 13.6002ZM14.6992 115C14.6992 115 14.6659 114.967 14.5992 114.9C14.0659 113.634 13.5992 112.4 13.1992 111.2C13.1992 111.2 13.1659 111.2 13.0992 111.2C12.3992 111.2 12.2992 110.4 12.8992 110.1C10.3992 101.2 13.8992 95.7002 19.5992 91.2002C18.7992 90.7002 19.0992 89.3002 20.1992 89.6002C20.5992 89.6669 20.9992 89.7669 21.3992 89.9002C31.1992 83.2002 45.5992 78.6002 49.8992 66.8002C54.1992 55.3002 49.3992 45.0002 38.8992 39.6002C33.8992 37.1002 28.1992 35.7002 23.6992 32.2002C15.7992 25.9002 15.4992 16.4002 16.5992 7.20023C16.0992 7.20023 15.4992 6.90021 15.3992 6.30021C14.4992 3.10021 11.1992 3.50023 8.59918 4.10023C8.59918 4.23356 8.59918 4.33355 8.59918 4.40022C5.19918 23.0002 13.9992 34.6002 29.7992 42.6002C36.6992 46.1002 41.8992 50.7002 43.0992 58.7002C44.2992 66.9002 40.5992 74.2002 33.7992 78.6002C29.1992 81.5002 23.6992 82.8002 18.9992 85.5002C8.19921 91.9002 3.29922 104.1 10.1992 115.2C10.4992 115.6 10.4992 115.9 10.4992 116.3C11.0992 116.4 11.7992 116.4 12.5992 116.2C13.3992 116 14.0992 115.5 14.6992 115ZM12.8992 84.5002C13.2992 84.7002 13.3992 85.1002 13.2992 85.5002C15.1992 84.2002 17.2992 83.0002 19.3992 81.9002C19.3992 81.9002 19.3659 81.9002 19.2992 81.9002C14.1992 80.9002 11.6992 76.5002 11.0992 71.7002C11.0992 71.6336 11.0992 71.5669 11.0992 71.5002C10.7992 69.3002 10.9992 67.1002 11.3992 65.1002C13.5992 56.1002 21.2992 50.1002 29.2992 46.3002C27.8992 45.4335 26.4326 44.6002 24.8992 43.8002C13.5992 52.3002 -9.00077 74.4002 12.8992 84.5002ZM20.0992 81.6002C25.0992 79.1002 30.2992 76.8002 34.0992 73.5002C27.2992 73.5002 20.4992 73.1002 13.7992 72.5002C14.3992 75.8002 16.2992 78.8002 19.8992 80.6002C20.2992 80.8002 20.2992 81.2002 20.0992 81.6002ZM34.5992 71.5002C34.9992 71.6002 35.2992 71.9002 35.3992 72.2002C37.5992 70.0002 39.0992 67.3002 39.4992 63.9002C31.4992 63.9002 23.2992 63.2002 15.2992 62.7002C15.2325 62.7002 15.1659 62.7002 15.0992 62.7002C13.9992 65.3002 13.3992 68.2002 13.5992 70.9002C20.5992 70.7002 27.5992 71.0002 34.5992 71.5002ZM39.6992 61.8002C39.6992 61.7335 39.6992 61.6669 39.6992 61.6002C39.6992 59.1002 39.0992 57.0002 38.1992 55.1002C38.0992 55.4002 37.7992 55.6002 37.3992 55.5002C32.0992 54.9002 26.7992 54.5002 21.3992 54.4002C19.7992 55.7002 18.3992 57.2002 17.1992 58.9002C16.6659 59.6336 16.1992 60.4335 15.7992 61.3002C23.6992 61.3002 31.7992 61.2002 39.6992 61.8002ZM37.4992 53.7002C35.9992 51.5002 33.9992 49.6002 31.5992 47.9002C28.6992 49.5002 25.6992 51.1002 22.9992 53.1002C27.7992 52.9002 32.6992 53.1002 37.3992 53.7002C37.3992 53.7002 37.4325 53.7002 37.4992 53.7002ZM18.7992 14.7002C18.9992 18.3002 19.4992 21.6002 21.0992 24.6002C27.1992 24.2002 33.4992 24.0002 39.5992 24.3002C40.6992 24.4002 40.6992 26.1002 39.5992 26.1002C33.6992 26.5002 27.6992 26.2002 21.7992 25.9002C23.2992 28.2002 25.4992 30.3002 28.5992 32.0002C30.1992 33.0002 31.9992 33.8002 33.7992 34.5002C37.3992 30.1002 40.7992 26.5002 42.5992 21.0002C43.0992 19.3002 43.4992 17.6002 43.6992 15.8002C35.3992 15.7002 27.0992 15.4002 18.7992 14.7002ZM15.6992 100.5C22.7992 99.5002 29.7992 99.3002 36.8992 99.9002C32.4992 96.7002 27.1992 94.4002 21.9992 92.3002C18.8992 94.6002 16.7992 97.2002 15.6992 100.5ZM44.6992 108.5C43.2992 105.7 41.2992 103.5 38.9992 101.5C38.7992 101.8 38.5992 102 38.0992 101.9C30.4992 101.2 22.8992 101.2 15.2992 101.8C15.2992 101.8 15.2659 101.8 15.1992 101.8C14.6659 104.2 14.6325 106.867 15.0992 109.8C24.8992 108.7 34.7992 108.4 44.6992 108.5ZM55.9992 115C55.4992 114.8 55.1992 114.4 55.0992 113.8C54.2992 100.1 43.8992 90.2002 30.7992 88.0002C30.6659 87.9336 30.5659 87.9002 30.4992 87.9002C29.8325 88.1669 29.1326 88.4669 28.3992 88.8002C26.9326 89.4002 25.5659 90.0669 24.2992 90.8002C36.4992 94.8002 50.4992 102.6 49.4992 117C50.6992 117.8 52.1992 118.1 53.5992 117.6C54.8992 117.2 55.5992 116.2 55.9992 115Z" fill="#F2F2F2"/>
<path d="M48.299 100.8C45.499 97.6003 41.699 95.2003 37.599 94.0003C36.799 93.8003 36.499 94.9002 37.199 95.1002C41.099 96.7002 44.199 99.1002 46.999 102.1C47.799 103 49.099 101.7 48.299 100.8Z" fill="#F2F2F2"/>
<path d="M10.7994 76.9001C9.59936 76.0001 8.79935 74.7001 8.59935 73.2001C8.29935 71.7001 8.79935 70.6001 9.09935 69.1001C9.29935 68.3001 8.29935 67.6001 7.59935 68.2001C4.89935 71.1001 7.09937 76.1001 9.99937 77.9001C10.5994 78.3001 11.2994 77.3001 10.7994 76.9001Z" fill="#F2F2F2"/>
<path d="M50.2993 16.9001C48.7993 19.3001 47.8993 22.4001 46.8993 25.1001C46.5993 25.8001 47.7993 26.3001 48.0993 25.6001C49.3993 23.1001 51.0993 20.4001 51.8993 17.6001C52.1993 16.6001 50.7993 16.1001 50.2993 16.9001Z" fill="#F2F2F2"/>
</svg>
